<svg width="9" height="14" viewBox="0 0 9 14" fill="none" xmlns="http://www.w3.org/2000/svg">
<path fill-rule="evenodd" clip-rule="evenodd" d="M4.50002 0C4.60777 0 4.7111 0.0526784 4.78729 0.146447C4.86347 0.240215 4.90627 0.367392 4.90627 0.5V12.293L7.4624 9.146C7.53868 9.05211 7.64214 8.99937 7.75002 8.99937C7.8579 8.99937 7.96137 9.05211 8.03765 9.146C8.11393 9.23989 8.15679 9.36722 8.15679 9.5C8.15679 9.63278 8.11393 9.76011 8.03765 9.854L4.78765 13.854C4.74991 13.9006 4.70508 13.9375 4.65573 13.9627C4.60637 13.9879 4.55346 14.0009 4.50002 14.0009C4.44659 14.0009 4.39368 13.9879 4.34432 13.9627C4.29497 13.9375 4.25014 13.9006 4.2124 13.854L0.9624 9.854C0.886117 9.76011 0.843262 9.63278 0.843262 9.5C0.843262 9.36722 0.886117 9.23989 0.9624 9.146C1.03868 9.05211 1.14214 8.99937 1.25002 8.99937C1.35791 8.99937 1.46137 9.05211 1.53765 9.146L4.09377 12.293V0.5C4.09377 0.367392 4.13658 0.240215 4.21276 0.146447C4.28895 0.0526784 4.39228 0 4.50002 0Z" fill="black"/>
</svg>
