<svg width="16" height="16" viewBox="0 0 16 16" fill="none" xmlns="http://www.w3.org/2000/svg">
<g clip-path="url(#clip0)">
<path d="M11.4122 0.0507413C12.2148 0.087644 12.7697 0.205601 13.2823 0.404612C13.7685 0.586365 14.2086 0.873008 14.5713 1.24415C14.9425 1.60691 15.2291 2.047 15.4108 2.53311C15.6099 3.04645 15.7278 3.60065 15.7647 4.40329C15.8102 5.39834 15.8155 5.74892 15.8155 7.90773C15.8155 10.0665 15.8102 10.4171 15.7647 11.4122C15.7278 12.2148 15.6099 12.7697 15.4108 13.283C15.229 13.7689 14.9424 14.2087 14.5713 14.5713C14.2086 14.9425 13.7685 15.2291 13.2823 15.4108C12.769 15.6099 12.2148 15.7278 11.4122 15.7647C10.4171 15.8102 10.0672 15.8155 7.90773 15.8155C5.74826 15.8155 5.39768 15.8102 4.40329 15.7647C3.60065 15.7278 3.04579 15.6099 2.53245 15.4108C2.04656 15.229 1.6067 14.9424 1.24415 14.5713C0.873008 14.2086 0.586365 13.7685 0.404612 13.2823C0.205601 12.769 0.087644 12.2148 0.0507413 11.4122C0.00527182 10.4184 0 10.0679 0 7.90773C0 5.74826 0.00527182 5.39703 0.0507413 4.40329C0.087644 3.60065 0.205601 3.04579 0.404612 2.53311C0.586365 2.047 0.873008 1.60691 1.24415 1.24415C1.60672 0.873088 2.04657 0.586451 2.53245 0.404612C3.04645 0.205601 3.60065 0.087644 4.40329 0.0507413C5.39703 0.00527182 5.7476 0 7.90773 0C10.0672 0 10.4184 0.00527182 11.4122 0.0507413ZM7.90773 1.75749C5.77264 1.75749 5.44579 1.76211 4.48302 1.80626C3.87215 1.83393 3.50576 1.91169 3.16902 2.04283C2.88237 2.15486 2.69983 2.27347 2.48632 2.48632C2.27281 2.69983 2.1542 2.88237 2.04283 3.16902C1.91235 3.5051 1.83393 3.87215 1.80626 4.48302C1.76211 5.44579 1.75749 5.77264 1.75749 7.90773C1.75749 10.0428 1.76211 10.3697 1.80626 11.3324C1.83393 11.9433 1.91169 12.3097 2.04283 12.6458C2.15486 12.9331 2.27347 13.1156 2.48632 13.3291C2.69983 13.5426 2.88237 13.6613 3.16902 13.7726C3.5051 13.9031 3.87215 13.9815 4.48302 14.0092C5.44645 14.0534 5.7733 14.058 7.90773 14.058C10.0428 14.058 10.369 14.0534 11.3324 14.0092C11.9433 13.9815 12.3097 13.9038 12.6464 13.7726C12.9331 13.6606 13.1156 13.542 13.3291 13.3291C13.5426 13.1156 13.6613 12.9331 13.7726 12.6464C13.9031 12.3104 13.9815 11.9433 14.0092 11.3324C14.0534 10.369 14.058 10.0422 14.058 7.90773C14.058 5.7733 14.0534 5.44645 14.0092 4.48302C13.9815 3.87215 13.9038 3.50576 13.7726 3.16968C13.6794 2.91076 13.5277 2.67688 13.3291 2.48632C13.1386 2.28778 12.9047 2.13599 12.6458 2.04283C12.3097 1.91235 11.9426 1.83393 11.3318 1.80626C10.369 1.76211 10.0422 1.75749 7.90707 1.75749H7.90773ZM7.90773 12.0079C6.8203 12.0079 5.77741 11.5759 5.00848 10.807C4.23955 10.038 3.80757 8.99516 3.80757 7.90773C3.80757 6.8203 4.23955 5.77741 5.00848 5.00848C5.77741 4.23955 6.8203 3.80757 7.90773 3.80757C8.99516 3.80757 10.038 4.23955 10.807 5.00848C11.5759 5.77741 12.0079 6.8203 12.0079 7.90773C12.0079 8.99516 11.5759 10.038 10.807 10.807C10.038 11.5759 8.99516 12.0079 7.90773 12.0079ZM7.90773 10.2511C8.52922 10.2511 9.12525 10.0042 9.56471 9.56471C10.0042 9.12525 10.2511 8.52922 10.2511 7.90773C10.2511 7.28624 10.0042 6.69021 9.56471 6.25075C9.12525 5.81129 8.52922 5.56441 7.90773 5.56441C7.28624 5.56441 6.69021 5.81129 6.25075 6.25075C5.81129 6.69021 5.56441 7.28624 5.56441 7.90773C5.56441 8.52922 5.81129 9.12525 6.25075 9.56471C6.69021 10.0042 7.28624 10.2511 7.90773 10.2511ZM12.0079 4.68599C11.7748 4.68599 11.5513 4.59341 11.3865 4.42861C11.2217 4.26381 11.1291 4.0403 11.1291 3.80724C11.1291 3.57418 11.2217 3.35067 11.3865 3.18587C11.5513 3.02108 11.7748 2.9285 12.0079 2.9285C12.2409 2.9285 12.4645 3.02108 12.6293 3.18587C12.7941 3.35067 12.8866 3.57418 12.8866 3.80724C12.8866 4.0403 12.7941 4.26381 12.6293 4.42861C12.4645 4.59341 12.2409 4.68599 12.0079 4.68599Z" fill="#033B31"/>
</g>
<defs>
<clipPath id="clip0">
<rect width="15.8155" height="15.8155" fill="white"/>
</clipPath>
</defs>
</svg>
