<svg width="16" height="16" viewBox="0 0 16 16" fill="none" xmlns="http://www.w3.org/2000/svg">
<path fill-rule="evenodd" clip-rule="evenodd" d="M13.515 2.31028C12.7853 1.57578 11.9171 0.993372 10.9607 0.596805C10.0043 0.200237 8.97868 -0.00260616 7.94333 2.52778e-05C3.60183 2.52778e-05 0.0675617 3.53341 0.0658069 7.87667C0.0658069 9.26475 0.428183 10.6195 1.11696 11.8145L0 15.8955L4.17566 14.7995C5.3307 15.4283 6.62473 15.758 7.93982 15.7586H7.94333C12.2839 15.7586 15.8182 12.2252 15.82 7.88193C15.823 6.847 15.6208 5.82173 15.2251 4.8654C14.8295 3.90906 14.2483 3.04063 13.515 2.31028ZM7.94333 14.4293H7.94069C6.76803 14.4294 5.61695 14.1139 4.60823 13.5159L4.36958 13.3737L1.89173 14.0239L2.55243 11.6084L2.39712 11.3609C1.7415 10.3172 1.39443 9.10926 1.39598 7.87667C1.39774 4.26694 4.33448 1.3302 7.94596 1.3302C8.80605 1.32829 9.65799 1.49698 10.4525 1.82652C11.2469 2.15605 11.9681 2.63988 12.5744 3.25001C13.1839 3.85722 13.6669 4.57921 13.9957 5.37425C14.3245 6.16929 14.4924 7.0216 14.4898 7.88193C14.488 11.4917 11.5513 14.4293 7.94333 14.4293ZM11.5346 9.52535C11.3372 9.4262 10.3703 8.95063 10.1895 8.88483C10.0097 8.81902 9.87893 8.78656 9.74731 8.9831C9.6157 9.17964 9.2384 9.62274 9.12346 9.75436C9.00852 9.88597 8.89358 9.90176 8.69703 9.80349C8.50049 9.70522 7.86611 9.49727 7.11416 8.82692C6.52892 8.30485 6.13408 7.66082 6.01913 7.4634C5.90419 7.26598 6.00685 7.15981 6.106 7.06154C6.19462 6.9738 6.30254 6.83165 6.40081 6.71671C6.49908 6.60177 6.53155 6.52017 6.59736 6.38855C6.66316 6.25694 6.6307 6.142 6.58069 6.04373C6.53155 5.94458 6.13759 4.9759 5.97351 4.58194C5.81469 4.20026 5.65237 4.25115 5.53129 4.24588C5.40588 4.24075 5.28038 4.23841 5.15487 4.23886C5.05507 4.24141 4.95687 4.26454 4.86643 4.30682C4.77598 4.3491 4.69525 4.4096 4.62929 4.48454C4.44854 4.68196 3.94051 5.15753 3.94051 6.1262C3.94051 7.09488 4.64596 8.03109 4.74424 8.16271C4.84251 8.29432 6.13232 10.2817 8.10653 11.1345C8.57683 11.3372 8.94359 11.4583 9.22875 11.5496C9.69993 11.6996 10.129 11.6777 10.4686 11.6277C10.8467 11.5715 11.6329 11.1521 11.797 10.6923C11.9611 10.2326 11.9611 9.83859 11.9119 9.75611C11.8628 9.67363 11.7303 9.62362 11.5346 9.52535Z" fill="#033B31"/>
</svg>
