<svg width="30" height="30" viewBox="0 0 30 30" fill="none" xmlns="http://www.w3.org/2000/svg">
<circle cx="15" cy="15" r="15" fill="#9F5030"/>
<g clip-path="url(#clip0)">
<path d="M18.4122 7.05074C19.2148 7.08764 19.7697 7.2056 20.2823 7.40461C20.7685 7.58637 21.2086 7.87301 21.5713 8.24415C21.9425 8.60691 22.2291 9.047 22.4108 9.53311C22.6099 10.0465 22.7278 10.6007 22.7647 11.4033C22.8102 12.3983 22.8155 12.7489 22.8155 14.9077C22.8155 17.0665 22.8102 17.4171 22.7647 18.4122C22.7278 19.2148 22.6099 19.7697 22.4108 20.283C22.229 20.7689 21.9424 21.2087 21.5713 21.5713C21.2086 21.9425 20.7685 22.2291 20.2823 22.4108C19.769 22.6099 19.2148 22.7278 18.4122 22.7647C17.4171 22.8102 17.0672 22.8155 14.9077 22.8155C12.7483 22.8155 12.3977 22.8102 11.4033 22.7647C10.6007 22.7278 10.0458 22.6099 9.53245 22.4108C9.04656 22.229 8.6067 21.9424 8.24415 21.5713C7.87301 21.2086 7.58637 20.7685 7.40461 20.2823C7.2056 19.769 7.08764 19.2148 7.05074 18.4122C7.00527 17.4184 7 17.0679 7 14.9077C7 12.7483 7.00527 12.397 7.05074 11.4033C7.08764 10.6007 7.2056 10.0458 7.40461 9.53311C7.58637 9.047 7.87301 8.60691 8.24415 8.24415C8.60672 7.87309 9.04657 7.58645 9.53245 7.40461C10.0465 7.2056 10.6007 7.08764 11.4033 7.05074C12.397 7.00527 12.7476 7 14.9077 7C17.0672 7 17.4184 7.00527 18.4122 7.05074ZM14.9077 8.75749C12.7726 8.75749 12.4458 8.76211 11.483 8.80626C10.8722 8.83393 10.5058 8.91169 10.169 9.04283C9.88237 9.15486 9.69983 9.27347 9.48632 9.48632C9.27281 9.69983 9.1542 9.88237 9.04283 10.169C8.91235 10.5051 8.83393 10.8722 8.80626 11.483C8.76211 12.4458 8.75749 12.7726 8.75749 14.9077C8.75749 17.0428 8.76211 17.3697 8.80626 18.3324C8.83393 18.9433 8.91169 19.3097 9.04283 19.6458C9.15486 19.9331 9.27347 20.1156 9.48632 20.3291C9.69983 20.5426 9.88237 20.6613 10.169 20.7726C10.5051 20.9031 10.8722 20.9815 11.483 21.0092C12.4464 21.0534 12.7733 21.058 14.9077 21.058C17.0428 21.058 17.369 21.0534 18.3324 21.0092C18.9433 20.9815 19.3097 20.9038 19.6464 20.7726C19.9331 20.6606 20.1156 20.542 20.3291 20.3291C20.5426 20.1156 20.6613 19.9331 20.7726 19.6464C20.9031 19.3104 20.9815 18.9433 21.0092 18.3324C21.0534 17.369 21.058 17.0422 21.058 14.9077C21.058 12.7733 21.0534 12.4464 21.0092 11.483C20.9815 10.8722 20.9038 10.5058 20.7726 10.1697C20.6794 9.91076 20.5277 9.67688 20.3291 9.48632C20.1386 9.28778 19.9047 9.13599 19.6458 9.04283C19.3097 8.91235 18.9426 8.83393 18.3318 8.80626C17.369 8.76211 17.0422 8.75749 14.9071 8.75749H14.9077ZM14.9077 19.0079C13.8203 19.0079 12.7774 18.5759 12.0085 17.807C11.2396 17.038 10.8076 15.9952 10.8076 14.9077C10.8076 13.8203 11.2396 12.7774 12.0085 12.0085C12.7774 11.2396 13.8203 10.8076 14.9077 10.8076C15.9952 10.8076 17.038 11.2396 17.807 12.0085C18.5759 12.7774 19.0079 13.8203 19.0079 14.9077C19.0079 15.9952 18.5759 17.038 17.807 17.807C17.038 18.5759 15.9952 19.0079 14.9077 19.0079ZM14.9077 17.2511C15.5292 17.2511 16.1253 17.0042 16.5647 16.5647C17.0042 16.1253 17.2511 15.5292 17.2511 14.9077C17.2511 14.2862 17.0042 13.6902 16.5647 13.2507C16.1253 12.8113 15.5292 12.5644 14.9077 12.5644C14.2862 12.5644 13.6902 12.8113 13.2507 13.2507C12.8113 13.6902 12.5644 14.2862 12.5644 14.9077C12.5644 15.5292 12.8113 16.1253 13.2507 16.5647C13.6902 17.0042 14.2862 17.2511 14.9077 17.2511ZM19.0079 11.686C18.7748 11.686 18.5513 11.5934 18.3865 11.4286C18.2217 11.2638 18.1291 11.0403 18.1291 10.8072C18.1291 10.5742 18.2217 10.3507 18.3865 10.1859C18.5513 10.0211 18.7748 9.9285 19.0079 9.9285C19.2409 9.9285 19.4645 10.0211 19.6293 10.1859C19.7941 10.3507 19.8866 10.5742 19.8866 10.8072C19.8866 11.0403 19.7941 11.2638 19.6293 11.4286C19.4645 11.5934 19.2409 11.686 19.0079 11.686Z" fill="white"/>
</g>
<defs>
<clipPath id="clip0">
<rect width="15.8155" height="15.8155" fill="white" transform="translate(7 7)"/>
</clipPath>
</defs>
</svg>
