<svg width="16" height="17" viewBox="0 0 16 17" fill="none" xmlns="http://www.w3.org/2000/svg">
<path d="M11.5839 16.3785C12.9273 16.3785 13.8409 15.9879 14.6699 15.0738C14.7237 15.0113 14.7774 14.941 14.8311 14.8785C15.2841 14.3629 15.5067 13.8238 15.5067 13.3238C15.5067 12.7379 15.1996 12.2066 14.5164 11.7301L12.2288 10.1051C11.5072 9.59724 10.6704 9.55818 10.0256 10.2144L9.45751 10.7926C9.25791 10.9957 9.066 11.0113 8.8357 10.8472C8.42116 10.566 7.63814 9.86287 7.10078 9.31599C6.55574 8.7613 6.00302 8.1363 5.70363 7.65974C5.54243 7.41755 5.55778 7.23005 5.75737 7.02693L6.32544 6.4488C6.97028 5.79255 6.93189 4.94099 6.42524 4.20662L4.79779 1.83943C4.34487 1.16755 3.79983 0.855054 3.22408 0.847241C2.73278 0.839429 2.21077 1.06599 1.70411 1.51912C1.6427 1.5738 1.58128 1.62849 1.51987 1.68318C0.606352 2.53474 0.214844 3.4488 0.214844 4.87068C0.214844 7.17537 1.52755 9.89412 4.08387 12.4801C6.62483 15.0504 9.26559 16.3785 11.5839 16.3785ZM11.5839 15.0738C9.62639 15.1051 7.1929 13.691 5.0588 11.5347C2.90934 9.37849 1.48149 6.80818 1.51219 4.81599C1.52755 3.98005 1.81926 3.24568 2.39501 2.73005C2.45642 2.68318 2.50248 2.64412 2.56389 2.59724C2.77884 2.40974 3.00914 2.30818 3.22408 2.30818C3.4467 2.30818 3.6463 2.40193 3.79983 2.6363L5.23536 4.83162C5.4196 5.09724 5.42728 5.40193 5.15859 5.66755L4.54446 6.28474C3.96104 6.86287 4.01478 7.54255 4.38325 8.0738C4.79779 8.65974 5.57313 9.55818 6.22565 10.2144C6.92422 10.9176 7.87612 11.7847 8.42884 12.191C8.95085 12.566 9.61872 12.6207 10.1868 12.0269L10.7932 11.4019C11.0466 11.1285 11.346 11.1363 11.6146 11.316L13.7334 12.7535C13.9714 12.9097 14.0558 13.1051 14.0558 13.3316C14.0558 13.5504 13.956 13.7847 13.7718 14.0113C13.7257 14.066 13.6873 14.1129 13.6413 14.1754C13.1346 14.7691 12.413 15.066 11.5839 15.0738Z" fill="#F2F2F2"/>
</svg>
