<svg width="14" height="16" viewBox="0 0 14 16" fill="none" xmlns="http://www.w3.org/2000/svg">
<path d="M12.8393 6.51852C12.8393 11.0815 7.0747 14.9926 7.0747 14.9926C7.0747 14.9926 1.31006 11.0815 1.31006 6.51852C1.31006 4.96258 1.9174 3.47038 2.99848 2.37016C4.07956 1.26995 5.54582 0.651855 7.0747 0.651855C8.60357 0.651855 10.0698 1.26995 11.1509 2.37016C12.232 3.47038 12.8393 4.96258 12.8393 6.51852Z" stroke="#F2F2F2" stroke-width="1.5" stroke-linecap="round" stroke-linejoin="round"/>
<path d="M7.0747 8.47408C8.13594 8.47408 8.99624 7.59855 8.99624 6.51852C8.99624 5.4385 8.13594 4.56297 7.0747 4.56297C6.01346 4.56297 5.15315 5.4385 5.15315 6.51852C5.15315 7.59855 6.01346 8.47408 7.0747 8.47408Z" stroke="#F2F2F2" stroke-width="1.5" stroke-linecap="round" stroke-linejoin="round"/>
</svg>
