<svg width="30" height="30" viewBox="0 0 30 30" fill="none" xmlns="http://www.w3.org/2000/svg">
<circle cx="15" cy="15" r="15" fill="#9F5030"/>
<path fill-rule="evenodd" clip-rule="evenodd" d="M20.515 9.31028C19.7853 8.57578 18.9171 7.99337 17.9607 7.5968C17.0043 7.20024 15.9787 6.99739 14.9433 7.00003C10.6018 7.00003 7.06756 10.5334 7.06581 14.8767C7.06581 16.2648 7.42818 17.6195 8.11696 18.8145L7 22.8955L11.1757 21.7995C12.3307 22.4283 13.6247 22.758 14.9398 22.7586H14.9433C19.2839 22.7586 22.8182 19.2252 22.82 14.8819C22.823 13.847 22.6208 12.8217 22.2251 11.8654C21.8295 10.9091 21.2483 10.0406 20.515 9.31028ZM14.9433 21.4293H14.9407C13.768 21.4294 12.617 21.1139 11.6082 20.5159L11.3696 20.3737L8.89173 21.0239L9.55243 18.6084L9.39712 18.3609C8.7415 17.3172 8.39443 16.1093 8.39598 14.8767C8.39774 11.2669 11.3345 8.3302 14.946 8.3302C15.8061 8.32829 16.658 8.49698 17.4525 8.82652C18.2469 9.15605 18.9681 9.63988 19.5744 10.25C20.1839 10.8572 20.6669 11.5792 20.9957 12.3742C21.3245 13.1693 21.4924 14.0216 21.4898 14.8819C21.488 18.4917 18.5513 21.4293 14.9433 21.4293ZM18.5346 16.5253C18.3372 16.4262 17.3703 15.9506 17.1895 15.8848C17.0097 15.819 16.8789 15.7866 16.7473 15.9831C16.6157 16.1796 16.2384 16.6227 16.1235 16.7544C16.0085 16.886 15.8936 16.9018 15.697 16.8035C15.5005 16.7052 14.8661 16.4973 14.1142 15.8269C13.5289 15.3049 13.1341 14.6608 13.0191 14.4634C12.9042 14.266 13.0068 14.1598 13.106 14.0615C13.1946 13.9738 13.3025 13.8317 13.4008 13.7167C13.4991 13.6018 13.5315 13.5202 13.5974 13.3886C13.6632 13.2569 13.6307 13.142 13.5807 13.0437C13.5315 12.9446 13.1376 11.9759 12.9735 11.5819C12.8147 11.2003 12.6524 11.2511 12.5313 11.2459C12.4059 11.2408 12.2804 11.2384 12.1549 11.2389C12.0551 11.2414 11.9569 11.2645 11.8664 11.3068C11.776 11.3491 11.6953 11.4096 11.6293 11.4845C11.4485 11.682 10.9405 12.1575 10.9405 13.1262C10.9405 14.0949 11.646 15.0311 11.7442 15.1627C11.8425 15.2943 13.1323 17.2817 15.1065 18.1345C15.5768 18.3372 15.9436 18.4583 16.2288 18.5496C16.6999 18.6996 17.129 18.6777 17.4686 18.6277C17.8467 18.5715 18.6329 18.1521 18.797 17.6923C18.9611 17.2326 18.9611 16.8386 18.9119 16.7561C18.8628 16.6736 18.7303 16.6236 18.5346 16.5253Z" fill="white"/>
</svg>
