<svg width="16" height="14" viewBox="0 0 16 14" fill="none" xmlns="http://www.w3.org/2000/svg">
<path d="M2.36826 13.111H13.5124C14.8459 13.111 15.6197 12.3235 15.6197 10.8188V3.04927C15.6197 1.54458 14.839 0.75708 13.3466 0.75708H2.20245C0.869019 0.75708 0.0952148 1.53755 0.0952148 3.04927V10.8188C0.0952148 12.3235 0.875928 13.111 2.36826 13.111ZM7.08018 7.17661L2.05045 2.11411C2.14718 2.09302 2.25772 2.07896 2.37517 2.07896H13.3397C13.4641 2.07896 13.5746 2.09302 13.6782 2.12114L8.65543 7.17661C8.36525 7.46489 8.12344 7.59145 7.8678 7.59145C7.61217 7.59145 7.37036 7.45786 7.08018 7.17661ZM1.38719 3.1477L5.14567 6.90942L1.38719 10.6922V3.1477ZM10.5899 6.90942L14.3277 3.1688V10.6782L10.5899 6.90942ZM2.37517 11.7821C2.25081 11.7821 2.13336 11.768 2.02973 11.7469L5.98856 7.75317L6.36165 8.13286C6.866 8.63208 7.34963 8.84302 7.8678 8.84302C8.37907 8.84302 8.8696 8.63208 9.36705 8.13286L9.74704 7.75317L13.699 11.7399C13.5884 11.768 13.471 11.7821 13.3397 11.7821H2.37517Z" fill="#F2F2F2"/>
</svg>
