<svg width="40" height="40" viewBox="0 0 28 28" fill="none" xmlns="http://www.w3.org/2000/svg">
<path d="M23.1875 8.96875C22.6251 8.96875 22.0753 9.13553 21.6076 9.44801C21.1399 9.76048 20.7755 10.2046 20.5602 10.7242C20.345 11.2439 20.2887 11.8157 20.3984 12.3673C20.5081 12.9189 20.779 13.4256 21.1767 13.8233C21.5744 14.221 22.0811 14.4919 22.6327 14.6016C23.1843 14.7113 23.7561 14.655 24.2758 14.4398C24.7954 14.2245 25.2395 13.8601 25.552 13.3924C25.8645 12.9248 26.0313 12.3749 26.0313 11.8125C26.0304 11.0586 25.7305 10.3357 25.1974 9.80263C24.6643 9.26951 23.9414 8.96962 23.1875 8.96875ZM23.1875 13.3438C22.8847 13.3438 22.5886 13.2539 22.3368 13.0857C22.085 12.9174 21.8887 12.6783 21.7728 12.3985C21.6569 12.1187 21.6266 11.8108 21.6857 11.5138C21.7448 11.2167 21.8906 10.9439 22.1047 10.7297C22.3189 10.5156 22.5917 10.3698 22.8888 10.3107C23.1858 10.2516 23.4937 10.2819 23.7735 10.3978C24.0533 10.5137 24.2924 10.71 24.4607 10.9618C24.6289 11.2136 24.7188 11.5096 24.7188 11.8125C24.7183 12.2185 24.5568 12.6077 24.2697 12.8947C23.9827 13.1818 23.5935 13.3433 23.1875 13.3438ZM7.65625 11.8125C7.65625 11.2501 7.48947 10.7003 7.17699 10.2326C6.86452 9.76495 6.42038 9.40046 5.90076 9.18522C5.38113 8.96998 4.80935 8.91367 4.25771 9.02339C3.70608 9.13312 3.19937 9.40396 2.80167 9.80167C2.40396 10.1994 2.13312 10.7061 2.02339 11.2577C1.91367 11.8093 1.96998 12.3811 2.18522 12.9008C2.40046 13.4204 2.76495 13.8645 3.2326 14.177C3.70025 14.4895 4.25006 14.6563 4.8125 14.6563C5.56644 14.6554 6.28926 14.3555 6.82238 13.8224C7.3555 13.2893 7.65538 12.5664 7.65625 11.8125ZM4.8125 13.3438C4.50965 13.3438 4.2136 13.2539 3.96178 13.0857C3.70997 12.9174 3.51371 12.6783 3.39781 12.3985C3.28191 12.1187 3.25159 11.8108 3.31067 11.5138C3.36976 11.2167 3.5156 10.9439 3.72974 10.7297C3.94389 10.5156 4.21674 10.3698 4.51377 10.3107C4.8108 10.2516 5.11869 10.2819 5.39849 10.3978C5.67828 10.5137 5.91743 10.71 6.08569 10.9618C6.25395 11.2136 6.34375 11.5096 6.34375 11.8125C6.34329 12.2185 6.18181 12.6077 5.89475 12.8947C5.60768 13.1818 5.21847 13.3433 4.8125 13.3438ZM10.0625 9.40625C10.6249 9.40625 11.1748 9.23947 11.6424 8.92699C12.1101 8.61452 12.4745 8.17038 12.6898 7.65076C12.905 7.13113 12.9613 6.55935 12.8516 6.00771C12.7419 5.45608 12.471 4.94937 12.0733 4.55167C11.6756 4.15396 11.1689 3.88312 10.6173 3.77339C10.0657 3.66367 9.49387 3.71998 8.97425 3.93522C8.45462 4.15046 8.01049 4.51495 7.69801 4.9826C7.38553 5.45025 7.21875 6.00006 7.21875 6.5625C7.21962 7.31644 7.51951 8.03926 8.05263 8.57238C8.58574 9.1055 9.30856 9.40538 10.0625 9.40625ZM10.0625 5.03125C10.3654 5.03125 10.6614 5.12106 10.9132 5.28931C11.165 5.45757 11.3613 5.69672 11.4772 5.97652C11.5931 6.25632 11.6234 6.5642 11.5643 6.86123C11.5052 7.15827 11.3594 7.43111 11.1453 7.64526C10.9311 7.85941 10.6583 8.00525 10.3612 8.06433C10.0642 8.12341 9.75632 8.09309 9.47652 7.97719C9.19672 7.86129 8.95757 7.66503 8.78931 7.41322C8.62106 7.16141 8.53125 6.86535 8.53125 6.5625C8.53171 6.15653 8.69319 5.76732 8.98026 5.48026C9.26732 5.19319 9.65653 5.03171 10.0625 5.03125ZM17.9375 9.40625C18.4999 9.40625 19.0498 9.23947 19.5174 8.92699C19.9851 8.61452 20.3496 8.17038 20.5648 7.65076C20.78 7.13113 20.8363 6.55935 20.7266 6.00771C20.6169 5.45608 20.346 4.94937 19.9483 4.55167C19.5506 4.15396 19.0439 3.88312 18.4923 3.77339C17.9407 3.66367 17.3689 3.71998 16.8492 3.93522C16.3296 4.15046 15.8855 4.51495 15.573 4.9826C15.2605 5.45025 15.0938 6.00006 15.0938 6.5625C15.0946 7.31644 15.3945 8.03926 15.9276 8.57238C16.4607 9.1055 17.1836 9.40538 17.9375 9.40625ZM17.9375 5.03125C18.2404 5.03125 18.5364 5.12106 18.7882 5.28931C19.04 5.45757 19.2363 5.69672 19.3522 5.97652C19.4681 6.25632 19.4984 6.5642 19.4393 6.86123C19.3802 7.15827 19.2344 7.43111 19.0203 7.64526C18.8061 7.85941 18.5333 8.00525 18.2362 8.06433C17.9392 8.12341 17.6313 8.09309 17.3515 7.97719C17.0717 7.86129 16.8326 7.66503 16.6643 7.41322C16.4961 7.16141 16.4063 6.86535 16.4063 6.5625C16.4067 6.15653 16.5682 5.76732 16.8553 5.48026C17.1423 5.19319 17.5315 5.03171 17.9375 5.03125ZM20.3573 16.4713C19.4107 15.9477 18.7107 15.0698 18.4111 14.0304C18.1335 13.0753 17.5533 12.2361 16.7579 11.639C15.9625 11.0418 14.9948 10.719 14.0002 10.7189C13.0055 10.7189 12.0378 11.0416 11.2423 11.6387C10.4468 12.2358 9.86664 13.0749 9.58891 14.03C9.29012 15.0686 8.5912 15.946 7.64575 16.4696C6.7075 16.9781 6.00076 17.828 5.6719 18.8433C5.34303 19.8586 5.41723 20.9614 5.87913 21.9235C6.34102 22.8856 7.15524 23.6331 8.15315 24.0114C9.15107 24.3897 10.2562 24.3697 11.2398 23.9555C13.0049 23.2263 14.987 23.2252 16.7529 23.9526C17.736 24.3689 18.8417 24.391 19.8407 24.0142C20.8397 23.6375 21.6554 22.8908 22.1188 21.929C22.5823 20.9671 22.6578 19.8638 22.3299 18.8478C22.0019 17.8317 21.2956 16.9808 20.3573 16.4713ZM18.375 22.9688C17.9912 22.9693 17.6113 22.8919 17.2583 22.7413C15.1689 21.8791 12.8231 21.8802 10.7345 22.7443C10.0609 23.0296 9.30332 23.0443 8.61911 22.7856C7.93491 22.5268 7.37668 22.0145 7.0604 21.3549C6.74413 20.6953 6.69411 19.9392 6.92074 19.2437C7.14737 18.5482 7.63323 17.9667 8.27739 17.6201C8.89684 17.278 9.44282 16.8172 9.88414 16.2641C10.3255 15.7109 10.6535 15.0762 10.8495 14.3963C11.0478 13.7141 11.4621 13.1146 12.0303 12.6881C12.5985 12.2616 13.2897 12.031 14.0002 12.0311C14.7106 12.0311 15.4019 12.2617 15.97 12.6883C16.5382 13.1148 16.9525 13.7143 17.1508 14.3965C17.3467 15.0764 17.6746 15.7111 18.1159 16.2642C18.5572 16.8174 19.1032 17.2781 19.7226 17.6202L19.7285 17.6234C20.2849 17.9246 20.725 18.4028 20.9792 18.9822C21.2333 19.5617 21.2869 20.2093 21.1316 20.8227C20.9763 21.4361 20.6209 21.9802 20.1216 22.3688C19.6224 22.7575 19.0077 22.9686 18.375 22.9688Z" fill="#033B31"/>
</svg>
