<svg width="24" height="24" viewBox="0 0 24 24" fill="none" xmlns="http://www.w3.org/2000/svg">
<path d="M12 23C13.9891 23 15.8968 22.2098 17.3033 20.8033C18.7098 19.3968 19.5 17.4891 19.5 15.5C19.5 14.634 19.27 13.803 19 13.03C17.333 14.677 16.067 15.5 15.2 15.5C19.195 8.5 17 5.5 11 1.5C11.5 6.5 8.204 8.774 6.862 10.037C5.76733 11.0667 5.00724 12.4015 4.68029 13.8683C4.35333 15.3352 4.47459 16.8664 5.02835 18.2635C5.5821 19.6606 6.54281 20.8592 7.78591 21.7037C9.02901 22.5483 10.4972 22.9999 12 23ZM12.71 5.235C15.951 7.985 15.967 10.122 13.463 14.509C12.702 15.842 13.665 17.5 15.2 17.5C15.888 17.5 16.584 17.3 17.319 16.905C17.1011 17.728 16.6952 18.4892 16.1332 19.1286C15.5711 19.768 14.8683 20.2682 14.0801 20.5899C13.2918 20.9115 12.4397 21.0458 11.5908 20.9821C10.7418 20.9184 9.91924 20.6585 9.18781 20.2229C8.45638 19.7873 7.83605 19.1878 7.37569 18.4717C6.91532 17.7556 6.62748 16.9424 6.53482 16.0961C6.44216 15.2498 6.54723 14.3936 6.84174 13.5948C7.13624 12.7961 7.61216 12.0766 8.232 11.493C8.358 11.375 8.997 10.808 9.025 10.783C9.449 10.403 9.798 10.066 10.143 9.697C11.373 8.379 12.257 6.917 12.709 5.235H12.71Z" fill="#033B31"/>
</svg>
