<svg width="40" height="40" viewBox="0 0 28 28" fill="none" xmlns="http://www.w3.org/2000/svg">
<path d="M25.6199 19.7695C25.1238 19.538 24.5065 19.25 23.3748 19.25C22.2432 19.25 21.6257 19.5381 21.1297 19.7695C20.7041 19.9681 20.368 20.125 19.6246 20.125C18.8811 20.125 18.5451 19.9682 18.1196 19.7695C17.6235 19.5381 17.0062 19.25 15.8745 19.25C14.7429 19.25 14.1256 19.5381 13.6295 19.7695C13.204 19.9681 12.868 20.125 12.1246 20.125C11.3812 20.125 11.0452 19.9682 10.6198 19.7695C10.1237 19.5381 9.50644 19.25 8.37484 19.25C7.24325 19.25 6.62588 19.5381 6.12987 19.7695C5.70434 19.9681 5.36829 20.125 4.62492 20.125C3.88155 20.125 3.5455 19.9682 3.11998 19.7695C2.62396 19.5381 2.00659 19.25 0.875 19.25V21C1.61837 21 1.95442 21.1568 2.37995 21.3555C2.87596 21.5869 3.49333 21.875 4.62492 21.875C5.75652 21.875 6.37388 21.5869 6.8699 21.3555C7.29542 21.1569 7.63148 21 8.37484 21C9.11821 21 9.45421 21.1568 9.87968 21.3555C10.3757 21.5869 10.993 21.875 12.1246 21.875C13.2562 21.875 13.8736 21.5869 14.3696 21.3555C14.7951 21.1569 15.1312 21 15.8745 21C16.6178 21 16.954 21.1568 17.3795 21.3555C17.8756 21.5869 18.4929 21.875 19.6246 21.875C20.7562 21.875 21.3736 21.5869 21.8697 21.3555C22.2952 21.1569 22.6314 21 23.3748 21C24.1182 21 24.4544 21.1568 24.8799 21.3555C25.376 21.587 25.9934 21.875 27.125 21.875V20.125C26.3816 20.125 26.0454 19.9682 25.6199 19.7695Z" fill="#033B31"/>
<path d="M23.3748 24.5C22.2432 24.5 21.6257 24.7881 21.1297 25.0195C20.7041 25.2181 20.368 25.375 19.6246 25.375C18.8811 25.375 18.5451 25.2182 18.1196 25.0195C17.6235 24.7881 17.0062 24.5 15.8745 24.5C14.7429 24.5 14.1256 24.7881 13.6295 25.0195C13.204 25.2181 12.868 25.375 12.1246 25.375C11.3812 25.375 11.0452 25.2182 10.6198 25.0195C10.1237 24.7881 9.50644 24.5 8.37484 24.5C7.24325 24.5 6.62588 24.7881 6.12987 25.0195C5.70434 25.2181 5.36829 25.375 4.62492 25.375C3.88155 25.375 3.5455 25.2182 3.11998 25.0195C2.62396 24.7881 2.00659 24.5 0.875 24.5V26.25C1.61837 26.25 1.95442 26.4068 2.37995 26.6055C2.87596 26.8369 3.49333 27.125 4.62492 27.125C5.75652 27.125 6.37388 26.8369 6.8699 26.6055C7.29542 26.4069 7.63148 26.25 8.37484 26.25C9.11821 26.25 9.45421 26.4068 9.87968 26.6055C10.3757 26.8369 10.993 27.125 12.1246 27.125C13.2562 27.125 13.8736 26.8369 14.3696 26.6055C14.7951 26.4069 15.1312 26.25 15.8745 26.25C16.6178 26.25 16.954 26.4068 17.3795 26.6055C17.8756 26.8369 18.4929 27.125 19.6246 27.125C20.7562 27.125 21.3736 26.8369 21.8697 26.6055C22.2952 26.4069 22.6314 26.25 23.3748 26.25C24.1182 26.25 24.4544 26.4068 24.8799 26.6055C25.376 26.837 25.9934 27.125 27.125 27.125V25.375C26.3816 25.375 26.0454 25.2182 25.6199 25.0195C25.1238 24.7881 24.5065 24.5 23.3748 24.5Z" fill="#033B31"/>
<path d="M13.5625 14.875H21.4375V17.9375H23.1875V6.33708C23.1868 5.80596 23.3479 5.28723 23.6494 4.84996L26.3822 0.875H24.2584L22.2073 3.85853C21.7049 4.58733 21.4364 5.45188 21.4375 6.33708V8.75H13.5625V6.33708C13.5618 5.80596 13.7229 5.28723 14.0244 4.84996L16.7572 0.875H14.6334L12.5823 3.85853C12.0799 4.58733 11.8114 5.45188 11.8125 6.33708V17.9375H13.5625V14.875ZM13.5625 10.5H21.4375V13.125H13.5625V10.5Z" fill="#033B31"/>
</svg>
