<svg width="16" height="17" viewBox="0 0 16 17" fill="none" xmlns="http://www.w3.org/2000/svg">
<g clip-path="url(#clip0)">
<path d="M11.7891 16.3785C13.1562 16.3785 14.0859 15.9879 14.9297 15.0738C14.9844 15.0113 15.0391 14.941 15.0938 14.8785C15.5547 14.3629 15.7812 13.8238 15.7812 13.3238C15.7812 12.7379 15.4688 12.2066 14.7734 11.73L12.4453 10.105C11.7109 9.59723 10.8594 9.55816 10.2031 10.2144L9.625 10.7925C9.42188 10.9957 9.22656 11.0113 8.99219 10.8472C8.57031 10.566 7.77344 9.86285 7.22656 9.31598C6.67188 8.76129 6.10938 8.13629 5.80469 7.65973C5.64062 7.41754 5.65625 7.23004 5.85938 7.02691L6.4375 6.44879C7.09375 5.79254 7.05469 4.94098 6.53906 4.2066L4.88281 1.83941C4.42188 1.16754 3.86719 0.855038 3.28125 0.847226C2.78125 0.839413 2.25 1.06598 1.73438 1.5191C1.67188 1.57379 1.60938 1.62848 1.54688 1.68316C0.617188 2.53473 0.21875 3.44879 0.21875 4.87066C0.21875 7.17535 1.55469 9.8941 4.15625 12.48C6.74219 15.0504 9.42969 16.3785 11.7891 16.3785ZM11.7891 15.0738C9.79688 15.105 7.32031 13.691 5.14844 11.5347C2.96094 9.37848 1.50781 6.80816 1.53906 4.81598C1.55469 3.98004 1.85156 3.24566 2.4375 2.73004C2.5 2.68316 2.54688 2.6441 2.60938 2.59723C2.82812 2.40973 3.0625 2.30816 3.28125 2.30816C3.50781 2.30816 3.71094 2.40191 3.86719 2.63629L5.32812 4.8316C5.51562 5.09723 5.52344 5.40191 5.25 5.66754L4.625 6.28473C4.03125 6.86285 4.08594 7.54254 4.46094 8.07379C4.88281 8.65973 5.67188 9.55816 6.33594 10.2144C7.04688 10.9175 8.01562 11.7847 8.57812 12.191C9.10938 12.566 9.78906 12.6207 10.3672 12.0269L10.9844 11.4019C11.2422 11.1285 11.5469 11.1363 11.8203 11.316L13.9766 12.7535C14.2188 12.9097 14.3047 13.105 14.3047 13.3316C14.3047 13.5504 14.2031 13.7847 14.0156 14.0113C13.9688 14.066 13.9297 14.1129 13.8828 14.1754C13.3672 14.7691 12.6328 15.066 11.7891 15.0738Z" fill="#033B31"/>
</g>
<defs>
<clipPath id="clip0">
<rect width="16" height="16.8889" fill="white"/>
</clipPath>
</defs>
</svg>
