<svg width="18" height="20" viewBox="0 0 18 20" fill="none" xmlns="http://www.w3.org/2000/svg">
<path d="M16.3334 8.14811C16.3334 13.8518 9.00002 18.7407 9.00002 18.7407C9.00002 18.7407 1.66669 13.8518 1.66669 8.14811C1.66669 6.20319 2.4393 4.33792 3.81457 2.96266C5.18984 1.58739 7.0551 0.814774 9.00002 0.814774C10.9449 0.814774 12.8102 1.58739 14.1855 2.96266C15.5607 4.33792 16.3334 6.20319 16.3334 8.14811Z" stroke="#033B31" stroke-width="1.5" stroke-linecap="round" stroke-linejoin="round"/>
<path d="M9.00002 10.5926C10.35 10.5926 11.4445 9.49814 11.4445 8.14811C11.4445 6.79808 10.35 5.70366 9.00002 5.70366C7.64999 5.70366 6.55558 6.79808 6.55558 8.14811C6.55558 9.49814 7.64999 10.5926 9.00002 10.5926Z" stroke="#033B31" stroke-width="1.5" stroke-linecap="round" stroke-linejoin="round"/>
</svg>
