<svg width="19" height="16" viewBox="0 0 19 16" fill="none" xmlns="http://www.w3.org/2000/svg">
<g clip-path="url(#clip0)">
<path d="M2.83546 15.4246H16.1783C17.7748 15.4246 18.7013 14.4982 18.7013 12.7279V3.58732C18.7013 1.8171 17.7665 0.890625 15.9798 0.890625H2.63693C1.04042 0.890625 0.113953 1.80882 0.113953 3.58732V12.7279C0.113953 14.4982 1.0487 15.4246 2.83546 15.4246ZM8.477 8.44301L2.45495 2.48713C2.57075 2.46232 2.70311 2.44577 2.84373 2.44577H15.9715C16.1204 2.44577 16.2527 2.46232 16.3768 2.4954L10.363 8.44301C10.0156 8.78217 9.72608 8.93107 9.42002 8.93107C9.11395 8.93107 8.82443 8.7739 8.477 8.44301ZM1.66083 3.70312L6.16083 8.12868L1.66083 12.579V3.70312ZM12.6792 8.12868L17.1544 3.72794V12.5625L12.6792 8.12868ZM2.84373 13.8612C2.69483 13.8612 2.55421 13.8447 2.43013 13.8199L7.17002 9.12132L7.61671 9.56802C8.22057 10.1553 8.79961 10.4035 9.42002 10.4035C10.0322 10.4035 10.6195 10.1553 11.2151 9.56802L11.67 9.12132L16.4016 13.8116C16.2693 13.8447 16.1287 13.8612 15.9715 13.8612H2.84373Z" fill="#033B31"/>
</g>
<defs>
<clipPath id="clip0">
<rect width="18.8235" height="16" fill="white"/>
</clipPath>
</defs>
</svg>
