<?xml version="1.0" standalone="no"?>
<!DOCTYPE svg PUBLIC "-//W3C//DTD SVG 1.1//EN" "http://www.w3.org/Graphics/SVG/1.1/DTD/svg11.dtd" >
<svg xmlns="http://www.w3.org/2000/svg" xmlns:xlink="http://www.w3.org/1999/xlink" version="1.1">
<metadata>
Created by FontForge 20201107 at Fri Jun  8 01:15:07 2018
 By Jimmy Wärting
Copyright (c) 2018 by Jorge Cisterna. All rights reserved.
</metadata>
<defs>
<font id="Recoleta-Light" horiz-adv-x="600" >
  <font-face 
    font-family="Recoleta Light"
    font-weight="300"
    font-stretch="normal"
    units-per-em="1000"
    panose-1="0 0 4 0 0 0 0 0 0 0"
    ascent="800"
    descent="-200"
    x-height="480"
    cap-height="710"
    bbox="-696 -287.667 1351 958"
    underline-thickness="50"
    underline-position="-200"
    unicode-range="U+0020-FB02"
  />
<missing-glyph horiz-adv-x="530" 
d="M50 730h430v-730h-430v730zM115 695l150 -287l150 287h-300zM243 365l-153 292v-584zM288 365l152 -292v584zM265 322l-150 -287h300z" />
    <glyph glyph-name="fi" unicode="fi" horiz-adv-x="564" 
d="M298 712q-55 1 -94.5 -39t-39.5 -107v-86h152q12 0 12 -11v-9q0 -11 -12 -11h-152v-391q0 -19 21.5 -29.5t21.5 -16.5v-2q0 -10 -12 -10h-113q-13 0 -13 10v2q0 6 19 16.5t19 29.5v391h-89q-12 0 -12 11v9q0 11 12 11h89v80q0 83 56 131t143 48q77 0 124.5 -38.5
t47.5 -71.5q0 -12 -7.5 -19.5t-18.5 -7.5q-17 0 -30.5 17t-23 37.5t-35.5 38t-65 17.5zM486 58q0 -13 9 -20.5t18.5 -12t9.5 -10.5v-4q0 -11 -20 -11h-93q-19 0 -19 11v4q0 6 8.5 10.5t17.5 12t9 20.5v335q0 15 -8.5 26t-17 17t-8.5 10v3q0 5 12 11l55 27q27 12 27 -12v-417
z" />
    <glyph glyph-name="fl" unicode="fl" horiz-adv-x="564" 
d="M486 57q0 -18 18.5 -27.5t18.5 -15.5v-3q0 -11 -20 -11h-93q-19 0 -19 11v3q0 6 17.5 15.5t17.5 27.5v556q-5 5 -21 35t-40 46.5t-67 17.5q-55 1 -94.5 -39t-39.5 -107v-86h152q12 0 12 -11v-9q0 -11 -12 -11h-152v-391q0 -19 21.5 -29.5t21.5 -16.5v-2q0 -10 -12 -10
h-113q-13 0 -13 10v2q0 6 19 16.5t19 29.5v391h-89q-12 0 -12 11v9q0 11 12 11h89v80q0 83 56 131t143 48q68 0 117 -33l35 19q14 6 21 2t7 -14v-656z" />
    <glyph glyph-name=".notdef" horiz-adv-x="530" 
d="M50 730h430v-730h-430v730zM115 695l150 -287l150 287h-300zM243 365l-153 292v-584zM288 365l152 -292v584zM265 322l-150 -287h300z" />
    <glyph glyph-name=".null" horiz-adv-x="0" 
 />
    <glyph glyph-name="nonmarkingreturn" horiz-adv-x="333" 
 />
    <glyph glyph-name="space" unicode=" " horiz-adv-x="234" 
 />
    <glyph glyph-name="exclam" unicode="!" horiz-adv-x="232" 
d="M100 166q-4 69 -7.5 181t-6.5 220.5t-4 131.5q0 18 17.5 25.5t35 0.5t17.5 -25q-6 -265 -22 -534q-2 -11 -15.5 -11.5t-14.5 11.5zM117 -11q-21 0 -35 13.5t-14 34.5q0 23 13.5 36t35.5 13t35.5 -13t13.5 -36q0 -21 -14 -34.5t-35 -13.5z" />
    <glyph glyph-name="quotedbl" unicode="&#x22;" horiz-adv-x="332" 
d="M69 461q-6 59 -15 232q0 16 10.5 25.5t24.5 9.5q15 0 25 -8.5t9 -25.5q-4 -122 -19 -233q-3 -14 -17.5 -14t-17.5 14zM226 461q-5 40 -15 232q-1 16 10 25.5t25 9.5q15 0 25 -8.5t9 -25.5q-4 -122 -19 -233q-3 -14 -17.5 -14t-17.5 14z" />
    <glyph glyph-name="numbersign" unicode="#" horiz-adv-x="679" 
d="M637 480q12 0 12 -9v-17q0 -9 -12 -9h-137l-44 -168h143q12 0 12 -8v-19q0 -8 -12 -8h-152l-62 -235q-1 -7 -13 -7h-21q-11 0 -7 14l61 228h-201l-62 -235q-1 -7 -13 -7h-21q-12 0 -7 14l61 228h-118q-12 0 -12 8v19q0 8 12 8h127l45 168h-134q-12 0 -12 9v17q0 9 12 9
h143l48 180q1 7 13 7h18q11 0 8 -14l-46 -173h202l48 180q3 7 13 7h18q11 0 8 -14l-46 -173h128zM414 277l45 168h-202l-44 -168h201z" />
    <glyph glyph-name="dollar" unicode="$" horiz-adv-x="534" 
d="M496 182q0 -69 -61 -123.5t-149 -59.5v-94q0 -11 -8 -11h-16q-9 0 -9 11v93q-100 5 -160.5 59t-60.5 93q0 32 29 32q15 0 31 -23t30 -51t48.5 -53t82.5 -29v310q-34 12 -50 18.5t-45 19.5t-43.5 26t-31.5 32.5t-24 44t-7 55.5q0 74 57 124t146 53v69q0 12 9 12h15
q9 0 9 -12v-70q88 -6 140.5 -49.5t52.5 -86.5q0 -35 -31 -35q-13 0 -22.5 13.5t-18 33.5t-21 40.5t-38.5 36.5t-62 20v-293q30 -10 44 -15.5t40.5 -17t40.5 -21t32.5 -25.5t27.5 -33.5t16 -41.5t7 -52zM113 548q0 -59 36.5 -91.5t105.5 -56.5v282q-62 -4 -102 -41.5
t-40 -92.5zM286 26q61 5 105 47t44 94q0 63 -38.5 97t-110.5 60v-298z" />
    <glyph glyph-name="percent" unicode="%" horiz-adv-x="860" 
d="M199 340q-72 0 -120.5 55.5t-48.5 136.5q0 82 45 135t120 53q69 0 116.5 -56t47.5 -135q0 -83 -45.5 -136t-114.5 -53zM217 0q-16 0 -7 14l400 689q5 7 13 7h21q6 0 8.5 -4t-1.5 -10l-398 -689q-6 -7 -14 -7h-22zM204 366q47 0 75 41t28 103q0 75 -34 129.5t-88 54.5
q-48 0 -77 -41.5t-29 -104.5q0 -75 35 -128.5t90 -53.5zM670 -10q-72 0 -120.5 55.5t-48.5 136.5q0 82 45 135t120 53q69 0 116.5 -56t47.5 -135q0 -83 -45.5 -136t-114.5 -53zM675 15q47 0 75 41.5t28 103.5q0 75 -34 129.5t-88 54.5q-48 0 -77 -41.5t-29 -104.5
q0 -75 35 -129t90 -54z" />
    <glyph glyph-name="ampersand" unicode="&#x26;" horiz-adv-x="695" 
d="M678 35q14 0 14 -10v-3q0 -11 -16.5 -21.5t-40.5 -10.5q-50 0 -105 61l-29 32q-91 -93 -230 -93q-107 0 -170 50t-63 136q0 61 46 109.5t138 98.5q-48 52 -71.5 92.5t-23.5 89.5q0 68 46 111t121 43q69 0 112.5 -41t43.5 -104q0 -59 -43 -107.5t-109 -81.5l212 -228
q62 110 62 257q0 17 23.5 17.5t23.5 -17.5q0 -171 -81 -287l42 -45q43 -48 75 -48h23zM289 693q-45 0 -74 -32.5t-29 -83.5q0 -44 21 -79t67 -87q118 62 118 165q0 51 -28.5 84t-74.5 33zM278 16q119 0 198 94l-232 250q-76 -43 -111 -88t-35 -101q0 -68 49.5 -111.5
t130.5 -43.5z" />
    <glyph glyph-name="quotesingle" unicode="'" horiz-adv-x="175" 
d="M69 461q-6 59 -15 232q0 16 10.5 25.5t24.5 9.5q15 0 25 -8.5t9 -25.5q-4 -122 -19 -233q-3 -14 -17.5 -14t-17.5 14z" />
    <glyph glyph-name="parenleft" unicode="(" horiz-adv-x="246" 
d="M200 -91q-157 170 -157 428q0 257 158 428q13 13 22 4.5t-1 -22.5q-123 -165 -123 -410t123 -410q10 -14 0.5 -22.5t-22.5 4.5z" />
    <glyph glyph-name="parenright" unicode=")" horiz-adv-x="246" 
d="M46 -91q-13 -12 -22.5 -4.5t-0.5 22.5q125 167 125 410t-125 410q-9 14 -0.5 22.5t21.5 -4.5q160 -172 160 -428q0 -257 -158 -428z" />
    <glyph glyph-name="asterisk" unicode="*" horiz-adv-x="375" 
d="M138 423q-12 -25 -37 -13q-21 10 -19 29q1 8 8 15l81 82l-109 23q-26 4 -25 27q2 20 20 24q10 2 21 -3l98 -48l-16 111q-4 16 4.5 26t23.5 10q15 1 23.5 -9t4.5 -27l-16 -111l97 48q24 13 36 -9q11 -20 -5 -33q-6 -5 -14 -6l-109 -23l81 -83q19 -19 -1 -37
q-18 -18 -36 -5q-7 4 -11 13l-50 98z" />
    <glyph glyph-name="plus" unicode="+" 
d="M287 67q-9 0 -9 12v164h-162q-10 0 -12 8l1 24q0 8 11 8h162v164q0 12 9 12h26q9 0 9 -12v-164l162 1q12 0 12 -8v-25q0 -8 -12 -8h-162v-164q0 -12 -9 -12h-26z" />
    <glyph glyph-name="comma" unicode="," horiz-adv-x="188" 
d="M56 -130q-5 -3 -11.5 -0.5t-7.5 7.5t4 10q43 39 56 91q3 12 -8 12q-18 0 -30 13.5t-12 35.5t13 36t34 14q22 0 36 -15.5t14 -42.5q0 -95 -88 -161z" />
    <glyph glyph-name="hyphen" unicode="-" horiz-adv-x="457" 
d="M71 296q-11 0 -11 10v16q0 9 11 9h316q10 0 10 -9v-16q0 -10 -10 -10h-316z" />
    <glyph glyph-name="period" unicode="." horiz-adv-x="207" 
d="M104 -10q-21 0 -35 13t-14 34q0 23 14 36.5t35 13.5t35 -13.5t14 -36.5q0 -21 -14 -34t-35 -13z" />
    <glyph glyph-name="slash" unicode="/" horiz-adv-x="354" 
d="M41 -106q-13 0 -10 14l251 883q2 8 13 8h20q11 0 8 -14l-248 -881q-1 -10 -14 -10h-20z" />
    <glyph glyph-name="zero" unicode="0" horiz-adv-x="648" 
d="M332 -10q-124 0 -204 101t-80 270t73 264t203 95q119 0 198 -102t79 -262q0 -171 -74.5 -268.5t-194.5 -97.5zM341 21q88 0 144 83t56 226q0 157 -64.5 257.5t-165.5 100.5q-91 0 -147.5 -81.5t-56.5 -222.5q0 -162 65 -262.5t169 -100.5z" />
    <glyph glyph-name="one" unicode="1" horiz-adv-x="272" 
d="M84 0q-16 0 -16 10v1q0 6 11 11t21.5 14t10.5 25v544q0 20 -9.5 28t-21 6.5t-21 0.5t-9.5 11v2q0 8 16 16l98 40q14 5 22 1.5t8 -12.5q0 -6 -13 -22t-13 -40v-575q0 -16 11 -25t22.5 -14t11.5 -11v-1q0 -10 -16 -10h-113z" />
    <glyph glyph-name="two" unicode="2" horiz-adv-x="551" 
d="M509 134q17 0 13 -16l-28 -98q-7 -20 -23 -20h-417q-18 0 -18 16v7q0 55 39.5 110.5t95.5 102.5l112 94t95.5 102t39.5 109q0 67 -44 107.5t-102 40.5q-44 0 -75.5 -16.5t-47 -40.5t-26 -48t-20.5 -40.5t-23 -16.5q-34 0 -34 32q0 50 61.5 105.5t161.5 55.5q90 0 149 -49
t59 -134q0 -50 -27.5 -98t-68.5 -84.5t-90.5 -76.5t-92 -74t-73.5 -76t-36 -83h333q23 0 38.5 22.5t25 44.5t18.5 22h5z" />
    <glyph glyph-name="three" unicode="3" horiz-adv-x="543" 
d="M256 412q107 -2 175 -59t68 -152q0 -92 -65.5 -151.5t-178.5 -59.5q-104 0 -160 40t-56 76q0 33 30 33q12 0 22 -12t20.5 -29.5t25.5 -35t45.5 -29.5t73.5 -12q83 0 133 47.5t50 123.5q0 88 -57.5 138t-145.5 50h-7q-14 0 -18.5 11t3.5 19l208 249h-364q-16 0 -16 15v23
q0 13 16 13h413q18 0 18 -15v-7q0 -12 -11 -24z" />
    <glyph glyph-name="four" unicode="4" horiz-adv-x="551" 
d="M516 202q13 0 13 -10v-12q0 -11 -13 -11h-89v-110q0 -16 10.5 -24.5t20.5 -13t10 -10.5v-2q0 -9 -17 -9h-108q-16 0 -16 9v2q0 5 6 9t13.5 6.5t13.5 11t6 21.5v110h-337q-20 0 -20 16v4q0 13 7 23l336 476q15 22 32 22h28q15 0 15 -15v-493h89zM51 202h315l1 449z" />
    <glyph glyph-name="five" unicode="5" horiz-adv-x="550" 
d="M281 438q100 0 165 -60t65 -151q0 -104 -67 -170.5t-179 -66.5t-170.5 39.5t-58.5 77.5q0 16 9 24t23 8q11 0 20.5 -12t20.5 -29t27 -34t49.5 -29t79.5 -12q83 0 134.5 54.5t51.5 140.5q0 82 -49 135t-134 53q-72 0 -161 -55q-12 -9 -25.5 -1t-11.5 24l46 327q0 9 11 9
h353q10 0 10 -10v-28q0 -10 -10 -10h-330l-45 -277q74 53 176 53z" />
    <glyph glyph-name="six" unicode="6" horiz-adv-x="585" 
d="M313 450q101 0 163 -66t62 -169q0 -96 -67 -160.5t-167 -64.5q-119 0 -187.5 97t-68.5 263q0 100 27.5 181.5t89 135t148.5 53.5q56 0 101 -18.5t69.5 -45t37 -51.5t12.5 -43q0 -32 -30 -32q-16 0 -27.5 16.5t-21.5 39.5t-25 46.5t-45 40t-74 16.5q-97 0 -149.5 -97.5
t-52.5 -237.5v-11q28 50 82.5 78.5t122.5 28.5zM305 21q78 0 126 51.5t48 135.5q0 90 -49 150.5t-136 60.5q-73 0 -124.5 -49t-55.5 -112q15 -111 65 -174t126 -63z" />
    <glyph glyph-name="seven" unicode="7" horiz-adv-x="502" 
d="M478 710q16 0 16 -14v-7q0 -7 -9 -29l-284 -647q-5 -13 -18 -13h-32q-8 0 -11 5.5t0 11.5l310 646h-343q-19 0 -33 -23t-23.5 -46t-19.5 -23h-7q-14 0 -10 17l21 102q5 20 23 20h420z" />
    <glyph glyph-name="eight" unicode="8" horiz-adv-x="597" 
d="M372 374q41 -16 69.5 -31t56.5 -37.5t42 -53.5t14 -71q0 -85 -69 -138t-177 -53q-122 0 -194 52.5t-72 130.5q0 135 193 199q-75 32 -116.5 71.5t-41.5 105.5q0 75 62 123t164 48q100 0 160.5 -49t60.5 -120q0 -118 -152 -177zM134 561q0 -28 11.5 -51.5t26.5 -39
t44 -31.5t50 -25t59 -23q23 9 45 21.5t47 33t40 49.5t15 63q0 55 -48.5 93.5t-123.5 38.5q-73 0 -119.5 -37t-46.5 -92zM313 21q81 0 132.5 42t51.5 105q0 37 -14 65t-51.5 51.5t-59 33.5t-77.5 31q-13 5 -20 8q-73 -24 -125.5 -71t-52.5 -114q0 -66 60.5 -108.5
t155.5 -42.5z" />
    <glyph glyph-name="nine" unicode="9" horiz-adv-x="583" 
d="M277 720q121 0 189.5 -98.5t68.5 -261.5q0 -169 -64.5 -269.5t-193.5 -100.5q-57 0 -101.5 18t-68.5 44.5t-36 51.5t-12 44q0 31 31 31q13 0 23 -16.5t20 -39.5t24.5 -46t46 -39.5t76.5 -16.5q69 0 114 46t63 118t18 171v19q-25 -52 -79 -81.5t-129 -29.5
q-101 0 -162.5 66t-61.5 167q0 91 66.5 157t167.5 66zM286 296q78 0 128.5 45t53.5 114q-16 107 -66 170.5t-129 63.5q-75 0 -123.5 -53t-48.5 -134q0 -84 50 -145t135 -61z" />
    <glyph glyph-name="colon" unicode=":" horiz-adv-x="217" 
d="M108 360q-21 0 -35 13t-14 34q0 23 13.5 36t35.5 13t35.5 -13t13.5 -36q0 -21 -14 -34t-35 -13zM108 -10q-21 0 -35 13t-14 34q0 23 14 36.5t35 13.5t35 -13.5t14 -36.5q0 -21 -14 -34t-35 -13z" />
    <glyph glyph-name="semicolon" unicode=";" horiz-adv-x="242" 
d="M124 360q-21 0 -35 13t-14 34q0 23 14 36t35 13q22 0 35.5 -13t13.5 -36q0 -21 -14 -34t-35 -13zM85 -130q-9 -5 -16 2.5t2 14.5q42 39 55 91q3 12 -7 12q-19 0 -31 13.5t-12 35.5t13 36t35 14q21 0 35 -15.5t14 -42.5q0 -95 -88 -161z" />
    <glyph glyph-name="less" unicode="&#x3c;" 
d="M448 119q11 -6 11 -14v-29q0 -16 -16 -8l-311 159q-15 8 -15 19v34q0 10 16 20l310 169q5 3 9 -0.5t4 -8.5v-31q0 -9 -11 -15l-290 -152z" />
    <glyph glyph-name="equal" unicode="=" 
d="M118 332q-12 0 -12 8v25q0 8 12 8h364q11 0 11 -8v-25q0 -8 -11 -8h-364zM118 156q-12 0 -12 8v25q0 8 12 8h364q11 0 11 -8v-25q0 -8 -11 -8h-364z" />
    <glyph glyph-name="greater" unicode="&#x3e;" 
d="M466 300q17 -9 17 -20v-34q0 -12 -16 -20l-311 -158q-8 -3 -12 -1t-4 8v30q0 8 12 13l293 143l-287 153q-12 5 -12 14v32q0 5 4 8.5t10 0.5z" />
    <glyph glyph-name="question" unicode="?" horiz-adv-x="491" 
d="M193 176q-2 49 18 90t50.5 70t61 57t52.5 66t22 84q0 67 -43 106.5t-103 39.5q-45 0 -76.5 -16.5t-46.5 -40.5t-25.5 -48t-20 -40.5t-22.5 -16.5q-33 0 -33 32q0 21 14.5 47.5t41 52.5t70.5 43.5t96 17.5q91 0 149.5 -47t58.5 -135q0 -48 -22.5 -88.5t-54.5 -69.5
t-64 -57t-54.5 -65.5t-22.5 -81.5q0 -10 -11 -14t-22.5 0t-12.5 14zM216 -11q-21 0 -34.5 12.5t-13.5 33.5q0 23 13.5 36t34.5 13t34.5 -13t13.5 -36q0 -21 -13.5 -33.5t-34.5 -12.5z" />
    <glyph glyph-name="at" unicode="@" horiz-adv-x="903" 
d="M503 739q167 0 271.5 -99.5t104.5 -243.5q0 -114 -50 -192.5t-140 -78.5q-40 0 -71 21.5t-38 59.5q-62 -83 -172 -83q-74 0 -122.5 48.5t-48.5 122.5q0 106 68 178t176 72q45 0 84 -18t60 -50l10 52q1 9 11 9h30q12 0 9 -12l-53 -276q-8 -42 12.5 -66.5t54.5 -24.5
q60 0 98.5 70t38.5 164q0 134 -95.5 224t-246.5 90q-172 0 -292.5 -118.5t-120.5 -282.5q0 -140 92 -233.5t246 -93.5q106 0 194 38q9 4 12 -0.5t0 -12.5l-4 -9q-1 -6 -15 -14q-84 -35 -194 -35q-169 0 -271.5 102.5t-102.5 255.5q0 180 131 308t334 128zM419 150
q57 0 104.5 37.5t60.5 90.5h2l8 39l14 71h-1q11 58 -25.5 93.5t-93.5 35.5q-80 0 -135.5 -68.5t-56.5 -158.5q0 -61 34.5 -100.5t88.5 -39.5z" />
    <glyph glyph-name="A" unicode="A" horiz-adv-x="656" 
d="M610 56q8 -17 26.5 -27.5t18.5 -17.5v-1q0 -10 -19 -10h-102q-19 0 -19 10v1q0 6 10.5 11t18.5 13t2 21l-57 138h-344l-53 -138q-4 -11 0 -18t11 -10t13.5 -7.5t6.5 -9.5v-1q0 -10 -19 -10h-78q-18 0 -18 10v1q0 7 18.5 17.5t25.5 27.5l233 595q5 12 -2.5 20.5
t-17.5 15.5t-10 12v2q0 9 12 9h38q26 0 39 -28zM157 227h318l-165 399z" />
    <glyph glyph-name="B" unicode="B" horiz-adv-x="644" 
d="M396 381q103 -13 156.5 -62.5t53.5 -126.5q0 -94 -71 -143t-186 -49h-264q-18 0 -18 10v2q0 6 17 16t17 28v597q0 18 -17 29t-17 17v1q0 10 18 10h194q116 0 187 -48.5t71 -126.5q0 -58 -37.5 -99t-103.5 -55zM161 650v-223q0 -16 9 -25.5t24 -9.5l118 1q76 1 123 37.5
t47 91.5q0 73 -55.5 115t-148.5 41h-92q-25 0 -25 -28zM344 32q89 0 145 37t56 110q0 83 -64 133t-181 50h-139v-295q0 -16 9 -25.5t23 -9.5h151z" />
    <glyph glyph-name="C" unicode="C" horiz-adv-x="684" 
d="M374 -10q-131 0 -232.5 110t-101.5 262q0 157 94 257.5t237 100.5q109 0 188.5 -64.5t79.5 -120.5q0 -14 -8.5 -22t-22.5 -8q-16 0 -29.5 19t-28.5 45.5t-36 53.5t-62.5 46t-98.5 19q-104 0 -179 -84t-75 -212q0 -150 87.5 -249.5t206.5 -99.5q88 0 146 54.5t87 130.5
q4 9 13 12t15 -3t3 -19q-24 -94 -96.5 -161t-186.5 -67z" />
    <glyph glyph-name="D" unicode="D" horiz-adv-x="732" 
d="M85 0q-19 0 -19 10v1q0 6 17.5 17t17.5 28v597q0 14 -8.5 22t-17.5 13t-9 11v1q0 10 19 10h218q100 0 187 -40t143.5 -120.5t56.5 -184.5q0 -168 -104 -266.5t-257 -98.5h-244zM193 32h132q126 0 214.5 83.5t88.5 230.5q0 78 -30 142.5t-78.5 105t-107 62.5t-119.5 22
h-110q-22 0 -22 -27v-580q0 -39 32 -39z" />
    <glyph glyph-name="E" unicode="E" horiz-adv-x="592" 
d="M84 0q-18 0 -18 10v1q0 6 17.5 16.5t17.5 30.5v594q0 12 -5.5 20t-12 11.5t-12 7.5t-5.5 8v2q0 9 15 9h413q18 0 23 -19l24 -90q5 -18 -9 -18h-4q-9 0 -22 24t-30 48t-37 24h-256q-23 0 -23 -29v-269h212q18 0 27.5 25.5t16.5 25.5h4q10 0 10 -14v-104q0 -16 -10 -16h-4
q-7 0 -16.5 25.5t-27.5 25.5h-212l-1 -284q0 -15 8.5 -24.5t21.5 -9.5h281q20 0 36.5 24.5t29 48.5t22.5 24h4q14 0 9 -17l-23 -91q-7 -20 -23 -20h-441z" />
    <glyph glyph-name="F" unicode="F" horiz-adv-x="551" 
d="M85 0q-19 0 -19 10v1q0 6 17.5 17t17.5 28v597q0 11 -5.5 19t-12 11t-12 7t-5.5 9v1q0 10 16 10h404q18 0 23 -20l24 -90q2 -8 -1 -12.5t-9 -4.5h-3q-10 0 -22.5 23.5t-29.5 47.5t-37 24h-246q-23 0 -23 -27l-1 -304h212q17 0 27.5 26t17.5 26h4q10 0 10 -15v-103
q0 -16 -10 -16h-4q-7 0 -17.5 25.5t-27.5 25.5h-211v-260q0 -17 18 -28t18 -17v-1q0 -10 -18 -10h-95z" />
    <glyph glyph-name="G" unicode="G" horiz-adv-x="727" 
d="M382 -10q-133 0 -237 108t-104 254q0 161 96 264.5t238 103.5q115 0 192.5 -64t77.5 -120q0 -14 -8 -22.5t-22 -8.5q-15 0 -29 19t-29.5 45.5t-37.5 53.5t-64 46t-99 19q-105 0 -180 -88t-75 -216q0 -147 90.5 -249t208.5 -102q121 0 189 57v182q0 16 -18 24t-36 11.5
t-18 8.5v4q0 12 20 12l153 -1q18 0 18 -11v-4q0 -5 -15.5 -8.5t-31 -11.5t-15.5 -25v-168q0 -22 -20 -39q-90 -74 -244 -74z" />
    <glyph glyph-name="H" unicode="H" horiz-adv-x="758" 
d="M85 0q-18 0 -18 10v1q0 6 17 17t17 28v598q0 13 -8.5 21t-17 13t-8.5 11v1q0 10 18 10h94q19 0 19 -10v-1q0 -6 -9 -11t-18 -13t-9 -21l-1 -274h435l-1 274q0 13 -8.5 21t-17 13t-8.5 11v1q0 10 18 10h95q18 0 18 -10v-1q0 -6 -9 -11t-18 -13t-9 -21v-598q0 -17 18 -28
t18 -17v-1q0 -10 -18 -10h-95q-18 0 -18 10v1q0 6 17 17t17 28l1 291h-434l-1 -291q0 -17 18.5 -28t18.5 -17v-1q0 -10 -19 -10h-94z" />
    <glyph glyph-name="I" unicode="I" horiz-adv-x="263" 
d="M67 9v2q0 6 8.5 10.5t17 12.5t8.5 21v599q0 13 -8.5 21t-17 13t-8.5 11v1q0 10 18 10h94q19 0 19 -10v-1q0 -6 -9 -11t-18.5 -13t-9.5 -21v-599q0 -13 9.5 -21t18.5 -12.5t9 -10.5v-2q0 -10 -19 -10h-94q-18 0 -18 10z" />
    <glyph glyph-name="J" unicode="J" horiz-adv-x="498" 
d="M347 654q0 13 -8.5 21t-17.5 13t-9 11v1q0 10 19 10h94q19 0 19 -10v-1q0 -6 -9 -11t-18 -13t-9 -21l-2 -420q-1 -129 -55 -186.5t-144 -57.5q-93 0 -144.5 51t-51.5 103q0 32 30 32q17 0 26.5 -16t16.5 -38.5t19 -45t40.5 -38.5t72.5 -16q56 0 93.5 49.5t37.5 143.5v439
z" />
    <glyph glyph-name="K" unicode="K" horiz-adv-x="665" 
d="M629 58q9 -13 19 -22t16 -11.5t10 -5.5t4 -8v-1q0 -10 -16 -10h-107q-17 0 -17 10v1q0 6 10 12.5t15.5 11.5t-1.5 20l-237 355l-164 -161v-191q0 -18 19 -29.5t19 -17.5v-1q0 -10 -20 -10h-94q-18 0 -18 10v1q0 6 17 17.5t17 29.5v596q0 13 -8.5 21t-17 13t-8.5 11v1
q0 10 18 10h94q19 0 19 -10v-1q0 -6 -9 -11t-18.5 -13t-9.5 -21v-360l361 355q13 16 10.5 22.5t-12.5 14.5t-10 13v1q0 10 19 10h84q20 0 20 -10v-1q0 -6 -9.5 -12t-26 -16t-28.5 -22l-204 -200z" />
    <glyph glyph-name="L" unicode="L" horiz-adv-x="564" 
d="M85 0q-18 0 -18 10v1q0 6 17 17t17 29v596q0 15 -8.5 23t-17 12t-8.5 11v1q0 10 18 10h95q18 0 18 -10v-1q0 -7 -9 -11t-18 -12t-9 -23v-592q0 -29 26 -29h262q17 0 30.5 15.5t21.5 33.5t18 33.5t20 15.5h6q12 0 8 -15l-24 -95q-7 -20 -23 -20h-422z" />
    <glyph glyph-name="M" unicode="M" horiz-adv-x="893" 
d="M831 61q3 -20 21.5 -32t18.5 -18v-1q0 -10 -19 -10h-95q-19 0 -19 10v1q0 5 6 9.5t13 8t11.5 12t2.5 20.5l-98 548l-218 -590q-6 -19 -21 -19q-16 0 -23 18l-212 602l-97 -559q-2 -12 3.5 -20.5t13.5 -12t15 -8t7 -9.5v-1q0 -10 -20 -10h-78q-20 0 -20 10v1q0 6 18 18
t22 32l104 590q3 17 -13.5 28.5t-16.5 18.5v1q0 11 14 11h44q27 0 34 -22l212 -610l221 611q8 21 31 21h48q13 0 13 -9v-2q0 -7 -9.5 -13t-17.5 -17t-5 -29z" />
    <glyph glyph-name="N" unicode="N" horiz-adv-x="746" 
d="M667 710q19 0 19 -11v-1q0 -5 -19.5 -16t-19.5 -29v-632q0 -21 -18 -21h-14q-11 0 -27 23l-449 614v-576q0 -20 20.5 -32t20.5 -18v-1q0 -10 -19 -10h-78q-19 0 -19 10v1q0 6 18.5 18t18.5 32v591q0 14 -9.5 21.5t-18.5 11.5t-9 10v4q0 11 19 11h53q18 0 30 -16l443 -611
v570q0 18 -20 29t-20 16v1q0 11 20 11h78z" />
    <glyph glyph-name="O" unicode="O" horiz-adv-x="776" 
d="M398 -10q-101 0 -184 52.5t-127.5 136.5t-44.5 179q0 155 97.5 258.5t249.5 103.5q148 0 246.5 -107.5t98.5 -260.5q0 -146 -97 -254t-239 -108zM410 23q113 0 189 89.5t76 206.5q0 155 -86.5 261.5t-219.5 106.5q-116 0 -191.5 -85t-75.5 -211q0 -148 88 -258t220 -110z
" />
    <glyph glyph-name="P" unicode="P" horiz-adv-x="590" 
d="M84 0q-19 0 -19 11v1q0 5 18 15.5t18 28.5v597q0 16 -18 28t-18 17v2q0 10 19 10h166q86 0 154.5 -22t114 -76t45.5 -133q0 -114 -76.5 -173t-217.5 -59h-110v-191q0 -18 18.5 -28.5t18.5 -15.5v-1q0 -11 -18 -11h-95zM192 278h78q108 0 170 48t62 138q0 107 -72 161
t-180 54h-68q-22 0 -22 -28v-342q0 -31 32 -31z" />
    <glyph glyph-name="Q" unicode="Q" horiz-adv-x="776" 
d="M739 -62q7 4 13.5 -1.5t-2.5 -14.5q-19 -27 -60.5 -42.5t-90.5 -15.5q-45 0 -91.5 19.5t-79 43t-75.5 43t-83 19.5q-66 0 -130 -35q-14 -8 -19.5 4t4.5 21q55 39 118 47q-92 46 -146.5 137t-54.5 195q0 155 97.5 258.5t249.5 103.5q148 0 246.5 -107.5t98.5 -260.5
q0 -94 -43 -177t-120 -133.5t-170 -51.5q10 -5 45.5 -27t52.5 -30t48.5 -17.5t61.5 -9.5q87 0 130 32zM102 391q0 -148 88 -258t220 -110q113 0 189 89.5t76 206.5q0 155 -86.5 261.5t-219.5 106.5q-116 0 -191.5 -85t-75.5 -211z" />
    <glyph glyph-name="R" unicode="R" horiz-adv-x="630" 
d="M560 56q10 -13 25 -21.5t24 -12.5t9 -11v-1q0 -10 -18 -10h-104q-18 0 -18 10v1q0 6 9.5 12t13.5 11t-5 22l-173 225q-26 -2 -40 -2l-121 -1v-222q0 -17 18 -28t18 -17v-1q0 -10 -18 -10h-95q-18 0 -18 10v1q0 6 17 17t17 28v598q0 13 -8.5 21t-17 13t-8.5 11v1
q0 10 18 10h184q133 0 217 -55t85 -163q0 -75 -49.5 -129t-140.5 -74zM279 310q104 0 167 46.5t63 124.5q0 99 -68.5 148t-174.5 49h-82q-22 0 -22 -28v-303q0 -37 34 -37h83z" />
    <glyph glyph-name="S" unicode="S" horiz-adv-x="598" 
d="M311 -10q-69 0 -125 19.5t-87 48.5t-47.5 57t-16.5 49q0 29 27 29q14 0 25.5 -18t25 -43t34.5 -50.5t63.5 -43t102.5 -17.5q82 0 132.5 40.5t50.5 105.5q0 54 -24 88.5t-63 49t-85.5 23t-93.5 18t-86 26.5t-63 56t-24 100q0 85 64.5 138t175.5 53q116 0 183 -51.5
t67 -105.5q0 -29 -28 -29q-15 0 -25.5 16t-21 39t-28 46t-55.5 39t-94 16q-83 0 -130 -42t-47 -109q0 -50 24 -81.5t63 -45t85.5 -22t93.5 -19.5t86 -29.5t63 -59.5t24 -104q0 -83 -70.5 -135t-175.5 -52z" />
    <glyph glyph-name="T" unicode="T" horiz-adv-x="597" 
d="M247 0q-18 0 -18 10v1q0 6 17.5 17t17.5 28v621h-165q-15 0 -27 -16t-17.5 -35.5t-13 -35.5t-14.5 -16h-7q-12 0 -9 17l16 100q3 19 22 19h491q18 0 23 -19l23 -101q4 -16 -9 -16h-7q-8 0 -19 26t-26.5 51.5t-35.5 25.5h-165v-621q0 -17 18 -28t18 -17v-1q0 -10 -19 -10
h-94z" />
    <glyph glyph-name="U" unicode="U" horiz-adv-x="719" 
d="M365 -10q-123 0 -199 80t-76 208v375q0 18 -18 29t-18 16v2q0 10 20 10h94q19 0 19 -10v-2q0 -5 -18.5 -16t-18.5 -29v-375q0 -113 62.5 -184t160.5 -71q92 0 154.5 70t62.5 185v375q0 18 -18.5 29t-18.5 16v2q0 10 19 10h76q20 0 20 -10v-2q0 -5 -19.5 -16t-19.5 -29
v-375q0 -127 -74 -207.5t-190 -80.5z" />
    <glyph glyph-name="V" unicode="V" horiz-adv-x="692" 
d="M670 710q17 0 17 -9v-2q0 -6 -17.5 -16t-25.5 -29l-267 -636q-7 -18 -25 -18q-16 0 -23 18l-287 634q-9 21 -25 31t-16 16v1q0 10 19 10h104q19 0 19 -10v-1q0 -6 -11.5 -11t-20 -13.5t-2.5 -22.5l255 -585l239 587q6 13 -4 21.5t-22.5 13.5t-12.5 10v2q0 9 18 9h88z" />
    <glyph glyph-name="W" unicode="W" horiz-adv-x="967" 
d="M941 710q17 0 17 -9v-2q0 -7 -19 -17t-25 -29l-201 -635q-6 -18 -29 -18q-17 0 -24 18l-157 451l-167 -451q-6 -18 -28 -18q-16 0 -24 18l-239 634q-5 13 -13.5 21.5t-15.5 10.5t-12.5 6t-5.5 10v2q0 8 16 8h106q17 0 17 -10v-1q0 -6 -6.5 -10t-13.5 -7t-10.5 -10.5
t1.5 -19.5l212 -573l165 443l-46 131q-7 21 -26 31t-19 16v2q0 8 15 8h110q15 0 15 -8v-2q0 -5 -11 -9.5t-19.5 -13t-3.5 -24.5l196 -575l178 575q6 18 -13.5 28.5t-19.5 15.5v2q0 11 18 11h82z" />
    <glyph glyph-name="X" unicode="X" horiz-adv-x="642" 
d="M590 56q9 -12 22.5 -20.5t20.5 -13t7 -11.5v-1q0 -10 -18 -10h-105q-19 0 -19 10v1q0 6 11 12.5t16.5 12t-2.5 20.5l-212 281l-215 -281q-12 -16 3.5 -28t15.5 -17v-1q0 -10 -19 -10h-83q-18 0 -18 10v1q0 7 9 12t24 13t24 20l240 307l-220 291q-10 13 -23.5 21.5t-21 13
t-7.5 10.5v1q0 10 19 10h103q18 0 18 -10v-1q0 -6 -10 -12.5t-15 -12t3 -20.5l198 -263l197 263q8 15 2.5 20.5t-16 12t-10.5 12.5v1q0 10 19 10h84q18 0 18 -10v-1q0 -6 -8.5 -10.5t-22.5 -13t-24 -21.5l-219 -289z" />
    <glyph glyph-name="Y" unicode="Y" horiz-adv-x="649" 
d="M619 710q18 0 18 -9v-2q0 -6 -7 -10t-19.5 -12t-20.5 -23l-231 -368v-230q0 -17 18.5 -28t18.5 -17v-1q0 -10 -19 -10h-94q-19 0 -19 10v1q0 6 17.5 17t17.5 28v227l-241 371q-8 13 -21 21t-21.5 13t-8.5 11v1q0 10 19 10h106q19 0 19 -10v-1q0 -6 -11 -12.5t-17 -12
t1 -20.5l216 -343l213 343q7 17 0 22.5t-19.5 11t-12.5 11.5v1q0 10 17 10h81z" />
    <glyph glyph-name="Z" unicode="Z" horiz-adv-x="594" 
d="M569 129q19 0 13 -16l-27 -93q-7 -20 -23 -20h-491q-17 0 -17 16v4q0 9 10 22l451 637h-356q-15 0 -28 -15t-20.5 -33t-17 -33t-17.5 -15h-4q-14 0 -10 19l25 89q5 19 23 19h455q17 0 17 -16v-7q0 -6 -10 -23l-449 -633h383q22 0 39.5 24.5t29.5 49t22 24.5h2z" />
    <glyph glyph-name="bracketleft" unicode="[" horiz-adv-x="278" 
d="M102 -104q-14 0 -14 13v856q0 13 14 13h153q11 0 11 -10v-13q0 -10 -11 -10h-113v-816h113q11 0 11 -10v-13q0 -10 -11 -10h-153z" />
    <glyph glyph-name="backslash" unicode="\" horiz-adv-x="350" 
d="M291 -106q-13 0 -14 10l-246 881q-3 14 8 14h18q11 0 14 -8l248 -883q3 -14 -10 -14h-18z" />
    <glyph glyph-name="bracketright" unicode="]" horiz-adv-x="278" 
d="M23 -104q-10 0 -10 10v13q0 10 10 10h113v816h-113q-10 0 -10 10v13q0 10 10 10h153q14 0 14 -13v-856q0 -13 -14 -13h-153z" />
    <glyph glyph-name="asciicircum" unicode="^" 
d="M442 631q12 -15 2 -25q-8 -6 -19 3l-128 129l-122 -129q-9 -10 -18.5 -1t0.5 23l110 143q9 12 25 12h13q15 0 25 -11z" />
    <glyph glyph-name="underscore" unicode="_" horiz-adv-x="495" 
d="M44 -36q-11 0 -11 11v15q0 10 11 10h408q10 0 10 -10v-15q0 -11 -10 -11h-408z" />
    <glyph glyph-name="grave" unicode="`" 
d="M328 558l-190 97q-19 9 -11 24l11 20q10 19 28 6l178 -124q10 -8 5 -18q-7 -10 -21 -5z" />
    <glyph glyph-name="a" unicode="a" horiz-adv-x="491" 
d="M430 71q2 -26 17 -36t28.5 -12.5t13.5 -11.5q0 -17 -49 -17q-32 0 -47.5 15t-16.5 59q-38 -78 -150 -78q-84 0 -134.5 40.5t-50.5 109.5q-1 70 50.5 109t133.5 39q86 0 131 -47l-3 34q-9 94 -42 141.5t-98 47.5q-39 0 -65.5 -17t-35 -37t-19 -37t-22.5 -17q-28 0 -28 27
q0 38 46.5 72.5t123.5 34.5q88 0 139 -56t60 -158zM237 17q58 0 94 33t35 83l-3 30q-1 40 -36.5 69t-92.5 29q-60 0 -97 -30.5t-37 -80.5q0 -58 37.5 -95.5t99.5 -37.5z" />
    <glyph glyph-name="b" unicode="b" horiz-adv-x="560" 
d="M295 490q96 0 162 -69t66 -174q0 -109 -65.5 -183t-161.5 -74q-52 0 -95 24t-70 66l1 -68q0 -13 -13 -13l-67 1q-12 0 -12 8v3q0 6 9 11t18 13.5t9 22.5v595q0 17 -9 27t-18.5 15t-9.5 11v2q0 6 14 13l55 26q25 12 25 -12v-326q25 37 68 59t94 22zM286 17q80 0 129 60.5
t49 157.5q0 100 -51.5 164t-132.5 64q-58 0 -102.5 -42t-44.5 -96v-42l-1 -102h2q0 -64 46.5 -114t105.5 -50z" />
    <glyph glyph-name="c" unicode="c" horiz-adv-x="501" 
d="M278 -10q-101 0 -172 72t-71 181q0 110 68.5 178.5t172.5 68.5q74 0 131 -39.5t57 -76.5q0 -28 -28 -28q-11 1 -21.5 13t-21.5 29t-26 34t-41.5 29t-62.5 12q-72 1 -120.5 -56t-48.5 -140q0 -105 57.5 -169t145.5 -64q53 0 91 29t57 76q3 7 10.5 9t12.5 -2.5t3 -12.5
q-15 -58 -65.5 -100.5t-127.5 -42.5z" />
    <glyph glyph-name="d" unicode="d" horiz-adv-x="561" 
d="M487 57q0 -18 18 -29.5t18 -16.5v-3q0 -8 -12 -8h-65q-13 0 -13 13l-2 68q-25 -44 -69.5 -67.5t-94.5 -23.5q-94 0 -161.5 71.5t-67.5 180.5q0 108 65.5 178t167.5 70q49 0 91.5 -22t67.5 -59v250q0 14 -6 23t-13 12.5t-13 7.5t-6 9v2q0 9 13 13l56 21q26 10 26 -12v-678
zM283 17q54 0 100.5 43.5t46.5 117.5v140q0 52 -48.5 98.5t-115.5 46.5q-73 0 -121.5 -57.5t-49.5 -145.5q-1 -104 52 -173t136 -70z" />
    <glyph glyph-name="e" unicode="e" horiz-adv-x="497" 
d="M441 136q5 11 17 9t10 -15q-14 -55 -66.5 -97.5t-136.5 -42.5q-96 0 -161.5 70t-65.5 185q0 104 66.5 174.5t166.5 70.5q79 0 132 -46.5t53 -101.5q0 -36 -43 -49l-310 -93q14 -77 63 -121.5t118 -44.5q60 0 99.5 28t57.5 74zM262 463q-73 0 -119 -58t-46 -142
q0 -13 2 -35l278 85q22 6 22 28q0 40 -41 81t-96 41z" />
    <glyph glyph-name="f" unicode="f" horiz-adv-x="326" 
d="M256 739q48 0 84.5 -26.5t36.5 -62.5q0 -11 -7 -18.5t-19 -7.5q-19 0 -27.5 13.5t-10.5 30t-17.5 30.5t-46.5 14q-48 1 -70.5 -46t-13.5 -118v-68h151q12 0 12 -11v-9q0 -11 -12 -11h-151v-391q0 -19 21.5 -29.5t21.5 -16.5v-2q0 -10 -12 -10h-114q-13 0 -13 10v2
q0 6 19 16.5t19 29.5v391h-89q-12 0 -12 11v9q0 11 12 11h89v99q0 72 40 116t109 44z" />
    <glyph glyph-name="g" unicode="g" horiz-adv-x="523" 
d="M463 480q21 0 23 -11q1 -7 -8 -11q-11 -5 -25 -7.5t-32.5 -4t-28.5 -3.5q35 -23 56 -62.5t21 -80.5q0 -64 -34 -112t-93 -71q65 -13 101 -49t36 -84q0 -72 -60.5 -113.5t-160.5 -41.5q-107 0 -166.5 53t-59.5 107q0 28 27 28q13 0 21.5 -16.5t17.5 -40t25 -47.5
t52.5 -40.5t90.5 -16.5q68 0 111 33.5t43 87.5q0 56 -40.5 90t-107.5 35q-8 -1 -24 -1q-85 0 -145 56t-60 135q0 87 58.5 142.5t154.5 55.5q27 0 78.5 -5t128.5 -5zM260 128q67 0 108.5 44t41.5 108q0 76 -47 129.5t-119 53.5q-63 0 -102.5 -43t-39.5 -107q0 -76 45 -130.5
t113 -54.5z" />
    <glyph glyph-name="h" unicode="h" horiz-adv-x="555" 
d="M490 59q1 -19 18.5 -29t17.5 -16v-4q0 -10 -19 -10h-93q-19 0 -19 10v4q0 6 18.5 16t17.5 28l-10 210q-4 92 -42.5 142t-98.5 50q-57 0 -97.5 -37.5t-46.5 -94.5v-271q0 -18 18.5 -27.5t18.5 -15.5v-3q0 -11 -19 -11h-94q-19 0 -19 11v3q0 6 18 15.5t18 27.5v598
q0 21 -18 34t-18 17v2q0 8 12 14l57 25q12 6 18.5 2t6.5 -14l-1 -335q24 41 65.5 65.5t91.5 24.5q80 0 131.5 -56.5t57.5 -166.5z" />
    <glyph glyph-name="i" unicode="i" horiz-adv-x="220" 
d="M107 587q-23 0 -37.5 13.5t-14.5 35.5q0 23 14.5 37t37.5 14q22 0 35.5 -14t13.5 -37q0 -22 -13.5 -35.5t-35.5 -13.5zM66 0q-19 0 -19 11v4q0 6 9 10.5t18 12t9 20.5v335q0 15 -8.5 26t-17.5 17t-9 10v3q0 4 12 11l54 27q27 12 27 -12v-417q0 -13 9.5 -20.5t18.5 -12
t9 -10.5v-4q0 -11 -19 -11h-93z" />
    <glyph glyph-name="j" unicode="j" horiz-adv-x="222" 
d="M115 587q-23 0 -37.5 13.5t-14.5 35.5q0 23 14.5 37t37.5 14q22 0 35.5 -14t13.5 -37q0 -22 -13.5 -35.5t-35.5 -13.5zM50 -179q-41 0 -67.5 20.5t-26.5 50.5q0 29 28 29q14 0 21.5 -11.5t10.5 -24.5t13.5 -24.5t28.5 -11.5q22 0 35.5 16t13.5 42q0 20 -8 55.5t-8 54.5
v376q0 21 -17 34.5t-17 18.5v2q0 7 12 12l56 27q26 12 26 -12v-468q0 -62 -9 -107q-7 -36 -30.5 -57.5t-61.5 -21.5z" />
    <glyph glyph-name="k" unicode="k" horiz-adv-x="498" 
d="M458 48q6 -8 15.5 -13.5t16.5 -8t12 -6.5t5 -9v-2q0 -9 -12 -9h-105q-12 0 -12 9v2q0 6 14 15.5t3 21.5l-175 210l-85 -78v-123q0 -18 18.5 -27.5t18.5 -15.5v-3q0 -11 -19 -11h-93q-18 0 -18 11v3q0 6 17 15.5t17 27.5v597q0 22 -18 35t-18 17v2q0 8 12 12l56 27
q13 5 20 1.5t7 -13.5v-512l223 200q10 13 6 18.5t-14.5 13t-10.5 13.5v3q0 9 13 9h97q12 0 12 -9v-2q0 -6 -9 -12t-25 -15t-27 -19l-140 -129z" />
    <glyph glyph-name="l" unicode="l" horiz-adv-x="215" 
d="M62 0q-19 0 -19 11v3q0 6 17.5 15.5t17.5 27.5v597q0 22 -17.5 35t-17.5 17v2q0 7 12 12l54 27q13 5 20.5 1.5t7.5 -13.5v-678q0 -18 18.5 -27.5t18.5 -15.5v-3q0 -11 -20 -11h-92z" />
    <glyph glyph-name="m" unicode="m" horiz-adv-x="894" 
d="M830 58q0 -14 9 -22t18 -12.5t9 -10.5v-4q0 -9 -18 -9h-94q-18 0 -18 9v4q0 6 9 10.5t17.5 12t8.5 21.5l-10 201q-11 202 -143 202q-55 0 -95.5 -41.5t-42.5 -103.5q4 -21 4 -50v-208q0 -14 9 -21.5t17.5 -12t8.5 -10.5v-4q0 -9 -19 -9h-91q-19 0 -19 9v4q0 6 8.5 10.5
t17 12t8.5 21.5v210q0 88 -40.5 140.5t-101.5 52.5q-58 0 -98.5 -43.5t-43.5 -106.5l1 -253q0 -14 9 -21.5t18 -12t9 -10.5v-4q0 -9 -18 -9h-94q-20 0 -20 9v4q0 6 9.5 10.5t18.5 12t9 21.5v338q0 22 -18.5 34.5t-18.5 17.5v2q0 7 13 13l54 25q25 12 25 -13v-86
q21 46 62.5 74t91.5 28q58 0 104.5 -31.5t69.5 -88.5q17 56 62 88t102 32q177 0 190 -233z" />
    <glyph glyph-name="n" unicode="n" horiz-adv-x="560" 
d="M496 59q0 -14 9 -22t18 -12.5t9 -10.5v-4q0 -10 -20 -10h-93q-18 0 -18 10v4q0 6 9 10.5t17.5 12t8.5 21.5l-9 208q-4 94 -43 144t-99 50q-57 0 -97.5 -37.5t-46.5 -94.5v-271q0 -17 18.5 -27t18.5 -16v-4q0 -10 -19 -10h-94q-19 0 -19 10v4q0 6 18 15.5t18 27.5v338
q0 14 -6 23.5t-12.5 12.5t-12.5 7t-6 9v2q0 7 13 13l53 25q12 6 18.5 2t6.5 -15v-81q23 44 65.5 70.5t94.5 26.5q80 0 131.5 -57t57.5 -168z" />
    <glyph glyph-name="o" unicode="o" horiz-adv-x="558" 
d="M288 -9q-108 0 -179.5 76t-71.5 182q0 102 68 171t171 69q105 0 174.5 -73t69.5 -181q0 -105 -65 -174.5t-167 -69.5zM298 17q69 0 116 56.5t47 142.5q0 106 -55 176.5t-139 70.5q-74 0 -122.5 -55.5t-48.5 -141.5q0 -102 57 -175.5t145 -73.5z" />
    <glyph glyph-name="p" unicode="p" horiz-adv-x="564" 
d="M298 490q95 0 161.5 -69t66.5 -174q0 -109 -65.5 -183t-161.5 -74q-51 0 -94 23.5t-70 64.5v-253q0 -18 19 -28.5t19 -16.5v-3q0 -10 -20 -10h-93q-19 0 -19 10v3q0 6 18 16.5t18 28.5v571q0 19 -19 30.5t-19 17.5v3q0 9 13 15l52 24q25 11 25 -11l-1 -78q24 43 69 68
t101 25zM288 17q79 0 128.5 60.5t49.5 157.5q0 100 -51.5 164t-132.5 64q-58 0 -102.5 -42t-44.5 -96v-144q0 -64 47 -114t106 -50z" />
    <glyph glyph-name="q" unicode="q" horiz-adv-x="562" 
d="M524 453q0 -4 -18 -17.5t-18 -33.5v-578q0 -17 18 -28.5t18 -17.5v-2q0 -9 -19 -9h-93q-19 0 -19 9v2q0 6 19 17.5t19 28.5v257q-25 -44 -69.5 -67.5t-94.5 -23.5q-94 0 -161.5 71.5t-67.5 180.5q0 108 66 178t169 70q50 0 93.5 -24.5t68.5 -64.5v72q0 25 26 14l50 -17
q13 -6 13 -15v-2zM283 17q54 0 101 43.5t47 117.5v140q0 52 -48.5 98.5t-115.5 46.5q-74 0 -122.5 -57.5t-49.5 -145.5q-1 -104 52 -173t136 -70z" />
    <glyph glyph-name="r" unicode="r" horiz-adv-x="357" 
d="M262 490q42 0 66 -20.5t24 -49.5q0 -31 -28 -31q-12 0 -20 10t-12 21.5t-17.5 21.5t-35.5 10q-45 0 -73 -43.5t-28 -109.5v-242q0 -18 20 -28t20 -16v-3q0 -10 -20 -10h-93q-19 0 -19 10v3q0 6 18 16t18 28v338q0 12 -6 21t-12.5 12.5t-12.5 8t-6 9.5v3q0 7 13 13l54 25
q22 10 22 -12v-84q16 48 49.5 73.5t78.5 25.5z" />
    <glyph glyph-name="s" unicode="s" horiz-adv-x="461" 
d="M231 -10q-92 0 -144.5 38.5t-52.5 75.5q0 27 28 27q13 0 21.5 -12t16 -28.5t20 -33.5t41 -29t70.5 -12q59 0 97.5 26.5t38.5 71.5q0 43 -33 66.5t-80 33t-94 20t-80 41t-33 83.5q0 56 50.5 94t128.5 38q85 0 137 -37.5t52 -79.5q0 -26 -25 -26q-12 0 -20 12t-16 29
t-20.5 34.5t-39.5 29.5t-66 12q-50 0 -86 -28t-36 -69q0 -42 33 -64t80 -31t94 -20t80 -42.5t33 -86.5q0 -56 -54 -94.5t-141 -38.5z" />
    <glyph glyph-name="t" unicode="t" horiz-adv-x="341" 
d="M211 -9q-54 0 -85 35t-31 104v319h-77q-12 0 -12 12v7q0 12 12 12h42q56 0 61 93q2 19 14 19h6q12 0 12 -19l2 -93h149q12 0 12 -12v-7q0 -12 -12 -12h-149v-319q0 -46 18 -70t50 -24q34 0 54 18t22 48q3 11 15.5 11t12.5 -13q0 -45 -32 -77t-84 -32z" />
    <glyph glyph-name="u" unicode="u" horiz-adv-x="554" 
d="M470 77q0 -24 9.5 -36t20.5 -13.5t20.5 -4.5t9.5 -11q0 -11 -10.5 -14.5t-37.5 -3.5q-69 0 -66 74l-3 16q-22 -45 -63 -69.5t-95 -24.5q-85 0 -135 63.5t-50 175.5v180q0 19 -18 31.5t-18 18.5v1q0 10 12 13l62 14q21 5 21 -10l-1 -252q0 -96 36 -150t101 -54
q63 0 105 46.5t42 122.5v219q0 15 -9.5 23.5t-19 14t-9.5 12.5v1q0 10 11 13l65 14q20 5 20 -10v-400z" />
    <glyph glyph-name="v" unicode="v" horiz-adv-x="506" 
d="M491 480q13 0 13 -9v-2q0 -7 -20 -18.5t-26 -27.5l-167 -405q-7 -18 -24 -18h-19q-16 0 -24 18l-180 405q-8 17 -24 28t-16 18v2q0 9 13 9h110q12 0 12 -9v-3q0 -3 -18 -17t-12 -28l159 -381l155 377q6 15 -2.5 24t-20 14.5t-11.5 10.5v3q0 9 13 9h89z" />
    <glyph glyph-name="w" unicode="w" horiz-adv-x="744" 
d="M728 480q12 0 12 -10v-2q0 -6 -7 -10t-17 -12t-16 -24l-145 -404q-7 -18 -22 -18h-12q-19 0 -24 18l-123 383l-124 -383q-6 -18 -22 -18h-8q-18 0 -25 18l-157 404q-7 19 -21 29.5t-14 16.5v2q0 10 13 10h97q12 0 12 -10v-2q0 -5 -6 -8.5t-12.5 -6.5t-10 -10.5t1.5 -20.5
l132 -366l132 409q4 14 14 14h20q6 0 8 -3t5 -11l129 -412l129 366q6 16 -2.5 24.5t-19.5 13.5t-11 11v2q0 10 12 10h82z" />
    <glyph glyph-name="x" unicode="x" horiz-adv-x="483" 
d="M421 62q10 -12 23 -22t19.5 -16t6.5 -12v-2q0 -10 -12 -10h-107q-12 0 -12 10v2q0 5 9.5 12.5t13 14t-7.5 23.5l-122 155l-129 -155q-14 -21 -10.5 -27.5t15 -12.5t11.5 -10v-2q0 -10 -13 -10h-93q-13 0 -13 10v2q0 6 7.5 10t23.5 15t30 28l151 177l-137 173
q-12 16 -26 26t-20.5 14.5t-6.5 12.5v2q0 10 12 10h102q13 0 13 -10v-2q0 -6 -8.5 -14t-10.5 -14.5t9 -24.5l118 -147l126 147q12 18 9 25t-12.5 15t-9.5 13v2q0 10 12 10h75q12 0 12 -10v-2q0 -6 -4.5 -11t-17.5 -16t-25 -26l-147 -171z" />
    <glyph glyph-name="y" unicode="y" horiz-adv-x="509" 
d="M495 480q12 0 12 -10v-2q0 -8 -16.5 -19.5t-26.5 -33.5l-189 -421q-48 -110 -77 -147q-46 -58 -105 -58q-46 0 -78 26.5t-32 53.5q0 29 27 29q12 0 21.5 -12.5t15.5 -28t21 -28t38 -12.5q65 0 131 168l-189 430q-9 22 -26.5 33.5t-17.5 19.5v2q0 10 12 10h101
q12 0 12 -10v-2q0 -7 -8 -13.5t-12 -12.5t2 -27l157 -374l161 370q9 20 0 30t-22 15.5t-13 11.5v2q0 10 13 10h88z" />
    <glyph glyph-name="z" unicode="z" horiz-adv-x="463" 
d="M441 122q15 0 9 -18l-27 -84q-7 -20 -23 -20h-356q-17 0 -17 16v4q0 6 9 22l317 412h-217q-20 0 -36 -23t-28 -46.5t-21 -23.5h-4q-15 0 -9 19l25 81q7 19 22 19h314q17 0 17 -16v-7q0 -8 -12 -23l-315 -408h254q18 0 32.5 15t22.5 33t18.5 33t19.5 15h5z" />
    <glyph glyph-name="braceleft" unicode="{" horiz-adv-x="270" 
d="M237 -59q11 0 15.5 -7.5t0.5 -15.5t-14 -8q-64 0 -103 38.5t-39 111.5v129q0 63 -17 93t-40 30q-17 0 -17.5 21.5t17.5 21.5q23 0 40 29t17 86v151q0 72 39.5 111t105.5 38q10 0 14.5 -7.5t0.5 -15.5t-15 -8q-40 0 -64 -31t-25 -85l-1 -152q0 -67 -21.5 -99t-47.5 -39
q69 -19 69 -145v-130q0 -55 23 -86t62 -31z" />
    <glyph glyph-name="bar" unicode="|" horiz-adv-x="221" 
d="M97 -90q-9 0 -9 12v777q0 12 9 12h27q9 0 9 -12v-777q0 -12 -9 -12h-27z" />
    <glyph glyph-name="braceright" unicode="}" horiz-adv-x="271" 
d="M230 355q19 0 18.5 -21.5t-18.5 -21.5q-23 0 -39.5 -30t-16.5 -93v-129q0 -73 -39 -111.5t-103 -38.5q-11 0 -15 8t1 15.5t16 7.5q39 0 62 31t23 86v130q-1 127 69 145q-27 7 -48.5 39t-21.5 99v152q-1 54 -25 85t-64 31q-11 0 -15.5 8t0.5 15.5t15 7.5q65 1 105 -38
t40 -111v-151q0 -57 17 -86t39 -29z" />
    <glyph glyph-name="asciitilde" unicode="~" 
d="M191 364q43 0 110 -35t103 -35q63 0 81 52q6 12 15 12h12q12 0 9 -15q-9 -43 -42.5 -68.5t-75.5 -25.5t-80.5 17.5t-71 35.5t-60.5 18q-53 0 -74 -55q-6 -14 -18 -14h-9q-4 0 -7 4.5t-2 10.5q9 41 37.5 69.5t72.5 28.5z" />
    <glyph glyph-name="exclamdown" unicode="&#xa1;" horiz-adv-x="206" 
d="M103 346q-21 0 -35 13t-14 34q0 23 13.5 36.5t35.5 13.5t35.5 -13.5t13.5 -36.5q0 -21 -14 -34t-35 -13zM140 -179q0 -18 -17.5 -25t-35 0.5t-17.5 25.5q7 302 17 450q2 12 15.5 11.5t14.5 -11.5q17 -203 23 -451z" />
    <glyph glyph-name="cent" unicode="&#xa2;" horiz-adv-x="518" 
d="M456 262q3 7 11 9t13.5 -2.5t3.5 -12.5q-15 -61 -61.5 -109t-129.5 -52v-82q0 -13 -10 -13h-12q-10 0 -10 13v83q-89 9 -154.5 84.5t-65.5 178.5q0 109 63 180.5t157 79.5v82q0 13 10 13h13q9 0 9 -13v-81q70 -4 123 -43.5t53 -75.5q0 -28 -28 -28q-16 0 -29 16t-23 36
t-35 39.5t-61 24.5v-448h10q102 0 153 121zM101 387q0 -95 45 -160t115 -81v445q-64 -3 -112 -62.5t-48 -141.5z" />
    <glyph glyph-name="sterling" unicode="&#xa3;" horiz-adv-x="645" 
d="M583 133q5 12 18.5 8.5t9.5 -17.5q-43 -136 -196 -136q-25 0 -47.5 4.5t-50 18t-36.5 18t-40 23.5q-41 -62 -107 -62q-37 0 -58 19t-21 48t23.5 47t61.5 18t78 -16q6 26 6 54q0 66 -44 152h-132q-12 0 -12 7v19q0 7 12 7h116q-40 78 -40 154q0 100 63 161.5t179 61.5
q83 0 147 -39.5t64 -81.5q0 -14 -8.5 -23.5t-23.5 -9.5q-13 0 -24 12.5t-22 30.5t-27 36t-47 30.5t-73 12.5q-82 0 -125 -53.5t-43 -133.5q0 -74 38 -158h207q12 0 12 -8v-18q0 -7 -12 -7h-192q33 -75 34 -151q0 -38 -13 -73q4 -2 24.5 -12t27.5 -13t25 -10t29.5 -10
t28 -5.5t31.5 -2.5q57 0 100 27t59 71zM133 19q47 0 72 52q-37 20 -68 20q-23 0 -36.5 -10t-13.5 -25q0 -16 13 -26.5t33 -10.5z" />
    <glyph glyph-name="currency" unicode="&#xa4;" horiz-adv-x="623" 
d="M487 216l71 -71q8 -10 0 -15l-12 -13q-8 -5 -16 1l-71 72q-65 -49 -151 -49q-85 0 -145 47l-69 -70q-7 -7 -16 -1l-13 13q-8 6 1 15l69 69q-49 57 -49 132q0 74 49 129l-69 68q-8 8 -1 14l14 13q7 6 15 0l68 -69q62 49 146 49q90 0 153 -49l69 69q8 7 16 0l12 -13
q8 -5 0 -14l-69 -68q49 -55 49 -129t-51 -130zM310 179q76 0 126.5 49.5t50.5 118.5q0 68 -50.5 116.5t-126.5 48.5t-124.5 -48.5t-48.5 -116.5q0 -70 48.5 -119t124.5 -49z" />
    <glyph glyph-name="yen" unicode="&#xa5;" horiz-adv-x="693" 
d="M638 710q18 0 18 -9v-2q0 -6 -7 -10t-19.5 -12t-21.5 -23l-214 -343h217q12 0 12 -8v-13q0 -8 -12 -8h-233v-68h214q12 0 12 -7v-14q0 -8 -12 -8h-214v-129q0 -17 18 -28t18 -17v-1q0 -10 -18 -10h-95q-18 0 -18 10v1q0 6 17 17t17 28v129h-192q-12 0 -12 8v14q0 7 12 7
h192v68h-211q-12 0 -12 8v13q0 8 12 8h194l-224 343q-8 13 -21 21t-21.5 13t-8.5 11v1q0 10 19 10h107q18 0 18 -10v-1q0 -6 -10.5 -12.5t-16.5 -12t1 -20.5l215 -343l214 343q7 17 0 22.5t-19.5 11t-12.5 11.5v1q0 10 17 10h81z" />
    <glyph glyph-name="brokenbar" unicode="&#xa6;" horiz-adv-x="221" 
d="M97 345q-9 0 -9 11v342q0 12 9 12h27q9 0 9 -12v-342q0 -11 -9 -11h-27zM97 -90q-9 0 -9 12v315q0 10 9 12h27q9 0 9 -12v-315q0 -12 -9 -12h-27z" />
    <glyph glyph-name="section" unicode="&#xa7;" 
d="M478 150q68 -43 68 -128q0 -68 -66.5 -118t-168.5 -50q-68 0 -124 19t-88 47t-49 56t-17 50q0 30 30 30q11 0 21 -12.5t18.5 -32t25 -41.5t38 -41.5t61 -32t90.5 -12.5q73 0 122 38t49 87q0 42 -23.5 69.5t-61.5 41.5t-84 23.5t-91.5 20.5t-83.5 28t-61.5 51.5
t-23.5 84.5q1 48 23 82t53 51q-64 43 -64 122q0 78 65 124t162 46q116 0 183.5 -51.5t67.5 -106.5q0 -31 -30 -31q-15 0 -26 16.5t-22 39.5t-28.5 46t-55.5 39.5t-92 16.5q-67 0 -116.5 -35.5t-49.5 -91.5t44 -87.5t106.5 -45.5t125 -30t106.5 -55t44 -105q0 -73 -77 -122z
M118 345q0 -40 20.5 -67t57.5 -41.5t75 -23.5t88 -20t81 -24q31 23 45 44t14 50q0 36 -21 61t-58.5 40t-76 24.5t-88.5 23t-82 27.5q-22 -12 -38.5 -39t-16.5 -55z" />
    <glyph glyph-name="dieresis" unicode="&#xa8;" 
d="M191 589q-22 0 -35.5 12.5t-13.5 33.5q0 22 13.5 35t35.5 13q21 0 33.5 -13t12.5 -35q0 -21 -12.5 -33.5t-33.5 -12.5zM361 589q-21 0 -34 12.5t-13 33.5q0 22 13 35t34 13t34 -13.5t13 -34.5t-13 -33.5t-34 -12.5z" />
    <glyph glyph-name="copyright" unicode="&#xa9;" horiz-adv-x="881" 
d="M441 -59q-167 0 -285 117.5t-118 284.5t118 284t285 117t284.5 -117.5t117.5 -283.5q0 -167 -117.5 -284.5t-284.5 -117.5zM441 -25q148 0 254 109t106 259t-106 258.5t-254 108.5q-149 0 -255.5 -108.5t-106.5 -258.5q0 -151 106 -259.5t256 -108.5zM447 121
q-94 0 -160 68.5t-66 160.5q0 98 62.5 159.5t163.5 61.5q71 0 128 -39.5t57 -77.5q0 -23 -24 -23q-13 0 -24 11.5t-22 28t-25 33.5t-40 28.5t-61 11.5q-71 0 -114 -50t-43 -125q0 -87 51.5 -144.5t137.5 -57.5q99 0 140 100q5 10 17 6.5t10 -15.5q-13 -58 -61 -97.5
t-127 -39.5z" />
    <glyph glyph-name="ordfeminine" unicode="&#xaa;" horiz-adv-x="410" 
d="M336 428q2 -15 8.5 -22t14 -7.5t13 -3.5t5.5 -11q0 -17 -45 -17q-20 0 -29.5 9.5t-10.5 38.5q-32 -54 -110 -54q-61 0 -98.5 31t-37.5 79q0 50 37 79t100 29q60 0 93 -33l-2 22q-6 65 -29.5 95.5t-70.5 30.5q-28 0 -45 -11.5t-22 -25.5t-13 -25.5t-21 -11.5q-23 0 -23 24
q0 29 36 52.5t88 23.5q63 0 102 -38t47 -114zM192 387q38 0 65 21.5t26 53.5l-3 39q-8 22 -33 36.5t-58 14.5q-41 0 -66.5 -20.5t-25.5 -55.5q0 -39 26 -64t69 -25z" />
    <glyph glyph-name="guillemotleft" unicode="&#xab;" horiz-adv-x="507" 
d="M209 479q5 9 18.5 4.5t9.5 -14.5q-36 -93 -147 -180q108 -100 140 -167q1 -4 -5 -9t-14 -5t-16 8q-82 101 -151 153q-7 5 -6.5 21t6.5 21q105 72 165 168zM456 469q-36 -93 -147 -180q107 -100 140 -167q1 -4 -5 -9t-14 -5t-16 8q-82 101 -151 153q-7 5 -6.5 21t6.5 21
q103 70 165 168q1 2 4 3.5t5.5 2t6 0t6 -2t4.5 -3.5t2.5 -4.5t-0.5 -5.5z" />
    <glyph glyph-name="registered" unicode="&#xae;" horiz-adv-x="881" 
d="M441 744q167 0 284.5 -117.5t117.5 -283.5q0 -167 -117.5 -285t-284.5 -118t-285 118t-118 285t118 284t285 117zM441 -23q148 0 254 108t106 258t-106 258.5t-254 108.5q-149 0 -255.5 -108.5t-106.5 -258.5q0 -151 106 -258.5t256 -107.5zM597 183q5 -8 11 -13t10 -7
t6.5 -4.5t2.5 -6.5v-3q0 -9 -11 -9h-80q-12 0 -12 8v4q0 4 11.5 11t3.5 20l-85 130h-4l-89 -3v-128q0 -11 13 -18t13 -11v-5q0 -8 -11 -8h-82q-12 0 -12 8v5q0 4 13 11t13 18v354q0 11 -13 18t-13 12v3q0 8 12 8h137q84 0 135 -36t52 -95q1 -44 -30 -78.5t-86 -47.5z
M443 338q51 0 84 28.5t33 72.5q0 50 -33 80.5t-88 30.5h-60q-18 0 -18 -18v-173q0 -9 7 -15t16 -6h59z" />
    <glyph glyph-name="macron" unicode="&#xaf;" 
d="M171 614q-15 0 -15 13v17q0 11 15 11h257q15 0 15 -11v-17q0 -13 -15 -13h-257z" />
    <glyph glyph-name="degree" unicode="&#xb0;" horiz-adv-x="398" 
d="M198 392q-70 0 -115 47.5t-45 115.5t45 116t116 48q70 0 115.5 -47.5t45.5 -114.5q0 -69 -45.5 -117t-116.5 -48zM199 418q51 0 83 40t32 98q0 57 -32 96.5t-83 39.5t-83 -39.5t-32 -96.5q0 -58 32 -98t83 -40z" />
    <glyph glyph-name="plusminus" unicode="&#xb1;" 
d="M287 121q-9 0 -9 12v164h-162q-10 0 -12 8l1 24q0 8 11 8h162v164q0 10 9 12l26 -1q9 0 9 -11v-164h162q12 0 12 -8v-24q0 -8 -12 -8h-162v-164q0 -12 -9 -12h-26zM116 0q-11 0 -11 8v24q0 8 11 8h368q12 0 12 -8v-24q0 -8 -12 -8h-368z" />
    <glyph glyph-name="acute" unicode="&#xb4;" horiz-adv-x="367" 
d="M86 559q-14 -5 -20 5t4 18l178 123q18 14 29 -5l10 -20q4 -7 1 -14t-12 -10z" />
    <glyph glyph-name="paragraph" unicode="&#xb6;" horiz-adv-x="612" 
d="M317 -186q-47 0 -87 16.5t-64 41t-37.5 49.5t-13.5 45q0 36 32 36q16 0 26 -16.5t18 -39.5t20.5 -46t42 -39.5t73.5 -16.5q57 0 95.5 45t38.5 145v643h-97v-415q0 -18 -17 -18h-86q-99 0 -165 66t-66 172q0 101 66 164.5t165 63.5h276q20 0 20 -12v-2q0 -7 -6.5 -11
t-14 -5.5t-14 -9.5t-6.5 -22l-1 -594q0 -119 -55.5 -179.5t-142.5 -60.5z" />
    <glyph glyph-name="periodcentered" unicode="&#xb7;" horiz-adv-x="214" 
d="M107 337q-22 0 -36 13t-14 35q0 24 14 37.5t36 13.5t36.5 -13.5t14.5 -37.5q0 -22 -14.5 -35t-36.5 -13z" />
    <glyph glyph-name="cedilla" unicode="&#xb8;" 
d="M326 -58q43 0 71 -18.5t28 -49.5t-29 -51t-73 -20q-46 0 -80 22q-13 8 -6 23q5 10 15 4q28 -19 63 -19q25 0 44 11t18 31q-1 40 -68 40q-26 0 -21 30l12 55h29z" />
    <glyph glyph-name="ordmasculine" unicode="&#xba;" horiz-adv-x="424" 
d="M218 363q-78 0 -129.5 52.5t-51.5 130.5q0 75 48.5 124.5t126.5 49.5q72 0 123 -54t51 -130t-48.5 -124.5t-119.5 -48.5zM222 388q49 0 81 39.5t32 99.5q0 70 -38 118.5t-94 48.5q-53 0 -84.5 -38.5t-31.5 -97.5q0 -73 38 -121.5t97 -48.5z" />
    <glyph glyph-name="guillemotright" unicode="&#xbb;" horiz-adv-x="510" 
d="M245 311q6 -5 6.5 -21t-6.5 -21q-69 -52 -151 -153q-8 -8 -16.5 -8t-14.5 5t-4 9q32 67 140 167q-111 87 -147 180q-4 10 9.5 14.5t18.5 -4.5q61 -98 165 -168zM466 311q7 -5 7 -21t-7 -21q-67 -51 -151 -153q-8 -8 -16 -8t-14 5t-5 9q33 68 141 167q-112 88 -148 180
q-4 10 9.5 14.5t18.5 -4.5q62 -98 165 -168z" />
    <glyph glyph-name="onequarter" unicode="&#xbc;" horiz-adv-x="670" 
d="M173 360q0 -8 -18 -8h-85q-17 0 -17 8v4q0 4 18 12.5t18 27.5v227q0 22 -14.5 25.5t-26.5 -1.5t-14 7v2q0 8 14 13l96 36q16 5 16 -6v-3q0 -3 -12.5 -16.5t-12.5 -35.5v-248q0 -19 19 -27.5t19 -12.5v-4zM533 557q9 -7 -1 -17l-382 -371q-9 -9 -19 -1l-12 10q-9 8 -1 16
l384 372q11 9 19 2zM631 124q10 0 10 -7v-12q0 -8 -10 -8h-60v-49q0 -18 17 -25t17 -13v-2q0 -8 -13 -8h-84q-14 0 -14 8v2q0 6 17 13t17 25v49h-184q-15 0 -15 12v3q0 10 7 19l181 238q12 14 23 14h21q10 0 10 -12v-247h60zM367 124h161v217z" />
    <glyph glyph-name="onehalf" unicode="&#xbd;" horiz-adv-x="705" 
d="M166 360q0 -8 -17 -8h-78q-17 0 -17 8v4q0 4 15.5 12.5t15.5 27.5v230q0 20 -13 23t-24 -2t-13 7v2q0 9 13 13l93 36q15 5 15 -6v-3q0 -4 -12 -16.5t-12 -32.5v-251q0 -19 17 -27.5t17 -12.5v-4zM529 557q9 -7 -1 -17l-381 -371q-10 -10 -20 -1l-12 10q-8 9 -1 16
l385 372q9 9 18 2zM669 97q3 0 5.5 -2.5t1.5 -6.5l-24 -76q-3 -10 -12 -10h-250q-9 0 -9 8v3q0 37 34.5 72.5t75.5 59t75.5 56t34.5 65.5t-21.5 52.5t-55.5 19.5q-29 0 -48.5 -14t-27 -31.5t-16.5 -31.5t-19 -14q-21 0 -21 25q0 32 40 61.5t93 29.5q55 0 88.5 -28t33.5 -72
q0 -37 -31.5 -70.5t-71 -54.5t-78 -49t-49.5 -54h184q15 0 26.5 15.5t20 31t15.5 15.5h6z" />
    <glyph glyph-name="threequarters" unicode="&#xbe;" horiz-adv-x="698" 
d="M314 458q0 -45 -39 -77t-99 -32q-65 0 -106.5 32t-41.5 62q0 20 18 20q10 0 17 -9.5t14 -22.5t17 -26t31 -22.5t50 -9.5q40 0 67 23t27 56q0 39 -29 61.5t-77 22.5h-7q-9 0 -12.5 8t3.5 15l100 116h-183q-11 0 -11 11v14q0 10 12 10h233q9 0 9 -7v-4q0 -6 -5 -12
l-122 -129q58 -2 96 -28.5t38 -71.5zM611 557q10 -8 -1 -17l-381 -371q-10 -10 -20 -1l-11 10q-9 9 -2 16l385 372q9 9 18 2zM652 124q11 0 11 -7v-12q0 -8 -11 -8h-60v-49q0 -18 17 -25t17 -13v-2q0 -8 -13 -8h-83q-14 0 -14 8v2q0 6 16.5 13t16.5 25v49h-183q-15 0 -15 12
v3q0 11 7 19l181 238q11 14 23 14h21q9 0 9 -12v-247h60zM388 124h161v216z" />
    <glyph glyph-name="questiondown" unicode="&#xbf;" horiz-adv-x="484" 
d="M267 395q-21 0 -34 12.5t-13 33.5q0 23 13 36t34 13q22 0 35.5 -13t13.5 -36q0 -21 -14 -33.5t-35 -12.5zM239 -235q-91 0 -149.5 47t-58.5 135q0 49 22.5 89.5t54.5 69.5t64 57t54.5 65t22.5 81q0 10 11 14t22.5 0t12.5 -14q2 -49 -18 -89.5t-50.5 -69.5t-61.5 -57
t-53 -66.5t-22 -84.5q0 -66 43.5 -105.5t103.5 -39.5q44 0 75.5 16.5t46.5 40.5t25.5 48t20.5 40.5t23 16.5q32 0 32 -33q0 -48 -61.5 -104.5t-159.5 -56.5z" />
    <glyph glyph-name="Agrave" unicode="&#xc0;" horiz-adv-x="656" 
d="M194 849q-20 5 -15 22l7 22q6 19 27 10l197 -89q11 -6 8 -17q-3 -10 -19 -8zM610 56q8 -17 26.5 -27.5t18.5 -17.5v-1q0 -10 -19 -10h-102q-19 0 -19 10v1q0 6 10.5 11t18.5 13t2 21l-57 138h-344l-53 -138q-4 -11 0 -18t11 -10t13.5 -7.5t6.5 -9.5v-1q0 -10 -19 -10h-78
q-18 0 -18 10v1q0 7 18.5 17.5t25.5 27.5l233 595q5 12 -2.5 20.5t-17.5 15.5t-10 12v2q0 9 12 9h38q26 0 39 -28zM157 227h318l-165 399z" />
    <glyph glyph-name="Aacute" unicode="&#xc1;" horiz-adv-x="656" 
d="M233 786q-15 -4 -19 8q-3 10 8 17l201 82q20 10 26 -11l6 -22q5 -17 -16 -21zM610 56q8 -17 26.5 -27.5t18.5 -17.5v-1q0 -10 -19 -10h-102q-19 0 -19 10v1q0 6 10.5 11t18.5 13t2 21l-57 138h-344l-53 -138q-4 -11 0 -18t11 -10t13.5 -7.5t6.5 -9.5v-1q0 -10 -19 -10
h-78q-18 0 -18 10v1q0 7 18.5 17.5t25.5 27.5l233 595q5 12 -2.5 20.5t-17.5 15.5t-10 12v2q0 9 12 9h38q26 0 39 -28zM157 227h318l-165 399z" />
    <glyph glyph-name="Acircumflex" unicode="&#xc2;" horiz-adv-x="656" 
d="M201 766q-12 -8 -21 1.5t3 20.5l110 95q12 12 25 12h12q12 0 25 -12l113 -95q12 -11 4.5 -21t-22.5 -1l-127 83zM610 56q8 -17 26.5 -27.5t18.5 -17.5v-1q0 -10 -19 -10h-102q-19 0 -19 10v1q0 6 10.5 11t18.5 13t2 21l-57 138h-344l-53 -138q-4 -11 0 -18t11 -10
t13.5 -7.5t6.5 -9.5v-1q0 -10 -19 -10h-78q-18 0 -18 10v1q0 7 18.5 17.5t25.5 27.5l233 595q5 12 -2.5 20.5t-17.5 15.5t-10 12v2q0 9 12 9h38q26 0 39 -28zM157 227h318l-165 399z" />
    <glyph glyph-name="Atilde" unicode="&#xc3;" horiz-adv-x="656" 
d="M172 786q-12 0 -9 15q8 38 30.5 61.5t58.5 23.5q33 0 82.5 -30t68.5 -30q39 0 55 42q4 11 14 11h5q12 0 9 -14q-21 -82 -90 -82q-31 0 -79 30.5t-71 30.5q-39 0 -55 -44q-6 -14 -13 -14h-6zM610 56q8 -17 26.5 -27.5t18.5 -17.5v-1q0 -10 -19 -10h-102q-19 0 -19 10v1
q0 6 10.5 11t18.5 13t2 21l-57 138h-344l-53 -138q-4 -11 0 -18t11 -10t13.5 -7.5t6.5 -9.5v-1q0 -10 -19 -10h-78q-18 0 -18 10v1q0 7 18.5 17.5t25.5 27.5l233 595q5 12 -2.5 20.5t-17.5 15.5t-10 12v2q0 9 12 9h38q26 0 39 -28zM157 227h318l-165 399z" />
    <glyph glyph-name="Adieresis" unicode="&#xc4;" horiz-adv-x="656" 
d="M241 799q-22 0 -35.5 13t-13.5 34q0 22 13.5 35t35.5 13q21 0 33.5 -13t12.5 -35q0 -21 -12.5 -34t-33.5 -13zM412 799q-22 0 -35 13t-13 34q0 22 13 35t35 13q20 0 33 -13t13 -35q0 -21 -13 -34t-33 -13zM610 56q8 -17 26.5 -27.5t18.5 -17.5v-1q0 -10 -19 -10h-102
q-19 0 -19 10v1q0 6 10.5 11t18.5 13t2 21l-57 138h-344l-53 -138q-4 -11 0 -18t11 -10t13.5 -7.5t6.5 -9.5v-1q0 -10 -19 -10h-78q-18 0 -18 10v1q0 7 18.5 17.5t25.5 27.5l233 595q5 12 -2.5 20.5t-17.5 15.5t-10 12v2q0 9 12 9h38q26 0 39 -28zM157 227h318l-165 399z
" />
    <glyph glyph-name="Aring" unicode="&#xc5;" horiz-adv-x="656" 
d="M322 764q-46 0 -76 28t-30 68q0 41 30 69.5t77 28.5q46 0 76.5 -28t30.5 -68q0 -42 -30.5 -70t-77.5 -28zM323 930q-29 0 -47 -19.5t-18 -49.5q0 -29 18 -49.5t47 -20.5t47 20t18 50q0 29 -18 49t-47 20zM610 56q8 -17 26.5 -27.5t18.5 -17.5v-1q0 -10 -19 -10h-102
q-19 0 -19 10v1q0 6 10.5 11t18.5 13t2 21l-57 138h-344l-53 -138q-4 -11 0 -18t11 -10t13.5 -7.5t6.5 -9.5v-1q0 -10 -19 -10h-78q-18 0 -18 10v1q0 7 18.5 17.5t25.5 27.5l233 595q5 12 -2.5 20.5t-17.5 15.5t-10 12v2q0 9 12 9h38q26 0 39 -28zM157 227h318l-165 399z
" />
    <glyph glyph-name="AE" unicode="&#xc6;" horiz-adv-x="917" 
d="M887 126q12 0 8 -15l-24 -92q-5 -19 -23 -19h-406q-19 0 -19 10v1q0 8 18 18.5t18 28.5v138h-273l-84 -140q-7 -16 -1 -21t17 -11t11 -12v-1q0 -11 -20 -11h-95q-19 0 -19 11v1q0 6 7.5 10t20.5 12.5t21 22.5l356 584q9 20 5 28t-14.5 16t-10.5 13v2q0 10 17 10h421
q18 0 23 -19l23 -89q5 -17 -8 -17h-5q-9 0 -21.5 23.5t-29.5 47t-37 23.5h-225q-23 0 -23 -31v-266h226q14 0 22.5 13t13.5 25.5t11 12.5h3q12 0 12 -20v-95q0 -19 -12 -19h-3q-6 0 -11 12.5t-13.5 25t-22.5 12.5h-226v-286q0 -15 8 -23.5t21 -8.5h250q21 0 38 23.5
t29.5 47.5t21.5 24h4zM205 228h254v423z" />
    <glyph glyph-name="Ccedilla" unicode="&#xc7;" horiz-adv-x="684" 
d="M626 228q4 9 13 12t15 -3t3 -19q-23 -91 -92.5 -157.5t-177.5 -70.5l-3 -48q43 0 71 -18.5t28 -49.5t-29 -51t-73 -20q-46 0 -80 22q-13 8 -6 23q5 10 15 4q26 -19 63 -19q25 0 43.5 11t17.5 31q-1 40 -67 40q-26 0 -21 30l10 46q-126 8 -221 116.5t-95 254.5
q0 157 94 257.5t237 100.5q109 0 188.5 -64.5t79.5 -120.5q0 -14 -8.5 -22t-22.5 -8q-16 0 -29.5 19t-28.5 45.5t-36 53.5t-62.5 46t-98.5 19q-104 0 -179 -84t-75 -212q0 -150 87.5 -249.5t206.5 -99.5q88 0 146 54.5t87 130.5z" />
    <glyph glyph-name="Egrave" unicode="&#xc8;" horiz-adv-x="592" 
d="M373 789l-205 60q-20 5 -15 22l7 22q6 19 27 10l197 -89q11 -6 8 -17q-3 -10 -19 -8zM84 0q-18 0 -18 10v1q0 6 17.5 16.5t17.5 30.5v594q0 12 -5.5 20t-12 11.5t-12 7.5t-5.5 8v2q0 9 15 9h413q18 0 23 -19l24 -90q5 -18 -9 -18h-4q-9 0 -22 24t-30 48t-37 24h-256
q-23 0 -23 -29v-269h212q18 0 27.5 25.5t16.5 25.5h4q10 0 10 -14v-104q0 -16 -10 -16h-4q-7 0 -16.5 25.5t-27.5 25.5h-212l-1 -284q0 -15 8.5 -24.5t21.5 -9.5h281q20 0 36.5 24.5t29 48.5t22.5 24h4q14 0 9 -17l-23 -91q-7 -20 -23 -20h-441z" />
    <glyph glyph-name="Eacute" unicode="&#xc9;" horiz-adv-x="592" 
d="M207 786q-15 -3 -19 8q-3 10 8 17l200 82q21 10 27 -11l6 -22q5 -17 -16 -21zM84 0q-18 0 -18 10v1q0 6 17.5 16.5t17.5 30.5v594q0 12 -5.5 20t-12 11.5t-12 7.5t-5.5 8v2q0 9 15 9h413q18 0 23 -19l24 -90q5 -18 -9 -18h-4q-9 0 -22 24t-30 48t-37 24h-256
q-23 0 -23 -29v-269h212q18 0 27.5 25.5t16.5 25.5h4q10 0 10 -14v-104q0 -16 -10 -16h-4q-7 0 -16.5 25.5t-27.5 25.5h-212l-1 -284q0 -15 8.5 -24.5t21.5 -9.5h281q20 0 36.5 24.5t29 48.5t22.5 24h4q14 0 9 -17l-23 -91q-7 -20 -23 -20h-441z" />
    <glyph glyph-name="Ecircumflex" unicode="&#xca;" horiz-adv-x="592" 
d="M175 766q-12 -8 -21 1.5t3 20.5l110 95q12 12 25 12h13q10 0 24 -12l113 -95q12 -11 4.5 -21t-22.5 -1l-127 83zM562 128q14 0 9 -17l-23 -91q-7 -20 -23 -20h-441q-18 0 -18 10v1q0 6 17.5 16.5t17.5 30.5v594q0 12 -5.5 20t-12 11.5t-12 7.5t-5.5 8v2q0 9 15 9h413
q18 0 23 -19l24 -90q5 -18 -9 -18h-4q-9 0 -22 24t-30 48t-37 24h-256q-23 0 -23 -29v-269h212q18 0 27.5 25.5t16.5 25.5h4q10 0 10 -14v-104q0 -16 -10 -16h-4q-7 0 -16.5 25.5t-27.5 25.5h-212l-1 -284q0 -15 8.5 -24.5t21.5 -9.5h281q20 0 36.5 24.5t29 48.5t22.5 24h4z
" />
    <glyph glyph-name="Edieresis" unicode="&#xcb;" horiz-adv-x="592" 
d="M212 799q-22 0 -35.5 13t-13.5 34q0 22 13.5 35t35.5 13q21 0 33.5 -13t12.5 -35q0 -21 -12.5 -34t-33.5 -13zM382 799q-21 0 -34 13t-13 34q0 22 13 35t34 13t34 -13t13 -35q0 -21 -13 -34t-34 -13zM84 0q-18 0 -18 10v1q0 6 17.5 16.5t17.5 30.5v594q0 12 -5.5 20
t-12 11.5t-12 7.5t-5.5 8v2q0 9 15 9h413q18 0 23 -19l24 -90q5 -18 -9 -18h-4q-9 0 -22 24t-30 48t-37 24h-256q-23 0 -23 -29v-269h212q18 0 27.5 25.5t16.5 25.5h4q10 0 10 -14v-104q0 -16 -10 -16h-4q-7 0 -16.5 25.5t-27.5 25.5h-212l-1 -284q0 -15 8.5 -24.5
t21.5 -9.5h281q20 0 36.5 24.5t29 48.5t22.5 24h4q14 0 9 -17l-23 -91q-7 -20 -23 -20h-441z" />
    <glyph glyph-name="Igrave" unicode="&#xcc;" horiz-adv-x="263" 
d="M202 789l-205 60q-20 5 -15 22l7 22q6 19 27 10l197 -89q11 -6 8 -17q-4 -10 -19 -8zM67 9v2q0 6 8.5 10.5t17 12.5t8.5 21v599q0 13 -8.5 21t-17 13t-8.5 11v1q0 10 18 10h94q19 0 19 -10v-1q0 -6 -9 -11t-18.5 -13t-9.5 -21v-599q0 -13 9.5 -21t18.5 -12.5t9 -10.5v-2
q0 -10 -19 -10h-94q-18 0 -18 10z" />
    <glyph glyph-name="Iacute" unicode="&#xcd;" horiz-adv-x="263" 
d="M36 786q-15 -3 -19 8q-3 10 8 17l200 82q21 10 27 -11l6 -22q5 -17 -16 -21zM67 9v2q0 6 8.5 10.5t17 12.5t8.5 21v599q0 13 -8.5 21t-17 13t-8.5 11v1q0 10 18 10h94q19 0 19 -10v-1q0 -6 -9 -11t-18.5 -13t-9.5 -21v-599q0 -13 9.5 -21t18.5 -12.5t9 -10.5v-2
q0 -10 -19 -10h-94q-18 0 -18 10z" />
    <glyph glyph-name="Icircumflex" unicode="&#xce;" horiz-adv-x="263" 
d="M271 788q12 -11 4.5 -21t-22.5 -1l-127 82l-123 -82q-12 -8 -20.5 1.5t3.5 20.5l110 95q12 12 24 12h13q11 0 25 -12zM179 710q19 0 19 -10v-1q0 -6 -9 -11t-18.5 -13t-9.5 -21v-599q0 -13 9.5 -21t18.5 -12.5t9 -10.5v-2q0 -10 -19 -10h-94q-18 0 -18 10v2q0 6 8.5 10.5
t17 12.5t8.5 21v599q0 13 -8.5 21t-17 13t-8.5 11v1q0 10 18 10h94z" />
    <glyph glyph-name="Idieresis" unicode="&#xcf;" horiz-adv-x="263" 
d="M44 799q-22 0 -35.5 13t-13.5 34q0 22 13.5 35t35.5 13q21 0 33.5 -13t12.5 -35q0 -21 -12.5 -34t-33.5 -13zM214 799q-21 0 -34 13t-13 34q0 22 13 35t34 13q20 0 33.5 -13t13.5 -35q0 -21 -13.5 -34t-33.5 -13zM67 9v2q0 6 8.5 10.5t17 12.5t8.5 21v599q0 13 -8.5 21
t-17 13t-8.5 11v1q0 10 18 10h94q19 0 19 -10v-1q0 -6 -9 -11t-18.5 -13t-9.5 -21v-599q0 -13 9.5 -21t18.5 -12.5t9 -10.5v-2q0 -10 -19 -10h-94q-18 0 -18 10z" />
    <glyph glyph-name="Eth" unicode="&#xd0;" horiz-adv-x="735" 
d="M306 710q100 0 187 -40t143.5 -120.5t56.5 -184.5q0 -168 -104 -266.5t-257 -98.5h-244q-19 0 -19 10v1q0 6 17.5 17t17.5 28v286h-59q-14 0 -14 10v11q0 10 14 10h59v280q0 14 -9 22t-17.5 13t-8.5 11v1q0 10 19 10h218zM328 32q126 0 214.5 83.5t88.5 230.5
q0 78 -30 142.5t-78.5 105t-107 62.5t-119.5 22h-110q-22 0 -22 -27v-278h153q14 0 14 -11v-9q0 -11 -14 -11h-153v-271q0 -39 32 -39h132z" />
    <glyph glyph-name="Ntilde" unicode="&#xd1;" horiz-adv-x="746" 
d="M236 786q-12 0 -9 15q8 38 30.5 61.5t58.5 23.5q33 0 82.5 -30t68.5 -30q39 0 55 42q4 11 14 11h5q12 0 9 -14q-21 -82 -90 -82q-31 0 -79 30.5t-71 30.5q-39 0 -55 -44q-6 -14 -12 -14h-7zM667 710q19 0 19 -11v-1q0 -5 -19.5 -16t-19.5 -29v-632q0 -21 -18 -21h-14
q-11 0 -27 23l-449 614v-576q0 -20 20.5 -32t20.5 -18v-1q0 -10 -19 -10h-78q-19 0 -19 10v1q0 6 18.5 18t18.5 32v591q0 14 -9.5 21.5t-18.5 11.5t-9 10v4q0 11 19 11h53q18 0 30 -16l443 -611v570q0 18 -20 29t-20 16v1q0 11 20 11h78z" />
    <glyph glyph-name="Ograve" unicode="&#xd2;" horiz-adv-x="776" 
d="M460 789l-205 60q-20 5 -15 22l7 22q6 19 27 10l197 -89q11 -6 8 -17q-3 -10 -19 -8zM398 -10q-101 0 -184 52.5t-127.5 136.5t-44.5 179q0 155 97.5 258.5t249.5 103.5q148 0 246.5 -107.5t98.5 -260.5q0 -146 -97 -254t-239 -108zM410 23q113 0 189 89.5t76 206.5
q0 155 -86.5 261.5t-219.5 106.5q-116 0 -191.5 -85t-75.5 -211q0 -148 88 -258t220 -110z" />
    <glyph glyph-name="Oacute" unicode="&#xd3;" horiz-adv-x="776" 
d="M294 786q-15 -3 -19 8q-3 10 8 17l200 82q21 10 27 -11l6 -22q5 -17 -16 -21zM398 -10q-101 0 -184 52.5t-127.5 136.5t-44.5 179q0 155 97.5 258.5t249.5 103.5q148 0 246.5 -107.5t98.5 -260.5q0 -146 -97 -254t-239 -108zM410 23q113 0 189 89.5t76 206.5
q0 155 -86.5 261.5t-219.5 106.5q-116 0 -191.5 -85t-75.5 -211q0 -148 88 -258t220 -110z" />
    <glyph glyph-name="Ocircumflex" unicode="&#xd4;" horiz-adv-x="776" 
d="M262 766q-12 -8 -21 1.5t3 20.5l110 95q12 12 25 12h13q10 0 24 -12l113 -95q12 -11 4.5 -21t-22.5 -1l-127 83zM389 720q148 0 246.5 -107.5t98.5 -260.5q0 -146 -97 -254t-239 -108q-101 0 -184 52.5t-127.5 136.5t-44.5 179q0 155 97.5 258.5t249.5 103.5zM410 23
q113 0 189 89.5t76 206.5q0 155 -86.5 261.5t-219.5 106.5q-116 0 -191.5 -85t-75.5 -211q0 -148 88 -258t220 -110z" />
    <glyph glyph-name="Otilde" unicode="&#xd5;" horiz-adv-x="776" 
d="M318 886q33 0 82.5 -30t68.5 -30q39 0 55 42q4 11 14 11h5q12 0 9 -14q-21 -82 -90 -82q-31 0 -79 30.5t-71 30.5q-39 0 -55 -44q-6 -14 -13 -14h-6q-12 0 -9 15q8 38 30.5 61.5t58.5 23.5zM398 -10q-101 0 -184 52.5t-127.5 136.5t-44.5 179q0 155 97.5 258.5
t249.5 103.5q148 0 246.5 -107.5t98.5 -260.5q0 -146 -97 -254t-239 -108zM410 23q113 0 189 89.5t76 206.5q0 155 -86.5 261.5t-219.5 106.5q-116 0 -191.5 -85t-75.5 -211q0 -148 88 -258t220 -110z" />
    <glyph glyph-name="Odieresis" unicode="&#xd6;" horiz-adv-x="776" 
d="M302 799q-22 0 -35 13t-13 34q0 22 13 35t35 13q21 0 33.5 -13t12.5 -35q0 -21 -12.5 -34t-33.5 -13zM473 799q-22 0 -35 13t-13 34q0 22 13 35t35 13q21 0 34 -13t13 -35q0 -21 -13.5 -34t-33.5 -13zM398 -10q-101 0 -184 52.5t-127.5 136.5t-44.5 179q0 155 97.5 258.5
t249.5 103.5q148 0 246.5 -107.5t98.5 -260.5q0 -146 -97 -254t-239 -108zM410 23q113 0 189 89.5t76 206.5q0 155 -86.5 261.5t-219.5 106.5q-116 0 -191.5 -85t-75.5 -211q0 -148 88 -258t220 -110z" />
    <glyph glyph-name="multiply" unicode="&#xd7;" 
d="M170 116l-17 17q-5 6 3 14l114 115l-114 117q-8 8 -3 14l17 17q7 5 14 -3l117 -114l115 114q8 9 14 3l17 -17q5 -7 -3 -14l-114 -115l114 -117q8 -7 3 -14l-17 -17q-6 -5 -14 3l-117 114l-115 -114q-8 -8 -14 -3z" />
    <glyph glyph-name="Oslash" unicode="&#xd8;" horiz-adv-x="793" 
d="M665 590q79 -103 79 -238q0 -146 -97.5 -254t-239.5 -108q-151 0 -256 113l-80 -76q-8 -6 -14 -1l-11 11q-7 6 4 15l80 76q-78 103 -78 230q0 155 97.5 258.5t249.5 103.5q147 0 245 -106l62 59q10 12 18 4l9 -9q8 -6 -3 -17zM111 391q0 -122 62 -222l430 406
q-88 112 -224 112q-117 0 -192.5 -85t-75.5 -211zM419 23q114 0 190 89.5t76 206.5q0 130 -63 229l-430 -406q91 -119 227 -119z" />
    <glyph glyph-name="Ugrave" unicode="&#xd9;" horiz-adv-x="719" 
d="M445 789l-205 60q-20 5 -15 22l7 22q6 19 27 10l197 -89q13 -6 8 -17q-3 -10 -19 -8zM365 -10q-123 0 -199 80t-76 208v375q0 18 -18 29t-18 16v2q0 10 20 10h94q19 0 19 -10v-2q0 -5 -18.5 -16t-18.5 -29v-375q0 -113 62.5 -184t160.5 -71q92 0 154.5 70t62.5 185v375
q0 18 -18.5 29t-18.5 16v2q0 10 19 10h76q20 0 20 -10v-2q0 -5 -19.5 -16t-19.5 -29v-375q0 -127 -74 -207.5t-190 -80.5z" />
    <glyph glyph-name="Uacute" unicode="&#xda;" horiz-adv-x="719" 
d="M271 786q-15 -3 -19 8q-3 10 8 17l200 82q21 10 27 -11l6 -22q5 -17 -16 -21zM365 -10q-123 0 -199 80t-76 208v375q0 18 -18 29t-18 16v2q0 10 20 10h94q19 0 19 -10v-2q0 -5 -18.5 -16t-18.5 -29v-375q0 -113 62.5 -184t160.5 -71q92 0 154.5 70t62.5 185v375
q0 18 -18.5 29t-18.5 16v2q0 10 19 10h76q20 0 20 -10v-2q0 -5 -19.5 -16t-19.5 -29v-375q0 -127 -74 -207.5t-190 -80.5z" />
    <glyph glyph-name="Ucircumflex" unicode="&#xdb;" horiz-adv-x="719" 
d="M238 766q-12 -8 -21 1.5t3 20.5l110 95q12 12 25 12h12q11 0 25 -12l113 -95q12 -11 4.5 -21t-22.5 -1l-127 83zM648 710q20 0 20 -10v-2q0 -5 -19.5 -16t-19.5 -29v-375q0 -127 -74 -207.5t-190 -80.5q-123 0 -199 80t-76 208v375q0 18 -18 29t-18 16v2q0 10 20 10h94
q19 0 19 -10v-2q0 -5 -18.5 -16t-18.5 -29v-375q0 -113 62.5 -184t160.5 -71q92 0 154.5 70t62.5 185v375q0 18 -18.5 29t-18.5 16v2q0 10 19 10h76z" />
    <glyph glyph-name="Udieresis" unicode="&#xdc;" horiz-adv-x="719" 
d="M279 799q-22 0 -35 13t-13 34q0 22 13 35t35 13q21 0 33.5 -13t12.5 -35q0 -21 -12.5 -34t-33.5 -13zM450 799q-22 0 -35 13t-13 34q0 22 13 35t35 13q20 0 33.5 -13t13.5 -35q0 -21 -13.5 -34t-33.5 -13zM365 -10q-123 0 -199 80t-76 208v375q0 18 -18 29t-18 16v2
q0 10 20 10h94q19 0 19 -10v-2q0 -5 -18.5 -16t-18.5 -29v-375q0 -113 62.5 -184t160.5 -71q92 0 154.5 70t62.5 185v375q0 18 -18.5 29t-18.5 16v2q0 10 19 10h76q20 0 20 -10v-2q0 -5 -19.5 -16t-19.5 -29v-375q0 -127 -74 -207.5t-190 -80.5z" />
    <glyph glyph-name="Yacute" unicode="&#xdd;" horiz-adv-x="649" 
d="M241 786q-15 -4 -19 8q-3 10 8 17l200 82q21 10 27 -11l6 -22q5 -17 -16 -21zM619 710q18 0 18 -9v-2q0 -6 -7 -10t-19.5 -12t-20.5 -23l-231 -368v-230q0 -17 18.5 -28t18.5 -17v-1q0 -10 -19 -10h-94q-19 0 -19 10v1q0 6 17.5 17t17.5 28v227l-241 371q-8 13 -21 21
t-21.5 13t-8.5 11v1q0 10 19 10h106q19 0 19 -10v-1q0 -6 -11 -12.5t-17 -12t1 -20.5l216 -343l213 343q7 17 0 22.5t-19.5 11t-12.5 11.5v1q0 10 17 10h81z" />
    <glyph glyph-name="Thorn" unicode="&#xde;" horiz-adv-x="610" 
d="M85 0q-18 0 -18 11v2q0 6 8.5 10.5t17 12.5t8.5 22v594q0 15 -8.5 23.5t-17 13t-8.5 10.5v1q0 10 18 10h94q19 0 19 -10v-1q0 -6 -9 -10.5t-18.5 -13t-9.5 -23.5v-56h106q133 0 220 -57.5t87 -164.5q0 -113 -77 -174.5t-213 -61.5h-123v-80q0 -14 9.5 -22t18.5 -12.5
t9 -10.5v-2q0 -11 -19 -11h-94zM188 169h99q104 0 164.5 50.5t60.5 142.5q0 98 -70 150t-174 52h-80q-12 0 -19.5 -8.5t-7.5 -21.5v-337q0 -28 27 -28z" />
    <glyph glyph-name="germandbls" unicode="&#xdf;" horiz-adv-x="546" 
d="M347 393q71 -14 117 -67t46 -135q0 -89 -59.5 -140t-148.5 -51q-9 0 -13 7.5t-1 15t12 7.5q64 0 107 39t43 117q0 81 -44.5 134.5t-121.5 53.5q-11 0 -11 15.5t11 15.5q41 0 78 43t37 107q0 72 -36.5 114.5t-99.5 43.5q-59 1 -94 -40.5t-35 -107.5v-504q0 -16 10.5 -24.5
t21 -13.5t10.5 -12v-3q0 -8 -12 -8h-113q-13 0 -13 8v3q0 5 6 9.5t13 8t13 12t6 20.5v489q0 84 52 137t138 53q81 0 135.5 -50.5t54.5 -129.5q0 -56 -31.5 -101.5t-77.5 -65.5z" />
    <glyph glyph-name="agrave" unicode="&#xe0;" horiz-adv-x="491" 
d="M116 655q-19 8 -10 24l10 20q11 18 29 6l178 -124q10 -8 4 -18t-20 -5zM430 71q2 -26 17 -36t28.5 -12.5t13.5 -11.5q0 -17 -49 -17q-32 0 -47.5 15t-16.5 59q-38 -78 -150 -78q-84 0 -134.5 40.5t-50.5 109.5q-1 70 50.5 109t133.5 39q86 0 131 -47l-3 34
q-9 94 -42 141.5t-98 47.5q-39 0 -65.5 -17t-35 -37t-19 -37t-22.5 -17q-28 0 -28 27q0 38 46.5 72.5t123.5 34.5q88 0 139 -56t60 -158zM237 17q58 0 94 33t35 83l-3 30q-1 40 -36.5 69t-92.5 29q-60 0 -97 -30.5t-37 -80.5q0 -58 37.5 -95.5t99.5 -37.5z" />
    <glyph glyph-name="aacute" unicode="&#xe1;" horiz-adv-x="491" 
d="M137 561q-14 -5 -20 4q-6 10 4 18l178 124q18 12 29 -6l10 -20q9 -16 -11 -24zM430 71q2 -26 17 -36t28.5 -12.5t13.5 -11.5q0 -17 -49 -17q-32 0 -47.5 15t-16.5 59q-38 -78 -150 -78q-84 0 -134.5 40.5t-50.5 109.5q-1 70 50.5 109t133.5 39q86 0 131 -47l-3 34
q-9 94 -42 141.5t-98 47.5q-39 0 -65.5 -17t-35 -37t-19 -37t-22.5 -17q-28 0 -28 27q0 38 46.5 72.5t123.5 34.5q88 0 139 -56t60 -158zM237 17q58 0 94 33t35 83l-3 30q-1 40 -36.5 69t-92.5 29q-60 0 -97 -30.5t-37 -80.5q0 -58 37.5 -95.5t99.5 -37.5z" />
    <glyph glyph-name="acircumflex" unicode="&#xe2;" horiz-adv-x="491" 
d="M94 562q-12 -8 -20.5 1t3.5 20l110 96q12 12 24 12h13q12 0 25 -12l112 -96q8 -6 7.5 -14t-7.5 -10t-17 3l-128 82zM430 71q2 -26 17 -36t28.5 -12.5t13.5 -11.5q0 -17 -49 -17q-32 0 -47.5 15t-16.5 59q-38 -78 -150 -78q-84 0 -134.5 40.5t-50.5 109.5q-1 70 50.5 109
t133.5 39q86 0 131 -47l-3 34q-9 94 -42 141.5t-98 47.5q-39 0 -65.5 -17t-35 -37t-19 -37t-22.5 -17q-28 0 -28 27q0 38 46.5 72.5t123.5 34.5q88 0 139 -56t60 -158zM237 17q58 0 94 33t35 83l-3 30q-1 40 -36.5 69t-92.5 29q-60 0 -97 -30.5t-37 -80.5q0 -58 37.5 -95.5
t99.5 -37.5z" />
    <glyph glyph-name="atilde" unicode="&#xe3;" horiz-adv-x="491" 
d="M59 600q-12 0 -9 15q8 38 30.5 61.5t59.5 23.5q33 0 82 -30t68 -30q39 0 55 42q4 11 14 11h6q11 0 8 -14q-21 -82 -90 -82q-31 0 -78.5 30.5t-70.5 30.5q-38 0 -56 -44q-6 -14 -12 -14h-7zM430 71q2 -26 17 -36t28.5 -12.5t13.5 -11.5q0 -17 -49 -17q-32 0 -47.5 15
t-16.5 59q-38 -78 -150 -78q-84 0 -134.5 40.5t-50.5 109.5q-1 70 50.5 109t133.5 39q86 0 131 -47l-3 34q-9 94 -42 141.5t-98 47.5q-39 0 -65.5 -17t-35 -37t-19 -37t-22.5 -17q-28 0 -28 27q0 38 46.5 72.5t123.5 34.5q88 0 139 -56t60 -158zM237 17q58 0 94 33t35 83
l-3 30q-1 40 -36.5 69t-92.5 29q-60 0 -97 -30.5t-37 -80.5q0 -58 37.5 -95.5t99.5 -37.5z" />
    <glyph glyph-name="adieresis" unicode="&#xe4;" horiz-adv-x="491" 
d="M136 589q-22 0 -35.5 12.5t-13.5 33.5q0 22 13.5 35t35.5 13q21 0 33.5 -13t12.5 -35q0 -21 -12.5 -33.5t-33.5 -12.5zM306 589q-21 0 -34 12.5t-13 33.5q0 22 13 35t34 13t34 -13t13 -35q0 -21 -13 -33.5t-34 -12.5zM430 71q2 -26 17 -36t28.5 -12.5t13.5 -11.5
q0 -17 -49 -17q-32 0 -47.5 15t-16.5 59q-38 -78 -150 -78q-84 0 -134.5 40.5t-50.5 109.5q-1 70 50.5 109t133.5 39q86 0 131 -47l-3 34q-9 94 -42 141.5t-98 47.5q-39 0 -65.5 -17t-35 -37t-19 -37t-22.5 -17q-28 0 -28 27q0 38 46.5 72.5t123.5 34.5q88 0 139 -56
t60 -158zM237 17q58 0 94 33t35 83l-3 30q-1 40 -36.5 69t-92.5 29q-60 0 -97 -30.5t-37 -80.5q0 -58 37.5 -95.5t99.5 -37.5z" />
    <glyph glyph-name="aring" unicode="&#xe5;" horiz-adv-x="491" 
d="M218 549q-46 0 -76 28t-30 68q0 41 30 69t77 28t77 -28t30 -68q0 -41 -30.5 -69t-77.5 -28zM219 715q-29 0 -47 -19.5t-18 -49.5t18 -50.5t47 -20.5t47 20t18 51q0 29 -18 49t-47 20zM430 71q2 -26 17 -36t28.5 -12.5t13.5 -11.5q0 -17 -49 -17q-32 0 -47.5 15t-16.5 59
q-38 -78 -150 -78q-84 0 -134.5 40.5t-50.5 109.5q-1 70 50.5 109t133.5 39q86 0 131 -47l-3 34q-9 94 -42 141.5t-98 47.5q-39 0 -65.5 -17t-35 -37t-19 -37t-22.5 -17q-28 0 -28 27q0 38 46.5 72.5t123.5 34.5q88 0 139 -56t60 -158zM237 17q58 0 94 33t35 83l-3 30
q-1 40 -36.5 69t-92.5 29q-60 0 -97 -30.5t-37 -80.5q0 -58 37.5 -95.5t99.5 -37.5z" />
    <glyph glyph-name="ae" unicode="&#xe6;" horiz-adv-x="814" 
d="M757 150q5 11 17 7.5t9 -15.5q-15 -64 -67.5 -107.5t-133.5 -43.5q-64 0 -114.5 33.5t-79.5 90.5q-10 -53 -53 -89t-109 -36q-83 0 -134 41t-51 109t49.5 108t134.5 40q84 0 132 -46l-3 33q-17 189 -141 189q-39 0 -64 -17t-33 -37.5t-19 -37.5t-25 -17q-29 0 -29 30
q0 38 51.5 71.5t118.5 33.5q126 0 175 -116q29 55 81 86.5t118 31.5q79 0 132.5 -49t53.5 -107q0 -36 -38 -47l-313 -93q17 -72 65 -116t116 -44q52 0 93.5 30.5t60.5 83.5zM573 465q-70 0 -114.5 -59t-44.5 -141q0 -22 3 -43l275 86q24 8 24 32q0 40 -42.5 82.5
t-100.5 42.5zM237 17q55 0 91 38.5t38 86.5l-2 21v1l-1 6q-5 38 -40 64t-89 26q-60 0 -97 -29.5t-37 -76.5q0 -61 37.5 -99t99.5 -38z" />
    <glyph glyph-name="ccedilla" unicode="&#xe7;" horiz-adv-x="501" 
d="M445 139q3 7 10.5 9t12.5 -2.5t3 -12.5q-15 -57 -64.5 -99.5t-124.5 -43.5l-3 -48q43 0 71 -18.5t28 -49.5t-29 -51t-72 -20q-45 0 -81 22q-13 8 -6 23q6 10 16 4q26 -19 63 -19q25 0 43.5 11t17.5 31q-1 40 -68 40q-11 0 -17 8.5t-3 21.5l9 46q-92 11 -154 81t-62 171
q0 110 68.5 178.5t172.5 68.5q74 0 131 -39.5t57 -76.5q0 -28 -28 -28q-11 1 -21.5 13t-21.5 29t-26 34t-41.5 29t-62.5 12q-72 1 -120.5 -56t-48.5 -140q0 -105 57.5 -169t145.5 -64q53 0 91 29t57 76z" />
    <glyph glyph-name="egrave" unicode="&#xe8;" horiz-adv-x="497" 
d="M145 655q-19 8 -10 24l10 20q11 18 29 6l178 -124q10 -8 4 -18t-20 -5zM441 136q5 11 17 9t10 -15q-14 -55 -66.5 -97.5t-136.5 -42.5q-96 0 -161.5 70t-65.5 185q0 104 66.5 174.5t166.5 70.5q79 0 132 -46.5t53 -101.5q0 -36 -43 -49l-310 -93q14 -77 63 -121.5
t118 -44.5q60 0 99.5 28t57.5 74zM262 463q-73 0 -119 -58t-46 -142q0 -13 2 -35l278 85q22 6 22 28q0 40 -41 81t-96 41z" />
    <glyph glyph-name="eacute" unicode="&#xe9;" horiz-adv-x="497" 
d="M166 561q-15 -6 -21 4q-4 10 5 18l178 124q18 13 28 -6l11 -20q8 -15 -11 -24zM441 136q5 11 17 9t10 -15q-14 -55 -66.5 -97.5t-136.5 -42.5q-96 0 -161.5 70t-65.5 185q0 104 66.5 174.5t166.5 70.5q79 0 132 -46.5t53 -101.5q0 -36 -43 -49l-310 -93q14 -77 63 -121.5
t118 -44.5q60 0 99.5 28t57.5 74zM262 463q-73 0 -119 -58t-46 -142q0 -13 2 -35l278 85q22 6 22 28q0 40 -41 81t-96 41z" />
    <glyph glyph-name="ecircumflex" unicode="&#xea;" horiz-adv-x="497" 
d="M123 562q-12 -8 -20.5 1t3.5 20l110 96q12 12 24 12h13q11 0 25 -12l112 -96q8 -6 7.5 -14t-7.5 -10t-17 3l-128 82zM441 136q5 11 17 9t10 -15q-14 -55 -66.5 -97.5t-136.5 -42.5q-96 0 -161.5 70t-65.5 185q0 104 66.5 174.5t166.5 70.5q79 0 132 -46.5t53 -101.5
q0 -36 -43 -49l-310 -93q14 -77 63 -121.5t118 -44.5q60 0 99.5 28t57.5 74zM262 463q-73 0 -119 -58t-46 -142q0 -13 2 -35l278 85q22 6 22 28q0 40 -41 81t-96 41z" />
    <glyph glyph-name="edieresis" unicode="&#xeb;" horiz-adv-x="497" 
d="M164 589q-21 0 -34.5 12.5t-13.5 33.5q0 22 13.5 35t34.5 13q22 0 34 -13t12 -35q0 -21 -12 -33.5t-34 -12.5zM335 589q-22 0 -34.5 12.5t-12.5 33.5q0 22 12.5 35t34.5 13q21 0 34 -13.5t13 -34.5t-13 -33.5t-34 -12.5zM441 136q5 11 17 9t10 -15q-14 -55 -66.5 -97.5
t-136.5 -42.5q-96 0 -161.5 70t-65.5 185q0 104 66.5 174.5t166.5 70.5q79 0 132 -46.5t53 -101.5q0 -36 -43 -49l-310 -93q14 -77 63 -121.5t118 -44.5q60 0 99.5 28t57.5 74zM262 463q-73 0 -119 -58t-46 -142q0 -13 2 -35l278 85q22 6 22 28q0 40 -41 81t-96 41z" />
    <glyph glyph-name="igrave" unicode="&#xec;" horiz-adv-x="220" 
d="M205 558l-191 97q-19 9 -11 24l11 20q11 18 29 6l177 -124q12 -8 5 -18q-7 -11 -20 -5zM66 0q-19 0 -19 11v4q0 6 9 10.5t18 12t9 20.5v335q0 15 -8.5 26t-17.5 17t-9 10v3q0 4 12 11l54 27q27 12 27 -12v-417q0 -13 9.5 -20.5t18.5 -12t9 -10.5v-4q0 -11 -19 -11h-93z
" />
    <glyph glyph-name="iacute" unicode="&#xed;" horiz-adv-x="220" 
d="M35 561q-15 -6 -21 4q-4 10 5 18l178 124q18 13 29 -6l10 -20q8 -15 -11 -24zM66 0q-19 0 -19 11v4q0 6 9 10.5t18 12t9 20.5v335q0 15 -8.5 26t-17.5 17t-9 10v3q0 4 12 11l54 27q27 12 27 -12v-417q0 -13 9.5 -20.5t18.5 -12t9 -10.5v-4q0 -11 -19 -11h-93z" />
    <glyph glyph-name="icircumflex" unicode="&#xee;" horiz-adv-x="220" 
d="M259 583q8 -6 7.5 -14t-7.5 -10t-18 3l-127 82l-122 -82q-12 -8 -21 1t3 20l110 96q13 12 25 12h13q12 0 25 -12zM141 58q0 -13 9.5 -20.5t18.5 -12t9 -10.5v-4q0 -11 -19 -11h-93q-19 0 -19 11v4q0 6 9 10.5t18 12t9 20.5v335q0 15 -8.5 26t-17.5 17t-9 10v3q0 4 12 11
l54 27q27 12 27 -12v-417z" />
    <glyph glyph-name="idieresis" unicode="&#xef;" horiz-adv-x="220" 
d="M33 589q-22 0 -35 12.5t-13 33.5q0 22 13 35t35 13q21 0 33.5 -13t12.5 -35q0 -21 -12.5 -33.5t-33.5 -12.5zM204 589q-22 0 -35 12.5t-13 33.5q0 22 13 35t35 13q20 0 33.5 -13.5t13.5 -34.5t-13 -33.5t-34 -12.5zM66 0q-19 0 -19 11v4q0 6 9 10.5t18 12t9 20.5v335
q0 15 -8.5 26t-17.5 17t-9 10v3q0 4 12 11l54 27q27 12 27 -12v-417q0 -13 9.5 -20.5t18.5 -12t9 -10.5v-4q0 -11 -19 -11h-93z" />
    <glyph glyph-name="eth" unicode="&#xf0;" horiz-adv-x="560" 
d="M354 611q78 -76 122 -174.5t44 -200.5q0 -110 -67.5 -178t-168.5 -68q-103 0 -174.5 75t-71.5 184q0 103 65 172t167 69q98 0 157 -78q-38 103 -122 183l-138 -46q-12 -4 -16 4l-5 10q-5 11 9 16l122 40q-53 44 -117 77q-9 5 -10 14t5 14.5t15 2.5q83 -31 156 -92l106 35
q11 5 16 -3l5 -11q4 -11 -10 -16zM459 212v23q-11 111 -62.5 169.5t-129.5 58.5q-74 0 -122 -56t-48 -141q0 -106 56.5 -177.5t142.5 -71.5q68 0 115.5 56.5t47.5 138.5z" />
    <glyph glyph-name="ntilde" unicode="&#xf1;" horiz-adv-x="560" 
d="M122 600q-11 0 -8 15q8 38 30.5 61.5t58.5 23.5q33 0 82.5 -30t68.5 -30q37 0 55 42q4 11 14 11h5q13 0 8 -14q-19 -82 -89 -82q-31 0 -79 30.5t-71 30.5q-39 0 -55 -44q-6 -14 -13 -14h-7zM496 59q0 -14 9 -22t18 -12.5t9 -10.5v-4q0 -10 -20 -10h-93q-18 0 -18 10v4
q0 6 9 10.5t17.5 12t8.5 21.5l-9 208q-4 94 -43 144t-99 50q-57 0 -97.5 -37.5t-46.5 -94.5v-271q0 -17 18.5 -27t18.5 -16v-4q0 -10 -19 -10h-94q-19 0 -19 10v4q0 6 18 15.5t18 27.5v338q0 14 -6 23.5t-12.5 12.5t-12.5 7t-6 9v2q0 7 13 13l53 25q12 6 18.5 2t6.5 -15v-81
q23 44 65.5 70.5t94.5 26.5q80 0 131.5 -57t57.5 -168z" />
    <glyph glyph-name="ograve" unicode="&#xf2;" horiz-adv-x="558" 
d="M365 558l-190 97q-20 8 -11 24l11 20q9 19 28 6l178 -124q10 -8 4 -18t-20 -5zM288 -9q-108 0 -179.5 76t-71.5 182q0 102 68 171t171 69q105 0 174.5 -73t69.5 -181q0 -105 -65 -174.5t-167 -69.5zM298 17q69 0 116 56.5t47 142.5q0 106 -55 176.5t-139 70.5
q-74 0 -122.5 -55.5t-48.5 -141.5q0 -102 57 -175.5t145 -73.5z" />
    <glyph glyph-name="oacute" unicode="&#xf3;" horiz-adv-x="558" 
d="M195 561q-14 -5 -20 4q-5 9 4 18l179 124q17 13 28 -6l10 -20q10 -15 -10 -24zM288 -9q-108 0 -179.5 76t-71.5 182q0 102 68 171t171 69q105 0 174.5 -73t69.5 -181q0 -105 -65 -174.5t-167 -69.5zM298 17q69 0 116 56.5t47 142.5q0 106 -55 176.5t-139 70.5
q-74 0 -122.5 -55.5t-48.5 -141.5q0 -102 57 -175.5t145 -73.5z" />
    <glyph glyph-name="ocircumflex" unicode="&#xf4;" horiz-adv-x="558" 
d="M152 562q-12 -8 -20.5 1t3.5 20l110 96q13 12 24 12h13q12 0 25 -12l113 -96q12 -10 4.5 -20t-22.5 -1l-127 82zM276 489q105 0 174.5 -73t69.5 -181q0 -105 -65 -174.5t-167 -69.5q-108 0 -179.5 76t-71.5 182q0 102 68 171t171 69zM298 17q69 0 116 56.5t47 142.5
q0 106 -55 176.5t-139 70.5q-74 0 -122.5 -55.5t-48.5 -141.5q0 -102 57 -175.5t145 -73.5z" />
    <glyph glyph-name="otilde" unicode="&#xf5;" horiz-adv-x="558" 
d="M197 700q33 0 82.5 -30t68.5 -30q39 0 55 42q4 11 14 11h5q12 0 9 -14q-21 -82 -90 -82q-31 0 -79 30.5t-71 30.5q-39 0 -55 -44q-6 -14 -13 -14h-6q-12 0 -9 15q8 38 30.5 61.5t58.5 23.5zM288 -9q-108 0 -179.5 76t-71.5 182q0 102 68 171t171 69q105 0 174.5 -73
t69.5 -181q0 -105 -65 -174.5t-167 -69.5zM298 17q69 0 116 56.5t47 142.5q0 106 -55 176.5t-139 70.5q-74 0 -122.5 -55.5t-48.5 -141.5q0 -102 57 -175.5t145 -73.5z" />
    <glyph glyph-name="odieresis" unicode="&#xf6;" horiz-adv-x="558" 
d="M194 589q-22 0 -35.5 12.5t-13.5 33.5q0 22 13.5 35t35.5 13q21 0 33 -13t12 -35q0 -21 -12 -33.5t-33 -12.5zM364 589q-22 0 -34.5 12.5t-12.5 33.5q0 22 12.5 35t34.5 13q20 0 33.5 -13.5t13.5 -34.5t-13 -33.5t-34 -12.5zM288 -9q-108 0 -179.5 76t-71.5 182
q0 102 68 171t171 69q105 0 174.5 -73t69.5 -181q0 -105 -65 -174.5t-167 -69.5zM298 17q69 0 116 56.5t47 142.5q0 106 -55 176.5t-139 70.5q-74 0 -122.5 -55.5t-48.5 -141.5q0 -102 57 -175.5t145 -73.5z" />
    <glyph glyph-name="divide" unicode="&#xf7;" 
d="M301 408q-23 0 -37 13.5t-14 36.5t14 37.5t37 14.5q22 0 36 -14.5t14 -37.5q0 -22 -13.5 -36t-36.5 -14zM118 243q-11 0 -11 8v25q0 8 11 8h364q12 0 12 -8v-25q0 -8 -12 -8h-364zM301 -10q-23 0 -37 14t-14 37t14 37.5t37 14.5q22 0 36 -14.5t14 -37.5t-13.5 -37
t-36.5 -14z" />
    <glyph glyph-name="oslash" unicode="&#xf8;" horiz-adv-x="569" 
d="M530 467q7 -7 -3 -17l-55 -53q53 -69 53 -162q0 -105 -65 -174.5t-167 -69.5q-101 0 -172 68l-63 -60q-7 -6 -14 0l-9 10q-7 6 3 15l61 59q-57 71 -57 166q0 102 68 171t171 69q101 0 169 -68l54 52q9 11 19 2zM102 266q0 -80 37 -145l276 267q-54 75 -143 75
q-73 0 -121.5 -55.5t-48.5 -141.5zM466 216q0 81 -33 144l-276 -266q57 -77 146 -77q69 0 116 56.5t47 142.5z" />
    <glyph glyph-name="ugrave" unicode="&#xf9;" horiz-adv-x="554" 
d="M172 655q-19 9 -11 24l11 20q10 19 28 6l178 -124q10 -8 5 -18q-7 -10 -21 -5zM470 77q0 -24 9.5 -36t20.5 -13.5t20.5 -4.5t9.5 -11q0 -11 -10.5 -14.5t-37.5 -3.5q-69 0 -66 74l-3 16q-22 -45 -63 -69.5t-95 -24.5q-85 0 -135 63.5t-50 175.5v180q0 19 -18 31.5
t-18 18.5v1q0 10 12 13l62 14q21 5 21 -10l-1 -252q0 -96 36 -150t101 -54q63 0 105 46.5t42 122.5v219q0 15 -9.5 23.5t-19 14t-9.5 12.5v1q0 10 11 13l65 14q20 5 20 -10v-400z" />
    <glyph glyph-name="uacute" unicode="&#xfa;" horiz-adv-x="554" 
d="M192 561q-14 -5 -20 4q-5 9 4 18l179 124q17 13 28 -6l10 -20q10 -15 -10 -24zM470 77q0 -24 9.5 -36t20.5 -13.5t20.5 -4.5t9.5 -11q0 -11 -10.5 -14.5t-37.5 -3.5q-69 0 -66 74l-3 16q-22 -45 -63 -69.5t-95 -24.5q-85 0 -135 63.5t-50 175.5v180q0 19 -18 31.5
t-18 18.5v1q0 10 12 13l62 14q21 5 21 -10l-1 -252q0 -96 36 -150t101 -54q63 0 105 46.5t42 122.5v219q0 15 -9.5 23.5t-19 14t-9.5 12.5v1q0 10 11 13l65 14q20 5 20 -10v-400z" />
    <glyph glyph-name="ucircumflex" unicode="&#xfb;" horiz-adv-x="554" 
d="M150 562q-12 -8 -21 1t3 20l110 96q13 12 25 12h13q10 0 24 -12l113 -96q7 -6 6.5 -14t-7 -10t-17.5 3l-127 82zM470 77q0 -24 9.5 -36t20.5 -13.5t20.5 -4.5t9.5 -11q0 -11 -10.5 -14.5t-37.5 -3.5q-69 0 -66 74l-3 16q-22 -45 -63 -69.5t-95 -24.5q-85 0 -135 63.5
t-50 175.5v180q0 19 -18 31.5t-18 18.5v1q0 10 12 13l62 14q21 5 21 -10l-1 -252q0 -96 36 -150t101 -54q63 0 105 46.5t42 122.5v219q0 15 -9.5 23.5t-19 14t-9.5 12.5v1q0 10 11 13l65 14q20 5 20 -10v-400z" />
    <glyph glyph-name="udieresis" unicode="&#xfc;" horiz-adv-x="554" 
d="M191 589q-22 0 -35.5 12.5t-13.5 33.5q0 22 13.5 35t35.5 13q21 0 33.5 -13t12.5 -35q0 -21 -12.5 -33.5t-33.5 -12.5zM362 589q-22 0 -35 12.5t-13 33.5q0 22 13 35t35 13q20 0 33 -13t13 -35q0 -21 -13 -33.5t-33 -12.5zM470 77q0 -24 9.5 -36t20.5 -13.5t20.5 -4.5
t9.5 -11q0 -11 -10.5 -14.5t-37.5 -3.5q-69 0 -66 74l-3 16q-22 -45 -63 -69.5t-95 -24.5q-85 0 -135 63.5t-50 175.5v180q0 19 -18 31.5t-18 18.5v1q0 10 12 13l62 14q21 5 21 -10l-1 -252q0 -96 36 -150t101 -54q63 0 105 46.5t42 122.5v219q0 15 -9.5 23.5t-19 14
t-9.5 12.5v1q0 10 11 13l65 14q20 5 20 -10v-400z" />
    <glyph glyph-name="yacute" unicode="&#xfd;" horiz-adv-x="509" 
d="M185 561q-15 -6 -21 4q-4 10 5 18l178 124q18 13 28 -6l11 -20q8 -15 -11 -24zM495 480q12 0 12 -10v-2q0 -8 -16.5 -19.5t-26.5 -33.5l-189 -421q-48 -110 -77 -147q-46 -58 -105 -58q-46 0 -78 26.5t-32 53.5q0 29 27 29q12 0 21.5 -12.5t15.5 -28t21 -28t38 -12.5
q65 0 131 168l-189 430q-9 22 -26.5 33.5t-17.5 19.5v2q0 10 12 10h101q12 0 12 -10v-2q0 -7 -8 -13.5t-12 -12.5t2 -27l157 -374l161 370q9 20 0 30t-22 15.5t-13 11.5v2q0 10 13 10h88z" />
    <glyph glyph-name="thorn" unicode="&#xfe;" horiz-adv-x="556" 
d="M288 490q96 0 163 -69.5t67 -172.5q0 -107 -66.5 -182.5t-162.5 -75.5q-48 0 -91 23.5t-70 65.5v-254q0 -17 19 -27.5t19 -17.5v-3q0 -10 -19 -10h-93q-20 0 -20 10v3q0 7 18.5 17.5t18.5 27.5v828q0 18 -18.5 30.5t-18.5 18.5v3q0 8 12 14l57 26q26 12 26 -11v-325
q24 38 67.5 59.5t91.5 21.5zM277 17q82 0 131.5 61t49.5 159q0 97 -52.5 161.5t-133.5 64.5q-51 0 -94.5 -36.5t-48.5 -89.5l-1 -167q4 -63 50.5 -108t98.5 -45z" />
    <glyph glyph-name="ydieresis" unicode="&#xff;" horiz-adv-x="509" 
d="M183 589q-21 0 -34.5 12.5t-13.5 33.5q0 22 13.5 35t34.5 13q22 0 34 -13t12 -35q0 -21 -12 -33.5t-34 -12.5zM354 589q-22 0 -34.5 12.5t-12.5 33.5q0 22 12.5 35t34.5 13q20 0 33.5 -13.5t13.5 -34.5t-13 -33.5t-34 -12.5zM495 480q12 0 12 -10v-2q0 -8 -16.5 -19.5
t-26.5 -33.5l-189 -421q-48 -110 -77 -147q-46 -58 -105 -58q-46 0 -78 26.5t-32 53.5q0 29 27 29q12 0 21.5 -12.5t15.5 -28t21 -28t38 -12.5q65 0 131 168l-189 430q-9 22 -26.5 33.5t-17.5 19.5v2q0 10 12 10h101q12 0 12 -10v-2q0 -7 -8 -13.5t-12 -12.5t2 -27l157 -374
l161 370q9 20 0 30t-22 15.5t-13 11.5v2q0 10 13 10h88z" />
    <glyph glyph-name="Amacron" unicode="&#x100;" horiz-adv-x="656" 
d="M196 818q-15 0 -15 13v17q0 12 15 12h257q15 0 15 -12v-17q0 -13 -15 -13h-257zM610 56q8 -17 26.5 -27.5t18.5 -17.5v-1q0 -10 -19 -10h-102q-19 0 -19 10v1q0 6 10.5 11t18.5 13t2 21l-57 138h-344l-53 -138q-4 -11 0 -18t11 -10t13.5 -7.5t6.5 -9.5v-1q0 -10 -19 -10
h-78q-18 0 -18 10v1q0 7 18.5 17.5t25.5 27.5l233 595q5 12 -2.5 20.5t-17.5 15.5t-10 12v2q0 9 12 9h38q26 0 39 -28zM157 227h318l-165 399z" />
    <glyph glyph-name="amacron" unicode="&#x101;" horiz-adv-x="491" 
d="M90 614q-15 0 -15 12v17q0 12 15 12h257q15 0 15 -12v-17q0 -12 -15 -12h-257zM430 71q2 -26 17 -36t28.5 -12.5t13.5 -11.5q0 -17 -49 -17q-32 0 -47.5 15t-16.5 59q-38 -78 -150 -78q-84 0 -134.5 40.5t-50.5 109.5q-1 70 50.5 109t133.5 39q86 0 131 -47l-3 34
q-9 94 -42 141.5t-98 47.5q-39 0 -65.5 -17t-35 -37t-19 -37t-22.5 -17q-28 0 -28 27q0 38 46.5 72.5t123.5 34.5q88 0 139 -56t60 -158zM237 17q58 0 94 33t35 83l-3 30q-1 40 -36.5 69t-92.5 29q-60 0 -97 -30.5t-37 -80.5q0 -58 37.5 -95.5t99.5 -37.5z" />
    <glyph glyph-name="Abreve" unicode="&#x102;" horiz-adv-x="656" 
d="M325 785q-57 0 -98 33.5t-49 81.5q-1 10 5 15t13 4t9 -7q10 -38 43 -61t77 -23t77.5 23t43.5 61q2 6 9.5 7t13 -4t4.5 -15q-7 -48 -48 -81.5t-100 -33.5zM610 56q8 -17 26.5 -27.5t18.5 -17.5v-1q0 -10 -19 -10h-102q-19 0 -19 10v1q0 6 10.5 11t18.5 13t2 21l-57 138
h-344l-53 -138q-4 -11 0 -18t11 -10t13.5 -7.5t6.5 -9.5v-1q0 -10 -19 -10h-78q-18 0 -18 10v1q0 7 18.5 17.5t25.5 27.5l233 595q5 12 -2.5 20.5t-17.5 15.5t-10 12v2q0 9 12 9h38q26 0 39 -28zM157 227h318l-165 399z" />
    <glyph glyph-name="abreve" unicode="&#x103;" horiz-adv-x="491" 
d="M219 575q-58 0 -98.5 33t-48.5 81q-2 10 4 15.5t13.5 4t9.5 -7.5q10 -38 43 -61t77 -23q43 0 76.5 23t44.5 61q2 6 9.5 7t13 -4t4.5 -15q-7 -48 -48 -81t-100 -33zM430 71q2 -26 17 -36t28.5 -12.5t13.5 -11.5q0 -17 -49 -17q-32 0 -47.5 15t-16.5 59q-38 -78 -150 -78
q-84 0 -134.5 40.5t-50.5 109.5q-1 70 50.5 109t133.5 39q86 0 131 -47l-3 34q-9 94 -42 141.5t-98 47.5q-39 0 -65.5 -17t-35 -37t-19 -37t-22.5 -17q-28 0 -28 27q0 38 46.5 72.5t123.5 34.5q88 0 139 -56t60 -158zM237 17q58 0 94 33t35 83l-3 30q-1 40 -36.5 69
t-92.5 29q-60 0 -97 -30.5t-37 -80.5q0 -58 37.5 -95.5t99.5 -37.5z" />
    <glyph glyph-name="Aogonek" unicode="&#x104;" horiz-adv-x="656" 
d="M610 56q8 -17 26.5 -27.5t18.5 -17.5v-1q0 -10 -19 -10h-29q-32 -28 -53.5 -62t-21.5 -62q0 -24 12 -37.5t31 -13.5q13 0 30 7q8 3 12.5 -2.5t3.5 -14t-7 -11.5q-20 -11 -46 -11q-34 0 -58.5 20.5t-24.5 53.5q0 35 26 71t65 62h-42q-19 0 -19 10v1q0 6 10.5 11t18.5 13
t2 21l-57 138h-344l-53 -138q-4 -11 0 -18t11 -10t13.5 -7.5t6.5 -9.5v-1q0 -10 -19 -10h-78q-18 0 -18 10v1q0 7 18.5 17.5t25.5 27.5l233 595q5 12 -2.5 20.5t-17.5 15.5t-10 12v2q0 9 12 9h38q26 0 39 -28zM157 227h318l-165 399z" />
    <glyph glyph-name="aogonek" unicode="&#x105;" horiz-adv-x="491" 
d="M436 -6q-60 -60 -60 -110q0 -24 12 -37.5t31 -13.5q11 0 30 7q8 3 12.5 -2.5t3.5 -14t-7 -11.5q-19 -10 -46 -10q-34 0 -58.5 20t-24.5 53q0 32 22 65t56 59q-30 12 -31 69q-38 -78 -150 -78q-84 0 -134.5 40.5t-50.5 109.5q-1 70 50.5 109t133.5 39q86 0 131 -47l-3 34
q-9 94 -42 141.5t-98 47.5q-39 0 -65.5 -17t-35 -37t-19 -37t-22.5 -17q-28 0 -28 27q0 38 46.5 72.5t123.5 34.5q88 0 139 -56t60 -158l18 -205q2 -26 17 -36t28.5 -12.5t13.5 -11.5q0 -17 -49 -17h-4zM237 17q58 0 94 33t35 83l-3 30q-1 40 -36.5 69t-92.5 29
q-60 0 -97 -30.5t-37 -80.5q0 -58 37.5 -95.5t99.5 -37.5z" />
    <glyph glyph-name="Cacute" unicode="&#x106;" horiz-adv-x="684" 
d="M268 786q-15 -4 -19 8q-3 11 9 17l200 82q20 10 26 -11l6 -22q5 -18 -15 -21zM374 -10q-131 0 -232.5 110t-101.5 262q0 157 94 257.5t237 100.5q109 0 188.5 -64.5t79.5 -120.5q0 -14 -8.5 -22t-22.5 -8q-16 0 -29.5 19t-28.5 45.5t-36 53.5t-62.5 46t-98.5 19
q-104 0 -179 -84t-75 -212q0 -150 87.5 -249.5t206.5 -99.5q88 0 146 54.5t87 130.5q4 9 13 12t15 -3t3 -19q-24 -94 -96.5 -161t-186.5 -67z" />
    <glyph glyph-name="cacute" unicode="&#x107;" horiz-adv-x="501" 
d="M184 561q-14 -6 -20 4q-5 10 5 18l178 124q17 13 28 -6l10 -20q10 -15 -10 -24zM278 -10q-101 0 -172 72t-71 181q0 110 68.5 178.5t172.5 68.5q74 0 131 -39.5t57 -76.5q0 -28 -28 -28q-11 1 -21.5 13t-21.5 29t-26 34t-41.5 29t-62.5 12q-72 1 -120.5 -56t-48.5 -140
q0 -105 57.5 -169t145.5 -64q53 0 91 29t57 76q3 7 10.5 9t12.5 -2.5t3 -12.5q-15 -58 -65.5 -100.5t-127.5 -42.5z" />
    <glyph glyph-name="Cdotaccent" unicode="&#x10a;" horiz-adv-x="684" 
d="M360 784q-23 0 -37 13.5t-14 35.5q0 23 14 36.5t37 13.5q22 0 35 -13.5t13 -36.5q0 -22 -13 -35.5t-35 -13.5zM374 -10q-131 0 -232.5 110t-101.5 262q0 157 94 257.5t237 100.5q109 0 188.5 -64.5t79.5 -120.5q0 -14 -8.5 -22t-22.5 -8q-16 0 -29.5 19t-28.5 45.5
t-36 53.5t-62.5 46t-98.5 19q-104 0 -179 -84t-75 -212q0 -150 87.5 -249.5t206.5 -99.5q88 0 146 54.5t87 130.5q4 9 13 12t15 -3t3 -19q-24 -94 -96.5 -161t-186.5 -67z" />
    <glyph glyph-name="cdotaccent" unicode="&#x10b;" horiz-adv-x="501" 
d="M267 587q-24 0 -38 13t-14 36t14 37t38 14q22 0 35.5 -14t13.5 -37q0 -22 -13.5 -35.5t-35.5 -13.5zM278 -10q-101 0 -172 72t-71 181q0 110 68.5 178.5t172.5 68.5q74 0 131 -39.5t57 -76.5q0 -28 -28 -28q-11 1 -21.5 13t-21.5 29t-26 34t-41.5 29t-62.5 12
q-72 1 -120.5 -56t-48.5 -140q0 -105 57.5 -169t145.5 -64q53 0 91 29t57 76q3 7 10.5 9t12.5 -2.5t3 -12.5q-15 -58 -65.5 -100.5t-127.5 -42.5z" />
    <glyph glyph-name="Ccaron" unicode="&#x10c;" horiz-adv-x="684" 
d="M229 866q-10 9 1 18q10 7 20 0l128 -95l128 95q14 10 23 -3q6 -8 -2 -15l-118 -107q-12 -11 -25 -11h-13q-13 0 -25 11zM626 228q4 9 13 12t15 -3t3 -19q-24 -94 -96.5 -161t-186.5 -67q-131 0 -232.5 110t-101.5 262q0 157 94 257.5t237 100.5q109 0 188.5 -64.5
t79.5 -120.5q0 -14 -8.5 -22t-22.5 -8q-16 0 -29.5 19t-28.5 45.5t-36 53.5t-62.5 46t-98.5 19q-104 0 -179 -84t-75 -212q0 -150 87.5 -249.5t206.5 -99.5q88 0 146 54.5t87 130.5z" />
    <glyph glyph-name="ccaron" unicode="&#x10d;" horiz-adv-x="501" 
d="M234 570l-117 108q-6 6 -3.5 13t10 8.5t14.5 -2.5l128 -96l128 96q8 5 15.5 2.5t9 -9t-3.5 -12.5l-118 -108q-12 -11 -25 -11h-13q-13 0 -25 11zM445 139q3 7 10.5 9t12.5 -2.5t3 -12.5q-15 -58 -65.5 -100.5t-127.5 -42.5q-101 0 -172 72t-71 181q0 110 68.5 178.5
t172.5 68.5q74 0 131 -39.5t57 -76.5q0 -28 -28 -28q-11 1 -21.5 13t-21.5 29t-26 34t-41.5 29t-62.5 12q-72 1 -120.5 -56t-48.5 -140q0 -105 57.5 -169t145.5 -64q53 0 91 29t57 76z" />
    <glyph glyph-name="Dcaron" unicode="&#x10e;" horiz-adv-x="732" 
d="M202 866q-10 9 1 18q10 7 20 0l128 -95l128 95q14 10 23 -3q6 -8 -2 -15l-118 -107q-12 -11 -25 -11h-14q-13 0 -24 11zM303 710q100 0 187 -40t143.5 -120.5t56.5 -184.5q0 -168 -104 -266.5t-257 -98.5h-244q-19 0 -19 10v1q0 6 17.5 17t17.5 28v597q0 14 -8.5 22
t-17.5 13t-9 11v1q0 10 19 10h218zM325 32q126 0 214.5 83.5t88.5 230.5q0 78 -30 142.5t-78.5 105t-107 62.5t-119.5 22h-110q-22 0 -22 -27v-580q0 -39 32 -39h132z" />
    <glyph glyph-name="dcaron" unicode="&#x10f;" horiz-adv-x="579" 
d="M621 808q13 0 13 -18q0 -123 -86 -213q-13 -13 -22 -4l-4 3q-8 6 3 22q62 82 62 192q0 18 12 18h22zM487 57q0 -18 18 -29.5t18 -16.5v-3q0 -8 -12 -8h-65q-13 0 -13 13l-2 68q-25 -44 -69.5 -67.5t-94.5 -23.5q-94 0 -161.5 71.5t-67.5 180.5q0 108 65.5 178t167.5 70
q49 0 91.5 -22t67.5 -59v250q0 14 -6 23t-13 12.5t-13 7.5t-6 9v2q0 9 13 13l56 21q26 10 26 -12v-678zM283 17q54 0 100.5 43.5t46.5 117.5v140q0 52 -48.5 98.5t-115.5 46.5q-73 0 -121.5 -57.5t-49.5 -145.5q-1 -104 52 -173t136 -70z" />
    <glyph glyph-name="Dcroat" unicode="&#x110;" horiz-adv-x="735" 
d="M306 710q100 0 187 -40t143.5 -120.5t56.5 -184.5q0 -168 -104 -266.5t-257 -98.5h-244q-19 0 -19 10v1q0 6 17.5 17t17.5 28v286h-59q-14 0 -14 10v11q0 10 14 10h59v280q0 14 -9 22t-17.5 13t-8.5 11v1q0 10 19 10h218zM328 32q126 0 214.5 83.5t88.5 230.5
q0 78 -30 142.5t-78.5 105t-107 62.5t-119.5 22h-110q-22 0 -22 -27v-278h153q14 0 14 -11v-9q0 -11 -14 -11h-153v-271q0 -39 32 -39h132z" />
    <glyph glyph-name="dcroat" unicode="&#x111;" horiz-adv-x="561" 
d="M548 583q13 0 13 -11v-9q0 -11 -13 -11h-61v-495q0 -18 18 -29.5t18 -16.5v-3q0 -8 -12 -8h-65q-13 0 -13 13l-2 68q-25 -44 -69.5 -67.5t-94.5 -23.5q-94 0 -161.5 71.5t-67.5 180.5q0 108 65.5 178t167.5 70q49 0 91.5 -22t67.5 -59v143h-154q-14 0 -14 10v11
q0 10 14 10h154v76q0 14 -6 23t-13 12.5t-13 7.5t-6 9v2q0 9 13 13l56 21q26 10 26 -12v-152h61zM283 17q54 0 100.5 43.5t46.5 117.5v140q0 52 -48.5 98.5t-115.5 46.5q-73 0 -121.5 -57.5t-49.5 -145.5q-1 -104 52 -173t136 -70z" />
    <glyph glyph-name="Emacron" unicode="&#x112;" horiz-adv-x="592" 
d="M171 818q-15 0 -15 13v17q0 12 15 12h256q15 0 15 -12v-17q0 -13 -15 -13h-256zM84 0q-18 0 -18 10v1q0 6 17.5 16.5t17.5 30.5v594q0 12 -5.5 20t-12 11.5t-12 7.5t-5.5 8v2q0 9 15 9h413q18 0 23 -19l24 -90q5 -18 -9 -18h-4q-9 0 -22 24t-30 48t-37 24h-256
q-23 0 -23 -29v-269h212q18 0 27.5 25.5t16.5 25.5h4q10 0 10 -14v-104q0 -16 -10 -16h-4q-7 0 -16.5 25.5t-27.5 25.5h-212l-1 -284q0 -15 8.5 -24.5t21.5 -9.5h281q20 0 36.5 24.5t29 48.5t22.5 24h4q14 0 9 -17l-23 -91q-7 -20 -23 -20h-441z" />
    <glyph glyph-name="emacron" unicode="&#x113;" horiz-adv-x="497" 
d="M119 614q-15 0 -15 12v17q0 12 15 12h257q15 0 15 -12v-17q0 -12 -15 -12h-257zM441 136q5 11 17 9t10 -15q-14 -55 -66.5 -97.5t-136.5 -42.5q-96 0 -161.5 70t-65.5 185q0 104 66.5 174.5t166.5 70.5q79 0 132 -46.5t53 -101.5q0 -36 -43 -49l-310 -93
q14 -77 63 -121.5t118 -44.5q60 0 99.5 28t57.5 74zM262 463q-73 0 -119 -58t-46 -142q0 -13 2 -35l278 85q22 6 22 28q0 40 -41 81t-96 41z" />
    <glyph glyph-name="Edotaccent" unicode="&#x116;" horiz-adv-x="592" 
d="M302 784q-23 0 -37 13.5t-14 35.5q0 23 14 36.5t37 13.5q22 0 35 -13.5t13 -36.5q0 -22 -13 -35.5t-35 -13.5zM84 0q-18 0 -18 10v1q0 6 17.5 16.5t17.5 30.5v594q0 12 -5.5 20t-12 11.5t-12 7.5t-5.5 8v2q0 9 15 9h413q18 0 23 -19l24 -90q5 -18 -9 -18h-4q-9 0 -22 24
t-30 48t-37 24h-256q-23 0 -23 -29v-269h212q18 0 27.5 25.5t16.5 25.5h4q10 0 10 -14v-104q0 -16 -10 -16h-4q-7 0 -16.5 25.5t-27.5 25.5h-212l-1 -284q0 -15 8.5 -24.5t21.5 -9.5h281q20 0 36.5 24.5t29 48.5t22.5 24h4q14 0 9 -17l-23 -91q-7 -20 -23 -20h-441z" />
    <glyph glyph-name="edotaccent" unicode="&#x117;" horiz-adv-x="497" 
d="M248 587q-23 0 -37 13.5t-14 35.5q0 23 14 37t37 14t36.5 -14t13.5 -37q0 -22 -13.5 -35.5t-36.5 -13.5zM441 136q5 11 17 9t10 -15q-14 -55 -66.5 -97.5t-136.5 -42.5q-96 0 -161.5 70t-65.5 185q0 104 66.5 174.5t166.5 70.5q79 0 132 -46.5t53 -101.5q0 -36 -43 -49
l-310 -93q14 -77 63 -121.5t118 -44.5q60 0 99.5 28t57.5 74zM262 463q-73 0 -119 -58t-46 -142q0 -13 2 -35l278 85q22 6 22 28q0 40 -41 81t-96 41z" />
    <glyph glyph-name="Eogonek" unicode="&#x118;" horiz-adv-x="592" 
d="M535 2q-74 -66 -74 -124q0 -24 11.5 -37.5t30.5 -13.5q12 0 31 7q8 3 12 -2.5t3 -14t-7 -11.5q-17 -10 -46 -10q-34 0 -58 20t-24 53q0 34 25 70t62 61h-417q-18 0 -18 10v1q0 6 17.5 16.5t17.5 30.5v594q0 12 -5.5 20t-12 11.5t-12 7.5t-5.5 8v2q0 9 15 9h413
q18 0 23 -19l24 -90q5 -18 -9 -18h-4q-9 0 -22 24t-30 48t-37 24h-256q-23 0 -23 -29v-269h212q18 0 27.5 25.5t16.5 25.5h4q10 0 10 -14v-104q0 -16 -10 -16h-4q-7 0 -16.5 25.5t-27.5 25.5h-212l-1 -284q0 -15 8.5 -24.5t21.5 -9.5h281q20 0 36.5 24.5t29 48.5t22.5 24h4
q14 0 9 -17l-23 -91q-5 -14 -13 -18z" />
    <glyph glyph-name="eogonek" unicode="&#x119;" horiz-adv-x="497" 
d="M441 136q5 11 17 9t10 -15q-21 -79 -99 -117q-71 -65 -71 -122q0 -23 12 -36.5t31 -13.5q11 0 30 7q8 3 12.5 -2.5t3 -14t-7.5 -11.5q-19 -11 -45 -11q-34 0 -58.5 20.5t-24.5 53.5q0 57 63 111q-30 -4 -49 -4q-96 0 -161.5 70t-65.5 185q0 104 66.5 174.5t166.5 70.5
q79 0 132 -46.5t53 -101.5q0 -36 -43 -49l-310 -93q14 -77 63 -121.5t118 -44.5q60 0 99.5 28t57.5 74zM262 463q-73 0 -119 -58t-46 -142q0 -13 2 -35l278 85q22 6 22 28q0 40 -41 81t-96 41z" />
    <glyph glyph-name="Ecaron" unicode="&#x11a;" horiz-adv-x="592" 
d="M151 866q-11 9 0 18q11 6 21 0l128 -95l127 95q14 10 23 -3q6 -8 -2 -15l-118 -107q-11 -11 -24 -11h-14q-13 0 -25 11zM562 128q14 0 9 -17l-23 -91q-7 -20 -23 -20h-441q-18 0 -18 10v1q0 6 17.5 16.5t17.5 30.5v594q0 12 -5.5 20t-12 11.5t-12 7.5t-5.5 8v2q0 9 15 9
h413q18 0 23 -19l24 -90q5 -18 -9 -18h-4q-9 0 -22 24t-30 48t-37 24h-256q-23 0 -23 -29v-269h212q18 0 27.5 25.5t16.5 25.5h4q10 0 10 -14v-104q0 -16 -10 -16h-4q-7 0 -16.5 25.5t-27.5 25.5h-212l-1 -284q0 -15 8.5 -24.5t21.5 -9.5h281q20 0 36.5 24.5t29 48.5
t22.5 24h4z" />
    <glyph glyph-name="ecaron" unicode="&#x11b;" horiz-adv-x="497" 
d="M216 570l-117 108q-6 6 -3.5 13t10 8.5t14.5 -2.5l128 -96l128 96q8 5 15.5 2.5t9 -9t-3.5 -12.5l-118 -108q-12 -11 -25 -11h-14q-13 0 -24 11zM441 136q5 11 17 9t10 -15q-14 -55 -66.5 -97.5t-136.5 -42.5q-96 0 -161.5 70t-65.5 185q0 104 66.5 174.5t166.5 70.5
q79 0 132 -46.5t53 -101.5q0 -36 -43 -49l-310 -93q14 -77 63 -121.5t118 -44.5q60 0 99.5 28t57.5 74zM262 463q-73 0 -119 -58t-46 -142q0 -13 2 -35l278 85q22 6 22 28q0 40 -41 81t-96 41z" />
    <glyph glyph-name="Gbreve" unicode="&#x11e;" horiz-adv-x="728" 
d="M382 785q-58 0 -98.5 33.5t-48.5 81.5q-2 10 4 15t13.5 4t9.5 -7q10 -38 43 -61t77 -23q43 0 76.5 23t44.5 61q2 6 9.5 7t13 -4t4.5 -15q-7 -48 -48.5 -81.5t-99.5 -33.5zM383 -10q-133 0 -237 108t-104 254q0 161 96 264.5t238 103.5q114 0 191.5 -64t77.5 -120
q0 -31 -30 -31q-15 0 -28.5 19t-29 45.5t-37.5 53.5t-64.5 46t-99.5 19q-105 0 -180 -88t-75 -216q0 -147 91 -249t209 -102q121 0 189 57v182q0 16 -18 24t-36 11.5t-18 8.5v4q0 12 19 12l153 -1q19 0 19 -11v-4q0 -5 -15.5 -8.5t-31 -11.5t-15.5 -25v-168q0 -20 -20 -39
q-90 -74 -244 -74z" />
    <glyph glyph-name="gbreve" unicode="&#x11f;" horiz-adv-x="523" 
d="M252 566q-58 0 -99 33.5t-49 81.5q-1 10 5 15.5t13.5 4t9.5 -7.5q10 -38 43 -61t77 -23q43 0 76.5 23t44.5 61q2 6 9 7t13 -4t5 -15q-7 -48 -48.5 -81.5t-99.5 -33.5zM463 480q21 0 23 -11q1 -7 -8 -11q-11 -5 -25 -7.5t-32.5 -4t-28.5 -3.5q35 -23 56 -62.5t21 -80.5
q0 -64 -34 -112t-93 -71q65 -13 101 -49t36 -84q0 -72 -60.5 -113.5t-160.5 -41.5q-107 0 -166.5 53t-59.5 107q0 28 27 28q13 0 21.5 -16.5t17.5 -40t25 -47.5t52.5 -40.5t90.5 -16.5q68 0 111 33.5t43 87.5q0 56 -40.5 90t-107.5 35q-8 -1 -24 -1q-85 0 -145 56t-60 135
q0 87 58.5 142.5t154.5 55.5q27 0 78.5 -5t128.5 -5zM260 128q67 0 108.5 44t41.5 108q0 76 -47 129.5t-119 53.5q-63 0 -102.5 -43t-39.5 -107q0 -76 45 -130.5t113 -54.5z" />
    <glyph glyph-name="Gdotaccent" unicode="&#x120;" horiz-adv-x="728" 
d="M385 784q-23 0 -37 13.5t-14 35.5q0 23 14 36.5t37 13.5q22 0 35 -13.5t13 -36.5q0 -22 -13 -35.5t-35 -13.5zM383 -10q-133 0 -237 108t-104 254q0 161 96 264.5t238 103.5q114 0 191.5 -64t77.5 -120q0 -31 -30 -31q-15 0 -28.5 19t-29 45.5t-37.5 53.5t-64.5 46
t-99.5 19q-105 0 -180 -88t-75 -216q0 -147 91 -249t209 -102q121 0 189 57v182q0 16 -18 24t-36 11.5t-18 8.5v4q0 12 19 12l153 -1q19 0 19 -11v-4q0 -5 -15.5 -8.5t-31 -11.5t-15.5 -25v-168q0 -20 -20 -39q-90 -74 -244 -74z" />
    <glyph glyph-name="gdotaccent" unicode="&#x121;" horiz-adv-x="523" 
d="M253 579q-24 0 -38 13t-14 36t14 37t38 14q22 0 35.5 -14t13.5 -37q0 -22 -13.5 -35.5t-35.5 -13.5zM463 480q21 0 23 -11q1 -7 -8 -11q-11 -5 -25 -7.5t-32.5 -4t-28.5 -3.5q35 -23 56 -62.5t21 -80.5q0 -64 -34 -112t-93 -71q65 -13 101 -49t36 -84q0 -72 -60.5 -113.5
t-160.5 -41.5q-107 0 -166.5 53t-59.5 107q0 28 27 28q13 0 21.5 -16.5t17.5 -40t25 -47.5t52.5 -40.5t90.5 -16.5q68 0 111 33.5t43 87.5q0 56 -40.5 90t-107.5 35q-8 -1 -24 -1q-85 0 -145 56t-60 135q0 87 58.5 142.5t154.5 55.5q27 0 78.5 -5t128.5 -5zM260 128
q67 0 108.5 44t41.5 108q0 76 -47 129.5t-119 53.5q-63 0 -102.5 -43t-39.5 -107q0 -76 45 -130.5t113 -54.5z" />
    <glyph glyph-name="uni0122" unicode="&#x122;" horiz-adv-x="728" 
d="M383 -10q-133 0 -237 108t-104 254q0 161 96 264.5t238 103.5q114 0 191.5 -64t77.5 -120q0 -31 -30 -31q-15 0 -28.5 19t-29 45.5t-37.5 53.5t-64.5 46t-99.5 19q-105 0 -180 -88t-75 -216q0 -147 91 -249t209 -102q121 0 189 57v182q0 16 -18 24t-36 11.5t-18 8.5v4
q0 12 19 12l153 -1q19 0 19 -11v-4q0 -5 -15.5 -8.5t-31 -11.5t-15.5 -25v-168q0 -20 -20 -39q-90 -74 -244 -74zM362 -285q-8 -6 -15 1.5t2 14.5q39 37 53 88q3 12 -7 12q-18 0 -29.5 13t-11.5 34q0 22 12.5 36t33.5 14t34.5 -15.5t13.5 -41.5q0 -93 -86 -156z" />
    <glyph glyph-name="uni0123" unicode="&#x123;" horiz-adv-x="523" 
d="M244 578q-21 0 -35 15.5t-14 41.5q0 95 87 159q8 5 15 -2.5t-1 -14.5q-42 -40 -55 -89q-3 -12 8 -12q18 0 29.5 -13t11.5 -35t-12.5 -36t-33.5 -14zM463 480q21 0 23 -11q1 -7 -8 -11q-11 -5 -25 -7.5t-32.5 -4t-28.5 -3.5q35 -23 56 -62.5t21 -80.5q0 -64 -34 -112
t-93 -71q65 -13 101 -49t36 -84q0 -72 -60.5 -113.5t-160.5 -41.5q-107 0 -166.5 53t-59.5 107q0 28 27 28q13 0 21.5 -16.5t17.5 -40t25 -47.5t52.5 -40.5t90.5 -16.5q68 0 111 33.5t43 87.5q0 56 -40.5 90t-107.5 35q-8 -1 -24 -1q-85 0 -145 56t-60 135q0 87 58.5 142.5
t154.5 55.5q27 0 78.5 -5t128.5 -5zM260 128q67 0 108.5 44t41.5 108q0 76 -47 129.5t-119 53.5q-63 0 -102.5 -43t-39.5 -107q0 -76 45 -130.5t113 -54.5z" />
    <glyph glyph-name="Hbar" unicode="&#x126;" horiz-adv-x="761" 
d="M711 572q15 0 15 -11v-9q0 -10 -15 -10h-54v-486q0 -17 18.5 -28t18.5 -17v-1q0 -10 -19 -10h-94q-19 0 -19 10v1q0 6 17.5 17t17.5 28v291h-434v-291q0 -17 18 -28t18 -17v-1q0 -10 -18 -10h-95q-18 0 -18 10v1q0 6 17 17t17 28v486h-58q-13 0 -13 10v9q0 11 13 11h58
v82q0 13 -8.5 21t-17 13t-8.5 11v1q0 10 18 10h95q18 0 18 -10v-1q0 -6 -9 -11t-18 -13t-9 -21v-82h434v82q0 13 -8.5 21t-17.5 13t-9 11v1q0 10 19 10h94q19 0 19 -10v-1q0 -6 -9 -11t-18.5 -13t-9.5 -21v-82h54zM597 380v162h-434l-1 -162h435z" />
    <glyph glyph-name="hbar" unicode="&#x127;" horiz-adv-x="555" 
d="M490 59q1 -19 18.5 -29t17.5 -16v-4q0 -10 -19 -10h-93q-19 0 -19 10v4q0 6 18.5 16t17.5 28l-10 210q-4 92 -42.5 142t-98.5 50q-57 0 -97.5 -37.5t-46.5 -94.5v-271q0 -18 18.5 -27.5t18.5 -15.5v-3q0 -11 -19 -11h-94q-19 0 -19 11v3q0 6 18 15.5t18 27.5v500h-78
q-14 0 -14 10v11q0 10 14 10h78v67q0 21 -18 34t-18 17v2q0 8 12 14l57 25q12 6 18.5 2t6.5 -14v-147h136q13 0 13 -11v-9q0 -11 -13 -11h-136l-1 -157q24 41 65.5 65.5t91.5 24.5q80 0 131.5 -56.5t57.5 -166.5z" />
    <glyph glyph-name="Itilde" unicode="&#x128;" horiz-adv-x="263" 
d="M59 886q33 0 82.5 -30t68.5 -30q39 0 55 42q4 11 14 11h5q12 0 9 -14q-21 -82 -90 -82q-31 0 -79 30.5t-71 30.5q-39 0 -55 -44q-6 -14 -13 -14h-7q-11 0 -8 15q8 38 30.5 61.5t58.5 23.5zM67 9v2q0 6 8.5 10.5t17 12.5t8.5 21v599q0 13 -8.5 21t-17 13t-8.5 11v1
q0 10 18 10h94q19 0 19 -10v-1q0 -6 -9 -11t-18.5 -13t-9.5 -21v-599q0 -13 9.5 -21t18.5 -12.5t9 -10.5v-2q0 -10 -19 -10h-94q-18 0 -18 10z" />
    <glyph glyph-name="itilde" unicode="&#x129;" horiz-adv-x="220" 
d="M37 700q33 0 82.5 -30t67.5 -30q39 0 55 42q6 11 14 11h6q13 0 8 -14q-19 -82 -89 -82q-31 0 -79 30.5t-71 30.5q-38 0 -56 -44q-4 -14 -12 -14h-7q-4 0 -7 4.5t-2 10.5q8 38 30.5 61.5t59.5 23.5zM66 0q-19 0 -19 11v4q0 6 9 10.5t18 12t9 20.5v335q0 15 -8.5 26
t-17.5 17t-9 10v3q0 4 12 11l54 27q27 12 27 -12v-417q0 -13 9.5 -20.5t18.5 -12t9 -10.5v-4q0 -11 -19 -11h-93z" />
    <glyph glyph-name="Imacron" unicode="&#x12a;" horiz-adv-x="263" 
d="M-1 818q-15 0 -15 13v17q0 12 15 12h257q15 0 15 -12v-17q0 -13 -15 -13h-257zM67 9v2q0 6 8.5 10.5t17 12.5t8.5 21v599q0 13 -8.5 21t-17 13t-8.5 11v1q0 10 18 10h94q19 0 19 -10v-1q0 -6 -9 -11t-18.5 -13t-9.5 -21v-599q0 -13 9.5 -21t18.5 -12.5t9 -10.5v-2
q0 -10 -19 -10h-94q-18 0 -18 10z" />
    <glyph glyph-name="imacron" unicode="&#x12b;" horiz-adv-x="220" 
d="M-12 614q-15 0 -15 12v17q0 12 15 12h256q15 0 15 -12v-17q0 -12 -15 -12h-256zM66 0q-19 0 -19 11v4q0 6 9 10.5t18 12t9 20.5v335q0 15 -8.5 26t-17.5 17t-9 10v3q0 4 12 11l54 27q27 12 27 -12v-417q0 -13 9.5 -20.5t18.5 -12t9 -10.5v-4q0 -11 -19 -11h-93z" />
    <glyph glyph-name="Iogonek" unicode="&#x12e;" horiz-adv-x="263" 
d="M198 699q0 -6 -9 -11t-18.5 -13t-9.5 -21v-599q0 -13 9.5 -21t18.5 -12.5t9 -10.5v-2q0 -10 -19 -10h-31q-72 -64 -72 -122q0 -23 12 -36.5t31 -13.5q13 0 30 6q8 4 12.5 -2t3.5 -14.5t-7 -10.5q-18 -11 -46 -11q-34 0 -58.5 20t-24.5 54t25 69t63 61h-32q-18 0 -18 10v2
q0 6 8.5 10.5t17 12.5t8.5 21v599q0 13 -8.5 21t-17 13t-8.5 11v1q0 10 18 10h94q19 0 19 -10v-1z" />
    <glyph glyph-name="iogonek" unicode="&#x12f;" horiz-adv-x="220" 
d="M107 587q-23 0 -37.5 13.5t-14.5 35.5q0 23 14.5 37t37.5 14q22 0 35.5 -14t13.5 -37q0 -22 -13.5 -35.5t-35.5 -13.5zM141 58q0 -13 9.5 -20.5t18.5 -12t9 -10.5v-4q0 -11 -19 -11h-22q-74 -65 -74 -123q0 -23 12 -36.5t31 -13.5q14 0 30 6q13 6 16 -9q2 -14 -8 -18
q-16 -11 -45 -11q-35 0 -59 20t-24 54t26 70t64 61h-40q-19 0 -19 11v4q0 6 9 10.5t18 12t9 20.5v335q0 15 -8.5 26t-17.5 17t-9 10v3q0 4 12 11l54 27q27 12 27 -12v-417z" />
    <glyph glyph-name="Idotaccent" unicode="&#x130;" horiz-adv-x="263" 
d="M134 784q-23 0 -37 13.5t-14 35.5q0 23 14 36.5t37 13.5q22 0 35 -13.5t13 -36.5q0 -22 -13 -35.5t-35 -13.5zM67 9v2q0 6 8.5 10.5t17 12.5t8.5 21v599q0 13 -8.5 21t-17 13t-8.5 11v1q0 10 18 10h94q19 0 19 -10v-1q0 -6 -9 -11t-18.5 -13t-9.5 -21v-599q0 -13 9.5 -21
t18.5 -12.5t9 -10.5v-2q0 -10 -19 -10h-94q-18 0 -18 10z" />
    <glyph glyph-name="dotlessi" unicode="&#x131;" horiz-adv-x="219" 
d="M66 0q-19 0 -19 11v4q0 6 9 10.5t18 12t9 20.5v335q0 15 -8.5 26t-17.5 17t-9 10v3q0 4 12 11l54 27q27 12 27 -12v-417q0 -13 9.5 -20.5t18.5 -12t9 -10.5v-4q0 -11 -19 -11h-93z" />
    <glyph glyph-name="IJ" unicode="&#x132;" horiz-adv-x="754" 
d="M67 9v2q0 6 8.5 10.5t17 12.5t8.5 21v599q0 13 -8.5 21t-17 13t-8.5 11v1q0 10 18 10h94q19 0 19 -10v-1q0 -6 -9 -11t-18.5 -13t-9.5 -21v-599q0 -13 9.5 -21t18.5 -12.5t9 -10.5v-2q0 -10 -19 -10h-94q-18 0 -18 10zM602 654q0 13 -8.5 21t-17.5 13t-9 11v1q0 10 19 10
h95q18 0 18 -10v-1q0 -6 -9 -11t-18 -13t-9 -21l-2 -420q-1 -129 -55 -186.5t-144 -57.5q-93 0 -144.5 51t-51.5 103q0 14 8.5 23t22.5 9q20 0 31.5 -24t19 -53t38.5 -53t85 -24q56 0 93.5 49.5t37.5 143.5v439z" />
    <glyph glyph-name="ij" unicode="&#x133;" horiz-adv-x="442" 
d="M107 587q-23 0 -37.5 13.5t-14.5 35.5q0 23 14.5 37t37.5 14q22 0 35.5 -14t13.5 -37q0 -22 -13.5 -35.5t-35.5 -13.5zM335 587q-23 0 -37.5 13.5t-14.5 35.5q0 23 14.5 37t37.5 14q22 0 35.5 -14t13.5 -37q0 -22 -13.5 -35.5t-35.5 -13.5zM66 0q-19 0 -19 11v4
q0 6 9 10.5t18 12t9 20.5v335q0 15 -8.5 26t-17.5 17t-9 10v3q0 4 12 11l54 27q27 12 27 -12v-417q0 -13 9.5 -20.5t18.5 -12t9 -10.5v-4q0 -11 -19 -11h-93zM270 -179q-41 0 -67.5 20.5t-26.5 50.5q0 29 28 29q14 0 21.5 -11.5t10.5 -24.5t13.5 -24.5t28.5 -11.5
q22 0 35.5 16t13.5 42q0 20 -8 55.5t-8 54.5v376q0 21 -17 34.5t-17 18.5v2q0 7 12 12l56 27q26 12 26 -12v-468q0 -62 -9 -107q-7 -36 -30.5 -57.5t-61.5 -21.5z" />
    <glyph glyph-name="uni0136" unicode="&#x136;" horiz-adv-x="665" 
d="M629 58q9 -13 19 -22t16 -11.5t10 -5.5t4 -8v-1q0 -10 -16 -10h-107q-17 0 -17 10v1q0 6 10 12.5t15.5 11.5t-1.5 20l-237 355l-164 -161v-191q0 -18 19 -29.5t19 -17.5v-1q0 -10 -20 -10h-94q-18 0 -18 10v1q0 6 17 17.5t17 29.5v596q0 13 -8.5 21t-17 13t-8.5 11v1
q0 10 18 10h94q19 0 19 -10v-1q0 -6 -9 -11t-18.5 -13t-9.5 -21v-360l361 355q13 16 10.5 22.5t-12.5 14.5t-10 13v1q0 10 19 10h84q20 0 20 -10v-1q0 -6 -9.5 -12t-26 -16t-28.5 -22l-204 -200zM378 -72q20 0 33.5 -15.5t13.5 -41.5q0 -93 -85 -156q-5 -4 -11 -1.5t-7 7.5
t4 10q40 37 54 88q3 12 -7 12q-18 0 -30 13t-12 34q0 22 13 36t34 14z" />
    <glyph glyph-name="uni0137" unicode="&#x137;" horiz-adv-x="500" 
d="M458 48q6 -8 15.5 -13.5t16.5 -8t12 -6.5t5 -9v-2q0 -9 -12 -9h-105q-12 0 -12 9v2q0 6 14 15.5t3 21.5l-175 210l-85 -78v-123q0 -18 18.5 -27.5t18.5 -15.5v-3q0 -11 -19 -11h-93q-18 0 -18 11v3q0 6 17 15.5t17 27.5v597q0 22 -18 35t-18 17v2q0 8 12 12l56 27
q13 5 20 1.5t7 -13.5v-512l223 200q10 13 6 18.5t-14.5 13t-10.5 13.5v3q0 9 13 9h97q12 0 12 -9v-2q0 -6 -9 -12t-25 -15t-27 -19l-140 -129zM260 -72q21 0 34.5 -15.5t13.5 -41.5q0 -93 -85 -156q-5 -4 -11 -1.5t-7 7.5t4 10q41 39 54 88q3 12 -8 12q-18 0 -29.5 13
t-11.5 34q0 22 12.5 36t33.5 14z" />
    <glyph glyph-name="kgreenlandic" unicode="&#x138;" horiz-adv-x="502" 
d="M464 48q6 -8 15 -13.5t15.5 -8t11.5 -6.5t5 -9v-2q0 -9 -12 -9h-103q-12 0 -12 9v2q0 6 13.5 15t3.5 22l-177 211l-85 -78v-124q0 -18 18.5 -27.5t18.5 -15.5v-3q0 -11 -19 -11h-94q-19 0 -19 11v3q0 6 17.5 15.5t17.5 27.5v432q0 16 -9.5 26.5t-18.5 16t-9 9.5v2
q0 7 13 13l57 26q13 5 20 1.5t7 -13.5v-347l223 200q10 13 6 18.5t-14.5 13t-10.5 13.5v3q0 9 13 9h97q12 0 12 -9v-2q0 -6 -9 -12t-25 -15t-27 -19l-140 -128z" />
    <glyph glyph-name="Lacute" unicode="&#x139;" horiz-adv-x="564" 
d="M46 786q-15 -3 -19 8q-3 11 8 17l200 82q21 10 27 -11l6 -22q5 -17 -16 -21zM85 0q-18 0 -18 10v1q0 6 17 17t17 29v596q0 15 -8.5 23t-17 12t-8.5 11v1q0 10 18 10h95q18 0 18 -10v-1q0 -7 -9 -11t-18 -12t-9 -23v-592q0 -29 26 -29h262q17 0 30.5 15.5t21.5 33.5
t18 33.5t20 15.5h6q12 0 8 -15l-24 -95q-7 -20 -23 -20h-422z" />
    <glyph glyph-name="lacute" unicode="&#x13a;" horiz-adv-x="216" 
d="M2 791q-14 -3 -19 8q-3 11 9 17l200 82q19 9 27 -11l5 -22q7 -17 -15 -21zM62 0q-19 0 -19 11v3q0 6 17.5 15.5t17.5 27.5v597q0 22 -17.5 35t-17.5 17v2q0 7 12 12l54 27q13 5 20.5 1.5t7.5 -13.5v-678q0 -18 18.5 -27.5t18.5 -15.5v-3q0 -11 -20 -11h-92z" />
    <glyph glyph-name="uni013B" unicode="&#x13b;" horiz-adv-x="564" 
d="M85 0q-18 0 -18 10v1q0 6 17 17t17 29v596q0 15 -8.5 23t-17 12t-8.5 11v1q0 10 18 10h95q18 0 18 -10v-1q0 -7 -9 -11t-18 -12t-9 -23v-592q0 -29 26 -29h262q17 0 30.5 15.5t21.5 33.5t18 33.5t20 15.5h6q12 0 8 -15l-24 -95q-7 -20 -23 -20h-422zM274 -285
q-8 -6 -15 1.5t1 14.5q40 37 54 88q3 12 -7 12q-18 0 -30 13t-12 34q0 22 13 36t34 14t34.5 -15.5t13.5 -41.5q0 -93 -86 -156z" />
    <glyph glyph-name="uni013C" unicode="&#x13c;" horiz-adv-x="216" 
d="M62 0q-19 0 -19 11v3q0 6 17.5 15.5t17.5 27.5v597q0 22 -17.5 35t-17.5 17v2q0 7 12 12l54 27q13 5 20.5 1.5t7.5 -13.5v-678q0 -18 18.5 -27.5t18.5 -15.5v-3q0 -11 -20 -11h-92zM78 -265q-8 -5 -15 2.5t1 14.5q40 37 54 88q3 12 -7 12q-18 0 -30 13t-12 34
q0 22 13 35.5t34 13.5t34.5 -15t13.5 -41q0 -92 -86 -157z" />
    <glyph glyph-name="Lcaron" unicode="&#x13d;" horiz-adv-x="566" 
d="M341 517l-4 3q-7 7 4 23q61 81 61 192q0 17 12 17h22q13 0 13 -17q0 -125 -86 -213q-12 -12 -22 -5zM85 0q-18 0 -18 10v1q0 6 17 17t17 29v596q0 15 -8.5 23t-17 12t-8.5 11v1q0 10 18 10h95q18 0 18 -10v-1q0 -7 -9 -11t-18 -12t-9 -23v-592q0 -29 26 -29h262
q17 0 30.5 15.5t21.5 33.5t18 33.5t20 15.5h6q12 0 8 -15l-24 -95q-7 -20 -23 -20h-422z" />
    <glyph glyph-name="lcaron" unicode="&#x13e;" horiz-adv-x="231" 
d="M171 576l-4 3q-9 7 3 22q62 82 62 193q0 17 12 17h22q13 0 13 -17q0 -126 -87 -213q-12 -12 -21 -5zM62 0q-19 0 -19 11v3q0 6 17.5 15.5t17.5 27.5v597q0 22 -17.5 35t-17.5 17v2q0 7 12 12l54 27q13 5 20.5 1.5t7.5 -13.5v-678q0 -18 18.5 -27.5t18.5 -15.5v-3
q0 -11 -20 -11h-92z" />
    <glyph glyph-name="Ldot" unicode="&#x13f;" horiz-adv-x="566" 
d="M85 0q-18 0 -18 10v1q0 6 17 17t17 29v596q0 15 -8.5 23t-17 12t-8.5 11v1q0 10 18 10h95q18 0 18 -10v-1q0 -7 -9 -11t-18 -12t-9 -23v-592q0 -29 26 -29h262q17 0 30.5 15.5t21.5 33.5t18 33.5t20 15.5h6q12 0 8 -15l-24 -95q-7 -20 -23 -20h-422zM383 336
q-22 0 -36 13t-14 35q0 24 14 37t36 13q23 0 37 -13t14 -37q0 -22 -14.5 -35t-36.5 -13z" />
    <glyph glyph-name="ldot" unicode="&#x140;" horiz-adv-x="263" 
d="M62 0q-19 0 -19 11v3q0 6 17.5 15.5t17.5 27.5v597q0 22 -17.5 35t-17.5 17v2q0 7 12 12l54 27q13 5 20.5 1.5t7.5 -13.5v-678q0 -18 18.5 -27.5t18.5 -15.5v-3q0 -11 -20 -11h-92zM227 337q-22 0 -36 13t-14 35q0 24 14 37.5t36 13.5t36.5 -13.5t14.5 -37.5
q0 -22 -14.5 -35t-36.5 -13z" />
    <glyph glyph-name="Lslash" unicode="&#x141;" horiz-adv-x="590" 
d="M572 130q12 0 8 -15l-24 -95q-7 -20 -23 -20h-422q-18 0 -18 10v1q0 6 17 17t17 29v240l-82 -47q-14 -8 -20 3l-3 6q-5 11 10 19l95 54v321q0 15 -8.5 23t-17 12t-8.5 11v1q0 10 18 10h95q18 0 18 -10v-1q0 -7 -9 -11t-18 -12t-9 -23v-286l109 62q13 7 18 -3l4 -7
q5 -10 -9 -17l-122 -70v-271q0 -29 26 -29h262q17 0 30.5 15.5t21.5 33.5t18 33.5t20 15.5h6z" />
    <glyph glyph-name="lslash" unicode="&#x142;" horiz-adv-x="269" 
d="M253 460q4 -9 -6 -16l-78 -52v-335q0 -18 18.5 -27.5t18.5 -15.5v-3q0 -11 -19 -11h-93q-18 0 -18 11v3q0 6 17 15.5t17 27.5v296l-70 -47q-8 -6 -15 1l-7 10q-6 8 4 15l88 60v262q0 22 -17 35t-17 17v2q0 8 12 12l54 27q13 5 20 1.5t7 -13.5v-303l58 39q13 9 20 -1z" />
    <glyph glyph-name="Nacute" unicode="&#x143;" horiz-adv-x="746" 
d="M293 786q-15 -4 -19 8q-3 10 8 17l200 82q21 10 27 -11l6 -22q5 -17 -16 -21zM667 710q19 0 19 -11v-1q0 -5 -19.5 -16t-19.5 -29v-632q0 -21 -18 -21h-14q-11 0 -27 23l-449 614v-576q0 -20 20.5 -32t20.5 -18v-1q0 -10 -19 -10h-78q-19 0 -19 10v1q0 6 18.5 18t18.5 32
v591q0 14 -9.5 21.5t-18.5 11.5t-9 10v4q0 11 19 11h53q18 0 30 -16l443 -611v570q0 18 -20 29t-20 16v1q0 11 20 11h78z" />
    <glyph glyph-name="nacute" unicode="&#x144;" horiz-adv-x="560" 
d="M202 561q-14 -6 -20 4q-5 10 5 18l178 124q17 13 28 -6l10 -20q10 -15 -10 -24zM496 59q0 -14 9 -22t18 -12.5t9 -10.5v-4q0 -10 -20 -10h-93q-18 0 -18 10v4q0 6 9 10.5t17.5 12t8.5 21.5l-9 208q-4 94 -43 144t-99 50q-57 0 -97.5 -37.5t-46.5 -94.5v-271
q0 -17 18.5 -27t18.5 -16v-4q0 -10 -19 -10h-94q-19 0 -19 10v4q0 6 18 15.5t18 27.5v338q0 14 -6 23.5t-12.5 12.5t-12.5 7t-6 9v2q0 7 13 13l53 25q12 6 18.5 2t6.5 -15v-81q23 44 65.5 70.5t94.5 26.5q80 0 131.5 -57t57.5 -168z" />
    <glyph glyph-name="uni0145" unicode="&#x145;" horiz-adv-x="746" 
d="M667 710q19 0 19 -11v-1q0 -5 -19.5 -16t-19.5 -29v-632q0 -21 -18 -21h-14q-11 0 -27 23l-449 614v-576q0 -20 20.5 -32t20.5 -18v-1q0 -10 -19 -10h-78q-19 0 -19 10v1q0 6 18.5 18t18.5 32v591q0 14 -9.5 21.5t-18.5 11.5t-9 10v4q0 11 19 11h53q18 0 30 -16l443 -611
v570q0 18 -20 29t-20 16v1q0 11 20 11h78zM395 -72q21 0 34.5 -15.5t13.5 -41.5q0 -93 -86 -156q-8 -6 -15 1.5t1 14.5q40 37 54 88q3 12 -7 12q-18 0 -30 13t-12 34q0 22 13 36t34 14z" />
    <glyph glyph-name="uni0146" unicode="&#x146;" horiz-adv-x="560" 
d="M496 59q0 -14 9 -22t18 -12.5t9 -10.5v-4q0 -10 -20 -10h-93q-18 0 -18 10v4q0 6 9 10.5t17.5 12t8.5 21.5l-9 208q-4 94 -43 144t-99 50q-57 0 -97.5 -37.5t-46.5 -94.5v-271q0 -17 18.5 -27t18.5 -16v-4q0 -10 -19 -10h-94q-19 0 -19 10v4q0 6 18 15.5t18 27.5v338
q0 14 -6 23.5t-12.5 12.5t-12.5 7t-6 9v2q0 7 13 13l53 25q12 6 18.5 2t6.5 -15v-81q23 44 65.5 70.5t94.5 26.5q80 0 131.5 -57t57.5 -168zM293 -72q21 0 34.5 -15.5t13.5 -41.5q0 -93 -86 -156q-8 -6 -15 1.5t1 14.5q40 37 54 88q3 12 -7 12q-18 0 -30 13t-12 34
q0 22 13 36t34 14z" />
    <glyph glyph-name="Ncaron" unicode="&#x147;" horiz-adv-x="746" 
d="M225 866q-10 10 1 18q9 7 20 0l128 -95l128 95q13 9 22 -2q7 -9 -2 -16l-117 -107q-12 -11 -25 -11h-14q-13 0 -25 11zM667 710q19 0 19 -11v-1q0 -5 -19.5 -16t-19.5 -29v-632q0 -21 -18 -21h-14q-11 0 -27 23l-449 614v-576q0 -20 20.5 -32t20.5 -18v-1q0 -10 -19 -10
h-78q-19 0 -19 10v1q0 6 18.5 18t18.5 32v591q0 14 -9.5 21.5t-18.5 11.5t-9 10v4q0 11 19 11h53q18 0 30 -16l443 -611v570q0 18 -20 29t-20 16v1q0 11 20 11h78z" />
    <glyph glyph-name="ncaron" unicode="&#x148;" horiz-adv-x="560" 
d="M252 570l-116 108q-6 6 -3.5 13t9.5 8.5t15 -2.5l128 -96l128 96q13 9 22 -2q5 -9 -2 -17l-117 -108q-12 -11 -25 -11h-14q-13 0 -25 11zM496 59q0 -14 9 -22t18 -12.5t9 -10.5v-4q0 -10 -20 -10h-93q-18 0 -18 10v4q0 6 9 10.5t17.5 12t8.5 21.5l-9 208q-4 94 -43 144
t-99 50q-57 0 -97.5 -37.5t-46.5 -94.5v-271q0 -17 18.5 -27t18.5 -16v-4q0 -10 -19 -10h-94q-19 0 -19 10v4q0 6 18 15.5t18 27.5v338q0 14 -6 23.5t-12.5 12.5t-12.5 7t-6 9v2q0 7 13 13l53 25q12 6 18.5 2t6.5 -15v-81q23 44 65.5 70.5t94.5 26.5q80 0 131.5 -57
t57.5 -168z" />
    <glyph glyph-name="napostrophe" unicode="&#x149;" horiz-adv-x="581" 
d="M0 741q21 0 35 -16t14 -42q0 -96 -88 -161q-9 -6 -16 1.5t2 15.5q42 40 55 90q3 12 -7 12q-19 0 -31 13.5t-12 35.5q0 23 13 37t35 14zM517 59q1 -14 10 -22t17.5 -12.5t8.5 -10.5v-4q0 -10 -19 -10h-93q-19 0 -19 10v4q0 6 9 10.5t18 12t8 21.5l-9 208q-4 94 -42.5 144
t-98.5 50q-63 0 -104 -43.5t-41 -107.5v-252q0 -17 19 -27t19 -16v-4q0 -10 -20 -10h-94q-19 0 -19 10v4q0 6 18 15.5t18 27.5v338q0 14 -6 23.5t-12.5 12.5t-12.5 7t-6 9v2q0 7 13 13l53 25q25 12 25 -13v-82q22 45 65 71.5t96 26.5q79 0 130.5 -57t57.5 -168z" />
    <glyph glyph-name="Eng" unicode="&#x14a;" horiz-adv-x="746" 
d="M666 710q20 0 20 -10v-1q0 -6 -10 -11.5t-20 -15t-10 -23.5v-615q0 -103 -46.5 -162t-132.5 -59q-78 0 -125.5 49t-47.5 99q0 32 31 32q16 0 24.5 -15.5t14.5 -37.5t16 -44t35 -37.5t64 -15.5q55 0 88.5 45.5t38.5 121.5l-466 626v-575q0 -20 19.5 -32t19.5 -18v-1
q0 -10 -18 -10h-78q-20 0 -20 10v1q0 6 19 18t19 32v588q0 14 -9.5 23t-19 14.5t-9.5 11.5v1q0 11 20 11h51q17 0 30 -16l443 -606v561q0 14 -9.5 23.5t-18.5 15t-9 11.5v1q0 10 18 10h78z" />
    <glyph glyph-name="eng" unicode="&#x14b;" horiz-adv-x="550" 
d="M498 12q3 -56 -7 -112q-6 -37 -30.5 -59.5t-62.5 -22.5q-37 0 -65 20.5t-28 52.5q0 12 8 20t21 8q14 0 22 -11.5t10 -25t12.5 -25t28.5 -11.5q22 0 35 16.5t13 44.5q0 20 -8 55.5t-9 60.5l-12 235q-5 98 -43 150t-100 52q-57 0 -96.5 -37.5t-46.5 -94.5l1 -270
q0 -14 9.5 -21.5t18.5 -12t9 -10.5v-4q0 -10 -19 -10h-94q-19 0 -19 10v4q0 6 9 10.5t18 12t9 21.5v334q0 19 -18.5 34.5t-18.5 20.5v2q0 7 13 13l53 25q24 11 24 -13l1 -78q21 44 62.5 69t93.5 25q80 0 133 -58.5t59 -173.5z" />
    <glyph glyph-name="Omacron" unicode="&#x14c;" horiz-adv-x="776" 
d="M258 818q-15 0 -15 13v17q0 12 15 12h256q15 0 15 -12v-17q0 -13 -15 -13h-256zM398 -10q-101 0 -184 52.5t-127.5 136.5t-44.5 179q0 155 97.5 258.5t249.5 103.5q148 0 246.5 -107.5t98.5 -260.5q0 -146 -97 -254t-239 -108zM410 23q113 0 189 89.5t76 206.5
q0 155 -86.5 261.5t-219.5 106.5q-116 0 -191.5 -85t-75.5 -211q0 -148 88 -258t220 -110z" />
    <glyph glyph-name="omacron" unicode="&#x14d;" horiz-adv-x="558" 
d="M149 614q-15 0 -15 12v17q0 12 15 12h256q15 0 15 -12v-17q0 -12 -15 -12h-256zM288 -9q-108 0 -179.5 76t-71.5 182q0 102 68 171t171 69q105 0 174.5 -73t69.5 -181q0 -105 -65 -174.5t-167 -69.5zM298 17q69 0 116 56.5t47 142.5q0 106 -55 176.5t-139 70.5
q-74 0 -122.5 -55.5t-48.5 -141.5q0 -102 57 -175.5t145 -73.5z" />
    <glyph glyph-name="Ohungarumlaut" unicode="&#x150;" horiz-adv-x="776" 
d="M269 760q-7 7 2 21l117 153q11 18 24 5l14 -13q16 -13 0 -27l-135 -134q-13 -11 -22 -5zM440 760q-8 5 2 20l117 154q11 17 24 5l14 -14q16 -13 0 -27l-135 -134q-12 -11 -22 -4zM398 -10q-101 0 -184 52.5t-127.5 136.5t-44.5 179q0 155 97.5 258.5t249.5 103.5
q148 0 246.5 -107.5t98.5 -260.5q0 -146 -97 -254t-239 -108zM410 23q113 0 189 89.5t76 206.5q0 155 -86.5 261.5t-219.5 106.5q-116 0 -191.5 -85t-75.5 -211q0 -148 88 -258t220 -110z" />
    <glyph glyph-name="ohungarumlaut" unicode="&#x151;" horiz-adv-x="558" 
d="M174 557q-10 7 2 20l116 154q12 17 24 5l14 -13q15 -14 0 -27l-135 -134q-12 -14 -21 -5zM344 556q-7 7 2 20l117 154q12 17 24 5l15 -13q14 -14 -1 -27l-135 -134q-11 -11 -22 -5zM288 -9q-108 0 -179.5 76t-71.5 182q0 102 68 171t171 69q105 0 174.5 -73t69.5 -181
q0 -105 -65 -174.5t-167 -69.5zM298 17q69 0 116 56.5t47 142.5q0 106 -55 176.5t-139 70.5q-74 0 -122.5 -55.5t-48.5 -141.5q0 -102 57 -175.5t145 -73.5z" />
    <glyph glyph-name="OE" unicode="&#x152;" horiz-adv-x="1133" 
d="M1102 126q13 0 9 -15l-25 -92q-3 -19 -22 -19h-405q-19 0 -19 11v1q0 6 8.5 11t17.5 13t9 22v102q-42 -80 -116.5 -125t-165.5 -45q-146 0 -249.5 106.5t-103.5 261.5q0 161 95.5 261.5t246.5 100.5q93 0 170.5 -50t122.5 -133v115q0 18 -17.5 30t-17.5 17v2q0 9 19 9
h375q17 0 22 -19l24 -89q5 -17 -10 -17h-5q-9 0 -20 23.5t-27 47t-35 23.5h-235q-24 0 -24 -28v-272h235q18 0 28 26t14 26h6q11 0 11 -19v-95q0 -20 -11 -20h-6q-4 0 -14 25.5t-28 25.5h-234l-1 -286q0 -29 29 -29h259q21 0 37.5 23.5t27.5 46.5t19 23h6zM407 23
q114 0 190.5 84t76.5 212q0 144 -91 256t-216 112q-115 0 -191.5 -85t-76.5 -211q0 -148 90 -258t218 -110z" />
    <glyph glyph-name="oe" unicode="&#x153;" horiz-adv-x="918" 
d="M859 148q5 12 18 8.5t10 -16.5q-14 -62 -67 -106t-133 -44q-63 0 -115 34t-82 93q-28 -58 -82 -92t-122 -34q-102 0 -175.5 75t-73.5 183q0 103 68.5 171.5t174.5 68.5q64 0 119 -34.5t86 -93.5q28 60 81 94.5t122 34.5q80 0 135 -48.5t55 -107.5q0 -28 -40 -40l-314 -94
q16 -75 65 -120.5t117 -45.5q52 0 93 30.5t60 83.5zM677 463q-70 0 -114.5 -58.5t-44.5 -141.5q0 -12 2 -36l279 83q22 8 22 31q0 39 -43 80.5t-101 41.5zM300 18q70 0 115.5 56t45.5 138q0 100 -56 175t-142 75q-72 0 -119.5 -56t-47.5 -136q0 -105 58 -178.5t146 -73.5z
" />
    <glyph glyph-name="Racute" unicode="&#x154;" horiz-adv-x="630" 
d="M233 786q-15 -4 -19 8q-3 11 9 17l200 82q20 10 26 -11l6 -22q5 -18 -15 -21zM560 56q10 -13 25 -21.5t24 -12.5t9 -11v-1q0 -10 -18 -10h-104q-18 0 -18 10v1q0 6 9.5 12t13.5 11t-5 22l-173 225q-26 -2 -40 -2l-121 -1v-222q0 -17 18 -28t18 -17v-1q0 -10 -18 -10h-95
q-18 0 -18 10v1q0 6 17 17t17 28v598q0 13 -8.5 21t-17 13t-8.5 11v1q0 10 18 10h184q133 0 217 -55t85 -163q0 -75 -49.5 -129t-140.5 -74zM279 310q104 0 167 46.5t63 124.5q0 99 -68.5 148t-174.5 49h-82q-22 0 -22 -28v-303q0 -37 34 -37h83z" />
    <glyph glyph-name="racute" unicode="&#x155;" horiz-adv-x="357" 
d="M127 561q-15 -6 -21 4q-4 10 5 18l178 124q18 13 28 -6l11 -20q8 -15 -11 -24zM262 490q42 0 66 -20.5t24 -49.5q0 -31 -28 -31q-12 0 -20 10t-12 21.5t-17.5 21.5t-35.5 10q-45 0 -73 -43.5t-28 -109.5v-242q0 -18 20 -28t20 -16v-3q0 -10 -20 -10h-93q-19 0 -19 10v3
q0 6 18 16t18 28v338q0 12 -6 21t-12.5 12.5t-12.5 8t-6 9.5v3q0 7 13 13l54 25q22 10 22 -12v-84q16 48 49.5 73.5t78.5 25.5z" />
    <glyph glyph-name="uni0156" unicode="&#x156;" horiz-adv-x="630" 
d="M560 56q10 -13 25 -21.5t24 -12.5t9 -11v-1q0 -10 -18 -10h-104q-18 0 -18 10v1q0 6 9.5 12t13.5 11t-5 22l-173 225q-26 -2 -40 -2l-121 -1v-222q0 -17 18 -28t18 -17v-1q0 -10 -18 -10h-95q-18 0 -18 10v1q0 6 17 17t17 28v598q0 13 -8.5 21t-17 13t-8.5 11v1
q0 10 18 10h184q133 0 217 -55t85 -163q0 -75 -49.5 -129t-140.5 -74zM279 310q104 0 167 46.5t63 124.5q0 99 -68.5 148t-174.5 49h-82q-22 0 -22 -28v-303q0 -37 34 -37h83zM322 -68q21 0 34.5 -15.5t13.5 -41.5q0 -93 -85 -156q-5 -4 -11 -1.5t-7 7.5t4 10q41 39 54 88
q3 12 -8 12q-18 0 -29.5 13t-11.5 34q0 22 12.5 36t33.5 14z" />
    <glyph glyph-name="uni0157" unicode="&#x157;" horiz-adv-x="357" 
d="M262 490q42 0 66 -20.5t24 -49.5q0 -31 -28 -31q-12 0 -20 10t-12 21.5t-17.5 21.5t-35.5 10q-45 0 -73 -43.5t-28 -109.5v-242q0 -18 20 -28t20 -16v-3q0 -10 -20 -10h-93q-19 0 -19 10v3q0 6 18 16t18 28v338q0 12 -6 21t-12.5 12.5t-12.5 8t-6 9.5v3q0 7 13 13l54 25
q22 10 22 -12v-84q16 48 49.5 73.5t78.5 25.5zM114 -72q20 0 33.5 -15.5t13.5 -41.5q0 -93 -85 -156q-5 -4 -11 -1.5t-7 7.5t4 10q40 37 54 88q3 12 -7 12q-18 0 -30 13t-12 34q0 22 13 36t34 14z" />
    <glyph glyph-name="Rcaron" unicode="&#x158;" horiz-adv-x="630" 
d="M177 866q-10 10 1 18q9 7 20 0l128 -95l128 95q13 9 22 -2q7 -9 -2 -16l-117 -107q-12 -11 -25 -11h-14q-13 0 -25 11zM560 56q10 -13 25 -21.5t24 -12.5t9 -11v-1q0 -10 -18 -10h-104q-18 0 -18 10v1q0 6 9.5 12t13.5 11t-5 22l-173 225q-26 -2 -40 -2l-121 -1v-222
q0 -17 18 -28t18 -17v-1q0 -10 -18 -10h-95q-18 0 -18 10v1q0 6 17 17t17 28v598q0 13 -8.5 21t-17 13t-8.5 11v1q0 10 18 10h184q133 0 217 -55t85 -163q0 -75 -49.5 -129t-140.5 -74zM279 310q104 0 167 46.5t63 124.5q0 99 -68.5 148t-174.5 49h-82q-22 0 -22 -28v-303
q0 -37 34 -37h83z" />
    <glyph glyph-name="rcaron" unicode="&#x159;" horiz-adv-x="357" 
d="M337 697q8 5 15.5 2.5t9 -9t-3.5 -12.5l-118 -108q-12 -11 -25 -11h-14q-13 0 -24 11l-117 108q-6 6 -3.5 13t10 8.5t14.5 -2.5l128 -96zM262 490q42 0 66 -20.5t24 -49.5q0 -31 -28 -31q-12 0 -20 10t-12 21.5t-17.5 21.5t-35.5 10q-45 0 -73 -43.5t-28 -109.5v-242
q0 -18 20 -28t20 -16v-3q0 -10 -20 -10h-93q-19 0 -19 10v3q0 6 18 16t18 28v338q0 12 -6 21t-12.5 12.5t-12.5 8t-6 9.5v3q0 7 13 13l54 25q22 10 22 -12v-84q16 48 49.5 73.5t78.5 25.5z" />
    <glyph glyph-name="Sacute" unicode="&#x15a;" horiz-adv-x="599" 
d="M235 786q-14 -3 -19 8q-3 11 9 17l200 82q19 9 27 -11l5 -22q7 -17 -15 -21zM311 -10q-69 0 -125 19.5t-87 48.5t-47.5 57t-16.5 49q0 29 27 29q14 0 25.5 -18t25 -43t34.5 -50.5t63.5 -43t102.5 -17.5q82 0 132.5 40.5t50.5 105.5q0 54 -24 88.5t-63 49t-85.5 23
t-93.5 18t-86 26.5t-63 56t-24 100q0 85 64.5 138t175.5 53q116 0 183 -51.5t67 -105.5q0 -29 -28 -29q-15 0 -25.5 16t-21 39t-28 46t-55.5 39t-94 16q-83 0 -130 -42t-47 -109q0 -50 24 -81.5t63 -45t85.5 -22t93.5 -19.5t86 -29.5t63 -59.5t24 -104q0 -83 -70.5 -135
t-175.5 -52z" />
    <glyph glyph-name="sacute" unicode="&#x15b;" horiz-adv-x="461" 
d="M147 561q-15 -6 -21 4q-4 10 5 18l178 124q18 13 28 -6l11 -20q8 -15 -11 -24zM231 -10q-92 0 -144.5 38.5t-52.5 75.5q0 27 28 27q13 0 21.5 -12t16 -28.5t20 -33.5t41 -29t70.5 -12q59 0 97.5 26.5t38.5 71.5q0 43 -33 66.5t-80 33t-94 20t-80 41t-33 83.5
q0 56 50.5 94t128.5 38q85 0 137 -37.5t52 -79.5q0 -26 -25 -26q-12 0 -20 12t-16 29t-20.5 34.5t-39.5 29.5t-66 12q-50 0 -86 -28t-36 -69q0 -42 33 -64t80 -31t94 -20t80 -42.5t33 -86.5q0 -56 -54 -94.5t-141 -38.5z" />
    <glyph glyph-name="Scedilla" unicode="&#x15e;" horiz-adv-x="599" 
d="M557 177q0 -80 -65 -131t-165 -56l-3 -48q43 0 71 -18.5t28 -49.5t-29 -51t-73 -20q-46 0 -80 22q-13 8 -6 23q5 10 15 4q28 -19 63 -19q25 0 44 11t18 31q-1 40 -68 40q-26 0 -21 30l10 45q-65 2 -118 22.5t-82.5 48.5t-45 55t-15.5 48q0 29 27 29q14 0 25.5 -18t25 -43
t34.5 -50.5t63.5 -43t102.5 -17.5q82 0 132.5 40.5t50.5 105.5q0 54 -24 88.5t-63 49t-85.5 23t-93.5 18t-86 26.5t-63 56t-24 100q0 85 64.5 138t175.5 53q116 0 183 -51.5t67 -105.5q0 -29 -28 -29q-15 0 -25.5 16t-21 39t-28 46t-55.5 39t-94 16q-83 0 -130 -42t-47 -109
q0 -50 24 -81.5t63 -45t85.5 -22t93.5 -19.5t86 -29.5t63 -59.5t24 -104z" />
    <glyph glyph-name="scedilla" unicode="&#x15f;" horiz-adv-x="461" 
d="M426 123q0 -54 -49.5 -91.5t-131.5 -41.5l-3 -48q43 0 71 -18.5t28 -49.5t-29 -51t-72 -20q-46 0 -80 22q-13 7 -7 21q6 11 16 6q26 -19 63 -19q25 0 43.5 11t17.5 31q-1 40 -67 40q-12 0 -18 8.5t-3 21.5l9 45q-84 4 -132 41.5t-48 72.5q0 27 28 27q13 0 21.5 -12
t16 -28.5t20 -33.5t41 -29t70.5 -12q59 0 97.5 26.5t38.5 71.5q0 43 -33 66.5t-80 33t-94 20t-80 41t-33 83.5q0 56 50.5 94t128.5 38q85 0 137 -37.5t52 -79.5q0 -26 -25 -26q-12 0 -20 12t-16 29t-20.5 34.5t-39.5 29.5t-66 12q-50 0 -86 -28t-36 -69q0 -42 33 -64t80 -31
t94 -20t80 -42.5t33 -86.5z" />
    <glyph glyph-name="Scaron" unicode="&#x160;" horiz-adv-x="599" 
d="M160 866q-10 10 1 18q9 7 20 0l128 -95l128 95q13 9 22 -2q7 -9 -2 -16l-117 -107q-12 -11 -25 -11h-14q-13 0 -25 11zM118 538q0 -50 24 -81.5t63 -45t85.5 -22t93.5 -19.5t86 -29.5t63 -59.5t24 -104q0 -83 -70.5 -135t-175.5 -52q-69 0 -125 19.5t-87 48.5t-47.5 57
t-16.5 49q0 29 27 29q14 0 25.5 -18t25 -43t34.5 -50.5t63.5 -43t102.5 -17.5q82 0 132.5 40.5t50.5 105.5q0 54 -24 88.5t-63 49t-85.5 23t-93.5 18t-86 26.5t-63 56t-24 100q0 85 64.5 138t175.5 53q116 0 183 -51.5t67 -105.5q0 -29 -28 -29q-15 0 -25.5 16t-21 39
t-28 46t-55.5 39t-94 16q-83 0 -130 -42t-47 -109z" />
    <glyph glyph-name="scaron" unicode="&#x161;" horiz-adv-x="461" 
d="M197 570l-117 108q-6 6 -3.5 13t10 8.5t14.5 -2.5l128 -96l128 96q8 5 15.5 2.5t9 -9t-3.5 -12.5l-118 -108q-12 -11 -25 -11h-14q-13 0 -24 11zM106 367q0 -42 33 -64t80 -31t94 -20t80 -42.5t33 -86.5q0 -56 -54 -94.5t-141 -38.5q-92 0 -144.5 38.5t-52.5 75.5
q0 27 28 27q13 0 21.5 -12t16 -28.5t20 -33.5t41 -29t70.5 -12q59 0 97.5 26.5t38.5 71.5q0 43 -33 66.5t-80 33t-94 20t-80 41t-33 83.5q0 56 50.5 94t128.5 38q85 0 137 -37.5t52 -79.5q0 -26 -25 -26q-12 0 -20 12t-16 29t-20.5 34.5t-39.5 29.5t-66 12q-50 0 -86 -28
t-36 -69z" />
    <glyph glyph-name="uni0162" unicode="&#x162;" horiz-adv-x="597" 
d="M586 590q4 -16 -9 -16h-7q-8 0 -19 26t-26.5 51.5t-35.5 25.5h-165v-621q0 -17 18 -28t18 -17v-1q0 -10 -19 -10h-31l-3 -58q43 0 71 -18.5t28 -49.5t-29 -51t-73 -20q-46 0 -80 22q-13 8 -6 23q5 10 15 4q29 -19 63 -19q25 0 44 11t18 31q-1 40 -68 40q-26 0 -21 30
l12 55h-34q-18 0 -18 10v1q0 6 17.5 17t17.5 28v621h-165q-15 0 -27 -16t-17.5 -35.5t-13 -35.5t-14.5 -16h-7q-12 0 -9 17l16 100q3 19 22 19h491q18 0 23 -19z" />
    <glyph glyph-name="uni0163" unicode="&#x163;" horiz-adv-x="341" 
d="M219 -58q43 0 71 -18.5t28 -49.5t-29 -51t-73 -20q-46 0 -80 22q-13 8 -6 23q5 10 15 4q29 -19 63 -19q25 0 44 11t18 31q-1 40 -68 40q-12 0 -17.5 8t-2.5 22l9 47q-45 6 -70.5 40.5t-25.5 97.5v319h-77q-12 0 -12 12v7q0 12 12 12h42q56 0 61 93q2 19 14 19h6
q12 0 12 -19l2 -93h149q12 0 12 -12v-7q0 -12 -12 -12h-149v-319q0 -46 18 -70t50 -24q34 0 54 18t22 48q3 11 15.5 11t12.5 -13q0 -42 -29 -73.5t-76 -35.5z" />
    <glyph glyph-name="Tcaron" unicode="&#x164;" horiz-adv-x="597" 
d="M147 866q-12 10 1 18q10 6 19 0l128 -95l128 95q14 10 23 -3q6 -8 -2 -15l-118 -107q-12 -11 -24 -11h-14q-13 0 -25 11zM586 590q4 -16 -9 -16h-7q-8 0 -19 26t-26.5 51.5t-35.5 25.5h-165v-621q0 -17 18 -28t18 -17v-1q0 -10 -19 -10h-94q-18 0 -18 10v1q0 6 17.5 17
t17.5 28v621h-165q-15 0 -27 -16t-17.5 -35.5t-13 -35.5t-14.5 -16h-7q-12 0 -9 17l16 100q3 19 22 19h491q18 0 23 -19z" />
    <glyph glyph-name="tcaron" unicode="&#x165;" horiz-adv-x="341" 
d="M232 533l-4 3q-8 7 4 22q61 83 61 192q0 18 12 18h22q13 0 13 -18q0 -124 -86 -212q-12 -12 -22 -5zM211 -9q-54 0 -85 35t-31 104v319h-77q-12 0 -12 12v7q0 12 12 12h42q56 0 61 93q2 19 14 19h6q12 0 12 -19l2 -93h149q12 0 12 -12v-7q0 -12 -12 -12h-149v-319
q0 -46 18 -70t50 -24q34 0 54 18t22 48q3 11 15.5 11t12.5 -13q0 -45 -32 -77t-84 -32z" />
    <glyph glyph-name="Tbar" unicode="&#x166;" horiz-adv-x="601" 
d="M589 590q4 -16 -9 -16h-7q-9 0 -19.5 26t-26 51.5t-35.5 25.5h-165v-304h103q14 0 14 -11v-9q0 -11 -14 -11h-103v-286q0 -17 18 -28t18 -17v-1q0 -10 -18 -10h-95q-18 0 -18 10v1q0 6 17.5 17t17.5 28v286h-109q-13 0 -13 10v11q0 10 13 10h109v304h-164
q-20 0 -33 -25.5t-22 -51.5t-18 -26h-7q-11 0 -8 17l15 100q3 19 22 19h491q18 0 23 -19z" />
    <glyph glyph-name="tbar" unicode="&#x167;" horiz-adv-x="359" 
d="M316 102q2 11 14.5 11t12.5 -13q0 -45 -32 -77t-83 -32q-54 0 -85.5 35t-31.5 104v145h-81q-14 0 -14 11v10q0 10 14 10h81v143h-76q-12 0 -12 12v7q0 12 12 12h42q57 0 60 93q2 19 14 19h6q13 0 13 -19l1 -93h149q13 0 13 -12v-7q0 -12 -13 -12h-149v-143h131
q13 0 13 -10v-10q0 -11 -13 -11h-131v-145q0 -46 18.5 -70t49.5 -24q34 0 54.5 18t22.5 48z" />
    <glyph glyph-name="Utilde" unicode="&#x168;" horiz-adv-x="719" 
d="M298 886q33 0 82.5 -30t67.5 -30q38 0 56 42q4 11 14 11h5q13 0 8 -14q-19 -82 -89 -82q-31 0 -79 30.5t-71 30.5q-39 0 -55 -44q-6 -14 -13 -14h-7q-4 0 -7 4.5t-2 10.5q8 37 31 61t59 24zM365 -10q-123 0 -199 80t-76 208v375q0 18 -18 29t-18 16v2q0 10 20 10h94
q19 0 19 -10v-2q0 -5 -18.5 -16t-18.5 -29v-375q0 -113 62.5 -184t160.5 -71q92 0 154.5 70t62.5 185v375q0 18 -18.5 29t-18.5 16v2q0 10 19 10h76q20 0 20 -10v-2q0 -5 -19.5 -16t-19.5 -29v-375q0 -127 -74 -207.5t-190 -80.5z" />
    <glyph glyph-name="utilde" unicode="&#x169;" horiz-adv-x="554" 
d="M114 600q-12 0 -9 15q8 38 30.5 61.5t59.5 23.5q33 0 82 -30t68 -30q39 0 55 42q4 11 14 11h6q11 0 8 -14q-21 -82 -90 -82q-30 0 -78 30.5t-71 30.5q-38 0 -56 -44q-6 -14 -12 -14h-7zM470 77q0 -24 9.5 -36t20.5 -13.5t20.5 -4.5t9.5 -11q0 -11 -10.5 -14.5t-37.5 -3.5
q-69 0 -66 74l-3 16q-22 -45 -63 -69.5t-95 -24.5q-85 0 -135 63.5t-50 175.5v180q0 19 -18 31.5t-18 18.5v1q0 10 12 13l62 14q21 5 21 -10l-1 -252q0 -96 36 -150t101 -54q63 0 105 46.5t42 122.5v219q0 15 -9.5 23.5t-19 14t-9.5 12.5v1q0 10 11 13l65 14q20 5 20 -10
v-400z" />
    <glyph glyph-name="Umacron" unicode="&#x16a;" horiz-adv-x="719" 
d="M235 818q-15 0 -15 13v17q0 12 15 12h256q15 0 15 -12v-17q0 -13 -15 -13h-256zM365 -10q-123 0 -199 80t-76 208v375q0 18 -18 29t-18 16v2q0 10 20 10h94q19 0 19 -10v-2q0 -5 -18.5 -16t-18.5 -29v-375q0 -113 62.5 -184t160.5 -71q92 0 154.5 70t62.5 185v375
q0 18 -18.5 29t-18.5 16v2q0 10 19 10h76q20 0 20 -10v-2q0 -5 -19.5 -16t-19.5 -29v-375q0 -127 -74 -207.5t-190 -80.5z" />
    <glyph glyph-name="umacron" unicode="&#x16b;" horiz-adv-x="554" 
d="M146 614q-15 0 -15 12v17q0 12 15 12h256q15 0 15 -12v-17q0 -12 -15 -12h-256zM470 77q0 -24 9.5 -36t20.5 -13.5t20.5 -4.5t9.5 -11q0 -11 -10.5 -14.5t-37.5 -3.5q-69 0 -66 74l-3 16q-22 -45 -63 -69.5t-95 -24.5q-85 0 -135 63.5t-50 175.5v180q0 19 -18 31.5
t-18 18.5v1q0 10 12 13l62 14q21 5 21 -10l-1 -252q0 -96 36 -150t101 -54q63 0 105 46.5t42 122.5v219q0 15 -9.5 23.5t-19 14t-9.5 12.5v1q0 10 11 13l65 14q20 5 20 -10v-400z" />
    <glyph glyph-name="Uring" unicode="&#x16e;" horiz-adv-x="719" 
d="M366 764q-46 0 -75.5 28t-29.5 68q0 41 30 69.5t76 28.5t76.5 -28t30.5 -68q0 -42 -30 -70t-78 -28zM367 791q29 0 47 20t18 50q0 29 -18 49t-47 20q-28 0 -46 -19.5t-18 -49.5q0 -29 18 -49.5t46 -20.5zM365 -10q-123 0 -199 80t-76 208v375q0 18 -18 29t-18 16v2
q0 10 20 10h94q19 0 19 -10v-2q0 -5 -18.5 -16t-18.5 -29v-375q0 -113 62.5 -184t160.5 -71q92 0 154.5 70t62.5 185v375q0 18 -18.5 29t-18.5 16v2q0 10 19 10h76q20 0 20 -10v-2q0 -5 -19.5 -16t-19.5 -29v-375q0 -127 -74 -207.5t-190 -80.5z" />
    <glyph glyph-name="uring" unicode="&#x16f;" horiz-adv-x="554" 
d="M273 549q-46 0 -75.5 28t-29.5 68q0 41 29.5 69t76.5 28t77 -28t30 -68q0 -41 -30 -69t-78 -28zM274 715q-29 0 -46.5 -19.5t-17.5 -49.5t17.5 -50.5t46.5 -20.5t47 20t18 51q0 29 -18 49t-47 20zM470 77q0 -24 9.5 -36t20.5 -13.5t20.5 -4.5t9.5 -11q0 -11 -10.5 -14.5
t-37.5 -3.5q-69 0 -66 74l-3 16q-22 -45 -63 -69.5t-95 -24.5q-85 0 -135 63.5t-50 175.5v180q0 19 -18 31.5t-18 18.5v1q0 10 12 13l62 14q21 5 21 -10l-1 -252q0 -96 36 -150t101 -54q63 0 105 46.5t42 122.5v219q0 15 -9.5 23.5t-19 14t-9.5 12.5v1q0 10 11 13l65 14
q20 5 20 -10v-400z" />
    <glyph glyph-name="Uhungarumlaut" unicode="&#x170;" horiz-adv-x="719" 
d="M246 760q-7 7 2 21l117 153q11 18 24 5l14 -13q16 -13 0 -27l-135 -134q-13 -11 -22 -5zM417 760q-8 5 2 20l117 154q11 17 24 5l14 -14q16 -13 0 -27l-135 -134q-12 -11 -22 -4zM365 -10q-123 0 -199 80t-76 208v375q0 18 -18 29t-18 16v2q0 10 20 10h94q19 0 19 -10v-2
q0 -5 -18.5 -16t-18.5 -29v-375q0 -113 62.5 -184t160.5 -71q92 0 154.5 70t62.5 185v375q0 18 -18.5 29t-18.5 16v2q0 10 19 10h76q20 0 20 -10v-2q0 -5 -19.5 -16t-19.5 -29v-375q0 -127 -74 -207.5t-190 -80.5z" />
    <glyph glyph-name="uhungarumlaut" unicode="&#x171;" horiz-adv-x="554" 
d="M141 557q-9 6 2 20l116 154q12 17 25 5l14 -13q15 -14 0 -27l-135 -134q-13 -13 -22 -5zM312 556q-8 7 2 20l117 154q11 18 24 5l14 -13q15 -14 -1 -27l-134 -134q-13 -11 -22 -5zM470 77q0 -24 9.5 -36t20.5 -13.5t20.5 -4.5t9.5 -11q0 -11 -10.5 -14.5t-37.5 -3.5
q-69 0 -66 74l-3 16q-22 -45 -63 -69.5t-95 -24.5q-85 0 -135 63.5t-50 175.5v180q0 19 -18 31.5t-18 18.5v1q0 10 12 13l62 14q21 5 21 -10l-1 -252q0 -96 36 -150t101 -54q63 0 105 46.5t42 122.5v219q0 15 -9.5 23.5t-19 14t-9.5 12.5v1q0 10 11 13l65 14q20 5 20 -10
v-400z" />
    <glyph glyph-name="Uogonek" unicode="&#x172;" horiz-adv-x="719" 
d="M648 710q20 0 20 -10v-2q0 -5 -19.5 -16t-19.5 -29v-375q0 -115 -60.5 -192.5t-160.5 -92.5q-67 -61 -67 -117q0 -24 12 -37.5t31 -13.5q11 0 30 7q8 3 12.5 -2.5t3 -14t-7.5 -11.5q-17 -10 -45 -10q-35 0 -59 20t-24 53q0 32 21.5 65t55.5 58h-6q-123 0 -199 80t-76 208
v375q0 18 -18 29t-18 16v2q0 10 20 10h94q19 0 19 -10v-2q0 -5 -18.5 -16t-18.5 -29v-375q0 -113 62.5 -184t160.5 -71q92 0 154.5 70t62.5 185v375q0 18 -18.5 29t-18.5 16v2q0 10 19 10h76z" />
    <glyph glyph-name="uogonek" unicode="&#x173;" horiz-adv-x="554" 
d="M477 -6q-60 -58 -60 -110q0 -24 12 -37.5t31 -13.5q11 0 30 7q8 3 12.5 -2.5t3 -14t-7.5 -11.5q-17 -10 -45 -10q-35 0 -59 20t-24 53q0 32 22.5 66t57.5 59q-35 15 -34 68l-3 16q-22 -45 -63 -69.5t-95 -24.5q-85 0 -135 63.5t-50 175.5v180q0 19 -18 31.5t-18 18.5v1
q0 10 12 13l62 14q21 5 21 -10l-1 -252q0 -96 36 -150t101 -54q63 0 105 46.5t42 122.5v219q0 15 -9.5 23.5t-19 14t-9.5 12.5v1q0 10 11 13l65 14q20 5 20 -10v-400q0 -24 9.5 -36t20.5 -13.5t20.5 -4.5t9.5 -11q0 -11 -10.5 -14.5t-37.5 -3.5h-5z" />
    <glyph glyph-name="Wcircumflex" unicode="&#x174;" horiz-adv-x="967" 
d="M387 766q-12 -8 -21 1.5t3 20.5l110 95q12 12 25 12h12q12 0 25 -12l113 -95q12 -11 4.5 -21t-22.5 -1l-127 83zM941 710q17 0 17 -9v-2q0 -7 -19 -17t-25 -29l-201 -635q-6 -18 -29 -18q-17 0 -24 18l-157 451l-167 -451q-6 -18 -28 -18q-16 0 -24 18l-239 634
q-5 13 -13.5 21.5t-15.5 10.5t-12.5 6t-5.5 10v2q0 8 16 8h106q17 0 17 -10v-1q0 -6 -6.5 -10t-13.5 -7t-10.5 -10.5t1.5 -19.5l212 -573l165 443l-46 131q-7 21 -26 31t-19 16v2q0 8 15 8h110q15 0 15 -8v-2q0 -5 -11 -9.5t-19.5 -13t-3.5 -24.5l196 -575l178 575
q6 18 -13.5 28.5t-19.5 15.5v2q0 11 18 11h82z" />
    <glyph glyph-name="wcircumflex" unicode="&#x175;" horiz-adv-x="744" 
d="M256 561q-12 -8 -20.5 1t3.5 20l110 96q13 12 25 12h12q12 0 25 -12l113 -96q12 -11 4.5 -21t-22.5 0l-127 82zM728 480q12 0 12 -10v-2q0 -6 -7 -10t-17 -12t-16 -24l-145 -404q-7 -18 -22 -18h-12q-19 0 -24 18l-123 383l-124 -383q-6 -18 -22 -18h-8q-18 0 -25 18
l-157 404q-7 19 -21 29.5t-14 16.5v2q0 10 13 10h97q12 0 12 -10v-2q0 -5 -6 -8.5t-12.5 -6.5t-10 -10.5t1.5 -20.5l132 -366l132 409q4 14 14 14h20q6 0 8 -3t5 -11l129 -412l129 366q6 16 -2.5 24.5t-19.5 13.5t-11 11v2q0 10 12 10h82z" />
    <glyph glyph-name="Ycircumflex" unicode="&#x176;" horiz-adv-x="649" 
d="M208 766q-12 -8 -20.5 1.5t3.5 20.5l110 95q12 12 25 12h12q12 0 25 -12l113 -95q12 -11 4.5 -21t-22.5 -1l-127 83zM619 710q18 0 18 -9v-2q0 -6 -7 -10t-19.5 -12t-20.5 -23l-231 -368v-230q0 -17 18.5 -28t18.5 -17v-1q0 -10 -19 -10h-94q-19 0 -19 10v1q0 6 17.5 17
t17.5 28v227l-241 371q-8 13 -21 21t-21.5 13t-8.5 11v1q0 10 19 10h106q19 0 19 -10v-1q0 -6 -11 -12.5t-17 -12t1 -20.5l216 -343l213 343q7 17 0 22.5t-19.5 11t-12.5 11.5v1q0 10 17 10h81z" />
    <glyph glyph-name="ycircumflex" unicode="&#x177;" horiz-adv-x="509" 
d="M142 562q-12 -8 -21 1t3 20l110 96q14 12 25 12h13q12 0 24 -12l113 -96q8 -6 7.5 -14t-7.5 -10t-18 3l-127 82zM495 480q12 0 12 -10v-2q0 -8 -16.5 -19.5t-26.5 -33.5l-189 -421q-48 -110 -77 -147q-46 -58 -105 -58q-46 0 -78 26.5t-32 53.5q0 29 27 29
q12 0 21.5 -12.5t15.5 -28t21 -28t38 -12.5q65 0 131 168l-189 430q-9 22 -26.5 33.5t-17.5 19.5v2q0 10 12 10h101q12 0 12 -10v-2q0 -7 -8 -13.5t-12 -12.5t2 -27l157 -374l161 370q9 20 0 30t-22 15.5t-13 11.5v2q0 10 13 10h88z" />
    <glyph glyph-name="Ydieresis" unicode="&#x178;" horiz-adv-x="649" 
d="M249 799q-22 0 -35 13t-13 34q0 22 13 35t35 13q21 0 33.5 -13t12.5 -35q0 -21 -12.5 -34t-33.5 -13zM420 799q-22 0 -35 13t-13 34q0 22 13 35t35 13q20 0 33.5 -13t13.5 -35q0 -21 -13.5 -34t-33.5 -13zM619 710q18 0 18 -9v-2q0 -6 -7 -10t-19.5 -12t-20.5 -23
l-231 -368v-230q0 -17 18.5 -28t18.5 -17v-1q0 -10 -19 -10h-94q-19 0 -19 10v1q0 6 17.5 17t17.5 28v227l-241 371q-8 13 -21 21t-21.5 13t-8.5 11v1q0 10 19 10h106q19 0 19 -10v-1q0 -6 -11 -12.5t-17 -12t1 -20.5l216 -343l213 343q7 17 0 22.5t-19.5 11t-12.5 11.5v1
q0 10 17 10h81z" />
    <glyph glyph-name="Zacute" unicode="&#x179;" horiz-adv-x="594" 
d="M213 786q-15 -4 -19 8q-3 10 8 17l201 82q20 10 26 -11l6 -22q5 -17 -16 -21zM569 129q19 0 13 -16l-27 -93q-7 -20 -23 -20h-491q-17 0 -17 16v4q0 9 10 22l451 637h-356q-15 0 -28 -15t-20.5 -33t-17 -33t-17.5 -15h-4q-14 0 -10 19l25 89q5 19 23 19h455q17 0 17 -16
v-7q0 -6 -10 -23l-449 -633h383q22 0 39.5 24.5t29.5 49t22 24.5h2z" />
    <glyph glyph-name="zacute" unicode="&#x17a;" horiz-adv-x="463" 
d="M170 561q-14 -5 -21 4q-4 10 5 18l178 124q18 13 29 -6l10 -20q9 -16 -11 -24zM441 122q15 0 9 -18l-27 -84q-7 -20 -23 -20h-356q-17 0 -17 16v4q0 6 9 22l317 412h-217q-20 0 -36 -23t-28 -46.5t-21 -23.5h-4q-15 0 -9 19l25 81q7 19 22 19h314q17 0 17 -16v-7
q0 -8 -12 -23l-315 -408h254q18 0 32.5 15t22.5 33t18.5 33t19.5 15h5z" />
    <glyph glyph-name="Zdotaccent" unicode="&#x17b;" horiz-adv-x="594" 
d="M308 784q-23 0 -37 13.5t-14 35.5t14 36t37 14q22 0 35 -13.5t13 -36.5q0 -22 -13 -35.5t-35 -13.5zM569 129q19 0 13 -16l-27 -93q-7 -20 -23 -20h-491q-17 0 -17 16v4q0 9 10 22l451 637h-356q-15 0 -28 -15t-20.5 -33t-17 -33t-17.5 -15h-4q-14 0 -10 19l25 89
q5 19 23 19h455q17 0 17 -16v-7q0 -6 -10 -23l-449 -633h383q22 0 39.5 24.5t29.5 49t22 24.5h2z" />
    <glyph glyph-name="zdotaccent" unicode="&#x17c;" horiz-adv-x="463" 
d="M253 587q-24 0 -38 13t-14 36t14 37t38 14q22 0 35.5 -14t13.5 -37q0 -22 -13.5 -35.5t-35.5 -13.5zM441 122q15 0 9 -18l-27 -84q-7 -20 -23 -20h-356q-17 0 -17 16v4q0 6 9 22l317 412h-217q-20 0 -36 -23t-28 -46.5t-21 -23.5h-4q-15 0 -9 19l25 81q7 19 22 19h314
q17 0 17 -16v-7q0 -8 -12 -23l-315 -408h254q18 0 32.5 15t22.5 33t18.5 33t19.5 15h5z" />
    <glyph glyph-name="Zcaron" unicode="&#x17d;" horiz-adv-x="594" 
d="M157 866q-12 10 1 18q10 6 19 0l128 -95l128 95q14 10 23 -3q6 -8 -2 -15l-118 -107q-12 -11 -24 -11h-14q-13 0 -25 11zM569 129q19 0 13 -16l-27 -93q-7 -20 -23 -20h-491q-17 0 -17 16v4q0 9 10 22l451 637h-356q-15 0 -28 -15t-20.5 -33t-17 -33t-17.5 -15h-4
q-14 0 -10 19l25 89q5 19 23 19h455q17 0 17 -16v-7q0 -6 -10 -23l-449 -633h383q22 0 39.5 24.5t29.5 49t22 24.5h2z" />
    <glyph glyph-name="zcaron" unicode="&#x17e;" horiz-adv-x="463" 
d="M219 570l-116 108q-6 6 -3.5 13t10 8.5t14.5 -2.5l128 -96l128 96q7 5 15 2.5t9.5 -9t-3.5 -12.5l-118 -108q-12 -11 -25 -11h-14q-13 0 -25 11zM441 122q15 0 9 -18l-27 -84q-7 -20 -23 -20h-356q-17 0 -17 16v4q0 6 9 22l317 412h-217q-20 0 -36 -23t-28 -46.5
t-21 -23.5h-4q-15 0 -9 19l25 81q7 19 22 19h314q17 0 17 -16v-7q0 -8 -12 -23l-315 -408h254q18 0 32.5 15t22.5 33t18.5 33t19.5 15h5z" />
    <glyph glyph-name="uni01EA" unicode="&#x1ea;" horiz-adv-x="776" 
d="M436 -8q-66 -64 -66 -117q0 -23 12 -36.5t31 -13.5q11 0 30 7q8 3 12.5 -2.5t3 -14t-7.5 -11.5q-19 -11 -46 -11q-34 0 -58 20.5t-24 53.5q0 32 21.5 65t55.5 58h-2q-101 0 -184 52.5t-127.5 136.5t-44.5 179q0 155 97.5 258.5t249.5 103.5q148 0 246.5 -107.5
t98.5 -260.5q0 -135 -85 -239.5t-213 -120.5zM102 391q0 -148 88 -258t220 -110q113 0 189 89.5t76 206.5q0 155 -86.5 261.5t-219.5 106.5q-116 0 -191.5 -85t-75.5 -211z" />
    <glyph glyph-name="uni01EB" unicode="&#x1eb;" horiz-adv-x="558" 
d="M316 -7q-61 -61 -61 -112q0 -23 12 -36.5t31 -13.5q15 0 30 7q8 3 12.5 -3t3 -14.5t-7.5 -10.5q-19 -11 -45 -11q-34 0 -58.5 20.5t-24.5 53.5q0 60 72 118q-105 3 -174 78.5t-69 179.5q0 102 68 171t171 69q105 0 174.5 -73t69.5 -181q0 -97 -56.5 -164.5t-147.5 -77.5z
M96 266q0 -102 57 -175.5t145 -73.5q69 0 116 56.5t47 142.5q0 106 -55 176.5t-139 70.5q-74 0 -122.5 -55.5t-48.5 -141.5z" />
    <glyph glyph-name="AEacute" unicode="&#x1fc;" horiz-adv-x="917" 
d="M473 786q-15 -4 -19 8q-3 11 9 17l200 82q20 10 26 -11l6 -22q5 -18 -15 -21zM887 126q12 0 8 -15l-24 -92q-5 -19 -23 -19h-406q-19 0 -19 10v1q0 8 18 18.5t18 28.5v138h-273l-84 -140q-7 -16 -1 -21t17 -11t11 -12v-1q0 -11 -20 -11h-95q-19 0 -19 11v1q0 6 7.5 10
t20.5 12.5t21 22.5l356 584q9 20 5 28t-14.5 16t-10.5 13v2q0 10 17 10h421q18 0 23 -19l23 -89q5 -17 -8 -17h-5q-9 0 -21.5 23.5t-29.5 47t-37 23.5h-225q-23 0 -23 -31v-266h226q14 0 22.5 13t13.5 25.5t11 12.5h3q12 0 12 -20v-95q0 -19 -12 -19h-3q-6 0 -11 12.5
t-13.5 25t-22.5 12.5h-226v-286q0 -15 8 -23.5t21 -8.5h250q21 0 38 23.5t29.5 47.5t21.5 24h4zM205 228h254v423z" />
    <glyph glyph-name="aeacute" unicode="&#x1fd;" horiz-adv-x="814" 
d="M354 561q-14 -7 -21 4q-5 10 5 18l178 123q18 15 28 -5l11 -20q8 -15 -11 -24zM756 150q5 11 17 7.5t9 -15.5q-14 -64 -66.5 -107.5t-133.5 -43.5q-64 0 -114.5 33.5t-79.5 90.5q-9 -53 -53 -89t-109 -36q-83 0 -134.5 41t-51.5 109t49.5 108t134.5 40q84 0 132 -46
l-3 33q-17 189 -141 189q-39 0 -64 -17t-32.5 -37.5t-18.5 -37.5t-25 -17q-29 0 -29 30q0 38 51 71.5t118 33.5q127 0 176 -117q28 55 80 87t118 32q79 0 132.5 -49t53.5 -107q0 -36 -38 -47l-313 -93q17 -72 65 -116t116 -44q53 0 94 30.5t60 83.5zM573 465q-70 0 -115 -59
t-45 -141q0 -22 3 -43l276 86q23 7 23 32q0 40 -42.5 82.5t-99.5 42.5zM236 17q55 0 91 38.5t38 86.5l-3 37q-9 35 -43.5 58t-84.5 23q-60 0 -97 -29.5t-37 -76.5q0 -60 37.5 -98.5t98.5 -38.5z" />
    <glyph glyph-name="Oslashacute" unicode="&#x1fe;" horiz-adv-x="793" 
d="M311 786q-15 -3 -19 8q-3 10 8 17l200 82q21 10 27 -11l6 -22q5 -17 -16 -21zM665 590q79 -103 79 -238q0 -146 -97.5 -254t-239.5 -108q-151 0 -256 113l-80 -76q-8 -6 -14 -1l-11 11q-7 6 4 15l80 76q-78 103 -78 230q0 155 97.5 258.5t249.5 103.5q147 0 245 -106
l62 59q10 12 18 4l9 -9q8 -6 -3 -17zM111 391q0 -122 62 -222l430 406q-88 112 -224 112q-117 0 -192.5 -85t-75.5 -211zM419 23q114 0 190 89.5t76 206.5q0 130 -63 229l-430 -406q91 -119 227 -119z" />
    <glyph glyph-name="oslashacute" unicode="&#x1ff;" horiz-adv-x="569" 
d="M208 561q-14 -6 -20 4q-5 10 5 18l178 124q17 13 28 -6l11 -20q8 -15 -11 -24zM530 467q7 -7 -3 -17l-55 -53q53 -69 53 -162q0 -105 -65 -174.5t-167 -69.5q-101 0 -172 68l-63 -60q-7 -6 -14 0l-9 10q-7 6 3 15l61 59q-57 71 -57 166q0 102 68 171t171 69
q101 0 169 -68l54 52q9 11 19 2zM102 266q0 -80 37 -145l276 267q-54 75 -143 75q-73 0 -121.5 -55.5t-48.5 -141.5zM466 216q0 81 -33 144l-276 -266q57 -77 146 -77q69 0 116 56.5t47 142.5z" />
    <glyph glyph-name="uni0218" unicode="&#x218;" horiz-adv-x="599" 
d="M311 -10q-69 0 -125 19.5t-87 48.5t-47.5 57t-16.5 49q0 29 27 29q14 0 25.5 -18t25 -43t34.5 -50.5t63.5 -43t102.5 -17.5q82 0 132.5 40.5t50.5 105.5q0 54 -24 88.5t-63 49t-85.5 23t-93.5 18t-86 26.5t-63 56t-24 100q0 85 64.5 138t175.5 53q116 0 183 -51.5
t67 -105.5q0 -29 -28 -29q-15 0 -25.5 16t-21 39t-28 46t-55.5 39t-94 16q-83 0 -130 -42t-47 -109q0 -50 24 -81.5t63 -45t85.5 -22t93.5 -19.5t86 -29.5t63 -59.5t24 -104q0 -83 -70.5 -135t-175.5 -52zM281 -285q-8 -6 -15 1.5t1 14.5q40 37 54 88q3 12 -7 12
q-18 0 -30 13t-12 34q0 22 13 36t34 14t34.5 -15.5t13.5 -41.5q0 -93 -86 -156z" />
    <glyph glyph-name="uni0219" unicode="&#x219;" horiz-adv-x="461" 
d="M231 -10q-92 0 -144.5 38.5t-52.5 75.5q0 27 28 27q13 0 21.5 -12t16 -28.5t20 -33.5t41 -29t70.5 -12q59 0 97.5 26.5t38.5 71.5q0 43 -33 66.5t-80 33t-94 20t-80 41t-33 83.5q0 56 50.5 94t128.5 38q85 0 137 -37.5t52 -79.5q0 -26 -25 -26q-12 0 -20 12t-16 29
t-20.5 34.5t-39.5 29.5t-66 12q-50 0 -86 -28t-36 -69q0 -42 33 -64t80 -31t94 -20t80 -42.5t33 -86.5q0 -56 -54 -94.5t-141 -38.5zM200 -285q-5 -4 -11 -1.5t-7 7.5t4 10q41 39 54 88q3 12 -8 12q-18 0 -29.5 13t-11.5 34q0 22 12.5 36t33.5 14t34.5 -15.5t13.5 -41.5
q0 -93 -85 -156z" />
    <glyph glyph-name="uni021A" unicode="&#x21a;" horiz-adv-x="597" 
d="M247 0q-18 0 -18 10v1q0 6 17.5 17t17.5 28v621h-165q-15 0 -27 -16t-17.5 -35.5t-13 -35.5t-14.5 -16h-7q-12 0 -9 17l16 100q3 19 22 19h491q18 0 23 -19l23 -101q4 -16 -9 -16h-7q-8 0 -19 26t-26.5 51.5t-35.5 25.5h-165v-621q0 -17 18 -28t18 -17v-1q0 -10 -19 -10
h-94zM266 -285q-5 -4 -11 -1.5t-7 7.5t4 10q41 39 54 88q3 12 -8 12q-18 0 -29.5 13t-11.5 34q0 22 12.5 36t33.5 14t34.5 -15.5t13.5 -41.5q0 -93 -85 -156z" />
    <glyph glyph-name="uni021B" unicode="&#x21b;" horiz-adv-x="341" 
d="M211 -9q-54 0 -85 35t-31 104v319h-77q-12 0 -12 12v7q0 12 12 12h42q56 0 61 93q2 19 14 19h6q12 0 12 -19l2 -93h149q12 0 12 -12v-7q0 -12 -12 -12h-149v-319q0 -46 18 -70t50 -24q34 0 54 18t22 48q3 11 15.5 11t12.5 -13q0 -45 -32 -77t-84 -32zM171 -277
q-8 -6 -15 1.5t2 14.5q42 39 53 88q3 12 -7 12q-18 0 -29.5 13t-11.5 34q0 22 12.5 36t33.5 14t34.5 -15.5t13.5 -41.5q0 -93 -86 -156z" />
    <glyph glyph-name="uni0237" unicode="&#x237;" horiz-adv-x="222" 
d="M50 -179q-41 0 -67.5 20.5t-26.5 50.5q0 29 28 29q14 0 21.5 -11.5t10.5 -24.5t13.5 -24.5t28.5 -11.5q22 0 35.5 16t13.5 42q0 20 -8 55.5t-8 54.5v376q0 21 -17 34.5t-17 18.5v2q0 7 12 12l56 27q26 12 26 -12v-468q0 -62 -9 -107q-7 -36 -30.5 -57.5t-61.5 -21.5z" />
    <glyph glyph-name="circumflex" unicode="&#x2c6;" 
d="M340 582q12 -11 4.5 -21t-22.5 -1l-127 83l-122 -83q-12 -7 -20.5 2t2.5 20l110 96q12 11 25 11h13q11 0 25 -11z" />
    <glyph glyph-name="caron" unicode="&#x2c7;" 
d="M326 695q7 6 14.5 3.5t9.5 -9t-3 -12.5l-118 -108q-13 -12 -25 -12h-14q-12 0 -25 12l-116 108q-6 6 -3.5 12.5t10 8t14.5 -2.5l128 -96z" />
    <glyph glyph-name="breve" unicode="&#x2d8;" 
d="M228 573q-58 0 -98.5 33.5t-48.5 81.5q-2 9 4 14.5t13.5 4t9.5 -7.5q10 -37 43 -60t77 -23q43 0 76.5 23t44.5 60q2 6 9.5 7.5t13 -4t4.5 -14.5q-7 -48 -48.5 -81.5t-99.5 -33.5z" />
    <glyph glyph-name="dotaccent" unicode="&#x2d9;" 
d="M147 587q-24 0 -38 13t-14 36t14 37t38 14q22 0 35.5 -14t13.5 -37q0 -22 -13.5 -35.5t-35.5 -13.5z" />
    <glyph glyph-name="ring" unicode="&#x2da;" 
d="M212 547q-46 0 -76 28t-30 68q0 41 30 69.5t77 28.5q46 0 76.5 -28t30.5 -68q0 -42 -30.5 -70t-77.5 -28zM213 574q29 0 47 20t18 50q0 29 -18 49.5t-47 20.5t-47 -20t-18 -50q0 -29 18 -49.5t47 -20.5z" />
    <glyph glyph-name="ogonek" unicode="&#x2db;" 
d="M319 -207q-34 0 -58 20t-24 53q0 36 27 72.5t66 62.5h30q-32 -28 -54 -62t-22 -64q0 -24 11.5 -37.5t30.5 -13.5q12 0 31 7q8 3 12 -2.5t3 -14t-7 -11.5q-17 -10 -46 -10z" />
    <glyph glyph-name="tilde" unicode="&#x2dc;" 
d="M172 699q33 0 82.5 -30t67.5 -30q38 0 56 41q4 12 14 12h5q13 0 8 -15q-20 -82 -89 -82q-31 0 -79 30.5t-71 30.5q-38 0 -55 -43q-5 -14 -13 -14h-7q-12 0 -9 15q8 37 31 61t59 24z" />
    <glyph glyph-name="hungarumlaut" unicode="&#x2dd;" 
d="M50 556q-8 5 2 20l116 153q13 18 24 5l15 -13q16 -14 -1 -26l-135 -135q-12 -12 -21 -4zM221 555q-9 6 2 20l116 154q12 17 24 5l15 -14q16 -13 -1 -26l-135 -134q-11 -12 -21 -5z" />
    <glyph glyph-name="gravecomb" unicode="&#x300;" horiz-adv-x="0" 
d="M-272 558l-190 97q-19 9 -11 24l11 20q10 19 28 6l178 -124q10 -8 5 -18q-7 -10 -21 -5z" />
    <glyph glyph-name="acutecomb" unicode="&#x301;" horiz-adv-x="0" 
d="M-306 559q-14 -5 -20 5t4 18l178 123q18 14 29 -5l10 -20q4 -7 1 -14t-12 -10z" />
    <glyph glyph-name="uni0302" unicode="&#x302;" horiz-adv-x="0" 
d="M-57 582q12 -11 4.5 -21t-22.5 -1l-127 83l-122 -83q-12 -7 -20.5 2t2.5 20l110 96q12 11 25 11h13q11 0 25 -11z" />
    <glyph glyph-name="tildecomb" unicode="&#x303;" horiz-adv-x="0" 
d="M-428 699q33 0 82.5 -30t67.5 -30q38 0 56 41q4 12 14 12h5q13 0 8 -15q-20 -82 -89 -82q-31 0 -79 30.5t-71 30.5q-38 0 -55 -43q-5 -14 -13 -14h-7q-12 0 -9 15q8 37 31 61t59 24z" />
    <glyph glyph-name="uni0304" unicode="&#x304;" horiz-adv-x="0" 
d="M-429 612q-15 0 -15 13v17q0 12 15 12h257q15 0 15 -12v-17q0 -13 -15 -13h-257z" />
    <glyph glyph-name="uni0306" unicode="&#x306;" horiz-adv-x="0" 
d="M-337 573q-58 0 -98.5 33.5t-48.5 81.5q-2 9 4 14.5t13.5 4t9.5 -7.5q10 -37 43 -60t77 -23q43 0 76.5 23t44.5 60q2 6 9.5 7.5t13 -4t4.5 -14.5q-7 -48 -48.5 -81.5t-99.5 -33.5z" />
    <glyph glyph-name="uni0307" unicode="&#x307;" horiz-adv-x="0" 
d="M-145 587q-24 0 -38 13t-14 36t14 37t38 14q22 0 35.5 -14t13.5 -37q0 -22 -13.5 -35.5t-35.5 -13.5z" />
    <glyph glyph-name="uni0308" unicode="&#x308;" horiz-adv-x="0" 
d="M-409 589q-22 0 -35.5 12.5t-13.5 33.5q0 22 13.5 35t35.5 13q21 0 33.5 -13t12.5 -35q0 -21 -12.5 -33.5t-33.5 -12.5zM-239 589q-21 0 -34 12.5t-13 33.5q0 22 13 35t34 13t34 -13.5t13 -34.5t-13 -33.5t-34 -12.5z" />
    <glyph glyph-name="uni030A" unicode="&#x30a;" horiz-adv-x="0" 
d="M-249 547q-46 0 -76 28t-30 68q0 41 30 69.5t77 28.5q46 0 76.5 -28t30.5 -68q0 -42 -30.5 -70t-77.5 -28zM-248 574q29 0 47 20t18 50q0 29 -18 49.5t-47 20.5t-47 -20t-18 -50q0 -29 18 -49.5t47 -20.5z" />
    <glyph glyph-name="uni030B" unicode="&#x30b;" horiz-adv-x="0" 
d="M-374 556q-8 5 2 20l116 153q13 18 24 5l15 -13q16 -14 -1 -26l-135 -135q-12 -12 -21 -4zM-203 555q-9 6 2 20l116 154q12 17 24 5l15 -14q16 -13 -1 -26l-135 -134q-10 -12 -21 -5z" />
    <glyph glyph-name="uni030C" unicode="&#x30c;" horiz-adv-x="0" 
d="M-71 695q7 6 14.5 3.5t9.5 -9t-3 -12.5l-118 -108q-13 -12 -25 -12h-14q-11 0 -25 12l-116 108q-6 6 -3.5 12.5t10 8t14.5 -2.5l128 -96z" />
    <glyph glyph-name="uni0312" unicode="&#x312;" horiz-adv-x="0" 
d="M-170 499q-9 -5 -16 2.5t2 14.5q41 37 54 89q3 12 -7 12q-18 0 -30 13t-12 34q0 22 13 36t34 14t34.5 -15.5t13.5 -41.5q0 -93 -86 -158z" />
    <glyph glyph-name="uni0326" unicode="&#x326;" horiz-adv-x="0" 
d="M-226 -285q-8 -6 -15 1.5t2 14.5q39 37 53 88q3 12 -7 12q-18 0 -29.5 13t-11.5 34q0 22 12.5 36t33.5 14t34.5 -15.5t13.5 -41.5q0 -93 -86 -156z" />
    <glyph glyph-name="uni0327" unicode="&#x327;" horiz-adv-x="0" 
d="M-274 -58q43 0 71 -18.5t28 -49.5t-29 -51t-73 -20q-46 0 -80 22q-13 8 -6 23q5 10 15 4q28 -19 63 -19q25 0 44 11t18 31q-1 40 -68 40q-26 0 -21 30l12 55h29z" />
    <glyph glyph-name="uni0328" unicode="&#x328;" horiz-adv-x="0" 
d="M-281 -207q-34 0 -58 20t-24 53q0 36 27 72.5t66 62.5h30q-32 -28 -54 -62t-22 -64q0 -24 11.5 -37.5t30.5 -13.5q12 0 31 7q8 3 12 -2.5t3 -14t-7 -11.5q-17 -10 -46 -10z" />
    <glyph glyph-name="uni0335" unicode="&#x335;" horiz-adv-x="0" 
d="M-422 275q-14 0 -14 11v11q0 9 14 9h271q14 0 14 -10v-9q0 -12 -14 -12h-271z" />
    <glyph glyph-name="uni0336" unicode="&#x336;" horiz-adv-x="0" 
d="M-683 264q-13 0 -13 10v10q0 10 13 10h668q14 0 14 -10v-10q0 -10 -14 -10h-668z" />
    <glyph glyph-name="uni0337" unicode="&#x337;" horiz-adv-x="0" 
d="M-410 188q-7 -5 -15 1l-6 10q-8 8 3 15l205 139q13 8 20 -1l6 -10q5 -9 -5 -16z" />
    <glyph glyph-name="uni0338" unicode="&#x338;" horiz-adv-x="0" 
d="M-552 29l-10 9q-6 6 3 16l466 449q11 11 19 1l8 -7q7 -9 -3 -17l-469 -451q-7 -7 -14 0z" />
    <glyph glyph-name="Wgrave" unicode="&#x1e80;" horiz-adv-x="967" 
d="M380 849q-20 5 -15 22l7 22q6 19 27 10l197 -89q13 -6 8 -17q-3 -10 -19 -8zM941 710q17 0 17 -9v-2q0 -7 -19 -17t-25 -29l-201 -635q-6 -18 -29 -18q-17 0 -24 18l-157 451l-167 -451q-6 -18 -28 -18q-16 0 -24 18l-239 634q-5 13 -13.5 21.5t-15.5 10.5t-12.5 6
t-5.5 10v2q0 8 16 8h106q17 0 17 -10v-1q0 -6 -6.5 -10t-13.5 -7t-10.5 -10.5t1.5 -19.5l212 -573l165 443l-46 131q-7 21 -26 31t-19 16v2q0 8 15 8h110q15 0 15 -8v-2q0 -5 -11 -9.5t-19.5 -13t-3.5 -24.5l196 -575l178 575q6 18 -13.5 28.5t-19.5 15.5v2q0 11 18 11h82z
" />
    <glyph glyph-name="wgrave" unicode="&#x1e81;" horiz-adv-x="744" 
d="M279 654q-19 8 -11 24l11 20q10 20 28 5l178 -123q10 -8 5 -18q-7 -10 -21 -5zM728 480q12 0 12 -10v-2q0 -6 -7 -10t-17 -12t-16 -24l-145 -404q-7 -18 -22 -18h-12q-19 0 -24 18l-123 383l-124 -383q-6 -18 -22 -18h-8q-18 0 -25 18l-157 404q-7 19 -21 29.5t-14 16.5
v2q0 10 13 10h97q12 0 12 -10v-2q0 -5 -6 -8.5t-12.5 -6.5t-10 -10.5t1.5 -20.5l132 -366l132 409q4 14 14 14h20q6 0 8 -3t5 -11l129 -412l129 366q6 16 -2.5 24.5t-19.5 13.5t-11 11v2q0 10 12 10h82z" />
    <glyph glyph-name="Wacute" unicode="&#x1e82;" horiz-adv-x="967" 
d="M419 786q-15 -4 -19 8q-3 10 8 17l201 82q20 10 26 -11l6 -22q5 -17 -16 -21zM941 710q17 0 17 -9v-2q0 -7 -19 -17t-25 -29l-201 -635q-6 -18 -29 -18q-17 0 -24 18l-157 451l-167 -451q-6 -18 -28 -18q-16 0 -24 18l-239 634q-5 13 -13.5 21.5t-15.5 10.5t-12.5 6
t-5.5 10v2q0 8 16 8h106q17 0 17 -10v-1q0 -6 -6.5 -10t-13.5 -7t-10.5 -10.5t1.5 -19.5l212 -573l165 443l-46 131q-7 21 -26 31t-19 16v2q0 8 15 8h110q15 0 15 -8v-2q0 -5 -11 -9.5t-19.5 -13t-3.5 -24.5l196 -575l178 575q6 18 -13.5 28.5t-19.5 15.5v2q0 11 18 11h82z
" />
    <glyph glyph-name="wacute" unicode="&#x1e83;" horiz-adv-x="744" 
d="M299 560q-13 -7 -20 4q-5 10 5 18l178 124q17 13 28 -6l10 -20q10 -15 -10 -24zM728 480q12 0 12 -10v-2q0 -6 -7 -10t-17 -12t-16 -24l-145 -404q-7 -18 -22 -18h-12q-19 0 -24 18l-123 383l-124 -383q-6 -18 -22 -18h-8q-18 0 -25 18l-157 404q-7 19 -21 29.5t-14 16.5
v2q0 10 13 10h97q12 0 12 -10v-2q0 -5 -6 -8.5t-12.5 -6.5t-10 -10.5t1.5 -20.5l132 -366l132 409q4 14 14 14h20q6 0 8 -3t5 -11l129 -412l129 366q6 16 -2.5 24.5t-19.5 13.5t-11 11v2q0 10 12 10h82z" />
    <glyph glyph-name="Wdieresis" unicode="&#x1e84;" horiz-adv-x="967" 
d="M427 799q-21 0 -34.5 13t-13.5 34q0 22 13.5 35t34.5 13t33.5 -13t12.5 -35q0 -21 -12.5 -34t-33.5 -13zM598 799q-22 0 -35 13t-13 34q0 22 13 35t35 13q20 0 33.5 -13t13.5 -35q0 -21 -13.5 -34t-33.5 -13zM941 710q17 0 17 -9v-2q0 -7 -19 -17t-25 -29l-201 -635
q-6 -18 -29 -18q-17 0 -24 18l-157 451l-167 -451q-6 -18 -28 -18q-16 0 -24 18l-239 634q-5 13 -13.5 21.5t-15.5 10.5t-12.5 6t-5.5 10v2q0 8 16 8h106q17 0 17 -10v-1q0 -6 -6.5 -10t-13.5 -7t-10.5 -10.5t1.5 -19.5l212 -573l165 443l-46 131q-7 21 -26 31t-19 16v2
q0 8 15 8h110q15 0 15 -8v-2q0 -5 -11 -9.5t-19.5 -13t-3.5 -24.5l196 -575l178 575q6 18 -13.5 28.5t-19.5 15.5v2q0 11 18 11h82z" />
    <glyph glyph-name="wdieresis" unicode="&#x1e85;" horiz-adv-x="744" 
d="M298 587q-22 0 -35 13t-13 34q0 22 13 35t35 13q21 0 33.5 -13t12.5 -35q0 -21 -12.5 -34t-33.5 -13zM469 587q-22 0 -35 13t-13 34q0 22 13 35t35 13q21 0 34 -13t13 -35q0 -21 -13.5 -34t-33.5 -13zM728 480q12 0 12 -10v-2q0 -6 -7 -10t-17 -12t-16 -24l-145 -404
q-7 -18 -22 -18h-12q-19 0 -24 18l-123 383l-124 -383q-6 -18 -22 -18h-8q-18 0 -25 18l-157 404q-7 19 -21 29.5t-14 16.5v2q0 10 13 10h97q12 0 12 -10v-2q0 -5 -6 -8.5t-12.5 -6.5t-10 -10.5t1.5 -20.5l132 -366l132 409q4 14 14 14h20q6 0 8 -3t5 -11l129 -412l129 366
q6 16 -2.5 24.5t-19.5 13.5t-11 11v2q0 10 12 10h82z" />
    <glyph glyph-name="uni1E9E" unicode="&#x1e9e;" horiz-adv-x="645" 
d="M413 414q84 -8 140 -65t56 -148q0 -94 -67.5 -147.5t-169.5 -53.5q-9 0 -13 8t-1 16.5t12 8.5q75 0 126 40.5t51 122.5q0 80 -44 137t-120 57q-14 0 -16 14t7 18l138 124q0 60 -50 100.5t-138 41.5q-84 1 -135.5 -56t-51.5 -150v-421q0 -16 10.5 -24.5t20.5 -13.5t10 -12
v-3q0 -8 -12 -8h-115q-13 0 -13 8v3q0 5 6 9.5t13 8t13 12t6 20.5v420q0 108 69.5 173.5t181.5 65.5q106 0 172 -47.5t71 -115.5q2 -17 -11 -26z" />
    <glyph glyph-name="Ygrave" unicode="&#x1ef2;" horiz-adv-x="649" 
d="M202 849q-20 5 -15 22l7 22q6 19 27 10l197 -89q13 -6 8 -17q-3 -10 -19 -8zM619 710q18 0 18 -9v-2q0 -6 -7 -10t-19.5 -12t-20.5 -23l-231 -368v-230q0 -17 18.5 -28t18.5 -17v-1q0 -10 -19 -10h-94q-19 0 -19 10v1q0 6 17.5 17t17.5 28v227l-241 371q-8 13 -21 21
t-21.5 13t-8.5 11v1q0 10 19 10h106q19 0 19 -10v-1q0 -6 -11 -12.5t-17 -12t1 -20.5l216 -343l213 343q7 17 0 22.5t-19.5 11t-12.5 11.5v1q0 10 17 10h81z" />
    <glyph glyph-name="ygrave" unicode="&#x1ef3;" horiz-adv-x="509" 
d="M164 655q-19 9 -11 24l11 20q11 19 28 6l178 -124q10 -8 5 -18q-7 -11 -20 -5zM495 480q12 0 12 -10v-2q0 -8 -16.5 -19.5t-26.5 -33.5l-189 -421q-48 -110 -77 -147q-46 -58 -105 -58q-46 0 -78 26.5t-32 53.5q0 29 27 29q12 0 21.5 -12.5t15.5 -28t21 -28t38 -12.5
q65 0 131 168l-189 430q-9 22 -26.5 33.5t-17.5 19.5v2q0 10 12 10h101q12 0 12 -10v-2q0 -7 -8 -13.5t-12 -12.5t2 -27l157 -374l161 370q9 20 0 30t-22 15.5t-13 11.5v2q0 10 13 10h88z" />
    <glyph glyph-name="uni1EF8" unicode="&#x1ef8;" horiz-adv-x="649" 
d="M184 786q-12 0 -9 15q8 38 30.5 61.5t58.5 23.5q33 0 82.5 -30t68.5 -30q39 0 55 42q4 11 14 11h5q12 0 9 -14q-21 -82 -90 -82q-31 0 -79 30.5t-71 30.5q-39 0 -55 -44q-6 -14 -12 -14h-7zM619 710q18 0 18 -9v-2q0 -6 -7 -10t-19.5 -12t-20.5 -23l-231 -368v-230
q0 -17 18.5 -28t18.5 -17v-1q0 -10 -19 -10h-94q-19 0 -19 10v1q0 6 17.5 17t17.5 28v227l-241 371q-8 13 -21 21t-21.5 13t-8.5 11v1q0 10 19 10h106q19 0 19 -10v-1q0 -6 -11 -12.5t-17 -12t1 -20.5l216 -343l213 343q7 17 0 22.5t-19.5 11t-12.5 11.5v1q0 10 17 10h81z
" />
    <glyph glyph-name="uni1EF9" unicode="&#x1ef9;" horiz-adv-x="509" 
d="M106 600q-11 0 -8 15q8 38 30.5 61.5t58.5 23.5q33 0 82.5 -30t68.5 -30q37 0 55 42q4 11 14 11h5q13 0 8 -14q-19 -82 -89 -82q-31 0 -79 30.5t-71 30.5q-39 0 -55 -44q-6 -14 -13 -14h-7zM495 480q12 0 12 -10v-2q0 -8 -16.5 -19.5t-26.5 -33.5l-189 -421
q-48 -110 -77 -147q-46 -58 -105 -58q-46 0 -78 26.5t-32 53.5q0 29 27 29q12 0 21.5 -12.5t15.5 -28t21 -28t38 -12.5q65 0 131 168l-189 430q-9 22 -26.5 33.5t-17.5 19.5v2q0 10 12 10h101q12 0 12 -10v-2q0 -7 -8 -13.5t-12 -12.5t2 -27l157 -374l161 370q9 20 0 30
t-22 15.5t-13 11.5v2q0 10 13 10h88z" />
    <glyph glyph-name="endash" unicode="&#x2013;" horiz-adv-x="563" 
d="M71 296q-11 0 -11 10v16q0 9 11 9h422q10 0 10 -9v-16q0 -10 -10 -10h-422z" />
    <glyph glyph-name="emdash" unicode="&#x2014;" horiz-adv-x="709" 
d="M71 296q-11 0 -11 10v16q0 9 11 9h568q10 0 10 -9v-16q0 -10 -10 -10h-568z" />
    <glyph glyph-name="quoteleft" unicode="&#x2018;" horiz-adv-x="187" 
d="M128 761q5 3 11.5 0.5t7.5 -7.5t-4 -10q-43 -39 -56 -91q-3 -12 8 -12q18 0 30 -13.5t12 -34.5q0 -23 -13 -37t-34 -14q-22 0 -36 15.5t-14 42.5q0 95 88 161z" />
    <glyph glyph-name="quoteright" unicode="&#x2019;" horiz-adv-x="197" 
d="M72 490q-8 -6 -15.5 1.5t1.5 15.5q42 38 55 90q3 12 -7 12q-19 0 -31 13.5t-12 35.5q0 23 13 37t35 14q21 0 35 -15.5t14 -42.5q0 -96 -88 -161z" />
    <glyph glyph-name="quotesinglbase" unicode="&#x201a;" horiz-adv-x="188" 
d="M56 -130q-5 -3 -11.5 -0.5t-7.5 7.5t4 10q43 39 56 91q3 12 -8 12q-18 0 -30 13.5t-12 35.5t13 36t34 14q22 0 36 -15.5t14 -42.5q0 -95 -88 -161z" />
    <glyph glyph-name="quotedblleft" unicode="&#x201c;" horiz-adv-x="358" 
d="M128 777q9 5 16 -2.5t-2 -15.5q-26 -23 -37 -43t-18 -47q-3 -12 7 -12q19 0 31 -13.5t12 -35.5t-13 -36t-35 -14t-35.5 15.5t-13.5 42.5q0 95 88 161zM302 777q9 5 16 -2.5t-2 -15.5q-42 -38 -55 -90q-3 -12 7 -12q19 0 31 -13.5t12 -35.5t-13 -36t-35 -14
q-21 0 -35 15.5t-14 42.5q0 95 88 161z" />
    <glyph glyph-name="quotedblright" unicode="&#x201d;" horiz-adv-x="370" 
d="M71 491q-8 -6 -15.5 2t1.5 16q26 23 37 43t18 47q3 12 -7 12q-19 0 -31 13.5t-12 35.5t13 36t35 14t35.5 -15.5t13.5 -42.5q0 -95 -88 -161zM245 491q-8 -6 -15.5 2t1.5 16q26 23 37 42.5t19 47.5q3 12 -8 12q-18 0 -30.5 14t-12.5 35q0 22 13 36t35 14t35.5 -15.5
t13.5 -42.5q0 -96 -88 -161z" />
    <glyph glyph-name="quotedblbase" unicode="&#x201e;" horiz-adv-x="363" 
d="M56 -130q-5 -3 -11.5 -0.5t-7.5 7.5t4 10q43 39 56 91q3 12 -8 12q-18 0 -30 13.5t-12 35.5t13 36t34 14q22 0 36 -15.5t14 -42.5q0 -95 -88 -161zM230 -130q-8 -5 -15.5 2.5t0.5 14.5q43 39 56 91q3 12 -8 12q-18 0 -30 13.5t-12 35.5t13 36t34 14q22 0 36 -15.5
t14 -42.5q0 -95 -88 -161z" />
    <glyph glyph-name="dagger" unicode="&#x2020;" horiz-adv-x="479" 
d="M436 519q13 1 18 -11.5t-0.5 -25t-17.5 -11.5l-184 11l13 -532q0 -11 -13 -15.5t-26 0t-13 15.5l13 532l-184 -11q-12 -1 -17 11.5t0 25t17 11.5l183 -10l-17 261q-1 16 15 22t32.5 0t15.5 -22l-18 -261z" />
    <glyph glyph-name="daggerdbl" unicode="&#x2021;" horiz-adv-x="479" 
d="M428 305q13 1 18 -11.5t-0.5 -25t-17.5 -11.5l-171 10l8 -317q0 -11 -13 -15.5t-26 0t-13 15.5l8 317l-171 -10q-12 -1 -17 11.5t0 25t17 11.5l171 -10l5 187l-176 -11q-12 -1 -17 11.5t0 25t17 11.5l175 -10l-17 261q-1 16 15 22t32.5 0t15.5 -22l-19 -261l176 10
q13 1 18 -11.5t-0.5 -25t-17.5 -11.5l-177 11l5 -187z" />
    <glyph glyph-name="bullet" unicode="&#x2022;" horiz-adv-x="328" 
d="M166 296q-41 0 -66 24t-25 64q0 42 25 66.5t66 24.5q39 0 63 -24.5t24 -66.5q0 -40 -24 -64t-63 -24z" />
    <glyph glyph-name="ellipsis" unicode="&#x2026;" horiz-adv-x="611" 
d="M104 -10q-21 0 -35 13t-14 34q0 23 14 36.5t35 13.5t35 -13.5t14 -36.5q0 -21 -14 -34t-35 -13zM311 -10q-21 0 -35 13t-14 34q0 23 14 36.5t35 13.5t35 -13.5t14 -36.5q0 -21 -14 -34t-35 -13zM508 -10q-21 0 -35 13t-14 34q0 23 14 36.5t35 13.5t35 -13.5t14 -36.5
q0 -21 -14 -34t-35 -13z" />
    <glyph glyph-name="perthousand" unicode="&#x2030;" horiz-adv-x="1248" 
d="M199 340q-72 0 -120.5 55.5t-48.5 136.5q0 82 45 135t120 53q69 0 116.5 -56t47.5 -135q0 -83 -45.5 -136t-114.5 -53zM217 0q-16 0 -7 14l400 689q5 7 13 7h21q6 0 8.5 -4t-1.5 -10l-398 -689q-6 -7 -14 -7h-22zM204 366q47 0 75 41t28 103q0 75 -34 129.5t-88 54.5
q-48 0 -77 -41.5t-29 -104.5q0 -75 35 -128.5t90 -53.5zM670 -10q-72 0 -120.5 55.5t-48.5 136.5q0 82 45 135t120 53q69 0 116.5 -56t47.5 -135q0 -83 -45.5 -136t-114.5 -53zM1060 -10q-72 0 -119 55t-47 137q0 83 44 135.5t118 52.5q69 0 115.5 -56t46.5 -135
q0 -84 -44.5 -136.5t-113.5 -52.5zM675 15q47 0 75 41.5t28 103.5q0 75 -34 129.5t-88 54.5q-48 0 -77 -41.5t-29 -104.5q0 -75 35 -129t90 -54zM1066 15q47 0 76 41.5t29 103.5q0 75 -35 129.5t-90 54.5q-48 0 -77.5 -41.5t-29.5 -104.5q0 -75 35.5 -129t91.5 -54z" />
    <glyph glyph-name="guilsinglleft" unicode="&#x2039;" horiz-adv-x="289" 
d="M237 469q-36 -93 -147 -180q108 -100 140 -167q1 -4 -5 -9t-14 -5t-16 8q-82 101 -151 153q-7 5 -6.5 21t6.5 21q105 72 165 168q5 9 18.5 4.5t9.5 -14.5z" />
    <glyph glyph-name="guilsinglright" unicode="&#x203a;" horiz-adv-x="281" 
d="M236 311q6 -5 6.5 -21t-6.5 -21q-70 -52 -143 -153q-8 -9 -16 -8.5t-14 5.5t-4 9q48 103 132 168q-95 65 -139 179q-4 10 9.5 14.5t18.5 -4.5q53 -98 156 -168z" />
    <glyph glyph-name="fraction" unicode="&#x2044;" horiz-adv-x="401" 
d="M-13 0q-6 0 -8.5 4t1.5 10l404 689q5 7 14 7h17q6 0 8.5 -4t-1.5 -10l-401 -689q-6 -7 -14 -7h-20z" />
    <glyph glyph-name="Euro" unicode="&#x20ac;" horiz-adv-x="697" 
d="M622 133q9 13 24 6t7 -24q-26 -53 -86 -89t-136 -36q-109 0 -190.5 87.5t-95.5 230.5h-104q-11 0 -11 8v15q0 9 11 9h101v20q0 16 2 44h-103q-11 0 -11 9v15q0 9 11 9h106q18 138 96.5 209.5t179.5 71.5q89 0 157.5 -41.5t68.5 -78.5q0 -31 -30 -31q-14 0 -26 12.5
t-25.5 30t-31 35t-51 30t-77.5 12.5q-75 0 -134 -67t-70 -183h327q11 0 11 -9v-15q0 -9 -11 -9h-329v-13q0 -19 2 -51h289q12 0 12 -9v-15q0 -8 -12 -8h-285q17 -126 83.5 -195.5t152.5 -69.5q53 0 101 24.5t77 65.5z" />
    <glyph glyph-name="trademark" unicode="&#x2122;" horiz-adv-x="742" 
d="M295 635q-4 0 -15 23t-23 23h-62v-260q0 -8 12 -13t12 -9v-4q0 -6 -9 -6h-75q-9 0 -9 6v4q0 4 12 9t12 13v260h-66q-12 0 -22.5 -23t-14.5 -23h-9q-7 0 -5 8l10 58q1 9 10 9h234q9 0 11 -9l10 -58q2 -8 -4 -8h-9zM675 423q2 -9 11 -13.5t9 -8.5v-6q0 -6 -8 -6h-66
q-9 0 -9 6v6q0 3 10 8t8 14l-42 225l-90 -247q-4 -12 -16 -12q-14 0 -17 11l-87 252l-38 -231q-2 -8 8 -13t10 -9v-4q0 -6 -8 -6h-54q-9 0 -9 6v4q0 4 10.5 9t11.5 13l42 256q2 10 -7 16.5t-9 9.5v1q0 6 8 6h45q11 0 14 -9l86 -253l88 253q3 9 13 9h42q9 0 9 -5v-5
q0 -3 -8.5 -10t-6.5 -16z" />
    <glyph glyph-name="minus" unicode="&#x2212;" 
d="M118 243q-11 0 -11 8v25q0 8 11 8h364q12 0 12 -8v-25q0 -8 -12 -8h-364z" />
    <glyph glyph-name="approxequal" unicode="&#x2248;" 
d="M193 485q42 0 109.5 -35t103.5 -35q25 0 47.5 13t33.5 39q5 12 15 12h12q12 0 9 -15q-9 -44 -42.5 -69t-76.5 -25q-42 0 -80 18t-70.5 35.5t-60.5 17.5q-53 0 -74 -55q-7 -14 -19 -14h-8q-12 0 -9 15q9 42 37 70t73 28zM191 303q42 0 109.5 -35t103.5 -35q26 0 49 12.5
t32 38.5q4 13 15 13h12q12 0 9 -15q-9 -44 -42.5 -69t-76.5 -25q-42 0 -80 18t-71 35.5t-60 17.5q-53 0 -74 -55q-7 -14 -18 -14h-9q-12 0 -9 15q9 42 37 70t73 28z" />
    <glyph glyph-name="notequal" unicode="&#x2260;" 
d="M483 332h-116l-69 -135h185q11 0 11 -8v-25q0 -8 -11 -8h-207l-68 -132q-5 -8 -13 -6l-12 6q-10 5 -4 14l61 118h-121q-12 0 -12 8v25q0 8 12 8h143l70 135h-213q-12 0 -12 8v25q0 8 12 8h234l64 122q7 12 15 7l10 -5q9 -5 3 -15l-56 -109h94q11 0 11 -8v-25q0 -8 -11 -8
z" />
    <glyph glyph-name="uniF8FF" unicode="&#xf8ff;" horiz-adv-x="1451" 
d="M691 583q0 26 17.5 44t43.5 18t44 -18t18 -44t-18 -43.5t-44 -17.5t-43.5 18t-17.5 43zM219 270h-119q0 78 2 156.5t4 117.5l3 40h100q9 -139 10 -314zM694 270q0 92 3 147h-61l3 -65q4 -4 15 -4q6 0 10.5 1t5.5 3l2 1v-74q-10 -15 -66 -15q-84 0 -84 66q0 15 2 50t2 37
h-22v79l119 30l1 -17h178q10 -64 10 -239h-118zM328 265q-92 0 -92 113q0 136 137 136q119 0 121 -117v-127h-83l-8 61q-6 -33 -23.5 -49.5t-51.5 -16.5zM1090 270h-114q0 26 1 56t1 40q0 26 -15 26q-18 0 -18 -26q0 -10 1.5 -40t1.5 -56h-114q0 78 2.5 137.5t5.5 80.5l2 21
h80q6 -45 6 -76q0 9 4.5 25t24.5 36t52 20q41 0 57.5 -24.5t18.5 -81.5zM1351 384q0 -55 -31 -87t-93 -32q-60 0 -90.5 33t-30.5 86q0 130 122 130q70 0 96.5 -34.5t26.5 -95.5zM390 375q0 26 -23 26t-23 -26q0 -30 23 -30t23 30zM1251 375q0 26 -23 26q-21 0 -21 -26
q0 -30 21 -30q23 0 23 30zM428 238h104q10 -60 10 -147q0 -73 -35 -107t-114 -34q-32 0 -54.5 4t-29.5 8l-7 5v83q20 -16 69 -16q24 0 37.5 7t15.5 14l2 7q-13 -11 -49 -11q-90 0 -90 83v13h-55l3 -65q4 -4 15 -4q6 0 10.5 1t5.5 3l2 1v-73q-10 -15 -67 -15q-82 0 -82 64
q0 46 3 88h-18v80l117 29l-1 -17l177 -1v-119q0 -27 14 -27q17 0 17 27v119zM733 243q37 0 58.5 -29t21.5 -83q0 -136 -137 -136q1 -13 1 -39h-119q0 76 2.5 146.5t5.5 103.5l2 32h78q7 -52 7 -76q2 11 6.5 25.5t24 35t49.5 20.5zM1070 129l-3 -37h-124q9 -18 49 -18
q16 0 30 3t20 6l6 3v-75q-20 -16 -78 -16q-69 0 -105 31t-36 86q0 64 32.5 97.5t93.5 33.5q54 0 84.5 -30t30.5 -84zM978 109q3 27 -17 27q-23 0 -23 -27h40zM670 72q4 0 10 1.5t16.5 11t10.5 25.5q0 22 -20 22q-22 0 -22 -32zM1075 13q0 -10 6.5 -16.5t16.5 -6.5
q9 0 15.5 6.5t6.5 16.5t-6.5 16t-15.5 6q-10 0 -16.5 -6t-6.5 -16zM1080 13q0 7 5 12.5t13 5.5q7 0 12 -5.5t5 -12.5t-5 -12.5t-12 -5.5q-8 0 -13 5.5t-5 12.5zM1108 2l-6 9q7 0 7 7t-10 7h-11v-23h5v9h5l4 -9h6zM1099 15h-6v6h5q6 0 6 -2q0 -4 -5 -4z" />
    <glyph glyph-name="uni00A40301" horiz-adv-x="498" 
d="M285 786q-14 -3 -19 8q-3 11 9 17l200 82q19 9 27 -11l5 -22q7 -17 -15 -21zM347 654q0 13 -8.5 21t-17.5 13t-9 11v1q0 10 19 10h94q19 0 19 -10v-1q0 -6 -9 -11t-18 -13t-9 -21l-2 -420q-1 -129 -55 -186.5t-144 -57.5q-93 0 -144.5 51t-51.5 103q0 32 30 32
q17 0 26.5 -16t16.5 -38.5t19 -45t40.5 -38.5t72.5 -16q56 0 93.5 49.5t37.5 143.5v439z" />
    <glyph glyph-name="A.ss01" horiz-adv-x="656" 
d="M27 0q-18 0 -18 10v1q0 7 18.5 17.5t25.5 27.5l233 595q6 14 -12.5 27.5t-18.5 20.5v1q0 10 14 10h100q14 0 14 -10v-1q0 -7 -18.5 -19.5t-13.5 -26.5l257 -597q8 -17 26.5 -27.5t18.5 -17.5v-1q0 -10 -18 -10h-100q-18 0 -18 10v1q0 6 10.5 11.5t18 13t1.5 20.5l-58 138
h-342l-54 -138q-5 -11 -0.5 -18t11.5 -10t13.5 -7.5t6.5 -9.5v-1q0 -10 -19 -10h-78zM159 227h318l-166 396z" />
    <glyph glyph-name="Aacute.ss01" horiz-adv-x="659" 
d="M238 786q-15 -4 -19 8q-3 11 9 17l200 82q20 10 26 -11l6 -22q5 -17 -16 -21zM27 0q-18 0 -18 10v1q0 7 18.5 17.5t25.5 27.5l233 595q6 14 -12.5 27.5t-18.5 20.5v1q0 10 14 10h100q14 0 14 -10v-1q0 -7 -18.5 -19.5t-13.5 -26.5l257 -597q8 -17 26.5 -27.5t18.5 -17.5
v-1q0 -10 -18 -10h-100q-18 0 -18 10v1q0 6 10.5 11.5t18 13t1.5 20.5l-58 138h-342l-54 -138q-5 -11 -0.5 -18t11.5 -10t13.5 -7.5t6.5 -9.5v-1q0 -10 -19 -10h-78zM159 227h318l-166 396z" />
    <glyph glyph-name="Abreve.ss01" horiz-adv-x="659" 
d="M330 785q-57 0 -98 33.5t-49 81.5q-1 10 5 15t13 4t9 -7q10 -38 43.5 -61t76.5 -23q44 0 77.5 23t43.5 61q2 6 9.5 7t13.5 -4t5 -15q-7 -48 -48.5 -81.5t-100.5 -33.5zM27 0q-18 0 -18 10v1q0 7 18.5 17.5t25.5 27.5l233 595q6 14 -12.5 27.5t-18.5 20.5v1q0 10 14 10
h100q14 0 14 -10v-1q0 -7 -18.5 -19.5t-13.5 -26.5l257 -597q8 -17 26.5 -27.5t18.5 -17.5v-1q0 -10 -18 -10h-100q-18 0 -18 10v1q0 6 10.5 11.5t18 13t1.5 20.5l-58 138h-342l-54 -138q-5 -11 -0.5 -18t11.5 -10t13.5 -7.5t6.5 -9.5v-1q0 -10 -19 -10h-78zM159 227h318
l-166 396z" />
    <glyph glyph-name="Acircumflex.ss01" horiz-adv-x="659" 
d="M206 766q-12 -8 -21 1.5t3 20.5l110 95q12 12 25 12h13q10 0 24 -12l113 -95q12 -11 4.5 -21t-22.5 -1l-127 83zM608 56q8 -17 26.5 -27.5t18.5 -17.5v-1q0 -10 -18 -10h-100q-18 0 -18 10v1q0 6 10.5 11.5t18 13t1.5 20.5l-58 138h-342l-54 -138q-5 -11 -0.5 -18
t11.5 -10t13.5 -7.5t6.5 -9.5v-1q0 -10 -19 -10h-78q-18 0 -18 10v1q0 7 18.5 17.5t25.5 27.5l233 595q6 14 -12.5 27.5t-18.5 20.5v1q0 10 14 10h100q14 0 14 -10v-1q0 -7 -18.5 -19.5t-13.5 -26.5zM159 227h318l-166 396z" />
    <glyph glyph-name="Adieresis.ss01" horiz-adv-x="659" 
d="M246 799q-22 0 -35 13t-13 34q0 22 13 35t35 13q21 0 33.5 -13t12.5 -35q0 -21 -12.5 -34t-33.5 -13zM417 799q-22 0 -35 13t-13 34q0 22 13 35t35 13q21 0 34 -13t13 -35q0 -21 -13.5 -34t-33.5 -13zM27 0q-18 0 -18 10v1q0 7 18.5 17.5t25.5 27.5l233 595
q6 14 -12.5 27.5t-18.5 20.5v1q0 10 14 10h100q14 0 14 -10v-1q0 -7 -18.5 -19.5t-13.5 -26.5l257 -597q8 -17 26.5 -27.5t18.5 -17.5v-1q0 -10 -18 -10h-100q-18 0 -18 10v1q0 6 10.5 11.5t18 13t1.5 20.5l-58 138h-342l-54 -138q-5 -11 -0.5 -18t11.5 -10t13.5 -7.5
t6.5 -9.5v-1q0 -10 -19 -10h-78zM159 227h318l-166 396z" />
    <glyph glyph-name="Agrave.ss01" horiz-adv-x="659" 
d="M404 789l-205 60q-20 5 -14 22l6 22q8 19 27 10l198 -89q11 -7 8 -17q-4 -10 -20 -8zM27 0q-18 0 -18 10v1q0 7 18.5 17.5t25.5 27.5l233 595q6 14 -12.5 27.5t-18.5 20.5v1q0 10 14 10h100q14 0 14 -10v-1q0 -7 -18.5 -19.5t-13.5 -26.5l257 -597q8 -17 26.5 -27.5
t18.5 -17.5v-1q0 -10 -18 -10h-100q-18 0 -18 10v1q0 6 10.5 11.5t18 13t1.5 20.5l-58 138h-342l-54 -138q-5 -11 -0.5 -18t11.5 -10t13.5 -7.5t6.5 -9.5v-1q0 -10 -19 -10h-78zM159 227h318l-166 396z" />
    <glyph glyph-name="Amacron.ss01" horiz-adv-x="659" 
d="M202 818q-15 0 -15 13v17q0 12 15 12h256q15 0 15 -12v-17q0 -13 -15 -13h-256zM27 0q-18 0 -18 10v1q0 7 18.5 17.5t25.5 27.5l233 595q6 14 -12.5 27.5t-18.5 20.5v1q0 10 14 10h100q14 0 14 -10v-1q0 -7 -18.5 -19.5t-13.5 -26.5l257 -597q8 -17 26.5 -27.5
t18.5 -17.5v-1q0 -10 -18 -10h-100q-18 0 -18 10v1q0 6 10.5 11.5t18 13t1.5 20.5l-58 138h-342l-54 -138q-5 -11 -0.5 -18t11.5 -10t13.5 -7.5t6.5 -9.5v-1q0 -10 -19 -10h-78zM159 227h318l-166 396z" />
    <glyph glyph-name="Aogonek.ss01" horiz-adv-x="659" 
d="M608 56q8 -17 26.5 -27.5t18.5 -17.5v-1q0 -10 -18 -10h-27q-32 -28 -53.5 -62t-21.5 -62q0 -24 12 -37.5t31 -13.5q12 0 30 7q8 3 12.5 -2.5t3.5 -14t-7 -11.5q-20 -11 -46 -11q-34 0 -58.5 20.5t-24.5 53.5q0 35 26 71t65 62h-42q-18 0 -18 10v1q0 6 10.5 11.5t18 13
t1.5 20.5l-58 138h-342l-54 -138q-5 -11 -0.5 -18t11.5 -10t13.5 -7.5t6.5 -9.5v-1q0 -10 -19 -10h-78q-18 0 -18 10v1q0 7 18.5 17.5t25.5 27.5l233 595q6 14 -12.5 27.5t-18.5 20.5v1q0 10 14 10h100q14 0 14 -10v-1q0 -7 -18.5 -19.5t-13.5 -26.5zM159 227h318l-166 396z
" />
    <glyph glyph-name="Aring.ss01" horiz-adv-x="659" 
d="M331 764q-46 0 -76 28t-30 68q0 41 30 69.5t77 28.5q46 0 76.5 -28t30.5 -68q0 -42 -30.5 -70t-77.5 -28zM332 791q29 0 47 20t18 50q0 29 -18 49t-47 20t-47 -19.5t-18 -49.5q0 -29 18 -49.5t47 -20.5zM27 0q-18 0 -18 10v1q0 7 18.5 17.5t25.5 27.5l233 595
q6 14 -12.5 27.5t-18.5 20.5v1q0 10 14 10h100q14 0 14 -10v-1q0 -7 -18.5 -19.5t-13.5 -26.5l257 -597q8 -17 26.5 -27.5t18.5 -17.5v-1q0 -10 -18 -10h-100q-18 0 -18 10v1q0 6 10.5 11.5t18 13t1.5 20.5l-58 138h-342l-54 -138q-5 -11 -0.5 -18t11.5 -10t13.5 -7.5
t6.5 -9.5v-1q0 -10 -19 -10h-78zM159 227h318l-166 396z" />
    <glyph glyph-name="Atilde.ss01" horiz-adv-x="659" 
d="M262 886q33 0 82 -30t68 -30q39 0 55 42q4 11 14 11h6q11 0 8 -14q-21 -82 -90 -82q-30 0 -78 30.5t-71 30.5q-38 0 -56 -44q-6 -14 -12 -14h-7q-12 0 -9 15q8 38 30.5 61.5t59.5 23.5zM27 0q-18 0 -18 10v1q0 7 18.5 17.5t25.5 27.5l233 595q6 14 -12.5 27.5t-18.5 20.5
v1q0 10 14 10h100q14 0 14 -10v-1q0 -7 -18.5 -19.5t-13.5 -26.5l257 -597q8 -17 26.5 -27.5t18.5 -17.5v-1q0 -10 -18 -10h-100q-18 0 -18 10v1q0 6 10.5 11.5t18 13t1.5 20.5l-58 138h-342l-54 -138q-5 -11 -0.5 -18t11.5 -10t13.5 -7.5t6.5 -9.5v-1q0 -10 -19 -10h-78z
M159 227h318l-166 396z" />
    <glyph glyph-name="G.ss01" horiz-adv-x="729" 
d="M691 331q19 0 19 -9v-2q0 -5 -31.5 -16.5t-31.5 -32.5v-268q0 -13 -11 -13q-12 0 -15 9l-16 72q-38 -38 -97.5 -59.5t-126.5 -21.5q-134 0 -236.5 109t-102.5 261q0 155 99.5 257.5t234.5 102.5q115 0 192.5 -64t77.5 -120q0 -31 -30 -31q-15 0 -28.5 19t-29 45.5
t-37.5 53.5t-64.5 46t-99.5 19q-100 0 -177 -86.5t-77 -209.5q0 -150 90 -253t209 -103q125 0 188 74v162q0 20 -35.5 31t-35.5 17v3q0 9 19 9z" />
    <glyph glyph-name="Gbreve.ss01" horiz-adv-x="728" 
d="M382 785q-58 0 -99 33.5t-49 81.5q-1 10 5 15t13.5 4t9.5 -7q10 -38 43 -61t77 -23q43 0 76.5 23t44.5 61q2 6 9 7t13 -4t5 -15q-7 -48 -48.5 -81.5t-99.5 -33.5zM691 331q19 0 19 -9v-2q0 -5 -31.5 -16.5t-31.5 -32.5v-268q0 -13 -11 -13q-12 0 -15 9l-16 72
q-38 -38 -97.5 -59.5t-126.5 -21.5q-134 0 -236.5 109t-102.5 261q0 155 99.5 257.5t234.5 102.5q115 0 192.5 -64t77.5 -120q0 -31 -30 -31q-15 0 -28.5 19t-29 45.5t-37.5 53.5t-64.5 46t-99.5 19q-100 0 -177 -86.5t-77 -209.5q0 -150 90 -253t209 -103q125 0 188 74v162
q0 20 -35.5 31t-35.5 17v3q0 9 19 9z" />
    <glyph glyph-name="uni0122.ss01" horiz-adv-x="728" 
d="M691 331q19 0 19 -9v-2q0 -5 -31.5 -16.5t-31.5 -32.5v-268q0 -13 -11 -13q-12 0 -15 9l-16 72q-38 -38 -97.5 -59.5t-126.5 -21.5q-134 0 -236.5 109t-102.5 261q0 155 99.5 257.5t234.5 102.5q115 0 192.5 -64t77.5 -120q0 -31 -30 -31q-15 0 -28.5 19t-29 45.5
t-37.5 53.5t-64.5 46t-99.5 19q-100 0 -177 -86.5t-77 -209.5q0 -150 90 -253t209 -103q125 0 188 74v162q0 20 -35.5 31t-35.5 17v3q0 9 19 9zM401 -72q20 0 33.5 -15.5t13.5 -41.5q0 -93 -85 -156q-5 -4 -11 -1.5t-7 7.5t4 10q40 37 54 88q3 12 -7 12q-18 0 -30 13t-12 34
q0 22 13 36t34 14z" />
    <glyph glyph-name="Gdotaccent.ss01" horiz-adv-x="728" 
d="M384 784q-23 0 -36.5 13.5t-13.5 35.5q0 23 14 36.5t36 13.5t35.5 -14t13.5 -36t-13.5 -35.5t-35.5 -13.5zM691 331q19 0 19 -9v-2q0 -5 -31.5 -16.5t-31.5 -32.5v-268q0 -13 -11 -13q-12 0 -15 9l-16 72q-38 -38 -97.5 -59.5t-126.5 -21.5q-134 0 -236.5 109t-102.5 261
q0 155 99.5 257.5t234.5 102.5q115 0 192.5 -64t77.5 -120q0 -31 -30 -31q-15 0 -28.5 19t-29 45.5t-37.5 53.5t-64.5 46t-99.5 19q-100 0 -177 -86.5t-77 -209.5q0 -150 90 -253t209 -103q125 0 188 74v162q0 20 -35.5 31t-35.5 17v3q0 9 19 9z" />
    <glyph glyph-name="K.ss01" horiz-adv-x="674" 
d="M629 65q1 -19 22 -34t21 -20v-2q0 -9 -18 -9h-103q-19 0 -19 9v2q0 5 17.5 17t16.5 30q0 94 -59.5 202.5t-159.5 171.5l-186 -183v-191q0 -14 9.5 -22.5t19 -13.5t9.5 -11v-2q0 -9 -20 -9h-94q-18 0 -18 9v2q0 6 8.5 11t17 13.5t8.5 22.5v595q0 18 -17 29t-17 16v2
q0 10 18 10h94q20 0 20 -10v-2q0 -5 -19 -16t-19 -29v-359l361 355q13 16 9 22.5t-15 14t-11 12.5v2q0 10 19 10h85q19 0 19 -10v-2q0 -6 -8 -11.5t-23.5 -15.5t-27.5 -22l-183 -180q109 -69 175 -186.5t68 -217.5z" />
    <glyph glyph-name="uni0136.ss01" horiz-adv-x="674" 
d="M629 65q1 -19 22 -34t21 -20v-2q0 -9 -18 -9h-103q-19 0 -19 9v2q0 5 17.5 17t16.5 30q0 94 -59.5 202.5t-159.5 171.5l-186 -183v-191q0 -14 9.5 -22.5t19 -13.5t9.5 -11v-2q0 -9 -20 -9h-94q-18 0 -18 9v2q0 6 8.5 11t17 13.5t8.5 22.5v595q0 18 -17 29t-17 16v2
q0 10 18 10h94q20 0 20 -10v-2q0 -5 -19 -16t-19 -29v-359l361 355q13 16 9 22.5t-15 14t-11 12.5v2q0 10 19 10h85q19 0 19 -10v-2q0 -6 -8 -11.5t-23.5 -15.5t-27.5 -22l-183 -180q109 -69 175 -186.5t68 -217.5zM367 -72q21 0 34.5 -15.5t13.5 -41.5q0 -93 -86 -156
q-8 -6 -15 1.5t2 14.5q42 39 53 88q3 12 -7 12q-18 0 -29.5 13t-11.5 34q0 22 12.5 36t33.5 14z" />
    <glyph glyph-name="M.ss01" horiz-adv-x="894" 
d="M832 61q3 -15 13 -24t18.5 -14.5t8.5 -11.5v-1q0 -10 -19 -10h-96q-18 0 -18 10v1q0 5 6 10t12.5 8.5t11.5 11.5t3 20l-99 570l-217 -612q-6 -19 -21 -19q-17 0 -23 18l-214 618l-95 -575q-3 -18 18 -31t21 -19v-1q0 -10 -20 -10h-78q-20 0 -20 10v1q0 7 18 20t21 30
l104 590q3 18 -13 30t-16 17v1q0 11 13 11h105q14 0 14 -11v-1q0 -4 -16 -16.5t-10 -29.5l198 -572l204 574q4 13 -2 20.5t-14.5 13t-8.5 10.5v1q0 11 14 11h107q13 0 13 -9v-2q0 -7 -9.5 -13t-17 -17t-4.5 -29z" />
    <glyph glyph-name="N.ss01" horiz-adv-x="746" 
d="M667 710q19 0 19 -9v-2q0 -5 -19.5 -16.5t-19.5 -29.5v-632q0 -21 -18 -21h-14q-12 0 -29 23l-447 618v-580q0 -17 20.5 -30.5t20.5 -19.5v-1q0 -10 -19 -10h-78q-19 0 -19 10v1q0 6 18.5 19.5t18.5 30.5v591q0 14 -9.5 22.5t-18.5 13.5t-9 11v1q0 10 19 10h120
q14 0 14 -9v-2q0 -4 -11 -10.5t-15.5 -13t5.5 -23.5l413 -570v571q0 18 -20 29.5t-20 16.5v2q0 9 20 9h78z" />
    <glyph glyph-name="Nacute.ss01" horiz-adv-x="746" 
d="M295 786q-15 -4 -19 8q-3 11 9 17l200 82q20 10 26 -11l6 -22q5 -17 -16 -21zM667 710q19 0 19 -9v-2q0 -5 -19.5 -16.5t-19.5 -29.5v-632q0 -21 -18 -21h-14q-12 0 -29 23l-447 618v-580q0 -17 20.5 -30.5t20.5 -19.5v-1q0 -10 -19 -10h-78q-19 0 -19 10v1
q0 6 18.5 19.5t18.5 30.5v591q0 14 -9.5 22.5t-18.5 13.5t-9 11v1q0 10 19 10h120q14 0 14 -9v-2q0 -4 -11 -10.5t-15.5 -13t5.5 -23.5l413 -570v571q0 18 -20 29.5t-20 16.5v2q0 9 20 9h78z" />
    <glyph glyph-name="Ncaron.ss01" horiz-adv-x="746" 
d="M239 866q-10 9 1 18q10 7 20 0l128 -95l128 95q13 10 23 -3q6 -8 -2 -15l-118 -107q-12 -11 -25 -11h-14q-13 0 -25 11zM667 710q19 0 19 -9v-2q0 -5 -19.5 -16.5t-19.5 -29.5v-632q0 -21 -18 -21h-14q-12 0 -29 23l-447 618v-580q0 -17 20.5 -30.5t20.5 -19.5v-1
q0 -10 -19 -10h-78q-19 0 -19 10v1q0 6 18.5 19.5t18.5 30.5v591q0 14 -9.5 22.5t-18.5 13.5t-9 11v1q0 10 19 10h120q14 0 14 -9v-2q0 -4 -11 -10.5t-15.5 -13t5.5 -23.5l413 -570v571q0 18 -20 29.5t-20 16.5v2q0 9 20 9h78z" />
    <glyph glyph-name="uni0145.ss01" horiz-adv-x="746" 
d="M667 710q19 0 19 -9v-2q0 -5 -19.5 -16.5t-19.5 -29.5v-632q0 -21 -18 -21h-14q-12 0 -29 23l-447 618v-580q0 -17 20.5 -30.5t20.5 -19.5v-1q0 -10 -19 -10h-78q-19 0 -19 10v1q0 6 18.5 19.5t18.5 30.5v591q0 14 -9.5 22.5t-18.5 13.5t-9 11v1q0 10 19 10h120
q14 0 14 -9v-2q0 -4 -11 -10.5t-15.5 -13t5.5 -23.5l413 -570v571q0 18 -20 29.5t-20 16.5v2q0 9 20 9h78zM380 -72q21 0 34.5 -15.5t13.5 -41.5q0 -93 -85 -156q-5 -4 -11 -1.5t-7 7.5t4 10q41 39 54 88q3 12 -8 12q-18 0 -29.5 13t-11.5 34q0 22 12.5 36t33.5 14z" />
    <glyph glyph-name="Ntilde.ss01" horiz-adv-x="746" 
d="M238 786q-12 0 -9 15q8 38 30.5 61.5t59.5 23.5q33 0 82 -30t68 -30q39 0 55 42q4 11 14 11h6q11 0 8 -14q-21 -82 -90 -82q-30 0 -78 30.5t-71 30.5q-38 0 -56 -44q-6 -14 -12 -14h-7zM667 710q19 0 19 -9v-2q0 -5 -19.5 -16.5t-19.5 -29.5v-632q0 -21 -18 -21h-14
q-12 0 -29 23l-447 618v-580q0 -17 20.5 -30.5t20.5 -19.5v-1q0 -10 -19 -10h-78q-19 0 -19 10v1q0 6 18.5 19.5t18.5 30.5v591q0 14 -9.5 22.5t-18.5 13.5t-9 11v1q0 10 19 10h120q14 0 14 -9v-2q0 -4 -11 -10.5t-15.5 -13t5.5 -23.5l413 -570v571q0 18 -20 29.5t-20 16.5
v2q0 9 20 9h78z" />
    <glyph glyph-name="Q.ss01" horiz-adv-x="776" 
d="M793 -63q12 5 18 -4t-5 -20q-25 -22 -70.5 -40.5t-94.5 -18.5q-182 0 -288 139q-136 17 -223.5 123.5t-87.5 241.5q0 155 97.5 258.5t249.5 103.5q148 0 246.5 -107.5t98.5 -260.5q0 -145 -96.5 -253t-237.5 -109q89 -92 244 -92q68 0 149 39zM102 391q0 -148 88 -258
t220 -110q113 0 189 89.5t76 206.5q0 155 -86.5 261.5t-219.5 106.5q-116 0 -191.5 -85t-75.5 -211z" />
    <glyph glyph-name="R.ss01" horiz-adv-x="638" 
d="M574 54q1 -10 7 -17t13.5 -10t13.5 -7t6 -9v-1q0 -10 -19 -10h-95q-19 0 -19 10v1q0 6 16 15t15 26q-2 76 -43.5 141t-111.5 92q-35 -6 -74 -6h-121v-223q0 -17 18 -28t18 -17v-1q0 -10 -18 -10h-95q-18 0 -18 10v1q0 6 17 17t17 28v598q0 13 -8.5 21t-17 13t-8.5 11v1
q0 10 18 10h184q133 0 217 -55t85 -163q1 -65 -40 -115.5t-114 -76.5q69 -34 111 -102.5t46 -143.5zM278 310q104 0 167.5 46.5t63.5 124.5q0 99 -68.5 148t-174.5 49h-82q-22 0 -22 -28v-302q0 -38 34 -38h82z" />
    <glyph glyph-name="Racute.ss01" horiz-adv-x="638" 
d="M224 786q-14 -3 -19 8q-3 11 9 17l200 82q19 9 27 -11l5 -22q7 -17 -15 -21zM574 54q1 -10 7 -17t13.5 -10t13.5 -7t6 -9v-1q0 -10 -19 -10h-95q-19 0 -19 10v1q0 6 16 15t15 26q-2 76 -43.5 141t-111.5 92q-35 -6 -74 -6h-121v-223q0 -17 18 -28t18 -17v-1
q0 -10 -18 -10h-95q-18 0 -18 10v1q0 6 17 17t17 28v598q0 13 -8.5 21t-17 13t-8.5 11v1q0 10 18 10h184q133 0 217 -55t85 -163q1 -65 -40 -115.5t-114 -76.5q69 -34 111 -102.5t46 -143.5zM278 310q104 0 167.5 46.5t63.5 124.5q0 99 -68.5 148t-174.5 49h-82
q-22 0 -22 -28v-302q0 -38 34 -38h82z" />
    <glyph glyph-name="Rcaron.ss01" horiz-adv-x="638" 
d="M168 866q-10 9 1 18q10 7 20 0l128 -95l128 95q13 10 23 -3q6 -8 -2 -15l-118 -107q-12 -11 -25 -11h-14q-13 0 -25 11zM574 54q1 -10 7 -17t13.5 -10t13.5 -7t6 -9v-1q0 -10 -19 -10h-95q-19 0 -19 10v1q0 6 16 15t15 26q-2 76 -43.5 141t-111.5 92q-35 -6 -74 -6h-121
v-223q0 -17 18 -28t18 -17v-1q0 -10 -18 -10h-95q-18 0 -18 10v1q0 6 17 17t17 28v598q0 13 -8.5 21t-17 13t-8.5 11v1q0 10 18 10h184q133 0 217 -55t85 -163q1 -65 -40 -115.5t-114 -76.5q69 -34 111 -102.5t46 -143.5zM278 310q104 0 167.5 46.5t63.5 124.5
q0 99 -68.5 148t-174.5 49h-82q-22 0 -22 -28v-302q0 -38 34 -38h82z" />
    <glyph glyph-name="uni0156.ss01" horiz-adv-x="638" 
d="M574 54q1 -10 7 -17t13.5 -10t13.5 -7t6 -9v-1q0 -10 -19 -10h-95q-19 0 -19 10v1q0 6 16 15t15 26q-2 76 -43.5 141t-111.5 92q-35 -6 -74 -6h-121v-223q0 -17 18 -28t18 -17v-1q0 -10 -18 -10h-95q-18 0 -18 10v1q0 6 17 17t17 28v598q0 13 -8.5 21t-17 13t-8.5 11v1
q0 10 18 10h184q133 0 217 -55t85 -163q1 -65 -40 -115.5t-114 -76.5q69 -34 111 -102.5t46 -143.5zM278 310q104 0 167.5 46.5t63.5 124.5q0 99 -68.5 148t-174.5 49h-82q-22 0 -22 -28v-302q0 -38 34 -38h82zM341 -68q21 0 34.5 -15.5t13.5 -41.5q0 -93 -85 -156
q-5 -4 -11 -1.5t-7 7.5t4 10q41 39 54 88q3 12 -8 12q-18 0 -29.5 13t-11.5 34q0 22 12.5 36t33.5 14z" />
    <glyph glyph-name="U.ss01" horiz-adv-x="736" 
d="M630 77q0 -23 10 -34t21.5 -12t21.5 -4t10 -12q0 -21 -57 -21q-16 0 -24 1.5t-18 9.5t-14.5 27t-4.5 50l-2 33q-29 -60 -88 -93t-141 -33q-117 0 -185 76.5t-68 206.5v366q0 20 -18 33t-18 18v2q0 10 13 13l63 15q22 5 22 -10l-1 -442q-1 -113 53.5 -180t147.5 -67
q100 0 159.5 59.5t59.5 154.5v404q0 20 -19.5 33t-19.5 18v2q0 10 13 13l63 14q22 5 22 -9z" />
    <glyph glyph-name="Uacute.ss01" horiz-adv-x="736" 
d="M275 786q-15 -3 -19 8q-3 11 8 17l200 82q21 10 27 -11l6 -22q5 -17 -16 -21zM630 77q0 -23 10 -34t21.5 -12t21.5 -4t10 -12q0 -21 -57 -21q-16 0 -24 1.5t-18 9.5t-14.5 27t-4.5 50l-2 33q-29 -60 -88 -93t-141 -33q-117 0 -185 76.5t-68 206.5v366q0 20 -18 33t-18 18
v2q0 10 13 13l63 15q22 5 22 -10l-1 -442q-1 -113 53.5 -180t147.5 -67q100 0 159.5 59.5t59.5 154.5v404q0 20 -19.5 33t-19.5 18v2q0 10 13 13l63 14q22 5 22 -9z" />
    <glyph glyph-name="Ucircumflex.ss01" horiz-adv-x="736" 
d="M242 766q-12 -8 -20.5 1.5t3.5 20.5l110 95q11 12 24 12h13q12 0 25 -12l112 -95q12 -11 5 -21t-22 -1l-128 83zM630 77q0 -23 10 -34t21.5 -12t21.5 -4t10 -12q0 -21 -57 -21q-16 0 -24 1.5t-18 9.5t-14.5 27t-4.5 50l-2 33q-29 -60 -88 -93t-141 -33q-117 0 -185 76.5
t-68 206.5v366q0 20 -18 33t-18 18v2q0 10 13 13l63 15q22 5 22 -10l-1 -442q-1 -113 53.5 -180t147.5 -67q100 0 159.5 59.5t59.5 154.5v404q0 20 -19.5 33t-19.5 18v2q0 10 13 13l63 14q22 5 22 -9z" />
    <glyph glyph-name="Udieresis.ss01" horiz-adv-x="736" 
d="M283 799q-22 0 -35.5 13t-13.5 34q0 22 13.5 35t35.5 13q21 0 33 -13t12 -35q0 -21 -12 -34t-33 -13zM453 799q-22 0 -34.5 13t-12.5 34q0 22 12.5 35t34.5 13q21 0 34 -13t13 -35q0 -21 -13.5 -34t-33.5 -13zM630 77q0 -23 10 -34t21.5 -12t21.5 -4t10 -12
q0 -21 -57 -21q-16 0 -24 1.5t-18 9.5t-14.5 27t-4.5 50l-2 33q-29 -60 -88 -93t-141 -33q-117 0 -185 76.5t-68 206.5v366q0 20 -18 33t-18 18v2q0 10 13 13l63 15q22 5 22 -10l-1 -442q-1 -113 53.5 -180t147.5 -67q100 0 159.5 59.5t59.5 154.5v404q0 20 -19.5 33
t-19.5 18v2q0 10 13 13l63 14q22 5 22 -9z" />
    <glyph glyph-name="Ugrave.ss01" horiz-adv-x="736" 
d="M236 849q-20 5 -15 22l6 22q8 19 27 10l198 -89q11 -6 8 -17q-4 -10 -19 -8zM630 77q0 -23 10 -34t21.5 -12t21.5 -4t10 -12q0 -21 -57 -21q-16 0 -24 1.5t-18 9.5t-14.5 27t-4.5 50l-2 33q-29 -60 -88 -93t-141 -33q-117 0 -185 76.5t-68 206.5v366q0 20 -18 33t-18 18
v2q0 10 13 13l63 15q22 5 22 -10l-1 -442q-1 -113 53.5 -180t147.5 -67q100 0 159.5 59.5t59.5 154.5v404q0 20 -19.5 33t-19.5 18v2q0 10 13 13l63 14q22 5 22 -9z" />
    <glyph glyph-name="Uhungarumlaut.ss01" horiz-adv-x="736" 
d="M272 765q-13 -11 -22 -5q-7 7 2 21l117 153q11 18 24 5l14 -13q16 -13 0 -27zM421 760q-8 5 2 20l117 154q11 17 24 5l14 -14q16 -13 0 -27l-135 -134q-12 -11 -22 -4zM630 77q0 -23 10 -34t21.5 -12t21.5 -4t10 -12q0 -21 -57 -21q-16 0 -24 1.5t-18 9.5t-14.5 27
t-4.5 50l-2 33q-29 -60 -88 -93t-141 -33q-117 0 -185 76.5t-68 206.5v366q0 20 -18 33t-18 18v2q0 10 13 13l63 15q22 5 22 -10l-1 -442q-1 -113 53.5 -180t147.5 -67q100 0 159.5 59.5t59.5 154.5v404q0 20 -19.5 33t-19.5 18v2q0 10 13 13l63 14q22 5 22 -9z" />
    <glyph glyph-name="Umacron.ss01" horiz-adv-x="736" 
d="M238 818q-15 0 -15 13v17q0 12 15 12h257q15 0 15 -12v-17q0 -13 -15 -13h-257zM630 77q0 -23 10 -34t21.5 -12t21.5 -4t10 -12q0 -21 -57 -21q-16 0 -24 1.5t-18 9.5t-14.5 27t-4.5 50l-2 33q-29 -60 -88 -93t-141 -33q-117 0 -185 76.5t-68 206.5v366q0 20 -18 33
t-18 18v2q0 10 13 13l63 15q22 5 22 -10l-1 -442q-1 -113 53.5 -180t147.5 -67q100 0 159.5 59.5t59.5 154.5v404q0 20 -19.5 33t-19.5 18v2q0 10 13 13l63 14q22 5 22 -9z" />
    <glyph glyph-name="Uogonek.ss01" horiz-adv-x="736" 
d="M659 -5q-68 -64 -68 -118q0 -23 12 -36.5t31 -13.5q15 0 30 7q8 3 12.5 -3t3.5 -14.5t-7 -10.5q-18 -11 -46 -11q-34 0 -58.5 20.5t-24.5 53.5q0 32 23 65.5t58 59.5q-25 1 -37.5 18t-12.5 70l-2 33q-29 -60 -88 -93t-141 -33q-117 0 -185 76.5t-68 206.5v366
q0 20 -18 33t-18 18v2q0 10 13 13l63 15q22 5 22 -10l-1 -442q-1 -113 53.5 -180t147.5 -67q100 0 159.5 59.5t59.5 154.5v404q0 20 -19.5 33t-19.5 18v2q0 10 13 13l63 14q22 5 22 -9l-1 -632q0 -23 10 -34t21.5 -12t21.5 -4t10 -12q0 -17 -34 -20z" />
    <glyph glyph-name="Uring.ss01" horiz-adv-x="736" 
d="M367 764q-46 0 -75.5 28t-29.5 68q0 41 30 69.5t76 28.5t76.5 -28t30.5 -68q0 -42 -30 -70t-78 -28zM368 930q-29 0 -46.5 -19.5t-17.5 -49.5q0 -29 17.5 -49.5t46.5 -20.5t47 20t18 50q0 29 -18 49t-47 20zM630 77q0 -23 10 -34t21.5 -12t21.5 -4t10 -12q0 -21 -57 -21
q-16 0 -24 1.5t-18 9.5t-14.5 27t-4.5 50l-2 33q-29 -60 -88 -93t-141 -33q-117 0 -185 76.5t-68 206.5v366q0 20 -18 33t-18 18v2q0 10 13 13l63 15q22 5 22 -10l-1 -442q-1 -113 53.5 -180t147.5 -67q100 0 159.5 59.5t59.5 154.5v404q0 20 -19.5 33t-19.5 18v2
q0 10 13 13l63 14q22 5 22 -9z" />
    <glyph glyph-name="Utilde.ss01" horiz-adv-x="736" 
d="M217 786q-4 0 -7 4.5t-2 10.5q8 38 30.5 61.5t59.5 23.5q33 0 82 -30t68 -30q39 0 55 42q4 11 14 11h6q11 0 8 -14q-21 -82 -89 -82q-31 0 -79 30.5t-71 30.5q-38 0 -56 -44q-4 -14 -12 -14h-7zM630 77q0 -23 10 -34t21.5 -12t21.5 -4t10 -12q0 -21 -57 -21
q-16 0 -24 1.5t-18 9.5t-14.5 27t-4.5 50l-2 33q-29 -60 -88 -93t-141 -33q-117 0 -185 76.5t-68 206.5v366q0 20 -18 33t-18 18v2q0 10 13 13l63 15q22 5 22 -10l-1 -442q-1 -113 53.5 -180t147.5 -67q100 0 159.5 59.5t59.5 154.5v404q0 20 -19.5 33t-19.5 18v2
q0 10 13 13l63 14q22 5 22 -9z" />
    <glyph glyph-name="W.ss01" horiz-adv-x="954" 
d="M931 710q17 0 17 -9v-2q0 -8 -7.5 -12t-18 -12t-15.5 -22l-234 -635q-6 -18 -28 -18q-15 0 -23 18l-128 323l-139 -323q-9 -18 -31 -18q-17 0 -25 18l-255 634q-8 19 -26 28.5t-18 17.5v2q0 10 16 10h105q17 0 17 -10v-2q0 -7 -11 -11.5t-19 -12t-2 -22.5l233 -583
l136 319l-105 265q-5 13 -12.5 21t-14 10.5t-11 6t-4.5 8.5v2q0 9 15 9h54q15 0 21 -15l89 -233l99 233q8 15 22 15h32q17 0 17 -9v-2q0 -8 -8.5 -11.5t-20.5 -10.5t-18 -21l-105 -243l129 -339l212 579q7 18 -13.5 28t-20.5 16v2q0 11 18 11h81z" />
    <glyph glyph-name="Wacute.ss01" horiz-adv-x="954" 
d="M412 786q-15 -4 -19 8q-3 11 9 17l200 82q20 10 26 -11l6 -22q5 -18 -15 -21zM931 710q17 0 17 -9v-2q0 -8 -7.5 -12t-18 -12t-15.5 -22l-234 -635q-6 -18 -28 -18q-15 0 -23 18l-128 323l-139 -323q-9 -18 -31 -18q-17 0 -25 18l-255 634q-8 19 -26 28.5t-18 17.5v2
q0 10 16 10h105q17 0 17 -10v-2q0 -7 -11 -11.5t-19 -12t-2 -22.5l233 -583l136 319l-105 265q-5 13 -12.5 21t-14 10.5t-11 6t-4.5 8.5v2q0 9 15 9h54q15 0 21 -15l89 -233l99 233q8 15 22 15h32q17 0 17 -9v-2q0 -8 -8.5 -11.5t-20.5 -10.5t-18 -21l-105 -243l129 -339
l212 579q7 18 -13.5 28t-20.5 16v2q0 11 18 11h81z" />
    <glyph glyph-name="Wcircumflex.ss01" horiz-adv-x="954" 
d="M380 766q-12 -8 -21 1.5t3 20.5l110 95q12 12 25 12h13q12 0 24 -12l113 -95q12 -11 4.5 -21t-22.5 -1l-127 83zM931 710q17 0 17 -9v-2q0 -8 -7.5 -12t-18 -12t-15.5 -22l-234 -635q-6 -18 -28 -18q-15 0 -23 18l-128 323l-139 -323q-9 -18 -31 -18q-17 0 -25 18
l-255 634q-8 19 -26 28.5t-18 17.5v2q0 10 16 10h105q17 0 17 -10v-2q0 -7 -11 -11.5t-19 -12t-2 -22.5l233 -583l136 319l-105 265q-5 13 -12.5 21t-14 10.5t-11 6t-4.5 8.5v2q0 9 15 9h54q15 0 21 -15l89 -233l99 233q8 15 22 15h32q17 0 17 -9v-2q0 -8 -8.5 -11.5
t-20.5 -10.5t-18 -21l-105 -243l129 -339l212 579q7 18 -13.5 28t-20.5 16v2q0 11 18 11h81z" />
    <glyph glyph-name="Wdieresis.ss01" horiz-adv-x="954" 
d="M421 799q-22 0 -35.5 13t-13.5 34q0 22 13.5 35t35.5 13q21 0 33 -13t12 -35q0 -21 -12 -34t-33 -13zM591 799q-22 0 -34.5 13t-12.5 34q0 22 12.5 35t34.5 13q21 0 34 -13t13 -35q0 -21 -13.5 -34t-33.5 -13zM931 710q17 0 17 -9v-2q0 -8 -7.5 -12t-18 -12t-15.5 -22
l-234 -635q-6 -18 -28 -18q-15 0 -23 18l-128 323l-139 -323q-9 -18 -31 -18q-17 0 -25 18l-255 634q-8 19 -26 28.5t-18 17.5v2q0 10 16 10h105q17 0 17 -10v-2q0 -7 -11 -11.5t-19 -12t-2 -22.5l233 -583l136 319l-105 265q-5 13 -12.5 21t-14 10.5t-11 6t-4.5 8.5v2
q0 9 15 9h54q15 0 21 -15l89 -233l99 233q8 15 22 15h32q17 0 17 -9v-2q0 -8 -8.5 -11.5t-20.5 -10.5t-18 -21l-105 -243l129 -339l212 579q7 18 -13.5 28t-20.5 16v2q0 11 18 11h81z" />
    <glyph glyph-name="Wgrave.ss01" horiz-adv-x="954" 
d="M374 849q-20 5 -15 22l6 22q8 19 27 10l198 -89q11 -6 8 -17q-4 -10 -19 -8zM931 710q17 0 17 -9v-2q0 -8 -7.5 -12t-18 -12t-15.5 -22l-234 -635q-6 -18 -28 -18q-15 0 -23 18l-128 323l-139 -323q-9 -18 -31 -18q-17 0 -25 18l-255 634q-8 19 -26 28.5t-18 17.5v2
q0 10 16 10h105q17 0 17 -10v-2q0 -7 -11 -11.5t-19 -12t-2 -22.5l233 -583l136 319l-105 265q-5 13 -12.5 21t-14 10.5t-11 6t-4.5 8.5v2q0 9 15 9h54q15 0 21 -15l89 -233l99 233q8 15 22 15h32q17 0 17 -9v-2q0 -8 -8.5 -11.5t-20.5 -10.5t-18 -21l-105 -243l129 -339
l212 579q7 18 -13.5 28t-20.5 16v2q0 11 18 11h81z" />
    <glyph glyph-name="i.loclTRK" horiz-adv-x="220" 
d="M117 587q-23 0 -37.5 13.5t-14.5 35.5q0 23 14.5 37t37.5 14q22 0 35.5 -14t13.5 -37q0 -22 -13 -35.5t-36 -13.5zM66 0q-19 0 -19 11v4q0 6 9 10.5t18 12t9 20.5v335q0 15 -8.5 26t-17.5 17t-9 10v3q0 4 12 11l54 27q27 12 27 -12v-417q0 -13 9.5 -20.5t18.5 -12
t9 -10.5v-4q0 -11 -19 -11h-93z" />
    <glyph glyph-name="uni006A0301" horiz-adv-x="222" 
d="M32 561q-14 -6 -20 4q-5 10 5 18l178 124q17 13 28 -6l11 -20q8 -15 -11 -24zM50 -179q-41 0 -67.5 20.5t-26.5 50.5q0 29 28 29q14 0 21.5 -11.5t10.5 -24.5t13.5 -24.5t28.5 -11.5q22 0 35.5 16t13.5 42q0 20 -8 55.5t-8 54.5v376q0 21 -17 34.5t-17 18.5v2q0 7 12 12
l56 27q26 12 26 -12v-468q0 -62 -9 -107q-7 -36 -30.5 -57.5t-61.5 -21.5z" />
    <glyph glyph-name="a.ss01" horiz-adv-x="569" 
d="M523 453q0 -4 -18 -17.5t-18 -33.5v-345q0 -18 18 -29.5t18 -16.5v-3q0 -8 -12 -8h-64q-13 0 -13 13v76q-24 -47 -69.5 -73t-97.5 -26q-94 0 -161.5 71.5t-67.5 180.5q0 108 66 178t169 70q51 0 94 -25t68 -65v73q0 25 25 14l50 -17q13 -6 13 -15v-2zM283 17
q54 0 100.5 43.5t46.5 117.5v140q0 52 -48 98.5t-115 46.5q-74 0 -122.5 -57.5t-49.5 -145.5q-1 -104 52 -173t136 -70z" />
    <glyph glyph-name="aacute.ss01" horiz-adv-x="569" 
d="M205 561q-15 -6 -21 4q-4 10 5 18l178 124q18 13 28 -6l11 -20q8 -15 -11 -24zM523 453q0 -4 -18 -17.5t-18 -33.5v-345q0 -18 18 -29.5t18 -16.5v-3q0 -8 -12 -8h-64q-13 0 -13 13v76q-24 -47 -69.5 -73t-97.5 -26q-94 0 -161.5 71.5t-67.5 180.5q0 108 66 178t169 70
q51 0 94 -25t68 -65v73q0 25 25 14l50 -17q13 -6 13 -15v-2zM283 17q54 0 100.5 43.5t46.5 117.5v140q0 52 -48 98.5t-115 46.5q-74 0 -122.5 -57.5t-49.5 -145.5q-1 -104 52 -173t136 -70z" />
    <glyph glyph-name="abreve.ss01" horiz-adv-x="569" 
d="M286 575q-57 0 -98 33t-49 81q-1 10 5 15.5t13.5 4t9.5 -7.5q10 -38 43 -61t76 -23q44 0 77.5 23t43.5 61q2 6 9.5 7t13.5 -4t5 -15q-7 -48 -48.5 -81t-100.5 -33zM523 453q0 -4 -18 -17.5t-18 -33.5v-345q0 -18 18 -29.5t18 -16.5v-3q0 -8 -12 -8h-64q-13 0 -13 13v76
q-24 -47 -69.5 -73t-97.5 -26q-94 0 -161.5 71.5t-67.5 180.5q0 108 66 178t169 70q51 0 94 -25t68 -65v73q0 25 25 14l50 -17q13 -6 13 -15v-2zM283 17q54 0 100.5 43.5t46.5 117.5v140q0 52 -48 98.5t-115 46.5q-74 0 -122.5 -57.5t-49.5 -145.5q-1 -104 52 -173t136 -70z
" />
    <glyph glyph-name="acircumflex.ss01" horiz-adv-x="569" 
d="M162 562q-12 -8 -21 1t3 20l110 96q14 12 25 12h13q12 0 24 -12l113 -96q8 -6 7.5 -14t-7.5 -10t-18 3l-127 82zM523 453q0 -4 -18 -17.5t-18 -33.5v-345q0 -18 18 -29.5t18 -16.5v-3q0 -8 -12 -8h-64q-13 0 -13 13v76q-24 -47 -69.5 -73t-97.5 -26q-94 0 -161.5 71.5
t-67.5 180.5q0 108 66 178t169 70q51 0 94 -25t68 -65v73q0 25 25 14l50 -17q13 -6 13 -15v-2zM283 17q54 0 100.5 43.5t46.5 117.5v140q0 52 -48 98.5t-115 46.5q-74 0 -122.5 -57.5t-49.5 -145.5q-1 -104 52 -173t136 -70z" />
    <glyph glyph-name="adieresis.ss01" horiz-adv-x="569" 
d="M203 589q-21 0 -34.5 12.5t-13.5 33.5q0 22 13.5 35t34.5 13q22 0 34 -13t12 -35q0 -21 -12 -33.5t-34 -12.5zM374 589q-22 0 -34.5 12.5t-12.5 33.5q0 22 12.5 35t34.5 13q20 0 33.5 -13.5t13.5 -34.5t-13 -33.5t-34 -12.5zM523 453q0 -4 -18 -17.5t-18 -33.5v-345
q0 -18 18 -29.5t18 -16.5v-3q0 -8 -12 -8h-64q-13 0 -13 13v76q-24 -47 -69.5 -73t-97.5 -26q-94 0 -161.5 71.5t-67.5 180.5q0 108 66 178t169 70q51 0 94 -25t68 -65v73q0 25 25 14l50 -17q13 -6 13 -15v-2zM283 17q54 0 100.5 43.5t46.5 117.5v140q0 52 -48 98.5
t-115 46.5q-74 0 -122.5 -57.5t-49.5 -145.5q-1 -104 52 -173t136 -70z" />
    <glyph glyph-name="agrave.ss01" horiz-adv-x="569" 
d="M184 655q-19 9 -11 24l11 20q11 19 28 6l178 -124q10 -8 5 -18q-7 -11 -20 -5zM523 453q0 -4 -18 -17.5t-18 -33.5v-345q0 -18 18 -29.5t18 -16.5v-3q0 -8 -12 -8h-64q-13 0 -13 13v76q-24 -47 -69.5 -73t-97.5 -26q-94 0 -161.5 71.5t-67.5 180.5q0 108 66 178t169 70
q51 0 94 -25t68 -65v73q0 25 25 14l50 -17q13 -6 13 -15v-2zM283 17q54 0 100.5 43.5t46.5 117.5v140q0 52 -48 98.5t-115 46.5q-74 0 -122.5 -57.5t-49.5 -145.5q-1 -104 52 -173t136 -70z" />
    <glyph glyph-name="amacron.ss01" horiz-adv-x="569" 
d="M158 614q-15 0 -15 12v17q0 12 15 12h257q15 0 15 -12v-17q0 -12 -15 -12h-257zM523 453q0 -4 -18 -17.5t-18 -33.5v-345q0 -18 18 -29.5t18 -16.5v-3q0 -8 -12 -8h-64q-13 0 -13 13v76q-24 -47 -69.5 -73t-97.5 -26q-94 0 -161.5 71.5t-67.5 180.5q0 108 66 178t169 70
q51 0 94 -25t68 -65v73q0 25 25 14l50 -17q13 -6 13 -15v-2zM283 17q54 0 100.5 43.5t46.5 117.5v140q0 52 -48 98.5t-115 46.5q-74 0 -122.5 -57.5t-49.5 -145.5q-1 -104 52 -173t136 -70z" />
    <glyph glyph-name="aogonek.ss01" horiz-adv-x="569" 
d="M523 453q0 -4 -18 -17.5t-18 -33.5v-345q0 -18 18 -29.5t18 -16.5v-3q0 -8 -12 -8h-32q-66 -61 -66 -116q0 -24 12 -37.5t31 -13.5q11 0 30 7q8 3 12.5 -2.5t3 -14t-7.5 -11.5q-17 -10 -46 -10q-34 0 -58 20t-24 53q0 32 22.5 66t57.5 59q-12 2 -12 13v76
q-24 -47 -69.5 -73t-97.5 -26q-94 0 -161.5 71.5t-67.5 180.5q0 108 66 178t169 70q51 0 94 -25t68 -65v73q0 25 25 14l50 -17q13 -6 13 -15v-2zM283 17q54 0 100.5 43.5t46.5 117.5v140q0 52 -48 98.5t-115 46.5q-74 0 -122.5 -57.5t-49.5 -145.5q-1 -104 52 -173t136 -70z
" />
    <glyph glyph-name="aring.ss01" horiz-adv-x="569" 
d="M286 549q-46 0 -76 28t-30 68q0 41 30 69t77 28t77 -28t30 -68q0 -41 -30.5 -69t-77.5 -28zM287 715q-29 0 -47 -19.5t-18 -49.5t18 -50.5t47 -20.5t47 20t18 51q0 29 -18 49t-47 20zM523 453q0 -4 -18 -17.5t-18 -33.5v-345q0 -18 18 -29.5t18 -16.5v-3q0 -8 -12 -8h-64
q-13 0 -13 13v76q-24 -47 -69.5 -73t-97.5 -26q-94 0 -161.5 71.5t-67.5 180.5q0 108 66 178t169 70q51 0 94 -25t68 -65v73q0 25 25 14l50 -17q13 -6 13 -15v-2zM283 17q54 0 100.5 43.5t46.5 117.5v140q0 52 -48 98.5t-115 46.5q-74 0 -122.5 -57.5t-49.5 -145.5
q-1 -104 52 -173t136 -70z" />
    <glyph glyph-name="atilde.ss01" horiz-adv-x="569" 
d="M126 600q-11 0 -8 15q8 38 30.5 61.5t58.5 23.5q33 0 82.5 -30t68.5 -30q37 0 55 42q4 11 14 11h5q13 0 8 -14q-19 -82 -89 -82q-31 0 -79 30.5t-71 30.5q-39 0 -55 -44q-6 -14 -13 -14h-7zM523 453q0 -4 -18 -17.5t-18 -33.5v-345q0 -18 18 -29.5t18 -16.5v-3
q0 -8 -12 -8h-64q-13 0 -13 13v76q-24 -47 -69.5 -73t-97.5 -26q-94 0 -161.5 71.5t-67.5 180.5q0 108 66 178t169 70q51 0 94 -25t68 -65v73q0 25 25 14l50 -17q13 -6 13 -15v-2zM283 17q54 0 100.5 43.5t46.5 117.5v140q0 52 -48 98.5t-115 46.5q-74 0 -122.5 -57.5
t-49.5 -145.5q-1 -104 52 -173t136 -70z" />
    <glyph glyph-name="e.ss01" horiz-adv-x="497" 
d="M443 136q5 11 17 9t9 -15q-13 -55 -65 -97.5t-135 -42.5q-100 0 -165.5 70.5t-65.5 184.5q0 108 65.5 176.5t170.5 68.5q73 0 120 -34.5t48 -94.5q0 -50 -41.5 -89.5t-111.5 -52.5q-79 -15 -192 -7q14 -82 64 -130t123 -48q60 0 100 28t59 74zM261 463q-74 0 -121 -57.5
t-47 -139.5q0 -17 1 -25q104 -10 183 6q110 23 108 114q-1 47 -35.5 74.5t-88.5 27.5z" />
    <glyph glyph-name="eacute.ss01" horiz-adv-x="497" 
d="M180 561q-14 -6 -20 4q-4 10 5 18l178 124q17 13 28 -6l11 -20q8 -15 -11 -24zM443 136q5 11 17 9t9 -15q-13 -55 -65 -97.5t-135 -42.5q-100 0 -165.5 70.5t-65.5 184.5q0 108 65.5 176.5t170.5 68.5q73 0 120 -34.5t48 -94.5q0 -50 -41.5 -89.5t-111.5 -52.5
q-79 -15 -192 -7q14 -82 64 -130t123 -48q60 0 100 28t59 74zM261 463q-74 0 -121 -57.5t-47 -139.5q0 -17 1 -25q104 -10 183 6q110 23 108 114q-1 47 -35.5 74.5t-88.5 27.5z" />
    <glyph glyph-name="ecaron.ss01" horiz-adv-x="497" 
d="M230 570l-116 108q-6 6 -3.5 13t10 8.5t14.5 -2.5l128 -96l128 96q7 5 15 2.5t9.5 -9t-3.5 -12.5l-118 -108q-12 -11 -25 -11h-14q-13 0 -25 11zM443 136q5 11 17 9t9 -15q-13 -55 -65 -97.5t-135 -42.5q-100 0 -165.5 70.5t-65.5 184.5q0 108 65.5 176.5t170.5 68.5
q73 0 120 -34.5t48 -94.5q0 -50 -41.5 -89.5t-111.5 -52.5q-79 -15 -192 -7q14 -82 64 -130t123 -48q60 0 100 28t59 74zM261 463q-74 0 -121 -57.5t-47 -139.5q0 -17 1 -25q104 -10 183 6q110 23 108 114q-1 47 -35.5 74.5t-88.5 27.5z" />
    <glyph glyph-name="ecircumflex.ss01" horiz-adv-x="497" 
d="M138 562q-12 -8 -21 1t3 20l110 96q14 12 25 12h13q12 0 25 -12l112 -96q8 -6 7.5 -14t-7.5 -10t-17 3l-128 82zM443 136q5 11 17 9t9 -15q-13 -55 -65 -97.5t-135 -42.5q-100 0 -165.5 70.5t-65.5 184.5q0 108 65.5 176.5t170.5 68.5q73 0 120 -34.5t48 -94.5
q0 -50 -41.5 -89.5t-111.5 -52.5q-79 -15 -192 -7q14 -82 64 -130t123 -48q60 0 100 28t59 74zM261 463q-74 0 -121 -57.5t-47 -139.5q0 -17 1 -25q104 -10 183 6q110 23 108 114q-1 47 -35.5 74.5t-88.5 27.5z" />
    <glyph glyph-name="edieresis.ss01" horiz-adv-x="497" 
d="M179 589q-21 0 -34.5 12.5t-13.5 33.5q0 22 13.5 35t34.5 13t33.5 -13t12.5 -35q0 -21 -12.5 -33.5t-33.5 -12.5zM350 589q-22 0 -35 12.5t-13 33.5q0 22 13 35t35 13q20 0 33.5 -13.5t13.5 -34.5t-13 -33.5t-34 -12.5zM443 136q5 11 17 9t9 -15q-13 -55 -65 -97.5
t-135 -42.5q-100 0 -165.5 70.5t-65.5 184.5q0 108 65.5 176.5t170.5 68.5q73 0 120 -34.5t48 -94.5q0 -50 -41.5 -89.5t-111.5 -52.5q-79 -15 -192 -7q14 -82 64 -130t123 -48q60 0 100 28t59 74zM261 463q-74 0 -121 -57.5t-47 -139.5q0 -17 1 -25q104 -10 183 6
q110 23 108 114q-1 47 -35.5 74.5t-88.5 27.5z" />
    <glyph glyph-name="edotaccent.ss01" horiz-adv-x="497" 
d="M263 587q-23 0 -37 13.5t-14 35.5q0 23 14 37t37 14q22 0 35.5 -14t13.5 -37q0 -22 -13 -35.5t-36 -13.5zM443 136q5 11 17 9t9 -15q-13 -55 -65 -97.5t-135 -42.5q-100 0 -165.5 70.5t-65.5 184.5q0 108 65.5 176.5t170.5 68.5q73 0 120 -34.5t48 -94.5
q0 -50 -41.5 -89.5t-111.5 -52.5q-79 -15 -192 -7q14 -82 64 -130t123 -48q60 0 100 28t59 74zM261 463q-74 0 -121 -57.5t-47 -139.5q0 -17 1 -25q104 -10 183 6q110 23 108 114q-1 47 -35.5 74.5t-88.5 27.5z" />
    <glyph glyph-name="egrave.ss01" horiz-adv-x="497" 
d="M160 655q-19 8 -10 24l10 20q11 18 29 6l177 -124q12 -8 5 -18q-7 -11 -20 -5zM443 136q5 11 17 9t9 -15q-13 -55 -65 -97.5t-135 -42.5q-100 0 -165.5 70.5t-65.5 184.5q0 108 65.5 176.5t170.5 68.5q73 0 120 -34.5t48 -94.5q0 -50 -41.5 -89.5t-111.5 -52.5
q-79 -15 -192 -7q14 -82 64 -130t123 -48q60 0 100 28t59 74zM261 463q-74 0 -121 -57.5t-47 -139.5q0 -17 1 -25q104 -10 183 6q110 23 108 114q-1 47 -35.5 74.5t-88.5 27.5z" />
    <glyph glyph-name="emacron.ss01" horiz-adv-x="497" 
d="M134 614q-15 0 -15 12v17q0 12 15 12h256q15 0 15 -12v-17q0 -12 -15 -12h-256zM443 136q5 11 17 9t9 -15q-13 -55 -65 -97.5t-135 -42.5q-100 0 -165.5 70.5t-65.5 184.5q0 108 65.5 176.5t170.5 68.5q73 0 120 -34.5t48 -94.5q0 -50 -41.5 -89.5t-111.5 -52.5
q-79 -15 -192 -7q14 -82 64 -130t123 -48q60 0 100 28t59 74zM261 463q-74 0 -121 -57.5t-47 -139.5q0 -17 1 -25q104 -10 183 6q110 23 108 114q-1 47 -35.5 74.5t-88.5 27.5z" />
    <glyph glyph-name="eogonek.ss01" horiz-adv-x="497" 
d="M443 136q5 11 17 9t9 -15q-8 -34 -33.5 -66.5t-65.5 -51.5q-70 -66 -70 -121q0 -23 12 -36.5t31 -13.5q11 0 30 7q8 3 12.5 -2.5t3 -14t-7.5 -11.5q-19 -11 -45 -11q-34 0 -58.5 20.5t-24.5 53.5q0 56 62 111q-19 -4 -46 -4q-100 0 -165.5 70.5t-65.5 184.5
q0 108 65.5 176.5t170.5 68.5q73 0 120 -34.5t48 -94.5q0 -50 -41.5 -89.5t-111.5 -52.5q-79 -15 -192 -7q14 -82 64 -130t123 -48q60 0 100 28t59 74zM261 463q-74 0 -121 -57.5t-47 -139.5q0 -17 1 -25q104 -10 183 6q110 23 108 114q-1 47 -35.5 74.5t-88.5 27.5z" />
    <glyph glyph-name="g.ss01" horiz-adv-x="564" 
d="M512 470q13 -6 13 -15v-2q0 -4 -18 -17.5t-18 -33.5v-357q0 -121 -56 -184t-150 -63q-92 0 -147.5 49t-55.5 96q0 12 8 20t22 8q11 0 19.5 -15t18 -37t23.5 -43.5t45 -36.5t75 -15q65 0 103 53.5t38 157.5v56q-25 -44 -69 -67.5t-94 -23.5q-94 0 -162 70t-68 172
q0 108 66 178t169 70q51 0 94.5 -25.5t69.5 -65.5l-1 74q0 25 25 14zM284 27q54 0 101 43.5t47 117.5v130q0 52 -48.5 98.5t-115.5 46.5q-74 0 -122 -57.5t-49 -145.5q-2 -97 51.5 -165t135.5 -68z" />
    <glyph glyph-name="gbreve.ss01" horiz-adv-x="564" 
d="M280 582q-58 0 -98.5 33.5t-48.5 81.5q-2 10 4 15t13.5 4t9.5 -7q10 -38 43 -61t77 -23q43 0 76.5 23t44.5 61q2 6 9.5 7t13 -4t4.5 -15q-7 -48 -48.5 -81.5t-99.5 -33.5zM512 470q13 -6 13 -15v-2q0 -4 -18 -17.5t-18 -33.5v-357q0 -121 -56 -184t-150 -63
q-92 0 -147.5 49t-55.5 96q0 12 8 20t22 8q11 0 19.5 -15t18 -37t23.5 -43.5t45 -36.5t75 -15q65 0 103 53.5t38 157.5v56q-25 -44 -69 -67.5t-94 -23.5q-94 0 -162 70t-68 172q0 108 66 178t169 70q51 0 94.5 -25.5t69.5 -65.5l-1 74q0 25 25 14zM284 27q54 0 101 43.5
t47 117.5v130q0 52 -48.5 98.5t-115.5 46.5q-74 0 -122 -57.5t-49 -145.5q-2 -97 51.5 -165t135.5 -68z" />
    <glyph glyph-name="uni0123.ss01" horiz-adv-x="564" 
d="M281 578q-21 0 -34.5 15.5t-13.5 41.5q0 95 87 159q8 5 15 -2.5t-1 -14.5q-42 -40 -55 -89q-3 -12 7 -12q19 0 30.5 -13t11.5 -35t-13 -36t-34 -14zM512 470q13 -6 13 -15v-2q0 -4 -18 -17.5t-18 -33.5v-357q0 -121 -56 -184t-150 -63q-92 0 -147.5 49t-55.5 96
q0 12 8 20t22 8q11 0 19.5 -15t18 -37t23.5 -43.5t45 -36.5t75 -15q65 0 103 53.5t38 157.5v56q-25 -44 -69 -67.5t-94 -23.5q-94 0 -162 70t-68 172q0 108 66 178t169 70q51 0 94.5 -25.5t69.5 -65.5l-1 74q0 25 25 14zM284 27q54 0 101 43.5t47 117.5v130q0 52 -48.5 98.5
t-115.5 46.5q-74 0 -122 -57.5t-49 -145.5q-2 -97 51.5 -165t135.5 -68z" />
    <glyph glyph-name="gdotaccent.ss01" horiz-adv-x="564" 
d="M281 595q-23 0 -37.5 13.5t-14.5 35.5q0 23 14.5 37t37.5 14q22 0 35.5 -14t13.5 -37q0 -22 -13 -35.5t-36 -13.5zM512 470q13 -6 13 -15v-2q0 -4 -18 -17.5t-18 -33.5v-357q0 -121 -56 -184t-150 -63q-92 0 -147.5 49t-55.5 96q0 12 8 20t22 8q11 0 19.5 -15t18 -37
t23.5 -43.5t45 -36.5t75 -15q65 0 103 53.5t38 157.5v56q-25 -44 -69 -67.5t-94 -23.5q-94 0 -162 70t-68 172q0 108 66 178t169 70q51 0 94.5 -25.5t69.5 -65.5l-1 74q0 25 25 14zM284 27q54 0 101 43.5t47 117.5v130q0 52 -48.5 98.5t-115.5 46.5q-74 0 -122 -57.5
t-49 -145.5q-2 -97 51.5 -165t135.5 -68z" />
    <glyph glyph-name="k.ss01" horiz-adv-x="501" 
d="M463 50q7 -10 26 -18.5t19 -17.5v-3q0 -11 -12 -11h-103q-13 0 -13 12v2q0 7 13 15.5t5 20.5l-142 200q-58 -19 -121 -20v-169q0 -17 19 -27.5t19 -18.5v-4q0 -11 -20 -11h-93q-19 0 -19 11v4q0 8 17.5 18.5t17.5 27.5v590q0 20 -18 35.5t-18 20.5v1q0 7 13 13l58 27
q11 5 17.5 1t6.5 -14v-472q64 1 109.5 18.5t66 43t34.5 54.5t18 53.5t13 41t24 16.5q29 0 29 -29q0 -39 -30 -96t-96 -94z" />
    <glyph glyph-name="uni0137.ss01" horiz-adv-x="501" 
d="M463 50q7 -10 26 -18.5t19 -17.5v-3q0 -11 -12 -11h-103q-13 0 -13 12v2q0 7 13 15.5t5 20.5l-142 200q-58 -19 -121 -20v-169q0 -17 19 -27.5t19 -18.5v-4q0 -11 -20 -11h-93q-19 0 -19 11v4q0 8 17.5 18.5t17.5 27.5v590q0 20 -18 35.5t-18 20.5v1q0 7 13 13l58 27
q11 5 17.5 1t6.5 -14v-472q64 1 109.5 18.5t66 43t34.5 54.5t18 53.5t13 41t24 16.5q29 0 29 -29q0 -39 -30 -96t-96 -94zM262 -72q21 0 34.5 -15.5t13.5 -41.5q0 -93 -86 -156q-8 -6 -15 1.5t2 14.5q39 37 53 88q3 12 -7 12q-18 0 -29.5 13t-11.5 34q0 22 12.5 36t33.5 14z
" />
    <glyph glyph-name="kgreenlandic.ss01" horiz-adv-x="501" 
d="M463 50q7 -10 26 -18.5t19 -17.5v-3q0 -11 -12 -11h-103q-13 0 -13 12v2q0 7 13 15.5t5 20.5l-142 200q-58 -19 -121 -20v-169q0 -17 19 -27.5t19 -18.5v-4q0 -11 -20 -11h-93q-19 0 -19 11v4q0 8 17.5 18.5t17.5 27.5v425q0 20 -18 35.5t-18 20.5v1q0 7 13 13l58 27
q11 4 17.5 0.5t6.5 -13.5v-307q64 1 109.5 18.5t66 43t34.5 54.5t18 53.5t13 41t24 16.5q29 0 29 -29q0 -39 -30 -96t-96 -94z" />
    <glyph glyph-name="v.ss01" horiz-adv-x="515" 
d="M205 -10q-62 0 -97 40.5t-35 118.5v260q0 19 -18 31.5t-18 18.5v1q0 10 12 13l63 14q20 5 20 -10v-339q-2 -117 80 -117q84 -1 151.5 76.5t67.5 208.5q0 38 -10 64.5t-21.5 37.5t-21.5 24.5t-10 28.5q0 29 32 29q16 0 30.5 -11t27.5 -50t13 -102q0 -153 -80 -245
t-186 -92z" />
    <glyph glyph-name="w.ss01" horiz-adv-x="789" 
d="M672 490q29 0 50.5 -38.5t21.5 -124.5q0 -153 -75 -245t-163 -92q-50 0 -82.5 29t-41.5 86q-27 -53 -73.5 -84t-105.5 -31q-61 0 -95.5 40.5t-34.5 118.5v260q0 19 -18 31.5t-18 18.5v1q0 10 12 13l63 14q20 5 20 -12v-342q-2 -112 78 -112q73 0 121 63.5t48 151.5v173
q0 19 -18 31.5t-18 18.5v1q0 10 13 13l59 15q21 5 21 -13l-1 -341q0 -113 79 -113q66 0 128 78t62 204q0 36 -10 62.5t-22 38t-22 26.5t-10 30q0 30 32 30z" />
    <glyph glyph-name="wacute.ss01" horiz-adv-x="789" 
d="M315 560q-13 -7 -20 4q-5 10 5 18l178 124q17 13 28 -6l10 -20q10 -15 -10 -24zM672 490q29 0 50.5 -38.5t21.5 -124.5q0 -153 -75 -245t-163 -92q-50 0 -82.5 29t-41.5 86q-27 -53 -73.5 -84t-105.5 -31q-61 0 -95.5 40.5t-34.5 118.5v260q0 19 -18 31.5t-18 18.5v1
q0 10 12 13l63 14q20 5 20 -12v-342q-2 -112 78 -112q73 0 121 63.5t48 151.5v173q0 19 -18 31.5t-18 18.5v1q0 10 13 13l59 15q21 5 21 -13l-1 -341q0 -113 79 -113q66 0 128 78t62 204q0 36 -10 62.5t-22 38t-22 26.5t-10 30q0 30 32 30z" />
    <glyph glyph-name="wcircumflex.ss01" horiz-adv-x="789" 
d="M273 561q-12 -8 -21 1t3 20l110 96q13 12 25 12h13q12 0 24 -12l113 -96q12 -11 4.5 -21t-22.5 0l-127 82zM672 490q29 0 50.5 -38.5t21.5 -124.5q0 -153 -75 -245t-163 -92q-50 0 -82.5 29t-41.5 86q-27 -53 -73.5 -84t-105.5 -31q-61 0 -95.5 40.5t-34.5 118.5v260
q0 19 -18 31.5t-18 18.5v1q0 10 12 13l63 14q20 5 20 -12v-342q-2 -112 78 -112q73 0 121 63.5t48 151.5v173q0 19 -18 31.5t-18 18.5v1q0 10 13 13l59 15q21 5 21 -13l-1 -341q0 -113 79 -113q66 0 128 78t62 204q0 36 -10 62.5t-22 38t-22 26.5t-10 30q0 30 32 30z" />
    <glyph glyph-name="wdieresis.ss01" horiz-adv-x="789" 
d="M314 587q-22 0 -35 13t-13 34q0 22 13 35t35 13q21 0 33.5 -13t12.5 -35q0 -21 -12.5 -34t-33.5 -13zM485 587q-22 0 -35 13t-13 34q0 22 13 35t35 13q21 0 34 -13t13 -35q0 -21 -13.5 -34t-33.5 -13zM672 490q29 0 50.5 -38.5t21.5 -124.5q0 -153 -75 -245t-163 -92
q-50 0 -82.5 29t-41.5 86q-27 -53 -73.5 -84t-105.5 -31q-61 0 -95.5 40.5t-34.5 118.5v260q0 19 -18 31.5t-18 18.5v1q0 10 12 13l63 14q20 5 20 -12v-342q-2 -112 78 -112q73 0 121 63.5t48 151.5v173q0 19 -18 31.5t-18 18.5v1q0 10 13 13l59 15q21 5 21 -13l-1 -341
q0 -113 79 -113q66 0 128 78t62 204q0 36 -10 62.5t-22 38t-22 26.5t-10 30q0 30 32 30z" />
    <glyph glyph-name="wgrave.ss01" horiz-adv-x="789" 
d="M295 654q-19 9 -11 24l11 20q11 19 28 5l178 -123q10 -8 5 -18q-6 -11 -20 -5zM672 490q29 0 50.5 -38.5t21.5 -124.5q0 -153 -75 -245t-163 -92q-50 0 -82.5 29t-41.5 86q-27 -53 -73.5 -84t-105.5 -31q-61 0 -95.5 40.5t-34.5 118.5v260q0 19 -18 31.5t-18 18.5v1
q0 10 12 13l63 14q20 5 20 -12v-342q-2 -112 78 -112q73 0 121 63.5t48 151.5v173q0 19 -18 31.5t-18 18.5v1q0 10 13 13l59 15q21 5 21 -13l-1 -341q0 -113 79 -113q66 0 128 78t62 204q0 36 -10 62.5t-22 38t-22 26.5t-10 30q0 30 32 30z" />
    <glyph glyph-name="y.ss01" horiz-adv-x="537" 
d="M448 487q21 5 21 -10v-440q0 -116 -57 -177.5t-154 -61.5q-90 0 -143.5 48.5t-53.5 97.5q0 12 8 20t22 8q10 0 18 -11t13 -27.5t15.5 -35.5t24.5 -35.5t42 -27.5t66 -11q140 0 140 209v56q-48 -89 -157 -89q-83 0 -133 62.5t-50 166.5v180q0 19 -18 31.5t-18 18.5v1
q0 10 12 13l62 14q21 5 21 -10l-1 -252q0 -89 36 -141.5t99 -52.5t105 46t42 121v211q0 15 -9.5 23.5t-19 14t-9.5 12.5v1q0 10 12 13z" />
    </font>
</defs>
</svg>
