<?xml version="1.0" standalone="no"?>
<!DOCTYPE svg PUBLIC "-//W3C//DTD SVG 1.1//EN" "http://www.w3.org/Graphics/SVG/1.1/DTD/svg11.dtd" >
<svg xmlns="http://www.w3.org/2000/svg" xmlns:xlink="http://www.w3.org/1999/xlink" version="1.1">
<metadata>
Created by FontForge 20201107 at Thu May 16 07:01:50 2019
 By Jimmy Wärting
Copyright (c) 2015 by Luzi Type. All rights reserved. |DCNT
</metadata>
<defs>
<font id="MessinaSans-SemiBold" horiz-adv-x="600" >
  <font-face 
    font-family="Messina Sans SemiBold"
    font-weight="600"
    font-stretch="normal"
    units-per-em="1000"
    panose-1="0 0 7 0 0 0 0 0 0 0"
    ascent="757"
    descent="-243"
    x-height="510"
    cap-height="700"
    bbox="-39 -365 1226 1100"
    underline-thickness="50"
    underline-position="-200"
    unicode-range="U+000D-25CA"
  />
<missing-glyph horiz-adv-x="467" 
 />
    <glyph glyph-name=".notdef" horiz-adv-x="467" 
 />
    <glyph glyph-name=".null" horiz-adv-x="0" 
 />
    <glyph glyph-name="nonmarkingreturn" horiz-adv-x="333" 
 />
    <glyph glyph-name="CR" unicode="&#xd;" horiz-adv-x="467" 
 />
    <glyph glyph-name="space" unicode=" " horiz-adv-x="267" 
 />
    <glyph glyph-name="exclam" unicode="!" horiz-adv-x="307" 
d="M211 700v-278l-23 -215h-69l-22 215v278h114zM93 0v125h121v-125h-121z" />
    <glyph glyph-name="quotedbl" unicode="&#x22;" horiz-adv-x="415" 
d="M66 463l-23 272h131l-23 -272h-85zM234 463l-23 272h131l-23 -272h-85z" />
    <glyph glyph-name="numbersign" unicode="#" horiz-adv-x="595" 
d="M562 433h-138l-22 -146h143v-54h-152l-35 -233h-64l36 233h-118l-35 -233h-64l36 233h-126v54h135l22 146h-139v54h148l31 203h62l-31 -203h119l31 203h62l-31 -203h130v-54zM339 287l22 146h-118l-22 -146h118z" />
    <glyph glyph-name="dollar" unicode="$" horiz-adv-x="614" 
d="M343 -9v-118h-65v119q-105 12 -168.5 75t-66.5 159h109q5 -57 38.5 -94t87.5 -48v221q-51 13 -83.5 26t-64 35t-47.5 56t-17 82q0 87 56.5 141t155.5 62v94h65v-94q97 -8 155 -58.5t62 -131.5h-111q-12 80 -106 97v-220q65 -15 112 -33q116 -46 116 -167q0 -88 -63 -143
q-62 -55 -165 -60zM278 409v205q-50 -6 -78 -32t-28 -68q0 -40 26.5 -64.5t79.5 -40.5zM463 186q0 42 -28.5 64t-91.5 38v-207q54 5 87 34t33 71z" />
    <glyph glyph-name="percent" unicode="%" horiz-adv-x="885" 
d="M215 719q76 0 126 -48.5t50 -124.5q0 -75 -50.5 -125t-125.5 -50q-73 0 -122.5 50t-49.5 125q0 76 49.5 124.5t122.5 48.5zM694 700l-423 -700h-97l423 700h97zM217 643q-40 0 -65.5 -27t-25.5 -69q0 -43 25.5 -71t65.5 -28q39 0 64.5 28t25.5 71q0 42 -25.5 69t-64.5 27
zM666 326q76 0 126 -48.5t50 -124.5q0 -75 -50.5 -125t-125.5 -50q-73 0 -122.5 50t-49.5 125q0 76 49.5 124.5t122.5 48.5zM668 250q-40 0 -65.5 -27t-25.5 -69q0 -43 25.5 -71t65.5 -28q39 0 64.5 28t25.5 71q0 42 -25.5 69t-64.5 27z" />
    <glyph glyph-name="ampersand" unicode="&#x26;" horiz-adv-x="733" 
d="M565 136l135 -136h-125l-68 67q-83 -78 -204 -78q-100 0 -167.5 57t-67.5 143q0 127 145 177l-23 24q-65 68 -65 146q0 72 54.5 118.5t136.5 46.5q80 0 130 -45.5t50 -116.5q0 -63 -40.5 -112.5t-107.5 -71.5l153 -155q27 44 27 131v18h86v-28q0 -97 -49 -185zM220 531
q0 -46 45 -92l33 -36q48 16 76.5 50t28.5 76q0 40 -26 66.5t-66 26.5t-65.5 -26t-25.5 -65zM448 131l-184 185q-96 -38 -96 -121q0 -54 40 -86t106 -32q97 0 134 54z" />
    <glyph glyph-name="quotesingle" unicode="'" horiz-adv-x="237" 
d="M76 463l-23 272h131l-23 -272h-85z" />
    <glyph glyph-name="parenleft" unicode="(" horiz-adv-x="394" 
d="M361 -116l-50 -58q-118 76 -188 205q-70 130 -70 287t70 287q69 128 188 206l50 -59q-93 -80 -151 -191q-57 -113 -57 -243q0 -127 55.5 -239t152.5 -195z" />
    <glyph glyph-name="parenright" unicode=")" horiz-adv-x="394" 
d="M33 752l50 59q117 -77 187 -206q71 -131 71 -287t-71 -287q-70 -130 -187 -205l-50 58q97 83 152.5 195t55.5 239q0 131 -58 243q-56 111 -150 191z" />
    <glyph glyph-name="asterisk" unicode="*" horiz-adv-x="377" 
d="M57 667l100 -34l-1 106h70l-6 -105l103 30l21 -59l-103 -37l67 -84l-57 -41l-60 92l-62 -92l-57 41l66 85l-105 32z" />
    <glyph glyph-name="plus" unicode="+" 
d="M506 358v-92h-158v-168h-94v168h-160v92h160v170h94v-170h158z" />
    <glyph glyph-name="comma" unicode="," horiz-adv-x="237" 
d="M138 7h-59v112h125v-105q0 -75 -39 -117.5t-120 -56.5l-12 56q56 12 80 37t25 74z" />
    <glyph glyph-name="hyphen" unicode="-" horiz-adv-x="373" 
d="M330 370v-101h-287v101h287z" />
    <glyph glyph-name="period" unicode="." horiz-adv-x="207" 
d="M43 0v125h121v-125h-121z" />
    <glyph glyph-name="slash" unicode="/" horiz-adv-x="436" 
d="M403 774l-291 -860h-99l291 860h99z" />
    <glyph glyph-name="zero" unicode="0" horiz-adv-x="576" 
d="M529 345q0 -356 -241 -356t-241 356q0 355 241 355t241 -355zM421 345q0 256 -133 256t-133 -256q0 -257 133 -257t133 257z" />
    <glyph glyph-name="one" unicode="1" horiz-adv-x="433" 
d="M316 688v-688h-105v556q-70 -52 -174 -64v100q110 18 187 96h92z" />
    <glyph glyph-name="two" unicode="2" 
d="M553 96v-96h-489v103l162 139l20 17q62 53 105 94q72 70 72 133q0 52 -34.5 83.5t-94.5 31.5q-63 0 -101 -37t-41 -101h-105q0 107 73 172t186 65q103 0 164 -54.5t61 -143.5q0 -58 -27 -107q-24 -47 -65 -88q-35 -35 -101 -90l-22 -19l-121 -102h358z" />
    <glyph glyph-name="three" unicode="3" horiz-adv-x="598" 
d="M551 187q0 -89 -67.5 -143.5t-175.5 -54.5q-116 0 -188.5 64.5t-72.5 167.5h107q0 -62 41 -97.5t110 -35.5q60 0 99 29t39 73q0 51 -42.5 78.5t-119.5 27.5h-42v93h38q68 0 109.5 31t41.5 83q0 47 -34 72.5t-92 25.5q-66 0 -103 -36.5t-37 -102.5h-108q0 109 68 174
q67 64 184 64q103 0 166 -50t63 -130q0 -69 -37 -112.5t-97 -53.5q150 -37 150 -167z" />
    <glyph glyph-name="four" unicode="4" horiz-adv-x="588" 
d="M555 137h-92v-137h-106v139h-324v88l307 461h123v-455h92v-96zM137 233h220v330z" />
    <glyph glyph-name="five" unicode="5" horiz-adv-x="593" 
d="M546 229q0 -105 -69.5 -172.5t-177.5 -67.5q-104 0 -170.5 65t-71.5 168h107q7 -65 43.5 -100t94.5 -35q65 0 100.5 36.5t35.5 102.5q0 63 -35.5 99.5t-94.5 36.5q-67 0 -112 -42h-113l59 368h369v-96h-289l-31 -194q49 57 141 57q94 0 154 -63.5t60 -162.5z" />
    <glyph glyph-name="six" unicode="6" 
d="M553 227q0 -104 -68 -171t-174 -67q-123 0 -193.5 95.5t-70.5 264.5q0 99 24 171t65.5 109.5t85.5 54t94 16.5q89 0 146.5 -51t70.5 -142h-108q-13 94 -113 94q-80 0 -124 -66.5t-44 -194.5q26 57 75 86.5t112 29.5q97 0 159.5 -65t62.5 -164zM443 219q0 61 -37 99.5
t-96 38.5q-60 0 -96.5 -39t-36.5 -100q0 -60 36 -95t97 -35t97 35.5t36 95.5z" />
    <glyph glyph-name="seven" unicode="7" horiz-adv-x="554" 
d="M521 688v-111l-279 -577h-107l281 583h-399v105h504z" />
    <glyph glyph-name="eight" unicode="8" horiz-adv-x="588" 
d="M541 187q0 -89 -68 -143.5t-179 -54.5t-179 54.5t-68 143.5q0 66 37.5 112.5t100.5 57.5q-54 14 -87 59t-33 103q0 80 63.5 130.5t165.5 50.5t165.5 -50.5t63.5 -130.5q0 -58 -33 -103t-87 -59q63 -11 100.5 -57.5t37.5 -112.5zM294 402q56 0 89 27.5t33 76.5
q0 46 -31.5 70.5t-90.5 24.5t-90.5 -24.5t-31.5 -70.5q0 -49 33 -76.5t89 -27.5zM432 196q0 55 -37.5 86t-100.5 31t-100.5 -31t-37.5 -86q0 -50 38 -79t100 -29q63 0 100.5 29t37.5 79z" />
    <glyph glyph-name="nine" unicode="9" 
d="M47 462q0 104 68 171t174 67q123 0 193.5 -95.5t70.5 -268.5q0 -98 -23 -169t-62 -108t-82 -53.5t-93 -16.5q-91 0 -152 52t-74 141h108q7 -45 40 -69.5t83 -24.5q158 0 158 261q-26 -57 -75 -86.5t-112 -29.5q-97 0 -159.5 65t-62.5 164zM157 470q0 -61 37 -100t96 -39
t96 39.5t37 100.5q0 60 -36 95t-97 35t-97 -35.5t-36 -95.5z" />
    <glyph glyph-name="colon" unicode=":" horiz-adv-x="237" 
d="M53 0v125h121v-125h-121zM53 382v125h121v-125h-121z" />
    <glyph glyph-name="semicolon" unicode=";" horiz-adv-x="277" 
d="M93 382v125h121v-125h-121zM148 7h-59v112h125v-105q0 -75 -39 -117.5t-120 -56.5l-12 56q56 12 80 37t25 74z" />
    <glyph glyph-name="less" unicode="&#x3c;" 
d="M506 470l-305 -144l305 -144l-41 -80l-371 176v96l371 176z" />
    <glyph glyph-name="equal" unicode="=" 
d="M506 438v-87h-412v87h412zM506 273v-87h-412v87h412z" />
    <glyph glyph-name="greater" unicode="&#x3e;" 
d="M95 470l41 80l371 -176v-96l-371 -176l-41 80l305 144z" />
    <glyph glyph-name="question" unicode="?" horiz-adv-x="550" 
d="M204 214v34q0 97 75 152l62 46q46 33 46 91q0 88 -97 88q-58 0 -91 -31t-37 -83h-104q8 94 71.5 147t165.5 53q95 0 146 -46t51 -126q0 -91 -72 -144l-60 -46q-31 -24 -45.5 -48.5t-14.5 -59.5v-27h-96zM191 0v125h122v-125h-122z" />
    <glyph glyph-name="at" unicode="@" horiz-adv-x="872" 
d="M839 337q0 -118 -54 -194t-137 -76q-49 0 -79.5 27t-32.5 69q-25 -45 -67.5 -70.5t-92.5 -25.5q-72 0 -114 51q-42 52 -42 130q0 97 59.5 170.5t151.5 73.5q88 0 124 -73l14 64h94l-53 -236q-6 -27 -6 -48q0 -64 48 -64q44 0 74 56.5t30 137.5q0 124 -75.5 198t-198.5 74
q-147 2 -252.5 -103.5t-102.5 -248.5q0 -127 79.5 -206t204.5 -79q71 0 131 30l23 -73q-73 -36 -163 -36q-157 0 -258 99.5t-101 257.5q-2 116 57.5 217t163.5 160t225 57q158 0 254 -92.5t96 -246.5zM528 317q0 47 -23 74t-65 27q-58 0 -93 -49t-35 -114q0 -52 23.5 -81.5
t63.5 -29.5q55 0 92 54.5t37 118.5z" />
    <glyph glyph-name="A" unicode="A" horiz-adv-x="747" 
d="M593 0l-63 169h-316l-63 -169h-118l273 700h135l273 -700h-121zM253 272h238l-119 320z" />
    <glyph glyph-name="B" unicode="B" horiz-adv-x="683" 
d="M630 197q0 -85 -66 -141t-167 -56h-304v700h316q83 0 136 -47.5t53 -119.5q0 -50 -25.5 -92.5t-71.5 -65.5q61 -23 95 -70.5t34 -107.5zM203 597v-187h175q47 0 76.5 27.5t29.5 69.5q0 41 -27.5 65.5t-74.5 24.5h-179zM516 216q0 45 -33.5 73.5t-86.5 28.5h-193v-214h184
q58 0 93.5 31t35.5 81z" />
    <glyph glyph-name="C" unicode="C" horiz-adv-x="759" 
d="M594 252h112q-6 -121 -92 -195.5t-215 -74.5q-154 0 -247.5 103t-93.5 268q0 163 94.5 263t250.5 100q126 0 207 -66.5t93 -177.5h-113q-8 63 -61 102t-130 39q-103 0 -166 -71t-63 -187q0 -117 63 -191.5t166 -74.5q80 0 134 44t61 119z" />
    <glyph glyph-name="D" unicode="D" horiz-adv-x="735" 
d="M677 364q1 -70 -23 -135t-69 -117t-116.5 -82.5t-159.5 -29.5h-216v700h233q159 0 255 -92.5t96 -243.5zM565 364q0 106 -63.5 169.5t-170.5 63.5h-127v-493h106q113 0 184 73.5t71 186.5z" />
    <glyph glyph-name="E" unicode="E" horiz-adv-x="622" 
d="M574 0h-481v700h462v-103h-351v-191h324v-104h-324v-198h370v-104z" />
    <glyph glyph-name="F" unicode="F" horiz-adv-x="573" 
d="M204 302v-302h-111v700h462v-103h-351v-191h324v-104h-324z" />
    <glyph glyph-name="G" unicode="G" horiz-adv-x="792" 
d="M379 365h325v-365h-102v85q-73 -103 -214 -103q-150 0 -240 100t-90 263q0 168 94.5 269.5t250.5 101.5q126 0 207 -66.5t93 -177.5h-112q-8 64 -61.5 102.5t-131.5 38.5q-105 0 -167 -71.5t-62 -192.5q0 -122 62 -193t169 -71q87 0 139 46.5t58 130.5h-218v103z" />
    <glyph glyph-name="H" unicode="H" horiz-adv-x="759" 
d="M666 700v-700h-111v301h-351v-301h-111v700h111v-296h351v296h111z" />
    <glyph glyph-name="I" unicode="I" horiz-adv-x="307" 
d="M209 700v-700h-111v700h111z" />
    <glyph glyph-name="J" unicode="J" horiz-adv-x="531" 
d="M448 700v-487q0 -109 -56 -170t-155 -61q-97 0 -153 57.5t-56 157.5v56h111v-60q0 -50 25.5 -77t73.5 -27t73.5 28.5t25.5 81.5v501h111z" />
    <glyph glyph-name="K" unicode="K" horiz-adv-x="690" 
d="M522 0l-230 328l-88 -92v-236h-111v700h111v-327l299 327h149l-277 -286l292 -414h-145z" />
    <glyph glyph-name="L" unicode="L" horiz-adv-x="580" 
d="M547 104v-104h-454v700h111v-596h343z" />
    <glyph glyph-name="M" unicode="M" horiz-adv-x="904" 
d="M811 700v-700h-104v556l-205 -556h-104l-204 556v-556h-101v700h151l208 -569l208 569h151z" />
    <glyph glyph-name="N" unicode="N" horiz-adv-x="759" 
d="M666 700v-700h-125l-339 536v-536h-109v700h137l327 -524v524h109z" />
    <glyph glyph-name="O" unicode="O" horiz-adv-x="809" 
d="M751 349q2 -162 -97 -265.5t-249 -101.5q-151 -2 -250 101.5t-97 265.5q0 163 97.5 265.5t249.5 102.5q150 2 249 -102t97 -266zM638 349q0 123 -62.5 192.5t-170.5 69.5t-170.5 -69.5t-62.5 -192.5t62.5 -192t170.5 -69t170.5 69t62.5 192z" />
    <glyph glyph-name="P" unicode="P" horiz-adv-x="649" 
d="M611 495q0 -96 -66.5 -157.5t-171.5 -61.5h-169v-276h-111v700h292q102 0 164 -56.5t62 -148.5zM499 489q0 49 -32 78.5t-85 29.5h-178v-218h173q56 0 89 29.5t33 80.5z" />
    <glyph glyph-name="Q" unicode="Q" horiz-adv-x="809" 
d="M615 48l103 -174h-115l-76 127q-58 -19 -122 -19q-151 -2 -250 101.5t-97 265.5q0 163 97.5 265.5t249.5 102.5q150 2 249 -102t97 -266q0 -97 -35.5 -174.5t-100.5 -126.5zM470 95l-122 204h117l94 -158q79 70 79 208q0 123 -62.5 192.5t-170.5 69.5t-170.5 -69.5
t-62.5 -192.5t62.5 -192t170.5 -69q33 0 65 7z" />
    <glyph glyph-name="R" unicode="R" horiz-adv-x="678" 
d="M650 0h-128l-180 288h-139v-288h-110v700h281q102 0 165 -55.5t63 -143.5q0 -69 -40 -122t-106 -70zM491 497q0 46 -30 73t-81 27h-177v-209h166q55 0 88.5 30.5t33.5 78.5z" />
    <glyph glyph-name="S" unicode="S" horiz-adv-x="646" 
d="M340 -18q-126 0 -206.5 69t-80.5 181h111q5 -73 53 -115t126 -42q65 0 102 28.5t37 77.5q0 35 -20 57q-19 20 -46.5 31t-82.5 24l-27 7q-76 19 -118 37q-115 49 -115 171q0 95 68 151.5t181 56.5q114 0 187 -57t73 -150h-114q-3 54 -42 82.5t-108 28.5q-64 0 -100.5 -27
t-36.5 -75q0 -51 38.5 -76.5t122.5 -44.5q77 -16 124 -33t87 -58q40 -40 40 -115q0 -94 -69.5 -151.5t-183.5 -57.5z" />
    <glyph glyph-name="T" unicode="T" horiz-adv-x="618" 
d="M600 700v-103h-237v-597h-111v597h-234v103h582z" />
    <glyph glyph-name="U" unicode="U" horiz-adv-x="727" 
d="M535 700h109v-436q0 -135 -72.5 -208.5t-206.5 -73.5t-208 73.5t-74 208.5v436h111v-438q0 -86 45.5 -130.5t129.5 -44.5q81 0 123.5 41t42.5 121v451z" />
    <glyph glyph-name="V" unicode="V" horiz-adv-x="664" 
d="M520 700h116l-252 -700h-104l-252 700h118l187 -565z" />
    <glyph glyph-name="W" unicode="W" horiz-adv-x="1009" 
d="M976 700l-190 -700h-116l-165 558l-167 -558h-115l-190 700h118l134 -549l164 549h115l164 -550l134 550h114z" />
    <glyph glyph-name="X" unicode="X" horiz-adv-x="704" 
d="M652 700l-236 -341l250 -359h-141l-175 262l-175 -262h-137l249 355l-239 345h140l165 -247l164 247h135z" />
    <glyph glyph-name="Y" unicode="Y" horiz-adv-x="671" 
d="M519 700h124l-252 -434v-266h-111v266l-252 434h127l182 -335z" />
    <glyph glyph-name="Z" unicode="Z" horiz-adv-x="664" 
d="M616 104v-104h-558v110l403 487h-390v103h524v-109l-402 -487h423z" />
    <glyph glyph-name="bracketleft" unicode="[" horiz-adv-x="318" 
d="M73 -151v938h202v-76h-102v-787h102v-75h-202z" />
    <glyph glyph-name="backslash" unicode="\" horiz-adv-x="436" 
d="M413 -86h-99l-291 860h99z" />
    <glyph glyph-name="bracketright" unicode="]" horiz-adv-x="318" 
d="M245 -151h-202v75h102v787h-102v76h202v-938z" />
    <glyph glyph-name="asciicircum" unicode="^" horiz-adv-x="501" 
d="M458 425h-108l-100 167l-100 -167h-107l158 275h98z" />
    <glyph glyph-name="underscore" unicode="_" horiz-adv-x="552" 
d="M509 -111h-466v91h466v-91z" />
    <glyph glyph-name="grave" unicode="`" horiz-adv-x="209" 
d="M127 607l-127 139l80 61l129 -200h-82z" />
    <glyph glyph-name="a" unicode="a" horiz-adv-x="560" 
d="M482 355v-355h-101v77q-56 -88 -167 -88q-77 0 -121.5 41.5t-44.5 111.5q0 77 46 108q48 33 113 43l109 17q30 4 47 17.5t17 43.5q0 64 -94 64q-107 0 -124 -86h-100q9 79 70 125t159 46q92 0 141.5 -41.5t49.5 -123.5zM377 216v37q-28 -9 -71 -16l-58 -9q-38 -6 -67 -22
q-29 -17 -29 -59q0 -33 22.5 -51t63.5 -18q61 0 100 38t39 100z" />
    <glyph glyph-name="b" unicode="b" horiz-adv-x="630" 
d="M582 256q0 -121 -61.5 -194t-163.5 -73q-61 0 -105 25t-66 69v-83h-103v711h106v-289q22 47 67.5 72.5t105.5 25.5q100 0 160 -72.5t60 -191.5zM476 252q0 78 -39.5 125.5t-104.5 47.5t-106 -48t-41 -125t41 -125t106 -48t104.5 47.5t39.5 125.5z" />
    <glyph glyph-name="c" unicode="c" horiz-adv-x="569" 
d="M294 -11q-113 0 -179.5 71.5t-66.5 190.5q0 120 69 194.5t181 74.5q96 0 157 -54t63 -140h-103q-4 46 -34.5 72.5t-83.5 26.5q-67 0 -105 -45.5t-38 -124.5t37.5 -124.5t104.5 -45.5q51 0 83.5 27.5t37.5 74.5h104q-9 -92 -70 -145t-157 -53z" />
    <glyph glyph-name="d" unicode="d" horiz-adv-x="630" 
d="M441 711h106v-711h-103v85q-57 -96 -175 -96q-99 0 -160 73.5t-61 193.5q0 117 65 190.5t165 73.5q114 0 163 -84v275zM445 256q0 77 -40 125t-106 48t-105.5 -47.5t-39.5 -124.5q0 -78 39.5 -126t105.5 -48t106 47.5t40 125.5z" />
    <glyph glyph-name="e" unicode="e" horiz-adv-x="567" 
d="M519 269v-44h-372q0 -69 40 -108.5t109 -39.5q95 0 125 73h93q-19 -73 -79.5 -117t-146.5 -44q-109 0 -174.5 71.5t-65.5 190.5q0 121 67.5 195t176.5 74q103 0 165 -68.5t62 -182.5zM290 432q-60 0 -98.5 -35t-43.5 -95h270q0 60 -34 95t-94 35z" />
    <glyph glyph-name="f" unicode="f" horiz-adv-x="351" 
d="M328 620h-48q-34 0 -48.5 -14.5t-14.5 -48.5v-47h98v-92h-98v-418h-105v418h-79v92h79v40q0 89 34 125t117 36h65v-91z" />
    <glyph glyph-name="g" unicode="g" horiz-adv-x="615" 
d="M437 510h100v-479q0 -110 -63.5 -172t-178.5 -62q-102 0 -166.5 48.5t-75.5 133.5h104q8 -46 44 -71.5t94 -25.5q69 0 105.5 34.5t36.5 100.5v92q-21 -42 -65 -64.5t-101 -22.5q-103 0 -163 67t-60 182q0 113 60 181t163 68q58 0 102 -22.5t64 -64.5v77zM432 272
q0 73 -37 115.5t-101 42.5t-102 -43t-38 -115q0 -73 37.5 -116.5t102.5 -43.5q64 0 101 43t37 117z" />
    <glyph glyph-name="h" unicode="h" horiz-adv-x="601" 
d="M523 330v-330h-105v319q0 49 -27 78t-74 29q-59 0 -93.5 -41t-34.5 -112v-273h-106v711h106v-281q26 48 62.5 69t93.5 21q86 0 132 -48.5t46 -141.5z" />
    <glyph glyph-name="i" unicode="i" horiz-adv-x="265" 
d="M76 599v122h113v-122h-113zM79 0v510h106v-510h-106z" />
    <glyph glyph-name="j" unicode="j" horiz-adv-x="275" 
d="M91 599v122h113v-122h-113zM94 510h106v-540q0 -89 -34 -125.5t-117 -36.5h-51v90h34q33 0 47.5 16t14.5 51v545z" />
    <glyph glyph-name="k" unicode="k" horiz-adv-x="571" 
d="M553 0h-126l-161 215l-77 -82v-133h-106v711h106v-442l212 241h140l-205 -220z" />
    <glyph glyph-name="l" unicode="l" horiz-adv-x="272" 
d="M189 711v-711h-106v711h106z" />
    <glyph glyph-name="m" unicode="m" horiz-adv-x="882" 
d="M804 350v-350h-105v325q0 104 -93 104q-109 0 -109 -139v-290h-106v325q0 104 -93 104q-53 0 -81 -36t-28 -102v-291h-106v510h105v-85q32 95 141 95q116 0 145 -104q41 104 157 104q81 0 127 -45t46 -125z" />
    <glyph glyph-name="n" unicode="n" horiz-adv-x="601" 
d="M523 330v-330h-105v319q0 49 -27 78t-74 29q-59 0 -93.5 -41t-34.5 -112v-273h-106v510h106v-76q26 45 63 65.5t93 20.5q86 0 132 -48.5t46 -141.5z" />
    <glyph glyph-name="o" unicode="o" horiz-adv-x="596" 
d="M548 254q0 -121 -67 -193t-183 -72t-183 72t-67 193q0 120 68 193t182 73t182 -73t68 -193zM154 254q0 -79 38.5 -124t107.5 -45q68 0 105 45t37 124t-38.5 124.5t-106.5 45.5t-105.5 -45.5t-37.5 -124.5z" />
    <glyph glyph-name="p" unicode="p" horiz-adv-x="630" 
d="M582 262q0 -119 -64 -192.5t-166 -73.5q-113 0 -163 81v-269h-106v702h103v-92q53 102 178 102q98 0 158 -71t60 -187zM476 257q0 76 -39.5 122t-105.5 46t-106 -46t-40 -122q0 -77 39.5 -123t106.5 -46q65 0 105 46.5t40 122.5z" />
    <glyph glyph-name="q" unicode="q" horiz-adv-x="625" 
d="M444 510h103v-702h-106v280q-21 -44 -66 -68t-102 -24q-102 0 -163.5 72t-61.5 192q0 118 61.5 189t162.5 71q120 0 172 -95v85zM445 260q0 76 -40 122.5t-106 46.5t-105.5 -46t-39.5 -123q0 -76 39.5 -122t106.5 -46q66 0 105.5 46t39.5 122z" />
    <glyph glyph-name="r" unicode="r" horiz-adv-x="384" 
d="M359 515v-102h-20q-150 0 -150 -159v-254h-106v510h105v-81q39 86 142 86h29z" />
    <glyph glyph-name="s" unicode="s" horiz-adv-x="527" 
d="M484 155q0 -76 -58 -121t-157 -45q-100 0 -160.5 45.5t-65.5 126.5h106q5 -43 38 -66t88 -23q50 0 78 18.5t28 51.5q0 28 -21.5 39.5t-86.5 23.5q-70 13 -113 24q-100 31 -100 129q0 75 54 118.5t147 43.5t148.5 -44.5t61.5 -122.5h-101q-11 83 -107 83q-46 0 -74 -20
t-28 -53q4 -33 27 -45t95 -23q76 -13 108 -22q41 -11 67 -40.5t26 -77.5z" />
    <glyph glyph-name="t" unicode="t" horiz-adv-x="376" 
d="M338 91v-91h-71q-84 0 -118 35.5t-34 124.5v258h-97v92h97v123l106 28v-151h105v-92h-105v-262q0 -65 66 -65h51z" />
    <glyph glyph-name="u" unicode="u" horiz-adv-x="595" 
d="M407 510h105v-510h-102v86q-42 -92 -146 -92q-85 0 -135.5 53t-50.5 143v320h105v-310q0 -56 26.5 -85.5t75.5 -29.5q60 0 91 46.5t31 131.5v247z" />
    <glyph glyph-name="v" unicode="v" horiz-adv-x="553" 
d="M427 510h109l-200 -510h-120l-199 510h113l148 -408z" />
    <glyph glyph-name="w" unicode="w" horiz-adv-x="852" 
d="M829 510l-175 -510h-106l-122 369l-122 -369h-106l-175 510h112l119 -384l121 384h107l122 -384l118 384h107z" />
    <glyph glyph-name="x" unicode="x" horiz-adv-x="583" 
d="M419 0l-128 182l-129 -182h-131l193 253l-196 257h135l126 -178l124 178h131l-189 -248l200 -262h-136z" />
    <glyph glyph-name="y" unicode="y" horiz-adv-x="531" 
d="M406 510h107l-214 -561q-43 -113 -189 -113h-41v90h36q40 0 69 16.5t40 47.5l4 12l-200 508h111l139 -383z" />
    <glyph glyph-name="z" unicode="z" horiz-adv-x="532" 
d="M478 89v-89h-425v96l297 326h-293v88h422v-96l-299 -325h298z" />
    <glyph glyph-name="braceleft" unicode="{" horiz-adv-x="357" 
d="M109 308q63 -13 91.5 -40.5t28.5 -83.5v-230q0 -51 15.5 -67t57.5 -16h22v-63h-72q-59 0 -90 26.5t-33 111.5v223q0 51 -24.5 72.5t-81.5 30.5v72q57 9 81.5 30.5t24.5 72.5v223q2 85 32.5 111t90.5 27h72v-63h-22q-42 0 -57.5 -16t-15.5 -68v-229q0 -56 -28.5 -83.5
t-91.5 -40.5z" />
    <glyph glyph-name="bar" unicode="|" horiz-adv-x="246" 
d="M173 812v-924h-100v924h100z" />
    <glyph glyph-name="braceright" unicode="}" horiz-adv-x="357" 
d="M128 432v229q0 52 -15.5 68t-57.5 16h-22v63h72q60 -1 90.5 -27t32.5 -111v-223q0 -51 24.5 -72.5t81.5 -30.5v-72q-57 -9 -81.5 -30.5t-24.5 -72.5v-223q-2 -85 -33 -111.5t-90 -26.5h-72v63h22q42 0 57.5 16t15.5 67v230q0 56 28.5 83.5t91.5 40.5q-63 13 -91.5 40.5
t-28.5 83.5z" />
    <glyph glyph-name="asciitilde" unicode="~" 
d="M386 243q-49 0 -111 47q-37 26 -51 26q-47 0 -47 -65h-93q0 75 36.5 122.5t93.5 47.5q43 0 107 -45q40 -28 57 -28q40 0 40 77h97q0 -86 -34.5 -134t-94.5 -48z" />
    <glyph glyph-name="exclamdown" unicode="&#xa1;" horiz-adv-x="307" 
d="M93 482h121v-125h-121v125zM211 -218h-114v278l22 215h69l23 -215v-278z" />
    <glyph glyph-name="cent" unicode="&#xa2;" horiz-adv-x="551" 
d="M311 -8v-110h-65v113q-94 15 -148.5 85.5t-54.5 178.5t54.5 177t148.5 82v82h65v-79q85 -6 137.5 -56.5t56.5 -130.5h-95q-5 44 -31 71.5t-68 32.5v-362q84 8 102 103h95q-12 -84 -63.5 -133t-133.5 -54zM246 81v354q-52 -14 -81.5 -60.5t-29.5 -115.5t29.5 -116
t81.5 -62z" />
    <glyph glyph-name="sterling" unicode="&#xa3;" horiz-adv-x="637" 
d="M443 -11q-39 0 -74.5 16t-85.5 58q-30 -39 -57.5 -56.5t-70.5 -17.5q-55 0 -88 31t-33 84q0 51 30.5 82.5t78.5 31.5t91 -34q7 29 7 103v72h-107v61h107v118q0 77 40 119.5t114 42.5h91v-90h-78q-31 0 -48.5 -19t-17.5 -51v-120h142v-61h-142v-52q0 -67 -5 -105
q-4 -33 -20 -69q64 -53 115 -53q73 0 73 109h98q-1 -97 -42 -148.5t-118 -51.5zM220 118q-33 30 -65 30q-22 0 -35 -12t-13 -32q0 -19 13 -32t34 -13q24 0 42 16t24 43z" />
    <glyph glyph-name="currency" unicode="&#xa4;" horiz-adv-x="599" 
d="M462 144l89 -112l-59 -46l-88 110q-46 -27 -104 -27q-56 0 -104 27l-89 -110l-59 46l90 113q-50 59 -50 137q0 81 53 140l-93 116l59 45l92 -115q46 25 101 25q51 0 99 -24l93 114l59 -45l-92 -115q53 -59 53 -141q0 -80 -50 -138zM417 282q0 53 -32 87.5t-85 34.5
t-84.5 -34.5t-31.5 -87.5q0 -55 31.5 -90t84.5 -35q54 0 85.5 35t31.5 90z" />
    <glyph glyph-name="yen" unicode="&#xa5;" horiz-adv-x="661" 
d="M379 348v-11h153v-61h-153v-89h153v-61h-153v-126h-96v126h-152v61h152v89h-152v61h152v11l-212 352h115l149 -267l149 267h107z" />
    <glyph glyph-name="brokenbar" unicode="&#xa6;" horiz-adv-x="246" 
d="M73 423v389h100v-389h-100zM173 277v-389h-100v389h100z" />
    <glyph glyph-name="section" unicode="&#xa7;" horiz-adv-x="519" 
d="M463 139q0 -72 -55 -114.5t-148 -42.5q-96 0 -154.5 45.5t-62.5 125.5h103q5 -44 36.5 -68t82.5 -24q46 0 73 18t27 51q0 31 -25 46.5t-81 25.5q-53 9 -93 21q-46 14 -75.5 44.5t-29.5 76.5q0 39 21.5 66t57.5 36q-33 14 -51.5 46t-18.5 72q0 69 54 110t144 41
q91 0 143.5 -41t55.5 -113h-96q-9 77 -103 77q-47 0 -74 -18.5t-27 -52.5q4 -36 27.5 -48.5t90.5 -22.5q100 -15 145.5 -44.5t45.5 -92.5q0 -89 -97 -115q84 -24 84 -105zM280 285q109 0 109 64q0 38 -35.5 58t-97.5 20q-108 0 -108 -71t132 -71z" />
    <glyph glyph-name="dieresis" unicode="&#xa8;" horiz-adv-x="282" 
d="M96 715v-108h-96v108h96zM282 715v-108h-96v108h96z" />
    <glyph glyph-name="copyright" unicode="&#xa9;" horiz-adv-x="858" 
d="M800 350q2 -161 -106 -268t-265 -105q-157 -2 -265 105t-106 268q-2 161 106 268t265 105q157 2 265 -105t106 -268zM732 350q1 136 -86 224t-217 86q-130 2 -217.5 -86t-85.5 -224q-2 -136 85.5 -224t217.5 -86q130 -2 217 86t86 224zM532 298h79q0 -76 -49 -119.5
t-129 -43.5q-91 0 -145.5 56.5t-54.5 163.5q0 109 57 162q58 53 144 53q78 0 126 -42t48 -114h-80q-4 35 -30.5 57t-63.5 22q-50 0 -83.5 -35.5t-33.5 -102.5q0 -69 32.5 -105.5t83.5 -36.5q40 0 68.5 23.5t30.5 61.5z" />
    <glyph glyph-name="ordfeminine" unicode="&#xaa;" horiz-adv-x="471" 
d="M393 572v-275h-93v58q-41 -67 -124 -67q-56 0 -92 30.5t-36 87.5q0 64 39 89q41 25 87 33l80 11q46 6 46 42q0 41 -64 41q-67 0 -82 -59h-91q12 66 59.5 101.5t122.5 35.5q148 0 148 -128zM298 463v22q-10 -6 -51 -12l-40 -6q-32 -6 -48 -17t-16 -36q0 -46 57 -46
q42 0 70 27.5t28 67.5z" />
    <glyph glyph-name="guillemotleft" unicode="&#xab;" horiz-adv-x="613" 
d="M292 432l-134 -148l134 -149l-62 -58l-182 207l182 206zM535 432l-134 -148l134 -149l-62 -58l-182 207l182 206z" />
    <glyph glyph-name="logicalnot" unicode="&#xac;" 
d="M123 266v92h354v-260h-94v168h-260z" />
    <glyph glyph-name="registered" unicode="&#xae;" horiz-adv-x="495" 
d="M475 487q0 -98 -65.5 -163t-161.5 -65q-97 0 -162.5 65t-65.5 163q0 99 65.5 164.5t162.5 65.5t162 -65.5t65 -164.5zM434 487q0 84 -53 137.5t-133 53.5q-79 0 -133 -53.5t-54 -137.5q0 -82 54 -135.5t133 -53.5q80 0 133 53t53 136zM298 460l53 -83h-48l-49 77h-43v-77
h-42v231h91q40 0 62 -22.5t22 -56.5q0 -51 -46 -69zM211 568v-75h51q18 0 29 10t11 26q0 39 -40 39h-51z" />
    <glyph glyph-name="overscore" unicode="&#xaf;" horiz-adv-x="285" 
d="M285 607h-285v73h285v-73z" />
    <glyph glyph-name="degree" unicode="&#xb0;" horiz-adv-x="414" 
d="M205 762q76 0 126 -48.5t50 -124.5q0 -75 -50.5 -125t-125.5 -50q-73 0 -122.5 50t-49.5 125q0 76 49.5 124.5t122.5 48.5zM207 686q-40 0 -65.5 -27t-25.5 -69q0 -43 25.5 -71t65.5 -28q39 0 64.5 28t25.5 71q0 42 -25.5 69t-64.5 27z" />
    <glyph glyph-name="plusminus" unicode="&#xb1;" 
d="M506 518v-92h-158v-168h-94v168h-160v92h160v170h94v-170h158zM506 188v-92h-412v92h412z" />
    <glyph glyph-name="uni00B2" unicode="&#xb2;" horiz-adv-x="378" 
d="M351 360v-89h-312v84l88 72l18 15q64 52 81 71q21 23 21 48q0 49 -55 49q-31 0 -50 -18.5t-19 -55.5h-94q0 76 49.5 120t121.5 44q65 0 104 -33.5t39 -94.5q0 -37 -17 -68q-17 -30 -40 -51q-20 -20 -72 -61l-40 -32h177z" />
    <glyph glyph-name="uni00B3" unicode="&#xb3;" horiz-adv-x="376" 
d="M348 388q0 -58 -44 -91t-115 -33q-75 0 -118 37t-43 108h95q0 -58 69 -58q27 0 43.5 12t16.5 30q0 47 -73 47h-30v82h28q65 0 65 52q0 38 -53 38q-30 0 -46.5 -15.5t-16.5 -44.5h-94q0 79 49 113q50 35 116 35q64 0 103 -31.5t39 -85.5q0 -36 -18 -62t-46 -35
q73 -25 73 -98z" />
    <glyph glyph-name="acute" unicode="&#xb4;" horiz-adv-x="209" 
d="M82 607h-82l129 200l80 -61z" />
    <glyph glyph-name="paragraph" unicode="&#xb6;" horiz-adv-x="736" 
d="M477 700v-831h-92v407h-89q-105 0 -171.5 61.5t-66.5 157.5q0 92 62.5 148.5t163.5 56.5h193zM551 700h92v-831h-92v831zM293 379h92v218h-97q-54 0 -86 -29.5t-32 -78.5q0 -51 33.5 -80.5t89.5 -29.5z" />
    <glyph glyph-name="middot" unicode="&#xb7;" horiz-adv-x="207" 
d="M43 290v125h121v-125h-121z" />
    <glyph glyph-name="cedilla" unicode="&#xb8;" horiz-adv-x="206" 
d="M206 -123q0 -37 -28 -61t-72 -24q-63 0 -106 37l30 46q36 -30 72 -30q21 0 32.5 9.5t11.5 24.5q0 36 -91 36v86h49v-47q46 -2 74 -23t28 -54z" />
    <glyph glyph-name="uni00B9" unicode="&#xb9;" horiz-adv-x="400" 
d="M249 361h117v-90h-331v90h117v204q-49 -25 -103 -26v90q73 8 120 59h80v-327z" />
    <glyph glyph-name="ordmasculine" unicode="&#xba;" horiz-adv-x="489" 
d="M441 495q0 -95 -54 -151t-143 -56t-142.5 56t-53.5 151t54 150t142 55t142 -55q55 -55 55 -150zM146 495q0 -57 27 -87.5t73 -30.5t71.5 31t25.5 87t-27 86.5t-73 30.5t-71.5 -31t-25.5 -86z" />
    <glyph glyph-name="guillemotright" unicode="&#xbb;" horiz-adv-x="613" 
d="M78 432l62 58l182 -206l-182 -207l-62 58l134 149zM321 432l62 58l182 -206l-182 -207l-62 58l134 149z" />
    <glyph glyph-name="onequarter" unicode="&#xbc;" horiz-adv-x="1012" 
d="M797 700l-413 -700h-99l413 700h99zM307 360h117v-90h-331v90h117v204q-49 -25 -103 -26v90q73 8 120 59h80v-327zM919 159v-89h-47v-71h-91v72h-191v73l186 272h96v-257h47zM781 159v132l-89 -132h89z" />
    <glyph glyph-name="onehalf" unicode="&#xbd;" horiz-adv-x="1131" 
d="M1038 88v-89h-312v84l88 72l18 15q64 52 81 71q21 23 21 48q0 49 -55 49q-31 0 -50 -18.5t-19 -55.5h-94q0 76 49.5 120t121.5 44q65 0 104 -33.5t39 -94.5q0 -37 -17 -68q-17 -30 -40 -51q-20 -20 -72 -61l-40 -32h177zM848 700l-413 -700h-99l413 700h99zM307 360h117
v-90h-331v90h117v204q-49 -25 -103 -26v90q73 8 120 59h80v-327z" />
    <glyph glyph-name="threequarters" unicode="&#xbe;" horiz-adv-x="1066" 
d="M413 388q0 -58 -44 -91t-115 -33q-75 0 -118 37t-43 108h95q0 -58 69 -58q27 0 43.5 12t16.5 30q0 47 -73 47h-30v82h28q65 0 65 52q0 38 -53 38q-30 0 -46.5 -15.5t-16.5 -44.5h-94q0 79 49 113q50 35 116 35q64 0 103 -31.5t39 -85.5q0 -36 -18 -62t-46 -35
q73 -25 73 -98zM819 700l-413 -700h-99l413 700h99zM973 159v-89h-47v-71h-91v72h-191v73l186 272h96v-257h47zM835 159v132l-89 -132h89z" />
    <glyph glyph-name="questiondown" unicode="&#xbf;" horiz-adv-x="550" 
d="M359 508v-125h-122v125h122zM346 294v-34q0 -97 -75 -152l-62 -46q-46 -33 -46 -91q0 -88 97 -88q58 0 91 31t37 83h104q-8 -94 -71.5 -147t-165.5 -53q-95 0 -146 46t-51 126q0 91 72 144l60 46q60 46 60 108v27h96z" />
    <glyph glyph-name="Agrave" unicode="&#xc0;" horiz-adv-x="747" 
d="M593 0l-63 169h-316l-63 -169h-118l273 700h135l273 -700h-121zM253 272h238l-119 320zM331 776l-111 113l80 61l112 -174h-81z" />
    <glyph glyph-name="Aacute" unicode="&#xc1;" horiz-adv-x="747" 
d="M593 0l-63 169h-316l-63 -169h-118l273 700h135l273 -700h-121zM253 272h238l-119 320zM422 776h-81l112 174l80 -61z" />
    <glyph glyph-name="Acircumflex" unicode="&#xc2;" horiz-adv-x="747" 
d="M593 0l-63 169h-316l-63 -169h-118l273 700h135l273 -700h-121zM253 272h238l-119 320zM440 776l-67 82l-65 -82h-95l132 166h58l132 -166h-95z" />
    <glyph glyph-name="Atilde" unicode="&#xc3;" horiz-adv-x="747" 
d="M449 776q-25 0 -74 33q-32 26 -52 26q-32 0 -35 -53h-59q2 59 27.5 94.5t65.5 35.5q30 0 76 -34q35 -25 50 -25q28 0 34 56h60q-2 -60 -27.5 -96.5t-65.5 -36.5zM593 0l-63 169h-316l-63 -169h-118l273 700h135l273 -700h-121zM253 272h238l-119 320z" />
    <glyph glyph-name="Adieresis" unicode="&#xc4;" horiz-adv-x="747" 
d="M324 884v-108h-96v108h96zM519 884v-108h-96v108h96zM530 169l63 -169h121l-273 700h-135l-273 -700h118l63 169h316zM491 272h-238l119 320z" />
    <glyph glyph-name="Aring" unicode="&#xc5;" horiz-adv-x="747" 
d="M373 950q45 0 74.5 -29t29.5 -74q0 -46 -29.5 -75t-74.5 -29q-44 0 -73 29.5t-29 74.5t29 74t73 29zM374 900q-23 0 -37 -15t-14 -38q0 -24 13.5 -39t37.5 -15q23 0 37 15t14 39q0 23 -14 38t-37 15zM593 0l-63 169h-316l-63 -169h-118l273 700h135l273 -700h-121z
M253 272h238l-119 320z" />
    <glyph glyph-name="AE" unicode="&#xc6;" horiz-adv-x="1035" 
d="M617 104h370v-104h-481v177h-256l-90 -177h-127l365 700h570v-103h-351v-191h324v-104h-324v-198zM303 281h203v297h-51z" />
    <glyph glyph-name="Ccedilla" unicode="&#xc7;" horiz-adv-x="759" 
d="M405 -18v-28q46 -2 74 -23t28 -54q0 -37 -28 -61t-72 -24q-63 0 -106 37l30 46q36 -30 72 -30q21 0 32.5 9.5t11.5 24.5q0 36 -91 36v69q-136 15 -217 115.5t-81 253.5q0 163 94.5 263t250.5 100q126 0 207 -66.5t93 -177.5h-113q-8 63 -61 102t-130 39q-103 0 -166 -71
t-63 -187q0 -117 63 -191.5t166 -74.5q80 0 134 44t61 119h112q-6 -119 -90 -193.5t-211 -76.5z" />
    <glyph glyph-name="Egrave" unicode="&#xc8;" horiz-adv-x="622" 
d="M574 0h-481v700h462v-103h-351v-191h324v-104h-324v-198h370v-104zM311 776l-111 113l80 61l112 -174h-81z" />
    <glyph glyph-name="Eacute" unicode="&#xc9;" horiz-adv-x="622" 
d="M574 0h-481v700h462v-103h-351v-191h324v-104h-324v-198h370v-104zM352 776h-81l112 174l80 -61z" />
    <glyph glyph-name="Ecircumflex" unicode="&#xca;" horiz-adv-x="622" 
d="M574 0h-481v700h462v-103h-351v-191h324v-104h-324v-198h370v-104zM391 776l-67 82l-65 -82h-95l132 166h58l132 -166h-95z" />
    <glyph glyph-name="Edieresis" unicode="&#xcb;" horiz-adv-x="622" 
d="M93 0h481v104h-370v198h324v104h-324v191h351v103h-462v-700zM284 884v-108h-96v108h96zM479 884v-108h-96v108h96z" />
    <glyph glyph-name="Igrave" unicode="&#xcc;" horiz-adv-x="307" 
d="M209 700v-700h-111v700h111zM107 776l-111 113l80 61l112 -174h-81z" />
    <glyph glyph-name="Iacute" unicode="&#xcd;" horiz-adv-x="307" 
d="M199 776h-81l112 174l80 -61zM209 700v-700h-111v700h111z" />
    <glyph glyph-name="Icircumflex" unicode="&#xce;" horiz-adv-x="307" 
d="M209 700v-700h-111v700h111zM219 776l-67 82l-65 -82h-95l132 166h58l132 -166h-95z" />
    <glyph glyph-name="Idieresis" unicode="&#xcf;" horiz-adv-x="307" 
d="M209 0v700h-111v-700h111zM104 884v-108h-96v108h96zM299 884v-108h-96v108h96z" />
    <glyph glyph-name="Eth" unicode="&#xd0;" horiz-adv-x="705" 
d="M647 364q1 -70 -23 -135t-69 -117t-116.5 -82.5t-159.5 -29.5h-216v329h-80v54h80v317h233q159 0 255 -92.5t96 -243.5zM535 364q0 106 -63.5 169.5t-170.5 63.5h-127v-214h162v-54h-162v-225h106q113 0 184 73.5t71 186.5z" />
    <glyph glyph-name="Ntilde" unicode="&#xd1;" horiz-adv-x="759" 
d="M666 700v-700h-125l-339 536v-536h-109v700h137l327 -524v524h109zM448 776q-25 0 -74 33q-32 26 -52 26q-32 0 -35 -53h-59q2 59 27.5 94.5t65.5 35.5q30 0 76 -34q35 -25 50 -25q28 0 34 56h60q-2 -60 -27.5 -96.5t-65.5 -36.5z" />
    <glyph glyph-name="Ograve" unicode="&#xd2;" horiz-adv-x="809" 
d="M751 349q2 -162 -97 -265.5t-249 -101.5q-151 -2 -250 101.5t-97 265.5q0 163 97.5 265.5t249.5 102.5q150 2 249 -102t97 -266zM638 349q0 123 -62.5 192.5t-170.5 69.5t-170.5 -69.5t-62.5 -192.5t62.5 -192t170.5 -69t170.5 69t62.5 192zM358 776l-111 113l80 61
l112 -174h-81z" />
    <glyph glyph-name="Oacute" unicode="&#xd3;" horiz-adv-x="809" 
d="M429 776h-81l112 174l80 -61zM751 349q2 -162 -97 -265.5t-249 -101.5q-151 -2 -250 101.5t-97 265.5q0 163 97.5 265.5t249.5 102.5q150 2 249 -102t97 -266zM638 349q0 123 -62.5 192.5t-170.5 69.5t-170.5 -69.5t-62.5 -192.5t62.5 -192t170.5 -69t170.5 69t62.5 192z
" />
    <glyph glyph-name="Ocircumflex" unicode="&#xd4;" horiz-adv-x="809" 
d="M751 349q2 -162 -97 -265.5t-249 -101.5q-151 -2 -250 101.5t-97 265.5q0 163 97.5 265.5t249.5 102.5q150 2 249 -102t97 -266zM638 349q0 123 -62.5 192.5t-170.5 69.5t-170.5 -69.5t-62.5 -192.5t62.5 -192t170.5 -69t170.5 69t62.5 192zM471 776l-67 82l-65 -82h-95
l132 166h58l132 -166h-95z" />
    <glyph glyph-name="Otilde" unicode="&#xd5;" horiz-adv-x="809" 
d="M751 349q2 -162 -97 -265.5t-249 -101.5q-151 -2 -250 101.5t-97 265.5q0 163 97.5 265.5t249.5 102.5q150 2 249 -102t97 -266zM638 349q0 123 -62.5 192.5t-170.5 69.5t-170.5 -69.5t-62.5 -192.5t62.5 -192t170.5 -69t170.5 69t62.5 192zM478 776q-25 0 -74 33
q-32 26 -52 26q-32 0 -35 -53h-59q2 59 27.5 94.5t65.5 35.5q30 0 76 -34q35 -25 50 -25q28 0 34 56h60q-2 -60 -27.5 -96.5t-65.5 -36.5z" />
    <glyph glyph-name="Odieresis" unicode="&#xd6;" horiz-adv-x="809" 
d="M751 349q2 162 -97 266t-249 102q-152 0 -249.5 -102.5t-97.5 -265.5q-2 -162 97 -265.5t250 -101.5q150 -2 249 101.5t97 265.5zM638 349q0 -123 -62.5 -192t-170.5 -69t-170.5 69t-62.5 192t62.5 192.5t170.5 69.5t170.5 -69.5t62.5 -192.5zM355 884v-108h-96v108h96z
M550 884v-108h-96v108h96z" />
    <glyph glyph-name="multiply" unicode="&#xd7;" 
d="M484 433l-120 -120l120 -120l-64 -64l-120 120l-120 -120l-64 64l120 120l-120 120l64 64l120 -120l120 120z" />
    <glyph glyph-name="Oslash" unicode="&#xd8;" horiz-adv-x="809" 
d="M751 349q2 -162 -97 -265.5t-249 -101.5q-107 0 -189 51l-63 -87l-58 43l65 89q-102 102 -102 271q0 163 97.5 265.5t249.5 102.5q102 0 183 -48l62 86l58 -43l-63 -87q106 -101 106 -276zM225 168l300 414q-53 29 -120 29q-108 0 -170.5 -69.5t-62.5 -192.5
q0 -111 53 -181zM638 349q0 117 -58 187l-301 -416q53 -32 126 -32q108 0 170.5 69t62.5 192z" />
    <glyph glyph-name="Ugrave" unicode="&#xd9;" horiz-adv-x="727" 
d="M535 700h109v-436q0 -135 -72.5 -208.5t-206.5 -73.5t-208 73.5t-74 208.5v436h111v-438q0 -86 45.5 -130.5t129.5 -44.5q81 0 123.5 41t42.5 121v451zM327 776l-111 113l80 61l112 -174h-81z" />
    <glyph glyph-name="Uacute" unicode="&#xda;" horiz-adv-x="727" 
d="M385 776h-81l112 174l80 -61zM535 700h109v-436q0 -135 -72.5 -208.5t-206.5 -73.5t-208 73.5t-74 208.5v436h111v-438q0 -86 45.5 -130.5t129.5 -44.5q81 0 123.5 41t42.5 121v451z" />
    <glyph glyph-name="Ucircumflex" unicode="&#xdb;" horiz-adv-x="727" 
d="M535 700h109v-436q0 -135 -72.5 -208.5t-206.5 -73.5t-208 73.5t-74 208.5v436h111v-438q0 -86 45.5 -130.5t129.5 -44.5q81 0 123.5 41t42.5 121v451zM430 776l-67 82l-65 -82h-95l132 166h58l132 -166h-95z" />
    <glyph glyph-name="Udieresis" unicode="&#xdc;" horiz-adv-x="727" 
d="M644 700h-109v-451q0 -80 -42.5 -121t-123.5 -41q-84 0 -129.5 44.5t-45.5 130.5v438h-111v-436q0 -135 74 -208.5t208 -73.5t206.5 73.5t72.5 208.5v436zM314 884v-108h-96v108h96zM509 884v-108h-96v108h96z" />
    <glyph glyph-name="Yacute" unicode="&#xdd;" horiz-adv-x="671" 
d="M338 776h-81l112 174l80 -61zM519 700h124l-252 -434v-266h-111v266l-252 434h127l182 -335z" />
    <glyph glyph-name="Thorn" unicode="&#xde;" horiz-adv-x="639" 
d="M601 402q0 -96 -66.5 -157.5t-171.5 -61.5h-159v-183h-111v711h111v-105h171q102 0 164 -56t62 -148zM489 396q0 49 -32 78.5t-85 29.5h-168v-219h163q56 0 89 29.5t33 81.5z" />
    <glyph glyph-name="germandbls" unicode="&#xdf;" horiz-adv-x="634" 
d="M586 185q0 -85 -57 -135t-152 -50h-69v89h50q54 0 87.5 29t33.5 77q0 52 -41.5 79t-129.5 32v86q122 17 122 119q0 50 -30 77.5t-87 27.5q-58 0 -91.5 -31t-33.5 -88v-497h-105v497q0 99 62 156q62 58 166 58q103 0 163.5 -50t60.5 -131q0 -59 -34.5 -104.5t-88.5 -61.5
q86 -14 130 -60t44 -119z" />
    <glyph glyph-name="agrave" unicode="&#xe0;" horiz-adv-x="560" 
d="M482 355v-355h-101v77q-56 -88 -167 -88q-77 0 -121.5 41.5t-44.5 111.5q0 77 46 108q48 33 113 43l109 17q30 4 47 17.5t17 43.5q0 64 -94 64q-107 0 -124 -86h-100q9 79 70 125t159 46q92 0 141.5 -41.5t49.5 -123.5zM377 216v37q-28 -9 -71 -16l-58 -9q-38 -6 -67 -22
q-29 -17 -29 -59q0 -33 22.5 -51t63.5 -18q61 0 100 38t39 100zM278 607l-127 139l80 61l129 -200h-82z" />
    <glyph glyph-name="aacute" unicode="&#xe1;" horiz-adv-x="560" 
d="M482 355v-355h-101v77q-56 -88 -167 -88q-77 0 -121.5 41.5t-44.5 111.5q0 77 46 108q48 33 113 43l109 17q30 4 47 17.5t17 43.5q0 64 -94 64q-107 0 -124 -86h-100q9 79 70 125t159 46q92 0 141.5 -41.5t49.5 -123.5zM377 216v37q-28 -9 -71 -16l-58 -9q-38 -6 -67 -22
q-29 -17 -29 -59q0 -33 22.5 -51t63.5 -18q61 0 100 38t39 100zM317 607h-82l129 200l80 -61z" />
    <glyph glyph-name="acircumflex" unicode="&#xe2;" horiz-adv-x="560" 
d="M482 355v-355h-101v77q-56 -88 -167 -88q-77 0 -121.5 41.5t-44.5 111.5q0 77 46 108q48 33 113 43l109 17q30 4 47 17.5t17 43.5q0 64 -94 64q-107 0 -124 -86h-100q9 79 70 125t159 46q92 0 141.5 -41.5t49.5 -123.5zM377 216v37q-28 -9 -71 -16l-58 -9q-38 -6 -67 -22
q-29 -17 -29 -59q0 -33 22.5 -51t63.5 -18q61 0 100 38t39 100zM356 607l-67 82l-65 -82h-95l132 166h58l132 -166h-95z" />
    <glyph glyph-name="atilde" unicode="&#xe3;" horiz-adv-x="560" 
d="M482 355v-355h-101v77q-56 -88 -167 -88q-77 0 -121.5 41.5t-44.5 111.5q0 77 46 108q48 33 113 43l109 17q30 4 47 17.5t17 43.5q0 64 -94 64q-107 0 -124 -86h-100q9 79 70 125t159 46q92 0 141.5 -41.5t49.5 -123.5zM377 216v37q-28 -9 -71 -16l-58 -9q-38 -6 -67 -22
q-29 -17 -29 -59q0 -33 22.5 -51t63.5 -18q61 0 100 38t39 100zM349 607q-25 0 -74 33q-32 26 -52 26q-32 0 -35 -53h-59q2 59 27.5 95t65.5 36q32 0 76 -35q35 -25 50 -25q28 0 34 56h60q-2 -60 -27.5 -96.5t-65.5 -36.5z" />
    <glyph glyph-name="adieresis" unicode="&#xe4;" horiz-adv-x="560" 
d="M482 355q0 82 -49.5 123.5t-141.5 41.5q-98 0 -159 -46t-70 -125h100q17 86 124 86q94 0 94 -64q0 -30 -17 -43.5t-47 -17.5l-109 -17q-65 -10 -113 -43q-46 -31 -46 -108q0 -70 44.5 -111.5t121.5 -41.5q111 0 167 88v-77h101v355zM377 216q0 -62 -39 -100t-100 -38
q-41 0 -63.5 18t-22.5 51q0 42 29 59q29 16 67 22l58 9q43 7 71 16v-37zM243 715v-108h-96v108h96zM429 715v-108h-96v108h96z" />
    <glyph glyph-name="aring" unicode="&#xe5;" horiz-adv-x="560" 
d="M482 355v-355h-101v77q-56 -88 -167 -88q-77 0 -121.5 41.5t-44.5 111.5q0 77 46 108q48 33 113 43l109 17q30 4 47 17.5t17 43.5q0 64 -94 64q-107 0 -124 -86h-100q9 79 70 125t159 46q92 0 141.5 -41.5t49.5 -123.5zM377 216v37q-28 -9 -71 -16l-58 -9q-38 -6 -67 -22
q-29 -17 -29 -59q0 -33 22.5 -51t63.5 -18q61 0 100 38t39 100zM289 815q45 0 74.5 -29t29.5 -75t-29.5 -75t-74.5 -29q-44 0 -73 29.5t-29 74.5q0 46 29 75t73 29zM290 764q-23 0 -37 -15t-14 -38q0 -24 13.5 -39t37.5 -15q23 0 37 15t14 39q0 23 -14 38t-37 15z" />
    <glyph glyph-name="ae" unicode="&#xe6;" horiz-adv-x="896" 
d="M848 269v-44h-372q0 -69 40 -108.5t109 -39.5q95 0 125 73h93q-19 -73 -79.5 -117t-146.5 -44q-141 0 -197 117q-63 -117 -206 -117q-77 0 -121.5 41.5t-44.5 111.5q0 77 46 108q48 33 113 43l109 17q30 4 47 17.5t17 43.5q0 64 -92 64q-107 0 -124 -86h-100q9 79 70 125
t159 46q122 0 159 -73q61 73 169 73q103 0 165 -68.5t62 -182.5zM477 302h270q0 60 -34 95t-94 35t-98.5 -35t-43.5 -95zM377 216v37q-28 -9 -71 -16l-58 -9q-38 -6 -67 -22q-29 -17 -29 -59q0 -33 22.5 -51t63.5 -18q61 0 100 38t39 100z" />
    <glyph glyph-name="ccedilla" unicode="&#xe7;" horiz-adv-x="569" 
d="M302 -11v-35q46 -2 74 -23t28 -54q0 -37 -28 -61t-72 -24q-63 0 -106 37l30 46q36 -30 72 -30q21 0 32.5 9.5t11.5 24.5q0 36 -91 36v77q-95 13 -150 82.5t-55 176.5q0 120 69 194.5t181 74.5q96 0 157 -54t63 -140h-103q-4 46 -34.5 72.5t-83.5 26.5q-67 0 -105 -45.5
t-38 -124.5t37.5 -124.5t104.5 -45.5q51 0 83.5 27.5t37.5 74.5h104q-9 -90 -67.5 -143t-151.5 -55z" />
    <glyph glyph-name="egrave" unicode="&#xe8;" horiz-adv-x="567" 
d="M519 269v-44h-372q0 -69 40 -108.5t109 -39.5q95 0 125 73h93q-19 -73 -79.5 -117t-146.5 -44q-109 0 -174.5 71.5t-65.5 190.5q0 121 67.5 195t176.5 74q103 0 165 -68.5t62 -182.5zM290 432q-60 0 -98.5 -35t-43.5 -95h270q0 60 -34 95t-94 35zM255 607l-127 139l80 61
l129 -200h-82z" />
    <glyph glyph-name="eacute" unicode="&#xe9;" horiz-adv-x="567" 
d="M322 607h-82l129 200l80 -61zM519 269v-44h-372q0 -69 40 -108.5t109 -39.5q95 0 125 73h93q-19 -73 -79.5 -117t-146.5 -44q-109 0 -174.5 71.5t-65.5 190.5q0 121 67.5 195t176.5 74q103 0 165 -68.5t62 -182.5zM290 432q-60 0 -98.5 -35t-43.5 -95h270q0 60 -34 95
t-94 35z" />
    <glyph glyph-name="ecircumflex" unicode="&#xea;" horiz-adv-x="567" 
d="M519 269v-44h-372q0 -69 40 -108.5t109 -39.5q95 0 125 73h93q-19 -73 -79.5 -117t-146.5 -44q-109 0 -174.5 71.5t-65.5 190.5q0 121 67.5 195t176.5 74q103 0 165 -68.5t62 -182.5zM290 432q-60 0 -98.5 -35t-43.5 -95h270q0 60 -34 95t-94 35zM354 607l-67 82l-65 -82
h-95l132 166h58l132 -166h-95z" />
    <glyph glyph-name="edieresis" unicode="&#xeb;" horiz-adv-x="567" 
d="M519 225v44q0 114 -62 182.5t-165 68.5q-109 0 -176.5 -74t-67.5 -195q0 -119 65.5 -190.5t174.5 -71.5q86 0 146.5 44t79.5 117h-93q-30 -73 -125 -73q-69 0 -109 39.5t-40 108.5h372zM290 432q60 0 94 -35t34 -95h-270q5 60 43.5 95t98.5 35zM254 715v-108h-96v108h96z
M440 715v-108h-96v108h96z" />
    <glyph glyph-name="igrave" unicode="&#xec;" horiz-adv-x="266" 
d="M80 0v510h106v-510h-106zM88 607l-127 139l80 61l129 -200h-82z" />
    <glyph glyph-name="iacute" unicode="&#xed;" horiz-adv-x="266" 
d="M177 607h-82l129 200l80 -61zM80 0v510h106v-510h-106z" />
    <glyph glyph-name="icircumflex" unicode="&#xee;" horiz-adv-x="266" 
d="M80 0v510h106v-510h-106zM199 607l-67 82l-65 -82h-95l132 166h58l132 -166h-95z" />
    <glyph glyph-name="idieresis" unicode="&#xef;" horiz-adv-x="266" 
d="M80 510v-510h106v510h-106zM88 715v-108h-96v108h96zM274 715v-108h-96v108h96z" />
    <glyph glyph-name="eth" unicode="&#xf0;" horiz-adv-x="609" 
d="M561 347q0 -170 -71.5 -264t-200.5 -94q-106 0 -173.5 65.5t-67.5 170.5q0 101 65 167.5t164 66.5q117 0 189 -91q-3 141 -61 199l-85 -72l-47 56l66 55q-25 5 -46 5q-50 0 -84 -26.5t-41 -74.5h-102q11 89 71.5 139.5t150.5 50.5q73 0 129 -29l83 69v-93l-24 -20
q85 -89 85 -280zM439 220q0 64 -40 104t-105 40t-105.5 -40.5t-40.5 -107.5q0 -63 38 -99.5t102 -36.5q68 0 109.5 38t41.5 102z" />
    <glyph glyph-name="ntilde" unicode="&#xf1;" horiz-adv-x="601" 
d="M523 330v-330h-105v319q0 49 -27 78t-74 29q-59 0 -93.5 -41t-34.5 -112v-273h-106v510h106v-76q26 45 63 65.5t93 20.5q86 0 132 -48.5t46 -141.5zM385 606q-25 0 -74 33q-32 26 -52 26q-32 0 -35 -53h-59q2 59 27.5 95t65.5 36q32 0 76 -35q35 -25 50 -25q28 0 34 56
h60q-2 -60 -27.5 -96.5t-65.5 -36.5z" />
    <glyph glyph-name="ograve" unicode="&#xf2;" horiz-adv-x="596" 
d="M548 254q0 -121 -67 -193t-183 -72t-183 72t-67 193q0 120 68 193t182 73t182 -73t68 -193zM154 254q0 -79 38.5 -124t107.5 -45q68 0 105 45t37 124t-38.5 124.5t-106.5 45.5t-105.5 -45.5t-37.5 -124.5zM267 607l-127 139l80 61l129 -200h-82z" />
    <glyph glyph-name="oacute" unicode="&#xf3;" horiz-adv-x="596" 
d="M334 607h-82l129 200l80 -61zM548 254q0 -121 -67 -193t-183 -72t-183 72t-67 193q0 120 68 193t182 73t182 -73t68 -193zM154 254q0 -79 38.5 -124t107.5 -45q68 0 105 45t37 124t-38.5 124.5t-106.5 45.5t-105.5 -45.5t-37.5 -124.5z" />
    <glyph glyph-name="ocircumflex" unicode="&#xf4;" horiz-adv-x="596" 
d="M548 254q0 -121 -67 -193t-183 -72t-183 72t-67 193q0 120 68 193t182 73t182 -73t68 -193zM154 254q0 -79 38.5 -124t107.5 -45q68 0 105 45t37 124t-38.5 124.5t-106.5 45.5t-105.5 -45.5t-37.5 -124.5zM364 607l-67 82l-65 -82h-95l132 166h58l132 -166h-95z" />
    <glyph glyph-name="otilde" unicode="&#xf5;" horiz-adv-x="596" 
d="M548 254q0 -121 -67 -193t-183 -72t-183 72t-67 193q0 120 68 193t182 73t182 -73t68 -193zM154 254q0 -79 38.5 -124t107.5 -45q68 0 105 45t37 124t-38.5 124.5t-106.5 45.5t-105.5 -45.5t-37.5 -124.5zM362 607q-25 0 -74 33q-32 26 -52 26q-32 0 -35 -53h-59
q2 59 27.5 95t65.5 36q32 0 76 -35q35 -25 50 -25q28 0 34 56h60q-2 -60 -27.5 -96.5t-65.5 -36.5z" />
    <glyph glyph-name="odieresis" unicode="&#xf6;" horiz-adv-x="596" 
d="M548 254q0 120 -68 193t-182 73t-182 -73t-68 -193q0 -121 67 -193t183 -72t183 72t67 193zM154 254q0 79 37.5 124.5t105.5 45.5t106.5 -45.5t38.5 -124.5t-37 -124t-105 -45q-69 0 -107.5 45t-38.5 124zM253 715v-108h-96v108h96zM439 715v-108h-96v108h96z" />
    <glyph glyph-name="divide" unicode="&#xf7;" 
d="M246 428v113h109v-113h-109zM506 358v-92h-412v92h412zM246 83v113h109v-113h-109z" />
    <glyph glyph-name="oslash" unicode="&#xf8;" horiz-adv-x="596" 
d="M548 254q0 -121 -67 -193t-183 -72q-71 0 -128 30l-59 -81l-58 43l60 83q-65 71 -65 190q0 120 68 193t182 73q72 0 125 -29l54 74l58 -42l-55 -76q68 -73 68 -193zM177 152l187 258q-31 14 -67 14q-68 0 -105.5 -45.5t-37.5 -124.5q0 -61 23 -102zM442 254q0 63 -25 106
l-188 -259q28 -16 71 -16q68 0 105 45t37 124z" />
    <glyph glyph-name="ugrave" unicode="&#xf9;" horiz-adv-x="595" 
d="M407 510h105v-510h-102v86q-42 -92 -146 -92q-85 0 -135.5 53t-50.5 143v320h105v-310q0 -56 26.5 -85.5t75.5 -29.5q60 0 91 46.5t31 131.5v247zM254 607l-127 139l80 61l129 -200h-82z" />
    <glyph glyph-name="uacute" unicode="&#xfa;" horiz-adv-x="595" 
d="M407 510h105v-510h-102v86q-42 -92 -146 -92q-85 0 -135.5 53t-50.5 143v320h105v-310q0 -56 26.5 -85.5t75.5 -29.5q60 0 91 46.5t31 131.5v247zM310 607h-82l129 200l80 -61z" />
    <glyph glyph-name="ucircumflex" unicode="&#xfb;" horiz-adv-x="595" 
d="M407 510h105v-510h-102v86q-42 -92 -146 -92q-85 0 -135.5 53t-50.5 143v320h105v-310q0 -56 26.5 -85.5t75.5 -29.5q60 0 91 46.5t31 131.5v247zM361 607l-67 82l-65 -82h-95l132 166h58l132 -166h-95z" />
    <glyph glyph-name="udieresis" unicode="&#xfc;" horiz-adv-x="595" 
d="M512 510h-105v-247q0 -85 -31 -131.5t-91 -46.5q-49 0 -75.5 29.5t-26.5 85.5v310h-105v-320q0 -90 50.5 -143t135.5 -53q104 0 146 92v-86h102v510zM260 715v-108h-96v108h96zM446 715v-108h-96v108h96z" />
    <glyph glyph-name="yacute" unicode="&#xfd;" horiz-adv-x="531" 
d="M290 607h-82l129 200l80 -61zM406 510h107l-214 -561q-43 -113 -189 -113h-41v90h36q40 0 69 16.5t40 47.5l4 12l-200 508h111l139 -383z" />
    <glyph glyph-name="thorn" unicode="&#xfe;" horiz-adv-x="630" 
d="M582 262q0 -119 -64 -192.5t-166 -73.5q-113 0 -163 81v-269h-106v903h106v-287q55 96 175 96q98 0 158 -71t60 -187zM476 257q0 76 -39.5 122t-105.5 46t-106 -46t-40 -122q0 -77 39.5 -123t106.5 -46q65 0 105 46.5t40 122.5z" />
    <glyph glyph-name="ydieresis" unicode="&#xff;" horiz-adv-x="531" 
d="M513 510h-107l-138 -383l-139 383h-111l200 -508l-4 -12q-11 -31 -40 -47.5t-69 -16.5h-36v-90h41q146 0 189 113zM230 715v-108h-96v108h96zM416 715v-108h-96v108h96z" />
    <glyph glyph-name="Amacron" unicode="&#x100;" horiz-adv-x="747" 
d="M593 0l-63 169h-316l-63 -169h-118l273 700h135l273 -700h-121zM253 272h238l-119 320zM516 776h-285v73h285v-73z" />
    <glyph glyph-name="amacron" unicode="&#x101;" horiz-adv-x="560" 
d="M482 355v-355h-101v77q-56 -88 -167 -88q-77 0 -121.5 41.5t-44.5 111.5q0 77 46 108q48 33 113 43l109 17q30 4 47 17.5t17 43.5q0 64 -94 64q-107 0 -124 -86h-100q9 79 70 125t159 46q92 0 141.5 -41.5t49.5 -123.5zM377 216v37q-28 -9 -71 -16l-58 -9q-38 -6 -67 -22
q-29 -17 -29 -59q0 -33 22.5 -51t63.5 -18q61 0 100 38t39 100zM427 607h-285v73h285v-73z" />
    <glyph glyph-name="Abreve" unicode="&#x102;" horiz-adv-x="747" 
d="M593 0l-63 169h-316l-63 -169h-118l273 700h135l273 -700h-121zM253 272h238l-119 320zM492 887q0 -50 -32.5 -80.5t-86.5 -30.5q-53 0 -85.5 30.5t-32.5 80.5q0 25 6 40h57q-3 -13 -3 -29q0 -29 15.5 -46.5t42.5 -17.5q28 0 43.5 17.5t15.5 46.5q0 16 -3 29h57
q6 -15 6 -40z" />
    <glyph glyph-name="abreve" unicode="&#x103;" horiz-adv-x="560" 
d="M482 355v-355h-101v77q-56 -88 -167 -88q-77 0 -121.5 41.5t-44.5 111.5q0 77 46 108q48 33 113 43l109 17q30 4 47 17.5t17 43.5q0 64 -94 64q-107 0 -124 -86h-100q9 79 70 125t159 46q92 0 141.5 -41.5t49.5 -123.5zM377 216v37q-28 -9 -71 -16l-58 -9q-38 -6 -67 -22
q-29 -17 -29 -59q0 -33 22.5 -51t63.5 -18q61 0 100 38t39 100zM408 718q0 -50 -32.5 -80.5t-86.5 -30.5q-53 0 -85.5 30.5t-32.5 80.5q0 24 6 41h57q-3 -15 -3 -30q0 -29 15.5 -46.5t42.5 -17.5q28 0 43.5 17.5t15.5 46.5q0 15 -3 30h57q6 -17 6 -41z" />
    <glyph glyph-name="Aogonek" unicode="&#x104;" horiz-adv-x="747" 
d="M694 -106v-58q-56 5 -94 35.5t-38 71.5q0 37 30 60l-62 166h-316l-63 -169h-118l273 700h135l273 -700h-74q-22 -22 -22 -47q0 -26 21.5 -41.5t54.5 -17.5zM253 272h238l-119 320z" />
    <glyph glyph-name="aogonek" unicode="&#x105;" horiz-adv-x="555" 
d="M486 -106v-58q-56 5 -94 35.5t-38 71.5q0 35 27 58v76q-56 -88 -167 -88q-77 0 -121.5 41.5t-44.5 111.5q0 77 46 108q48 33 113 43l109 17q30 4 47 17.5t17 43.5q0 64 -94 64q-107 0 -124 -86h-100q9 79 70 125t159 46q92 0 141.5 -41.5t49.5 -123.5v-355h-50
q-22 -22 -22 -47q0 -26 21.5 -41.5t54.5 -17.5zM377 216v37q-28 -9 -71 -16l-58 -9q-38 -6 -67 -22q-29 -17 -29 -59q0 -33 22.5 -51t63.5 -18q61 0 100 38t39 100z" />
    <glyph glyph-name="Cacute" unicode="&#x106;" horiz-adv-x="759" 
d="M594 252h112q-6 -121 -92 -195.5t-215 -74.5q-154 0 -247.5 103t-93.5 268q0 163 94.5 263t250.5 100q126 0 207 -66.5t93 -177.5h-113q-8 63 -61 102t-130 39q-103 0 -166 -71t-63 -187q0 -117 63 -191.5t166 -74.5q80 0 134 44t61 119zM448 776h-81l112 174l80 -61z
" />
    <glyph glyph-name="cacute" unicode="&#x107;" horiz-adv-x="569" 
d="M294 -11q-113 0 -179.5 71.5t-66.5 190.5q0 120 69 194.5t181 74.5q96 0 157 -54t63 -140h-103q-4 46 -34.5 72.5t-83.5 26.5q-67 0 -105 -45.5t-38 -124.5t37.5 -124.5t104.5 -45.5q51 0 83.5 27.5t37.5 74.5h104q-9 -92 -70 -145t-157 -53zM340 607h-82l129 200l80 -61
z" />
    <glyph glyph-name="Ccircumflex" unicode="&#x108;" horiz-adv-x="759" 
d="M594 252h112q-6 -121 -92 -195.5t-215 -74.5q-154 0 -247.5 103t-93.5 268q0 163 94.5 263t250.5 100q126 0 207 -66.5t93 -177.5h-113q-8 63 -61 102t-130 39q-103 0 -166 -71t-63 -187q0 -117 63 -191.5t166 -74.5q80 0 134 44t61 119zM461 776l-67 82l-65 -82h-95
l132 166h58l132 -166h-95z" />
    <glyph glyph-name="ccircumflex" unicode="&#x109;" horiz-adv-x="569" 
d="M294 -11q-113 0 -179.5 71.5t-66.5 190.5q0 120 69 194.5t181 74.5q96 0 157 -54t63 -140h-103q-4 46 -34.5 72.5t-83.5 26.5q-67 0 -105 -45.5t-38 -124.5t37.5 -124.5t104.5 -45.5q51 0 83.5 27.5t37.5 74.5h104q-9 -92 -70 -145t-157 -53zM370 607l-67 82l-65 -82h-95
l132 166h58l132 -166h-95z" />
    <glyph glyph-name="Cdotaccent" unicode="&#x10a;" horiz-adv-x="759" 
d="M594 252h112q-6 -121 -92 -195.5t-215 -74.5q-154 0 -247.5 103t-93.5 268q0 163 94.5 263t250.5 100q126 0 207 -66.5t93 -177.5h-113q-8 63 -61 102t-130 39q-103 0 -166 -71t-63 -187q0 -117 63 -191.5t166 -74.5q80 0 134 44t61 119zM340 776v125h121v-125h-121z" />
    <glyph glyph-name="cdotaccent" unicode="&#x10b;" horiz-adv-x="569" 
d="M294 -11q-113 0 -179.5 71.5t-66.5 190.5q0 120 69 194.5t181 74.5q96 0 157 -54t63 -140h-103q-4 46 -34.5 72.5t-83.5 26.5q-67 0 -105 -45.5t-38 -124.5t37.5 -124.5t104.5 -45.5q51 0 83.5 27.5t37.5 74.5h104q-9 -92 -70 -145t-157 -53zM238 607v129h125v-129h-125z
" />
    <glyph glyph-name="Ccaron" unicode="&#x10c;" horiz-adv-x="759" 
d="M594 252h112q-6 -121 -92 -195.5t-215 -74.5q-154 0 -247.5 103t-93.5 268q0 163 94.5 263t250.5 100q126 0 207 -66.5t93 -177.5h-113q-8 63 -61 102t-130 39q-103 0 -166 -71t-63 -187q0 -117 63 -191.5t166 -74.5q80 0 134 44t61 119zM471 941h95l-132 -166h-58
l-132 166h95l65 -82z" />
    <glyph glyph-name="ccaron" unicode="&#x10d;" horiz-adv-x="569" 
d="M294 -11q-113 0 -179.5 71.5t-66.5 190.5q0 120 69 194.5t181 74.5q96 0 157 -54t63 -140h-103q-4 46 -34.5 72.5t-83.5 26.5q-67 0 -105 -45.5t-38 -124.5t37.5 -124.5t104.5 -45.5q51 0 83.5 27.5t37.5 74.5h104q-9 -92 -70 -145t-157 -53zM241 773l67 -82l65 82h95
l-132 -166h-58l-132 166h95z" />
    <glyph glyph-name="Dcaron" unicode="&#x10e;" horiz-adv-x="735" 
d="M677 364q1 -70 -23 -135t-69 -117t-116.5 -82.5t-159.5 -29.5h-216v700h233q159 0 255 -92.5t96 -243.5zM565 364q0 106 -63.5 169.5t-170.5 63.5h-127v-493h106q113 0 184 73.5t71 186.5zM355 941h95l-132 -166h-58l-132 166h95l65 -82z" />
    <glyph glyph-name="dcaron" unicode="&#x10f;" horiz-adv-x="802" 
d="M441 711h106v-711h-103v85q-57 -96 -175 -96q-99 0 -160 73.5t-61 193.5q0 117 65 190.5t165 73.5q114 0 163 -84v275zM445 256q0 77 -40 125t-106 48t-105.5 -47.5t-39.5 -124.5q0 -78 39.5 -126t105.5 -48t106 47.5t40 125.5zM703 605h-59v112h125v-105
q0 -75 -39 -117.5t-120 -56.5l-12 56q56 12 80 37t25 74z" />
    <glyph glyph-name="Dcroat" unicode="&#x110;" horiz-adv-x="705" 
d="M647 364q1 -70 -23 -135t-69 -117t-116.5 -82.5t-159.5 -29.5h-216v329h-80v54h80v317h233q159 0 255 -92.5t96 -243.5zM535 364q0 106 -63.5 169.5t-170.5 63.5h-127v-214h162v-54h-162v-225h106q113 0 184 73.5t71 186.5z" />
    <glyph glyph-name="dslash" unicode="&#x111;" horiz-adv-x="655" 
d="M622 632v-54h-75v-578h-103v85q-57 -96 -175 -96q-99 0 -160 73.5t-61 193.5q0 117 65 190.5t165 73.5q114 0 163 -84v142h-107v54h107v79h106v-79h75zM445 256q0 77 -40 125t-106 48t-105.5 -47.5t-39.5 -124.5q0 -78 39.5 -126t105.5 -48t106 47.5t40 125.5z" />
    <glyph glyph-name="Emacron" unicode="&#x112;" horiz-adv-x="622" 
d="M574 0h-481v700h462v-103h-351v-191h324v-104h-324v-198h370v-104zM476 776h-285v73h285v-73z" />
    <glyph glyph-name="emacron" unicode="&#x113;" horiz-adv-x="567" 
d="M519 269v-44h-372q0 -69 40 -108.5t109 -39.5q95 0 125 73h93q-19 -73 -79.5 -117t-146.5 -44q-109 0 -174.5 71.5t-65.5 190.5q0 121 67.5 195t176.5 74q103 0 165 -68.5t62 -182.5zM290 432q-60 0 -98.5 -35t-43.5 -95h270q0 60 -34 95t-94 35zM440 607h-285v73h285
v-73z" />
    <glyph glyph-name="Ebreve" unicode="&#x114;" horiz-adv-x="622" 
d="M574 0h-481v700h462v-103h-351v-191h324v-104h-324v-198h370v-104zM452 887q0 -50 -32.5 -80.5t-86.5 -30.5q-53 0 -85.5 30.5t-32.5 80.5q0 25 6 40h57q-3 -13 -3 -29q0 -29 15.5 -46.5t42.5 -17.5q28 0 43.5 17.5t15.5 46.5q0 16 -3 29h57q6 -15 6 -40z" />
    <glyph glyph-name="ebreve" unicode="&#x115;" horiz-adv-x="567" 
d="M519 269v-44h-372q0 -69 40 -108.5t109 -39.5q95 0 125 73h93q-19 -73 -79.5 -117t-146.5 -44q-109 0 -174.5 71.5t-65.5 190.5q0 121 67.5 195t176.5 74q103 0 165 -68.5t62 -182.5zM290 432q-60 0 -98.5 -35t-43.5 -95h270q0 60 -34 95t-94 35zM420 718
q0 -50 -32.5 -80.5t-86.5 -30.5q-53 0 -85.5 30.5t-32.5 80.5q0 24 6 41h57q-3 -15 -3 -30q0 -29 15.5 -46.5t42.5 -17.5q28 0 43.5 17.5t15.5 46.5q0 15 -3 30h57q6 -17 6 -41z" />
    <glyph glyph-name="Edotaccent" unicode="&#x116;" horiz-adv-x="622" 
d="M574 0h-481v700h462v-103h-351v-191h324v-104h-324v-198h370v-104zM268 776v125h121v-125h-121z" />
    <glyph glyph-name="edotaccent" unicode="&#x117;" horiz-adv-x="567" 
d="M519 269v-44h-372q0 -69 40 -108.5t109 -39.5q95 0 125 73h93q-19 -73 -79.5 -117t-146.5 -44q-109 0 -174.5 71.5t-65.5 190.5q0 121 67.5 195t176.5 74q103 0 165 -68.5t62 -182.5zM290 432q-60 0 -98.5 -35t-43.5 -95h270q0 60 -34 95t-94 35zM232 607v129h125v-129
h-125z" />
    <glyph glyph-name="Eogonek" unicode="&#x118;" horiz-adv-x="622" 
d="M498 -47q0 -26 21.5 -41.5t54.5 -17.5v-58q-56 5 -94 35.5t-38 71.5q0 34 26 57h-375v700h462v-103h-351v-191h324v-104h-324v-198h370v-104h-54q-22 -22 -22 -47z" />
    <glyph glyph-name="eogonek" unicode="&#x119;" horiz-adv-x="567" 
d="M519 269v-44h-372q0 -69 40 -108.5t109 -39.5q95 0 125 73h93q-19 -73 -79.5 -117t-146.5 -44h-7q-12 -15 -12 -36q0 -26 21.5 -41.5t54.5 -17.5v-58q-56 5 -94 35.5t-38 71.5q0 28 20 51q-87 17 -136 85t-49 172q0 121 67.5 195t176.5 74q103 0 165 -68.5t62 -182.5z
M148 302h270q0 60 -34 95t-94 35t-98.5 -35t-43.5 -95z" />
    <glyph glyph-name="Ecaron" unicode="&#x11a;" horiz-adv-x="622" 
d="M574 0h-481v700h462v-103h-351v-191h324v-104h-324v-198h370v-104zM404 941h95l-132 -166h-58l-132 166h95l65 -82z" />
    <glyph glyph-name="ecaron" unicode="&#x11b;" horiz-adv-x="567" 
d="M519 269v-44h-372q0 -69 40 -108.5t109 -39.5q95 0 125 73h93q-19 -73 -79.5 -117t-146.5 -44q-109 0 -174.5 71.5t-65.5 190.5q0 121 67.5 195t176.5 74q103 0 165 -68.5t62 -182.5zM290 432q-60 0 -98.5 -35t-43.5 -95h270q0 60 -34 95t-94 35zM233 773l67 -82l65 82
h95l-132 -166h-58l-132 166h95z" />
    <glyph glyph-name="Gcircumflex" unicode="&#x11c;" horiz-adv-x="792" 
d="M379 365h325v-365h-102v85q-73 -103 -214 -103q-150 0 -240 100t-90 263q0 168 94.5 269.5t250.5 101.5q126 0 207 -66.5t93 -177.5h-112q-8 64 -61.5 102.5t-131.5 38.5q-105 0 -167 -71.5t-62 -192.5q0 -122 62 -193t169 -71q87 0 139 46.5t58 130.5h-218v103zM465 776
l-67 82l-65 -82h-95l132 166h58l132 -166h-95z" />
    <glyph glyph-name="gcircumflex" unicode="&#x11d;" horiz-adv-x="615" 
d="M437 510h100v-479q0 -110 -63.5 -172t-178.5 -62q-102 0 -166.5 48.5t-75.5 133.5h104q8 -46 44 -71.5t94 -25.5q69 0 105.5 34.5t36.5 100.5v92q-21 -42 -65 -64.5t-101 -22.5q-103 0 -163 67t-60 182q0 113 60 181t163 68q58 0 102 -22.5t64 -64.5v77zM432 272
q0 73 -37 115.5t-101 42.5t-102 -43t-38 -115q0 -73 37.5 -116.5t102.5 -43.5q64 0 101 43t37 117zM367 607l-67 82l-65 -82h-95l132 166h58l132 -166h-95z" />
    <glyph glyph-name="Gbreve" unicode="&#x11e;" horiz-adv-x="792" 
d="M379 365h325v-365h-102v85q-73 -103 -214 -103q-150 0 -240 100t-90 263q0 168 94.5 269.5t250.5 101.5q126 0 207 -66.5t93 -177.5h-112q-8 64 -61.5 102.5t-131.5 38.5q-105 0 -167 -71.5t-62 -192.5q0 -122 62 -193t169 -71q87 0 139 46.5t58 130.5h-218v103zM527 887
q0 -50 -32.5 -80.5t-86.5 -30.5q-53 0 -85.5 30.5t-32.5 80.5q0 25 6 40h57q-3 -13 -3 -29q0 -29 15.5 -46.5t42.5 -17.5q28 0 43.5 17.5t15.5 46.5q0 16 -3 29h57q6 -15 6 -40z" />
    <glyph glyph-name="gbreve" unicode="&#x11f;" horiz-adv-x="615" 
d="M437 510h100v-479q0 -110 -63.5 -172t-178.5 -62q-102 0 -166.5 48.5t-75.5 133.5h104q8 -46 44 -71.5t94 -25.5q69 0 105.5 34.5t36.5 100.5v92q-21 -42 -65 -64.5t-101 -22.5q-103 0 -163 67t-60 182q0 113 60 181t163 68q58 0 102 -22.5t64 -64.5v77zM432 272
q0 73 -37 115.5t-101 42.5t-102 -43t-38 -115q0 -73 37.5 -116.5t102.5 -43.5q64 0 101 43t37 117zM413 718q0 -50 -32.5 -80.5t-86.5 -30.5q-53 0 -85.5 30.5t-32.5 80.5q0 24 6 41h57q-3 -15 -3 -30q0 -29 15.5 -46.5t42.5 -17.5q28 0 43.5 17.5t15.5 46.5q0 15 -3 30h57
q6 -17 6 -41z" />
    <glyph glyph-name="Gdotaccent" unicode="&#x120;" horiz-adv-x="792" 
d="M379 365h325v-365h-102v85q-73 -103 -214 -103q-150 0 -240 100t-90 263q0 168 94.5 269.5t250.5 101.5q126 0 207 -66.5t93 -177.5h-112q-8 64 -61.5 102.5t-131.5 38.5q-105 0 -167 -71.5t-62 -192.5q0 -122 62 -193t169 -71q87 0 139 46.5t58 130.5h-218v103zM337 776
v125h121v-125h-121z" />
    <glyph glyph-name="gdotaccent" unicode="&#x121;" horiz-adv-x="615" 
d="M437 510h100v-479q0 -110 -63.5 -172t-178.5 -62q-102 0 -166.5 48.5t-75.5 133.5h104q8 -46 44 -71.5t94 -25.5q69 0 105.5 34.5t36.5 100.5v92q-21 -42 -65 -64.5t-101 -22.5q-103 0 -163 67t-60 182q0 113 60 181t163 68q58 0 102 -22.5t64 -64.5v77zM432 272
q0 73 -37 115.5t-101 42.5t-102 -43t-38 -115q0 -73 37.5 -116.5t102.5 -43.5q64 0 101 43t37 117zM238 607v129h125v-129h-125z" />
    <glyph glyph-name="uni0122" unicode="&#x122;" horiz-adv-x="792" 
d="M379 365h325v-365h-102v85q-73 -103 -214 -103q-150 0 -240 100t-90 263q0 168 94.5 269.5t250.5 101.5q126 0 207 -66.5t93 -177.5h-112q-8 64 -61.5 102.5t-131.5 38.5q-105 0 -167 -71.5t-62 -192.5q0 -122 62 -193t169 -71q87 0 139 46.5t58 130.5h-218v103z
M369 -198h-59v112h125v-105q0 -75 -39 -117.5t-120 -56.5l-12 56q56 12 80 37t25 74z" />
    <glyph glyph-name="uni0123" unicode="&#x123;" horiz-adv-x="615" 
d="M274 718h59v-112h-125v105q0 75 39 117.5t120 56.5l12 -56q-56 -12 -80 -37t-25 -74zM437 510h100v-479q0 -110 -63.5 -172t-178.5 -62q-102 0 -166.5 48.5t-75.5 133.5h104q8 -46 44 -71.5t94 -25.5q69 0 105.5 34.5t36.5 100.5v92q-21 -42 -65 -64.5t-101 -22.5
q-103 0 -163 67t-60 182q0 113 60 181t163 68q58 0 102 -22.5t64 -64.5v77zM432 272q0 73 -37 115.5t-101 42.5t-102 -43t-38 -115q0 -73 37.5 -116.5t102.5 -43.5q64 0 101 43t37 117z" />
    <glyph glyph-name="Hcircumflex" unicode="&#x124;" horiz-adv-x="759" 
d="M666 700v-700h-111v301h-351v-301h-111v700h111v-296h351v296h111zM446 776l-67 82l-65 -82h-95l132 166h58l132 -166h-95z" />
    <glyph glyph-name="hcircumflex" unicode="&#x125;" horiz-adv-x="601" 
d="M419 606l-56 68l-54 -68h-78l109 137h48l109 -137h-78zM523 330v-330h-105v319q0 49 -27 78t-74 29q-59 0 -93.5 -41t-34.5 -112v-273h-106v711h106v-281q26 48 62.5 69t93.5 21q86 0 132 -48.5t46 -141.5z" />
    <glyph glyph-name="Hbar" unicode="&#x126;" horiz-adv-x="763" 
d="M750 542v-49h-82v-493h-111v301h-351v-301h-111v493h-82v49h82v158h111v-158h351v158h111v-158h82zM557 404v89h-351v-89h351z" />
    <glyph glyph-name="hbar" unicode="&#x127;" horiz-adv-x="620" 
d="M542 330v-330h-105v319q0 49 -27 78t-74 29q-59 0 -93.5 -41t-34.5 -112v-273h-106v578h-69v54h69v79h106v-79h95v-54h-95v-148q26 48 62.5 69t93.5 21q86 0 132 -48.5t46 -141.5z" />
    <glyph glyph-name="Itilde" unicode="&#x128;" horiz-adv-x="307" 
d="M209 700v-700h-111v700h111zM223 776q-25 0 -74 33q-32 26 -52 26q-32 0 -35 -53h-59q2 59 27.5 94.5t65.5 35.5q30 0 76 -34q35 -25 50 -25q28 0 34 56h60q-2 -60 -27.5 -96.5t-65.5 -36.5z" />
    <glyph glyph-name="itilde" unicode="&#x129;" horiz-adv-x="266" 
d="M80 0v510h106v-510h-106zM201 607q-25 0 -74 33q-32 26 -52 26q-32 0 -35 -53h-59q2 59 27.5 95t65.5 36q32 0 76 -35q35 -25 50 -25q28 0 34 56h60q-2 -60 -27.5 -96.5t-65.5 -36.5z" />
    <glyph glyph-name="Imacron" unicode="&#x12a;" horiz-adv-x="307" 
d="M209 700v-700h-111v700h111zM296 776h-285v73h285v-73z" />
    <glyph glyph-name="imacron" unicode="&#x12b;" horiz-adv-x="266" 
d="M80 0v510h106v-510h-106zM275 607h-285v73h285v-73z" />
    <glyph glyph-name="Iogonek" unicode="&#x12e;" horiz-adv-x="307" 
d="M120 -47q0 -26 21.5 -41.5t54.5 -17.5v-58q-56 5 -94 35.5t-38 71.5t34 63v694h111v-700h-67q-22 -22 -22 -47z" />
    <glyph glyph-name="iogonek" unicode="&#x12f;" horiz-adv-x="265" 
d="M76 721h113v-122h-113v122zM79 4v506h106v-510h-59q-22 -22 -22 -47q0 -26 21.5 -41.5t54.5 -17.5v-58q-56 5 -94 35.5t-38 71.5q0 39 31 61z" />
    <glyph glyph-name="Idot" unicode="&#x130;" horiz-adv-x="307" 
d="M209 700v-700h-111v700h111zM93 776v125h121v-125h-121z" />
    <glyph glyph-name="dotlessi" unicode="&#x131;" horiz-adv-x="266" 
d="M80 0v510h106v-510h-106z" />
    <glyph glyph-name="IJ" unicode="&#x132;" horiz-adv-x="838" 
d="M209 700v-700h-111v700h111zM755 700v-487q0 -109 -56 -170t-155 -61q-97 0 -153 57.5t-56 157.5v56h111v-60q0 -50 25.5 -77t73.5 -27t73.5 28.5t25.5 81.5v501h111z" />
    <glyph glyph-name="ij" unicode="&#x133;" horiz-adv-x="540" 
d="M76 599v122h113v-122h-113zM79 0v510h106v-510h-106zM356 599v122h113v-122h-113zM359 510h106v-540q0 -89 -34 -125.5t-117 -36.5h-51v90h34q33 0 47.5 16t14.5 51v545z" />
    <glyph glyph-name="Jcircumflex" unicode="&#x134;" horiz-adv-x="531" 
d="M448 700v-487q0 -109 -56 -170t-155 -61q-97 0 -153 57.5t-56 157.5v56h111v-60q0 -50 25.5 -77t73.5 -27t73.5 28.5t25.5 81.5v501h111zM455 776l-67 82l-65 -82h-95l132 166h58l132 -166h-95z" />
    <glyph glyph-name="jcircumflex" unicode="&#x135;" horiz-adv-x="275" 
d="M211 607l-67 82l-65 -82h-95l132 166h58l132 -166h-95zM94 510h106v-540q0 -89 -34 -125.5t-117 -36.5h-51v90h34q33 0 47.5 16t14.5 51v545z" />
    <glyph glyph-name="uni0136" unicode="&#x136;" horiz-adv-x="690" 
d="M522 0l-230 328l-88 -92v-236h-111v700h111v-327l299 327h149l-277 -286l292 -414h-145zM320 -198h-59v112h125v-105q0 -75 -39 -117.5t-120 -56.5l-12 56q56 12 80 37t25 74z" />
    <glyph glyph-name="uni0137" unicode="&#x137;" horiz-adv-x="571" 
d="M553 0h-126l-161 215l-77 -82v-133h-106v711h106v-442l212 241h140l-205 -220zM276 -180h-59v112h125v-105q0 -75 -39 -117.5t-120 -56.5l-12 56q56 12 80 37t25 74z" />
    <glyph glyph-name="kgreenlandic" unicode="&#x138;" horiz-adv-x="571" 
d="M553 0h-126l-161 215l-77 -82v-133h-106v510h106v-241l212 241h140l-205 -220z" />
    <glyph glyph-name="Lacute" unicode="&#x139;" horiz-adv-x="580" 
d="M547 104v-104h-454v700h111v-596h343zM194 776h-81l112 174l80 -61z" />
    <glyph glyph-name="lacute" unicode="&#x13a;" horiz-adv-x="272" 
d="M189 711v-711h-106v711h106zM178 776h-81l112 174l80 -61z" />
    <glyph glyph-name="uni013B" unicode="&#x13b;" horiz-adv-x="580" 
d="M547 104v-104h-454v700h111v-596h343zM315 -188h-59v112h125v-105q0 -75 -39 -117.5t-120 -56.5l-12 56q56 12 80 37t25 74z" />
    <glyph glyph-name="uni013C" unicode="&#x13c;" horiz-adv-x="256" 
d="M189 711v-711h-106v711h106zM134 -178h-59v112h125v-105q0 -75 -39 -117.5t-120 -56.5l-12 56q56 12 80 37t25 74z" />
    <glyph glyph-name="Lcaron" unicode="&#x13d;" horiz-adv-x="618" 
d="M547 104v-104h-454v700h111v-596h343zM518 605h-59v112h125v-105q0 -75 -39 -117.5t-120 -56.5l-12 56q56 12 80 37t25 74z" />
    <glyph glyph-name="lcaron" unicode="&#x13e;" horiz-adv-x="461" 
d="M189 711v-711h-106v711h106zM362 605h-59v112h125v-105q0 -75 -39 -117.5t-120 -56.5l-12 56q56 12 80 37t25 74z" />
    <glyph glyph-name="Ldot" unicode="&#x13f;" horiz-adv-x="580" 
d="M547 104v-104h-454v700h111v-596h343zM422 381v129h125v-129h-125z" />
    <glyph glyph-name="ldot" unicode="&#x140;" horiz-adv-x="458" 
d="M189 711v-711h-106v711h106zM300 381v129h125v-129h-125z" />
    <glyph glyph-name="Lslash" unicode="&#x141;" horiz-adv-x="594" 
d="M218 104h343v-104h-454v267l-124 -65v63l124 65v370h111v-312l156 82v-62l-156 -82v-222z" />
    <glyph glyph-name="lslash" unicode="&#x142;" horiz-adv-x="239" 
d="M239 428v-62l-66 -35v-331h-106v276l-67 -35v62l67 35v373h106v-318z" />
    <glyph glyph-name="Nacute" unicode="&#x143;" horiz-adv-x="759" 
d="M666 700v-700h-125l-339 536v-536h-109v700h137l327 -524v524h109zM407 776h-81l112 174l80 -61z" />
    <glyph glyph-name="nacute" unicode="&#x144;" horiz-adv-x="601" 
d="M523 330v-330h-105v319q0 49 -27 78t-74 29q-59 0 -93.5 -41t-34.5 -112v-273h-106v510h106v-76q26 45 63 65.5t93 20.5q86 0 132 -48.5t46 -141.5zM373 607h-82l129 200l80 -61z" />
    <glyph glyph-name="uni0145" unicode="&#x145;" horiz-adv-x="759" 
d="M666 700v-700h-125l-339 536v-536h-109v700h137l327 -524v524h109zM346 -198h-59v112h125v-105q0 -75 -39 -117.5t-120 -56.5l-12 56q56 12 80 37t25 74z" />
    <glyph glyph-name="uni0146" unicode="&#x146;" horiz-adv-x="601" 
d="M523 330v-330h-105v319q0 49 -27 78t-74 29q-59 0 -93.5 -41t-34.5 -112v-273h-106v510h106v-76q26 45 63 65.5t93 20.5q86 0 132 -48.5t46 -141.5zM287 -180h-59v112h125v-105q0 -75 -39 -117.5t-120 -56.5l-12 56q56 12 80 37t25 74z" />
    <glyph glyph-name="Ncaron" unicode="&#x147;" horiz-adv-x="759" 
d="M666 700v-700h-125l-339 536v-536h-109v700h137l327 -524v524h109zM453 941h95l-132 -166h-58l-132 166h95l65 -82z" />
    <glyph glyph-name="ncaron" unicode="&#x148;" horiz-adv-x="601" 
d="M523 330v-330h-105v319q0 49 -27 78t-74 29q-59 0 -93.5 -41t-34.5 -112v-273h-106v510h106v-76q26 45 63 65.5t93 20.5q86 0 132 -48.5t46 -141.5zM260 773l67 -82l65 82h95l-132 -166h-58l-132 166h95z" />
    <glyph glyph-name="napostrophe" unicode="&#x149;" horiz-adv-x="809" 
d="M731 330v-330h-105v319q0 49 -27 78t-74 29q-59 0 -93.5 -41t-34.5 -112v-273h-106v510h106v-76q26 45 63 65.5t93 20.5q86 0 132 -48.5t46 -141.5zM138 606h-59v112h125v-105q0 -75 -39 -117.5t-120 -56.5l-12 56q56 12 80 37t25 74z" />
    <glyph glyph-name="Eng" unicode="&#x14a;" horiz-adv-x="759" 
d="M557 700h109v-730q0 -89 -34 -125.5t-117 -36.5h-51v90h35q33 0 47.5 16t14.5 51v35l-359 536v-536h-109v700h137l327 -495v495z" />
    <glyph glyph-name="eng" unicode="&#x14b;" horiz-adv-x="594" 
d="M523 330v-360q0 -89 -34 -125.5t-117 -36.5h-51v90h35q33 0 47.5 16t14.5 51v354q0 49 -27 78t-74 29q-59 0 -93.5 -41t-34.5 -112v-273h-106v510h106v-76q26 45 63 65.5t93 20.5q86 0 132 -48.5t46 -141.5z" />
    <glyph glyph-name="Omacron" unicode="&#x14c;" horiz-adv-x="809" 
d="M751 349q2 -162 -97 -265.5t-249 -101.5q-151 -2 -250 101.5t-97 265.5q0 163 97.5 265.5t249.5 102.5q150 2 249 -102t97 -266zM638 349q0 123 -62.5 192.5t-170.5 69.5t-170.5 -69.5t-62.5 -192.5t62.5 -192t170.5 -69t170.5 69t62.5 192zM547 776h-285v73h285v-73z
" />
    <glyph glyph-name="omacron" unicode="&#x14d;" horiz-adv-x="596" 
d="M548 254q0 -121 -67 -193t-183 -72t-183 72t-67 193q0 120 68 193t182 73t182 -73t68 -193zM154 254q0 -79 38.5 -124t107.5 -45q68 0 105 45t37 124t-38.5 124.5t-106.5 45.5t-105.5 -45.5t-37.5 -124.5zM441 607h-285v73h285v-73z" />
    <glyph glyph-name="Obreve" unicode="&#x14e;" horiz-adv-x="809" 
d="M751 349q2 -162 -97 -265.5t-249 -101.5q-151 -2 -250 101.5t-97 265.5q0 163 97.5 265.5t249.5 102.5q150 2 249 -102t97 -266zM638 349q0 123 -62.5 192.5t-170.5 69.5t-170.5 -69.5t-62.5 -192.5t62.5 -192t170.5 -69t170.5 69t62.5 192zM523 887q0 -50 -32.5 -80.5
t-86.5 -30.5q-53 0 -85.5 30.5t-32.5 80.5q0 25 6 40h57q-3 -13 -3 -29q0 -29 15.5 -46.5t42.5 -17.5q28 0 43.5 17.5t15.5 46.5q0 16 -3 29h57q6 -15 6 -40z" />
    <glyph glyph-name="obreve" unicode="&#x14f;" horiz-adv-x="596" 
d="M548 254q0 -121 -67 -193t-183 -72t-183 72t-67 193q0 120 68 193t182 73t182 -73t68 -193zM154 254q0 -79 38.5 -124t107.5 -45q68 0 105 45t37 124t-38.5 124.5t-106.5 45.5t-105.5 -45.5t-37.5 -124.5zM417 718q0 -50 -32.5 -80.5t-86.5 -30.5q-53 0 -85.5 30.5
t-32.5 80.5q0 24 6 41h57q-3 -15 -3 -30q0 -29 15.5 -46.5t42.5 -17.5q28 0 43.5 17.5t15.5 46.5q0 15 -3 30h57q6 -17 6 -41z" />
    <glyph glyph-name="Ohungarumlaut" unicode="&#x150;" horiz-adv-x="809" 
d="M751 349q2 -162 -97 -265.5t-249 -101.5q-151 -2 -250 101.5t-97 265.5q0 163 97.5 265.5t249.5 102.5q150 2 249 -102t97 -266zM638 349q0 123 -62.5 192.5t-170.5 69.5t-170.5 -69.5t-62.5 -192.5t62.5 -192t170.5 -69t170.5 69t62.5 192zM431 926l-52 -150h-63l40 150
h75zM552 926l-51 -150h-64l40 150h75z" />
    <glyph glyph-name="ohungarumlaut" unicode="&#x151;" horiz-adv-x="596" 
d="M548 254q0 -121 -67 -193t-183 -72t-183 72t-67 193q0 120 68 193t182 73t182 -73t68 -193zM154 254q0 -79 38.5 -124t107.5 -45q68 0 105 45t37 124t-38.5 124.5t-106.5 45.5t-105.5 -45.5t-37.5 -124.5zM327 757l-52 -150h-63l40 150h75zM448 757l-51 -150h-64l40 150
h75z" />
    <glyph glyph-name="OE" unicode="&#x152;" horiz-adv-x="1115" 
d="M1067 104v-104h-546q-53 -18 -114 -18q-149 -2 -250 105t-99 264q-2 156 98 262t249 104q57 0 111 -17h532v-103h-380q66 -81 79 -191h273v-104h-271q-12 -116 -79 -198h397zM638 351q0 117 -63 188.5t-168 71.5q-106 0 -171 -73.5t-65 -189.5q0 -117 64 -188.5
t170 -71.5q105 0 169 72.5t64 190.5z" />
    <glyph glyph-name="oe" unicode="&#x153;" horiz-adv-x="963" 
d="M915 269v-44h-372q0 -69 40 -108.5t109 -39.5q95 0 125 73h93q-19 -73 -79.5 -117t-146.5 -44q-127 0 -189 93q-64 -93 -197 -93q-116 0 -183 72t-67 193q0 120 68 193t182 73q133 0 199 -97q63 97 191 97q103 0 165 -68.5t62 -182.5zM544 302h270q0 60 -34 95t-94 35
t-98.5 -35t-43.5 -95zM442 254q0 79 -38.5 124.5t-106.5 45.5t-105.5 -45.5t-37.5 -124.5t38.5 -124t107.5 -45q68 0 105 45t37 124z" />
    <glyph glyph-name="Racute" unicode="&#x154;" horiz-adv-x="678" 
d="M650 0h-128l-180 288h-139v-288h-110v700h281q102 0 165 -55.5t63 -143.5q0 -69 -40 -122t-106 -70zM491 497q0 46 -30 73t-81 27h-177v-209h166q55 0 88.5 30.5t33.5 78.5zM356 776h-81l112 174l80 -61z" />
    <glyph glyph-name="racute" unicode="&#x155;" horiz-adv-x="384" 
d="M359 515v-102h-20q-150 0 -150 -159v-254h-106v510h105v-81q39 86 142 86h29zM250 607h-82l129 200l80 -61z" />
    <glyph glyph-name="uni0156" unicode="&#x156;" horiz-adv-x="678" 
d="M650 0h-128l-180 288h-139v-288h-110v700h281q102 0 165 -55.5t63 -143.5q0 -69 -40 -122t-106 -70zM491 497q0 46 -30 73t-81 27h-177v-209h166q55 0 88.5 30.5t33.5 78.5zM336 -188h-59v112h125v-105q0 -75 -39 -117.5t-120 -56.5l-12 56q56 12 80 37t25 74z" />
    <glyph glyph-name="uni0157" unicode="&#x157;" horiz-adv-x="384" 
d="M359 515v-102h-20q-150 0 -150 -159v-254h-106v510h105v-81q39 86 142 86h29zM130 -188h-59v112h125v-105q0 -75 -39 -117.5t-120 -56.5l-12 56q56 12 80 37t25 74z" />
    <glyph glyph-name="Rcaron" unicode="&#x158;" horiz-adv-x="678" 
d="M650 0h-128l-180 288h-139v-288h-110v700h281q102 0 165 -55.5t63 -143.5q0 -69 -40 -122t-106 -70zM491 497q0 46 -30 73t-81 27h-177v-209h166q55 0 88.5 30.5t33.5 78.5zM391 941h95l-132 -166h-58l-132 166h95l65 -82z" />
    <glyph glyph-name="rcaron" unicode="&#x159;" horiz-adv-x="384" 
d="M359 515v-102h-20q-150 0 -150 -159v-254h-106v510h105v-81q39 86 142 86h29zM147 773l67 -82l65 82h95l-132 -166h-58l-132 166h95z" />
    <glyph glyph-name="Sacute" unicode="&#x15a;" horiz-adv-x="646" 
d="M340 -18q-126 0 -206.5 69t-80.5 181h111q5 -73 53 -115t126 -42q65 0 102 28.5t37 77.5q0 35 -20 57q-19 20 -46.5 31t-82.5 24l-27 7q-76 19 -118 37q-115 49 -115 171q0 95 68 151.5t181 56.5q114 0 187 -57t73 -150h-114q-3 54 -42 82.5t-108 28.5q-64 0 -100.5 -27
t-36.5 -75q0 -51 38.5 -76.5t122.5 -44.5q77 -16 124 -33t87 -58q40 -40 40 -115q0 -94 -69.5 -151.5t-183.5 -57.5zM357 776h-81l112 174l80 -61z" />
    <glyph glyph-name="sacute" unicode="&#x15b;" horiz-adv-x="527" 
d="M484 155q0 -76 -58 -121t-157 -45q-100 0 -160.5 45.5t-65.5 126.5h106q5 -43 38 -66t88 -23q50 0 78 18.5t28 51.5q0 28 -21.5 39.5t-86.5 23.5q-70 13 -113 24q-100 31 -100 129q0 75 54 118.5t147 43.5t148.5 -44.5t61.5 -122.5h-101q-11 83 -107 83q-46 0 -74 -20
t-28 -53q4 -33 27 -45t95 -23q76 -13 108 -22q41 -11 67 -40.5t26 -77.5zM294 607h-82l129 200l80 -61z" />
    <glyph glyph-name="Scircumflex" unicode="&#x15c;" horiz-adv-x="646" 
d="M340 -18q-126 0 -206.5 69t-80.5 181h111q5 -73 53 -115t126 -42q65 0 102 28.5t37 77.5q0 35 -20 57q-19 20 -46.5 31t-82.5 24l-27 7q-76 19 -118 37q-115 49 -115 171q0 95 68 151.5t181 56.5q114 0 187 -57t73 -150h-114q-3 54 -42 82.5t-108 28.5q-64 0 -100.5 -27
t-36.5 -75q0 -51 38.5 -76.5t122.5 -44.5q77 -16 124 -33t87 -58q40 -40 40 -115q0 -94 -69.5 -151.5t-183.5 -57.5zM389 776l-67 82l-65 -82h-95l132 166h58l132 -166h-95z" />
    <glyph glyph-name="scircumflex" unicode="&#x15d;" horiz-adv-x="527" 
d="M484 155q0 -76 -58 -121t-157 -45q-100 0 -160.5 45.5t-65.5 126.5h106q5 -43 38 -66t88 -23q50 0 78 18.5t28 51.5q0 28 -21.5 39.5t-86.5 23.5q-70 13 -113 24q-100 31 -100 129q0 75 54 118.5t147 43.5t148.5 -44.5t61.5 -122.5h-101q-11 83 -107 83q-46 0 -74 -20
t-28 -53q4 -33 27 -45t95 -23q76 -13 108 -22q41 -11 67 -40.5t26 -77.5zM334 607l-67 82l-65 -82h-95l132 166h58l132 -166h-95z" />
    <glyph glyph-name="Scedilla" unicode="&#x15e;" horiz-adv-x="646" 
d="M359 -18v-28q46 -2 74 -23t28 -54q0 -37 -28 -61t-72 -24q-63 0 -106 37l30 46q36 -30 72 -30q21 0 32.5 9.5t11.5 24.5q0 36 -91 36v68q-115 8 -186 76t-71 173h111q5 -73 53 -115t126 -42q65 0 102 28.5t37 77.5q0 35 -20 57q-19 20 -46.5 31t-82.5 24l-27 7
q-76 19 -118 37q-115 49 -115 171q0 95 68 151.5t181 56.5q114 0 187 -57t73 -150h-114q-3 54 -42 82.5t-108 28.5q-64 0 -100.5 -27t-36.5 -75q0 -51 38.5 -76.5t122.5 -44.5q77 -16 124 -33t87 -58q40 -40 40 -115q0 -91 -64 -148t-170 -61z" />
    <glyph glyph-name="scedilla" unicode="&#x15f;" horiz-adv-x="527" 
d="M289 -10v-36q46 -2 74 -23t28 -54q0 -37 -28 -61t-72 -24q-63 0 -106 37l30 46q36 -30 72 -30q21 0 32.5 9.5t11.5 24.5q0 36 -91 36v75q-88 7 -140.5 52t-56.5 119h106q5 -43 38 -66t88 -23q50 0 78 18.5t28 51.5q0 28 -21.5 39.5t-86.5 23.5q-70 13 -113 24
q-100 31 -100 129q0 75 54 118.5t147 43.5t148.5 -44.5t61.5 -122.5h-101q-11 83 -107 83q-46 0 -74 -20t-28 -53q4 -33 27 -45t95 -23q76 -13 108 -22q41 -11 67 -40.5t26 -77.5q0 -72 -52.5 -116t-142.5 -49z" />
    <glyph glyph-name="Scaron" unicode="&#x160;" horiz-adv-x="646" 
d="M340 -18q-126 0 -206.5 69t-80.5 181h111q5 -73 53 -115t126 -42q65 0 102 28.5t37 77.5q0 35 -20 57q-19 20 -46.5 31t-82.5 24l-27 7q-76 19 -118 37q-115 49 -115 171q0 95 68 151.5t181 56.5q114 0 187 -57t73 -150h-114q-3 54 -42 82.5t-108 28.5q-64 0 -100.5 -27
t-36.5 -75q0 -51 38.5 -76.5t122.5 -44.5q77 -16 124 -33t87 -58q40 -40 40 -115q0 -94 -69.5 -151.5t-183.5 -57.5zM388 941h95l-132 -166h-58l-132 166h95l65 -82z" />
    <glyph glyph-name="scaron" unicode="&#x161;" horiz-adv-x="527" 
d="M484 155q0 -76 -58 -121t-157 -45q-100 0 -160.5 45.5t-65.5 126.5h106q5 -43 38 -66t88 -23q50 0 78 18.5t28 51.5q0 28 -21.5 39.5t-86.5 23.5q-70 13 -113 24q-100 31 -100 129q0 75 54 118.5t147 43.5t148.5 -44.5t61.5 -122.5h-101q-11 83 -107 83q-46 0 -74 -20
t-28 -53q4 -33 27 -45t95 -23q76 -13 108 -22q41 -11 67 -40.5t26 -77.5zM189 773l67 -82l65 82h95l-132 -166h-58l-132 166h95z" />
    <glyph glyph-name="uni0162" unicode="&#x162;" horiz-adv-x="618" 
d="M363 0h-62v-46q46 -2 74 -23t28 -54q0 -37 -28 -61t-72 -24q-63 0 -106 37l30 46q36 -30 72 -30q21 0 32.5 9.5t11.5 24.5q0 36 -91 36v682h-234v103h582v-103h-237v-597z" />
    <glyph glyph-name="uni0163" unicode="&#x163;" horiz-adv-x="376" 
d="M342 -113q0 -37 -28 -61t-72 -24q-63 0 -106 37l30 46q36 -30 72 -30q21 0 32.5 9.5t11.5 24.5q0 36 -91 36v85q-76 24 -76 150v258h-97v92h97v123l106 28v-151h105v-92h-105v-262q0 -65 66 -65h51v-91h-71q-22 0 -27 1v-37q46 -2 74 -23t28 -54z" />
    <glyph glyph-name="Tcaron" unicode="&#x164;" horiz-adv-x="618" 
d="M600 700v-103h-237v-597h-111v597h-234v103h582zM375 941h95l-132 -166h-58l-132 166h95l65 -82z" />
    <glyph glyph-name="tcaron" unicode="&#x165;" horiz-adv-x="590" 
d="M338 91v-91h-71q-84 0 -118 35.5t-34 124.5v258h-97v92h97v123l106 28v-151h105v-92h-105v-262q0 -65 66 -65h51zM491 588h-59v112h125v-105q0 -75 -39 -117.5t-120 -56.5l-12 56q56 12 80 37t25 74z" />
    <glyph glyph-name="Tbar" unicode="&#x166;" horiz-adv-x="618" 
d="M600 597h-237v-148h163v-50h-163v-399h-111v399h-159v50h159v148h-234v103h582v-103z" />
    <glyph glyph-name="tbar" unicode="&#x167;" horiz-adv-x="376" 
d="M287 91h51v-91h-71q-84 0 -118 35.5t-34 124.5v76h-97v92h97v90h-97v92h97v123l106 28v-151h105v-92h-105v-90h105v-92h-105v-80q0 -65 66 -65z" />
    <glyph glyph-name="Utilde" unicode="&#x168;" horiz-adv-x="727" 
d="M535 700h109v-436q0 -135 -72.5 -208.5t-206.5 -73.5t-208 73.5t-74 208.5v436h111v-438q0 -86 45.5 -130.5t129.5 -44.5q81 0 123.5 41t42.5 121v451zM423 776q-25 0 -74 33q-32 26 -52 26q-32 0 -35 -53h-59q2 59 27.5 94.5t65.5 35.5q30 0 76 -34q35 -25 50 -25
q28 0 34 56h60q-2 -60 -27.5 -96.5t-65.5 -36.5z" />
    <glyph glyph-name="utilde" unicode="&#x169;" horiz-adv-x="595" 
d="M407 510h105v-510h-102v86q-42 -92 -146 -92q-85 0 -135.5 53t-50.5 143v320h105v-310q0 -56 26.5 -85.5t75.5 -29.5q60 0 91 46.5t31 131.5v247zM363 607q-25 0 -74 33q-32 26 -52 26q-32 0 -35 -53h-59q2 59 27.5 95t65.5 36q32 0 76 -35q35 -25 50 -25q28 0 34 56h60
q-2 -60 -27.5 -96.5t-65.5 -36.5z" />
    <glyph glyph-name="Umacron" unicode="&#x16a;" horiz-adv-x="727" 
d="M535 700h109v-436q0 -135 -72.5 -208.5t-206.5 -73.5t-208 73.5t-74 208.5v436h111v-438q0 -86 45.5 -130.5t129.5 -44.5q81 0 123.5 41t42.5 121v451zM506 776h-285v73h285v-73z" />
    <glyph glyph-name="umacron" unicode="&#x16b;" horiz-adv-x="595" 
d="M407 510h105v-510h-102v86q-42 -92 -146 -92q-85 0 -135.5 53t-50.5 143v320h105v-310q0 -56 26.5 -85.5t75.5 -29.5q60 0 91 46.5t31 131.5v247zM442 607h-285v73h285v-73z" />
    <glyph glyph-name="Ubreve" unicode="&#x16c;" horiz-adv-x="727" 
d="M535 700h109v-436q0 -135 -72.5 -208.5t-206.5 -73.5t-208 73.5t-74 208.5v436h111v-438q0 -86 45.5 -130.5t129.5 -44.5q81 0 123.5 41t42.5 121v451zM482 887q0 -50 -32.5 -80.5t-86.5 -30.5q-53 0 -85.5 30.5t-32.5 80.5q0 25 6 40h57q-3 -13 -3 -29q0 -29 15.5 -46.5
t42.5 -17.5q28 0 43.5 17.5t15.5 46.5q0 16 -3 29h57q6 -15 6 -40z" />
    <glyph glyph-name="ubreve" unicode="&#x16d;" horiz-adv-x="595" 
d="M407 510h105v-510h-102v86q-42 -92 -146 -92q-85 0 -135.5 53t-50.5 143v320h105v-310q0 -56 26.5 -85.5t75.5 -29.5q60 0 91 46.5t31 131.5v247zM412 718q0 -50 -32.5 -80.5t-86.5 -30.5q-53 0 -85.5 30.5t-32.5 80.5q0 24 6 41h57q-3 -15 -3 -30q0 -29 15.5 -46.5
t42.5 -17.5q28 0 43.5 17.5t15.5 46.5q0 15 -3 30h57q6 -17 6 -41z" />
    <glyph glyph-name="Uring" unicode="&#x16e;" horiz-adv-x="727" 
d="M535 700h109v-436q0 -135 -72.5 -208.5t-206.5 -73.5t-208 73.5t-74 208.5v436h111v-438q0 -86 45.5 -130.5t129.5 -44.5q81 0 123.5 41t42.5 121v451zM363 950q45 0 74.5 -29t29.5 -74q0 -46 -29.5 -75t-74.5 -29q-44 0 -73 29.5t-29 74.5t29 74t73 29zM364 900
q-23 0 -37 -15t-14 -38q0 -24 13.5 -39t37.5 -15q23 0 37 15t14 39q0 23 -14 38t-37 15z" />
    <glyph glyph-name="uring" unicode="&#x16f;" horiz-adv-x="595" 
d="M407 510h105v-510h-102v86q-42 -92 -146 -92q-85 0 -135.5 53t-50.5 143v320h105v-310q0 -56 26.5 -85.5t75.5 -29.5q60 0 91 46.5t31 131.5v247zM292 815q45 0 74.5 -29t29.5 -75t-29.5 -75t-74.5 -29q-44 0 -73 29.5t-29 74.5q0 46 29 75t73 29zM293 764q-23 0 -37 -15
t-14 -38q0 -24 13.5 -39t37.5 -15q23 0 37 15t14 39q0 23 -14 38t-37 15z" />
    <glyph glyph-name="Uhungarumlaut" unicode="&#x170;" horiz-adv-x="727" 
d="M535 700h109v-436q0 -135 -72.5 -208.5t-206.5 -73.5t-208 73.5t-74 208.5v436h111v-438q0 -86 45.5 -130.5t129.5 -44.5q81 0 123.5 41t42.5 121v451zM369 926l-52 -150h-63l40 150h75zM490 926l-51 -150h-64l40 150h75z" />
    <glyph glyph-name="uhungarumlaut" unicode="&#x171;" horiz-adv-x="595" 
d="M407 510h105v-510h-102v86q-42 -92 -146 -92q-85 0 -135.5 53t-50.5 143v320h105v-310q0 -56 26.5 -85.5t75.5 -29.5q60 0 91 46.5t31 131.5v247zM319 757l-52 -150h-63l40 150h75zM440 757l-51 -150h-64l40 150h75z" />
    <glyph glyph-name="Uogonek" unicode="&#x172;" horiz-adv-x="727" 
d="M535 700h109v-436q0 -132 -70 -205.5t-199 -76.5q-7 -13 -7 -29q0 -26 21.5 -41.5t54.5 -17.5v-58q-56 5 -94 35.5t-38 71.5q0 25 12 41q-116 11 -178.5 83.5t-62.5 196.5v436h111v-438q0 -86 45.5 -130.5t129.5 -44.5q81 0 123.5 41t42.5 121v451z" />
    <glyph glyph-name="uogonek" unicode="&#x173;" horiz-adv-x="595" 
d="M434 -47q0 -26 21.5 -41.5t54.5 -17.5v-58q-56 5 -94 35.5t-38 71.5q0 39 32 62v81q-42 -92 -146 -92q-85 0 -135.5 53t-50.5 143v320h105v-310q0 -56 26.5 -85.5t75.5 -29.5q60 0 91 46.5t31 131.5v247h105v-510h-56q-22 -22 -22 -47z" />
    <glyph glyph-name="Wcircumflex" unicode="&#x174;" horiz-adv-x="1009" 
d="M976 700l-190 -700h-116l-165 558l-167 -558h-115l-190 700h118l134 -549l164 549h115l164 -550l134 550h114zM571 776l-67 82l-65 -82h-95l132 166h58l132 -166h-95z" />
    <glyph glyph-name="wcircumflex" unicode="&#x175;" horiz-adv-x="852" 
d="M829 510l-175 -510h-106l-122 369l-122 -369h-106l-175 510h112l119 -384l121 384h107l122 -384l118 384h107zM492 607l-67 82l-65 -82h-95l132 166h58l132 -166h-95z" />
    <glyph glyph-name="Ycircumflex" unicode="&#x176;" horiz-adv-x="671" 
d="M519 700h124l-252 -434v-266h-111v266l-252 434h127l182 -335zM402 776l-67 82l-65 -82h-95l132 166h58l132 -166h-95z" />
    <glyph glyph-name="ycircumflex" unicode="&#x177;" horiz-adv-x="531" 
d="M406 510h107l-214 -561q-43 -113 -189 -113h-41v90h36q40 0 69 16.5t40 47.5l4 12l-200 508h111l139 -383zM331 607l-67 82l-65 -82h-95l132 166h58l132 -166h-95z" />
    <glyph glyph-name="Ydieresis" unicode="&#x178;" horiz-adv-x="671" 
d="M643 700h-124l-182 -335l-182 335h-127l252 -434v-266h111v266zM286 884v-108h-96v108h96zM481 884v-108h-96v108h96z" />
    <glyph glyph-name="Zacute" unicode="&#x179;" horiz-adv-x="664" 
d="M616 104v-104h-558v110l403 487h-390v103h524v-109l-402 -487h423zM365 776h-81l112 174l80 -61z" />
    <glyph glyph-name="zacute" unicode="&#x17a;" horiz-adv-x="532" 
d="M478 89v-89h-425v96l297 326h-293v88h422v-96l-299 -325h298zM295 607h-82l129 200l80 -61z" />
    <glyph glyph-name="Zdotaccent" unicode="&#x17b;" horiz-adv-x="664" 
d="M616 104v-104h-558v110l403 487h-390v103h524v-109l-402 -487h423zM275 776v125h121v-125h-121z" />
    <glyph glyph-name="zdotaccent" unicode="&#x17c;" horiz-adv-x="532" 
d="M478 89v-89h-425v96l297 326h-293v88h422v-96l-299 -325h298zM214 607v129h125v-129h-125z" />
    <glyph glyph-name="Zcaron" unicode="&#x17d;" horiz-adv-x="664" 
d="M616 104v-104h-558v110l403 487h-390v103h524v-109l-402 -487h423zM392 941h95l-132 -166h-58l-132 166h95l65 -82z" />
    <glyph glyph-name="zcaron" unicode="&#x17e;" horiz-adv-x="532" 
d="M478 89v-89h-425v96l297 326h-293v88h422v-96l-299 -325h298zM222 773l67 -82l65 82h95l-132 -166h-58l-132 166h95z" />
    <glyph glyph-name="longs" unicode="&#x17f;" horiz-adv-x="351" 
d="M328 620h-48q-34 0 -48.5 -14.5t-14.5 -48.5v-557h-105v418h-79v92h79v40q0 89 34 125t117 36h65v-91z" />
    <glyph glyph-name="florin" unicode="&#x192;" horiz-adv-x="528" 
d="M357 557l-10 -47h99l-21 -92h-99l-68 -289q-17 -70 -55 -99.5t-101 -29.5h-69l22 91h35q32 0 47 14t22 46l60 267h-78l21 92h79l17 74q15 67 54 97t105 30h88l-22 -91h-54q-33 0 -49 -14.5t-23 -48.5z" />
    <glyph glyph-name="Aringacute" unicode="&#x1fa;" horiz-adv-x="747" 
d="M410 961h-65l90 139l64 -49zM373 931q43 0 71 -27.5t28 -70.5t-28 -71t-71 -28q-42 0 -69.5 28t-27.5 71t27.5 70.5t69.5 27.5zM374 883q-23 0 -36 -14t-13 -36q0 -24 13 -38t36 -14q22 0 35 14.5t13 37.5q0 21 -13.5 35.5t-34.5 14.5zM593 0l-63 169h-316l-63 -169h-118
l273 700h135l273 -700h-121zM253 272h238l-119 320z" />
    <glyph glyph-name="aringacute" unicode="&#x1fb;" horiz-adv-x="555" 
d="M332 786h-73l101 157l72 -55zM292 743q41 0 67 -26t26 -67t-26 -67t-67 -26q-39 0 -65.5 26t-26.5 67t26.5 67t65.5 26zM293 698q-21 0 -33.5 -13.5t-12.5 -34.5t12.5 -34.5t33.5 -13.5t33.5 13.5t12.5 34.5t-12.5 34.5t-33.5 13.5zM482 355v-355h-101v77
q-56 -88 -167 -88q-77 0 -121.5 41.5t-44.5 111.5q0 77 46 108q48 33 113 43l109 17q30 4 47 17.5t17 43.5q0 64 -94 64q-107 0 -124 -86h-100q9 79 70 125t159 46q92 0 141.5 -41.5t49.5 -123.5zM377 216v37q-28 -9 -71 -16l-58 -9q-38 -6 -67 -22q-29 -17 -29 -59
q0 -33 22.5 -51t63.5 -18q61 0 100 38t39 100z" />
    <glyph glyph-name="AEacute" unicode="&#x1fc;" horiz-adv-x="1035" 
d="M617 104h370v-104h-481v177h-256l-90 -177h-127l365 700h570v-103h-351v-191h324v-104h-324v-198zM303 281h203v297h-51zM601 776h-81l112 174l80 -61z" />
    <glyph glyph-name="aeacute" unicode="&#x1fd;" horiz-adv-x="901" 
d="M848 269v-44h-372q0 -69 40 -108.5t109 -39.5q95 0 125 73h93q-19 -73 -79.5 -117t-146.5 -44q-141 0 -197 117q-63 -117 -206 -117q-77 0 -121.5 41.5t-44.5 111.5q0 77 46 108q48 33 113 43l109 17q30 4 47 17.5t17 43.5q0 64 -92 64q-107 0 -124 -86h-100q9 79 70 125
t159 46q122 0 159 -73q61 73 169 73q103 0 165 -68.5t62 -182.5zM477 302h270q0 60 -34 95t-94 35t-98.5 -35t-43.5 -95zM377 216v37q-28 -9 -71 -16l-58 -9q-38 -6 -67 -22q-29 -17 -29 -59q0 -33 22.5 -51t63.5 -18q61 0 100 38t39 100zM492 607h-82l129 200l80 -61z" />
    <glyph glyph-name="Oslashacute" unicode="&#x1fe;" horiz-adv-x="809" 
d="M751 349q2 -162 -97 -265.5t-249 -101.5q-107 0 -189 51l-63 -87l-58 43l65 89q-102 102 -102 271q0 163 97.5 265.5t249.5 102.5q102 0 183 -48l62 86l58 -43l-63 -87q106 -101 106 -276zM225 168l300 414q-53 29 -120 29q-108 0 -170.5 -69.5t-62.5 -192.5
q0 -111 53 -181zM638 349q0 117 -58 187l-301 -416q53 -32 126 -32q108 0 170.5 69t62.5 192zM451 776h-81l112 174l80 -61z" />
    <glyph glyph-name="oslashacute" unicode="&#x1ff;" horiz-adv-x="596" 
d="M548 254q0 -121 -67 -193t-183 -72q-71 0 -128 30l-59 -81l-58 43l60 83q-65 71 -65 190q0 120 68 193t182 73q72 0 125 -29l54 74l58 -42l-55 -76q68 -73 68 -193zM177 152l187 258q-31 14 -67 14q-68 0 -105.5 -45.5t-37.5 -124.5q0 -61 23 -102zM442 254q0 63 -25 106
l-188 -259q28 -16 71 -16q68 0 105 45t37 124zM322 607h-82l129 200l80 -61z" />
    <glyph glyph-name="uni0218" unicode="&#x218;" horiz-adv-x="646" 
d="M340 -18q-126 0 -206.5 69t-80.5 181h111q5 -73 53 -115t126 -42q65 0 102 28.5t37 77.5q0 35 -20 57q-19 20 -46.5 31t-82.5 24l-27 7q-76 19 -118 37q-115 49 -115 171q0 95 68 151.5t181 56.5q114 0 187 -57t73 -150h-114q-3 54 -42 82.5t-108 28.5q-64 0 -100.5 -27
t-36.5 -75q0 -51 38.5 -76.5t122.5 -44.5q77 -16 124 -33t87 -58q40 -40 40 -115q0 -94 -69.5 -151.5t-183.5 -57.5zM333 -198h-59v112h125v-105q0 -75 -39 -117.5t-120 -56.5l-12 56q56 12 80 37t25 74z" />
    <glyph glyph-name="uni0219" unicode="&#x219;" horiz-adv-x="527" 
d="M484 155q0 -76 -58 -121t-157 -45q-100 0 -160.5 45.5t-65.5 126.5h106q5 -43 38 -66t88 -23q50 0 78 18.5t28 51.5q0 28 -21.5 39.5t-86.5 23.5q-70 13 -113 24q-100 31 -100 129q0 75 54 118.5t147 43.5t148.5 -44.5t61.5 -122.5h-101q-11 83 -107 83q-46 0 -74 -20
t-28 -53q4 -33 27 -45t95 -23q76 -13 108 -22q41 -11 67 -40.5t26 -77.5zM263 -180h-59v112h125v-105q0 -75 -39 -117.5t-120 -56.5l-12 56q56 12 80 37t25 74z" />
    <glyph glyph-name="uni021A" unicode="&#x21a;" horiz-adv-x="618" 
d="M600 700v-103h-237v-597h-111v597h-234v103h582zM298 -188h-59v112h125v-105q0 -75 -39 -117.5t-120 -56.5l-12 56q56 12 80 37t25 74z" />
    <glyph glyph-name="uni021B" unicode="&#x21b;" horiz-adv-x="376" 
d="M338 91v-91h-71q-84 0 -118 35.5t-34 124.5v258h-97v92h97v123l106 28v-151h105v-92h-105v-262q0 -65 66 -65h51zM238 -180h-59v112h125v-105q0 -75 -39 -117.5t-120 -56.5l-12 56q56 12 80 37t25 74z" />
    <glyph glyph-name="circumflex" unicode="&#x2c6;" horiz-adv-x="322" 
d="M227 607l-67 82l-65 -82h-95l132 166h58l132 -166h-95z" />
    <glyph glyph-name="caron" unicode="&#x2c7;" horiz-adv-x="322" 
d="M95 773l67 -82l65 82h95l-132 -166h-58l-132 166h95z" />
    <glyph glyph-name="uni02C9" unicode="&#x2c9;" horiz-adv-x="294" 
d="M294 775h-294v75h294v-75z" />
    <glyph glyph-name="breve" unicode="&#x2d8;" horiz-adv-x="237" 
d="M237 718q0 -50 -32.5 -80.5t-86.5 -30.5q-53 0 -85.5 30.5t-32.5 80.5q0 24 6 41h57q-3 -15 -3 -30q0 -29 15.5 -46.5t42.5 -17.5q28 0 43.5 17.5t15.5 46.5q0 15 -3 30h57q6 -17 6 -41z" />
    <glyph glyph-name="dotaccent" unicode="&#x2d9;" horiz-adv-x="125" 
d="M0 607v129h125v-129h-125z" />
    <glyph glyph-name="ring" unicode="&#x2da;" horiz-adv-x="206" 
d="M102 815q45 0 74.5 -29t29.5 -75t-29.5 -75t-74.5 -29q-44 0 -73 29.5t-29 74.5q0 46 29 75t73 29zM103 764q-23 0 -37 -15t-14 -38q0 -24 13.5 -39t37.5 -15q23 0 37 15t14 39q0 23 -14 38t-37 15z" />
    <glyph glyph-name="ogonek" unicode="&#x2db;" horiz-adv-x="132" 
d="M132 -106v-58q-56 5 -94 35.5t-38 71.5q0 42 35 64h52q-31 -23 -31 -54q0 -26 21.5 -41.5t54.5 -17.5z" />
    <glyph glyph-name="tilde" unicode="&#x2dc;" horiz-adv-x="313" 
d="M220 607q-25 0 -74 33q-32 26 -52 26q-32 0 -35 -53h-59q2 59 27.5 95t65.5 36q32 0 76 -35q35 -25 50 -25q28 0 34 56h60q-2 -60 -27.5 -96.5t-65.5 -36.5z" />
    <glyph glyph-name="hungarumlaut" unicode="&#x2dd;" horiz-adv-x="236" 
d="M115 757l-52 -150h-63l40 150h75zM236 757l-51 -150h-64l40 150h75z" />
    <glyph glyph-name="uni0394" unicode="&#x394;" horiz-adv-x="723" 
d="M690 112v-112h-657v112l269 588h119zM140 104h442l-221 487z" />
    <glyph glyph-name="uni0394" unicode="&#x3b4;" horiz-adv-x="723" 
d="M690 112v-112h-657v112l269 588h119zM140 104h442l-221 487z" />
    <glyph glyph-name="uni03A9" unicode="&#x3a9;" horiz-adv-x="797" 
d="M517 94h146v-94h-225v219q88 19 136.5 71t48.5 134q0 90 -62.5 146.5t-161.5 56.5t-162 -56.5t-63 -146.5q0 -82 48.5 -134t136.5 -71v-219h-225v94h146v55q-104 21 -163 95q-59 76 -59 178q0 134 93 214.5t248 80.5q154 0 247 -80.5t93 -214.5q0 -102 -59 -178
q-59 -74 -163 -95v-55z" />
    <glyph glyph-name="uni03A9" unicode="&#x3c9;" horiz-adv-x="797" 
d="M517 94h146v-94h-225v219q88 19 136.5 71t48.5 134q0 90 -62.5 146.5t-161.5 56.5t-162 -56.5t-63 -146.5q0 -82 48.5 -134t136.5 -71v-219h-225v94h146v55q-104 21 -163 95q-59 76 -59 178q0 134 93 214.5t248 80.5q154 0 247 -80.5t93 -214.5q0 -102 -59 -178
q-59 -74 -163 -95v-55z" />
    <glyph glyph-name="uni03BC" unicode="&#x3bc;" horiz-adv-x="632" 
d="M579 88v-88h-48q-39 0 -65.5 25t-26.5 61q-41 -92 -154 -92q-48 0 -97 27v-213h-105v702h105v-305q0 -59 26.5 -89.5t75.5 -30.5q60 0 90 45t30 122v258h104v-367q0 -55 49 -55h16z" />
    <glyph glyph-name="pi" unicode="&#x3c0;" horiz-adv-x="596" 
d="M451 429v-262q0 -51 15 -68t64 -17h34v-82h-76q-58 0 -100 36q-41 38 -41 127v266h-120v-429h-112v429h-102v81h388q114 0 182 30v-84q-54 -25 -132 -27z" />
    <glyph glyph-name="uni1E02" unicode="&#x1e02;" horiz-adv-x="683" 
d="M630 197q0 -85 -66 -141t-167 -56h-304v700h316q83 0 136 -47.5t53 -119.5q0 -50 -25.5 -92.5t-71.5 -65.5q61 -23 95 -70.5t34 -107.5zM203 597v-187h175q47 0 76.5 27.5t29.5 69.5q0 41 -27.5 65.5t-74.5 24.5h-179zM516 216q0 45 -33.5 73.5t-86.5 28.5h-193v-214h184
q58 0 93.5 31t35.5 81zM254 776v125h121v-125h-121z" />
    <glyph glyph-name="uni1E03" unicode="&#x1e03;" horiz-adv-x="630" 
d="M582 256q0 -121 -61.5 -194t-163.5 -73q-61 0 -105 25t-66 69v-83h-103v711h106v-289q22 47 67.5 72.5t105.5 25.5q100 0 160 -72.5t60 -191.5zM476 252q0 78 -39.5 125.5t-104.5 47.5t-106 -48t-41 -125t41 -125t106 -48t104.5 47.5t39.5 125.5zM309 607v129h125v-129
h-125z" />
    <glyph glyph-name="uni1E0A" unicode="&#x1e0a;" horiz-adv-x="735" 
d="M677 364q1 -70 -23 -135t-69 -117t-116.5 -82.5t-159.5 -29.5h-216v700h233q159 0 255 -92.5t96 -243.5zM565 364q0 106 -63.5 169.5t-170.5 63.5h-127v-493h106q113 0 184 73.5t71 186.5zM244 776v125h121v-125h-121z" />
    <glyph glyph-name="uni1E0B" unicode="&#x1e0b;" horiz-adv-x="630" 
d="M441 711h106v-711h-103v85q-57 -96 -175 -96q-99 0 -160 73.5t-61 193.5q0 117 65 190.5t165 73.5q114 0 163 -84v275zM445 256q0 77 -40 125t-106 48t-105.5 -47.5t-39.5 -124.5q0 -78 39.5 -126t105.5 -48t106 47.5t40 125.5zM185 607v129h125v-129h-125z" />
    <glyph glyph-name="uni1E1E" unicode="&#x1e1e;" horiz-adv-x="573" 
d="M204 302v-302h-111v700h462v-103h-351v-191h324v-104h-324zM282 776v125h121v-125h-121z" />
    <glyph glyph-name="uni1E1F" unicode="&#x1e1f;" horiz-adv-x="341" 
d="M328 620h-48q-34 0 -48.5 -14.5t-14.5 -48.5v-47h98v-92h-98v-418h-105v418h-79v92h79v40q0 89 34 125t117 36h65v-91zM147 776v125h121v-125h-121z" />
    <glyph glyph-name="uni1E40" unicode="&#x1e40;" horiz-adv-x="904" 
d="M811 700v-700h-104v556l-205 -556h-104l-204 556v-556h-101v700h151l208 -569l208 569h151zM392 776v125h121v-125h-121z" />
    <glyph glyph-name="uni1E41" unicode="&#x1e41;" horiz-adv-x="882" 
d="M804 350v-350h-105v325q0 104 -93 104q-109 0 -109 -139v-290h-106v325q0 104 -93 104q-53 0 -81 -36t-28 -102v-291h-106v510h105v-85q32 95 141 95q116 0 145 -104q41 104 157 104q81 0 127 -45t46 -125zM394 607v129h125v-129h-125z" />
    <glyph glyph-name="uni1E56" unicode="&#x1e56;" horiz-adv-x="649" 
d="M611 495q0 -96 -66.5 -157.5t-171.5 -61.5h-169v-276h-111v700h292q102 0 164 -56.5t62 -148.5zM499 489q0 49 -32 78.5t-85 29.5h-178v-218h173q56 0 89 29.5t33 80.5zM262 776v125h121v-125h-121z" />
    <glyph glyph-name="uni1E57" unicode="&#x1e57;" horiz-adv-x="630" 
d="M582 262q0 -119 -64 -192.5t-166 -73.5q-113 0 -163 81v-269h-106v702h103v-92q53 102 178 102q98 0 158 -71t60 -187zM476 257q0 76 -39.5 122t-105.5 46t-106 -46t-40 -122q0 -77 39.5 -123t106.5 -46q65 0 105 46.5t40 122.5zM292 607v129h125v-129h-125z" />
    <glyph glyph-name="uni1E60" unicode="&#x1e60;" horiz-adv-x="646" 
d="M340 -18q-126 0 -206.5 69t-80.5 181h111q5 -73 53 -115t126 -42q65 0 102 28.5t37 77.5q0 35 -20 57q-19 20 -46.5 31t-82.5 24l-27 7q-76 19 -118 37q-115 49 -115 171q0 95 68 151.5t181 56.5q114 0 187 -57t73 -150h-114q-3 54 -42 82.5t-108 28.5q-64 0 -100.5 -27
t-36.5 -75q0 -51 38.5 -76.5t122.5 -44.5q77 -16 124 -33t87 -58q40 -40 40 -115q0 -94 -69.5 -151.5t-183.5 -57.5zM267 776v125h121v-125h-121z" />
    <glyph glyph-name="uni1E61" unicode="&#x1e61;" horiz-adv-x="527" 
d="M484 155q0 -76 -58 -121t-157 -45q-100 0 -160.5 45.5t-65.5 126.5h106q5 -43 38 -66t88 -23q50 0 78 18.5t28 51.5q0 28 -21.5 39.5t-86.5 23.5q-70 13 -113 24q-100 31 -100 129q0 75 54 118.5t147 43.5t148.5 -44.5t61.5 -122.5h-101q-11 83 -107 83q-46 0 -74 -20
t-28 -53q4 -33 27 -45t95 -23q76 -13 108 -22q41 -11 67 -40.5t26 -77.5zM220 607v129h125v-129h-125z" />
    <glyph glyph-name="uni1E6A" unicode="&#x1e6a;" horiz-adv-x="618" 
d="M600 700v-103h-237v-597h-111v597h-234v103h582zM249 776v125h121v-125h-121z" />
    <glyph glyph-name="uni1E6B" unicode="&#x1e6b;" horiz-adv-x="376" 
d="M338 91v-91h-71q-84 0 -118 35.5t-34 124.5v258h-97v92h97v123l106 28v-151h105v-92h-105v-262q0 -65 66 -65h51zM114 700v125h121v-125h-121z" />
    <glyph glyph-name="Wgrave" unicode="&#x1e80;" horiz-adv-x="1009" 
d="M976 700l-190 -700h-116l-165 558l-167 -558h-115l-190 700h118l134 -549l164 549h115l164 -550l134 550h114zM461 776l-111 113l80 61l112 -174h-81z" />
    <glyph glyph-name="wgrave" unicode="&#x1e81;" horiz-adv-x="852" 
d="M829 510l-175 -510h-106l-122 369l-122 -369h-106l-175 510h112l119 -384l121 384h107l122 -384l118 384h107zM386 607l-127 139l80 61l129 -200h-82z" />
    <glyph glyph-name="Wacute" unicode="&#x1e82;" horiz-adv-x="1009" 
d="M976 700l-190 -700h-116l-165 558l-167 -558h-115l-190 700h118l134 -549l164 549h115l164 -550l134 550h114zM550 776h-81l112 174l80 -61z" />
    <glyph glyph-name="wacute" unicode="&#x1e83;" horiz-adv-x="852" 
d="M829 510l-175 -510h-106l-122 369l-122 -369h-106l-175 510h112l119 -384l121 384h107l122 -384l118 384h107zM467 607h-82l129 200l80 -61z" />
    <glyph glyph-name="Wdieresis" unicode="&#x1e84;" horiz-adv-x="1009" 
d="M786 0l190 700h-114l-134 -550l-164 550h-115l-164 -549l-134 549h-118l190 -700h115l167 558l165 -558h116zM455 884v-108h-96v108h96zM650 884v-108h-96v108h96z" />
    <glyph glyph-name="wdieresis" unicode="&#x1e85;" horiz-adv-x="852" 
d="M654 0l175 510h-107l-118 -384l-122 384h-107l-121 -384l-119 384h-112l175 -510h106l122 369l122 -369h106zM381 715v-108h-96v108h96zM567 715v-108h-96v108h96z" />
    <glyph glyph-name="Ygrave" unicode="&#x1ef2;" horiz-adv-x="671" 
d="M519 700h124l-252 -434v-266h-111v266l-252 434h127l182 -335zM293 776l-111 113l80 61l112 -174h-81z" />
    <glyph glyph-name="ygrave" unicode="&#x1ef3;" horiz-adv-x="531" 
d="M406 510h107l-214 -561q-43 -113 -189 -113h-41v90h36q40 0 69 16.5t40 47.5l4 12l-200 508h111l139 -383zM225 607l-127 139l80 61l129 -200h-82z" />
    <glyph glyph-name="endash" unicode="&#x2013;" horiz-adv-x="552" 
d="M509 232h-466v91h466v-91z" />
    <glyph glyph-name="emdash" unicode="&#x2014;" horiz-adv-x="1019" 
d="M976 232h-933v91h933v-91z" />
    <glyph glyph-name="quoteleft" unicode="&#x2018;" horiz-adv-x="237" 
d="M99 571h59v-112h-125v105q0 75 39 117.5t120 56.5l12 -56q-56 -12 -80 -37t-25 -74z" />
    <glyph glyph-name="quoteright" unicode="&#x2019;" horiz-adv-x="237" 
d="M138 608h-59v112h125v-105q0 -75 -39 -117.5t-120 -56.5l-12 56q56 12 80 37t25 74z" />
    <glyph glyph-name="quotesinglbase" unicode="&#x201a;" horiz-adv-x="237" 
d="M138 7h-59v112h125v-105q0 -75 -39 -117.5t-120 -56.5l-12 56q56 12 80 37t25 74z" />
    <glyph glyph-name="quotedblleft" unicode="&#x201c;" horiz-adv-x="471" 
d="M99 571h59v-112h-125v105q0 75 39 117.5t120 56.5l12 -56q-56 -12 -80 -37t-25 -74zM333 571h59v-112h-125v105q0 75 39 117.5t120 56.5l12 -56q-56 -12 -80 -37t-25 -74z" />
    <glyph glyph-name="quotedblright" unicode="&#x201d;" horiz-adv-x="470" 
d="M138 608h-59v112h125v-105q0 -75 -39 -117.5t-120 -56.5l-12 56q56 12 80 37t25 74zM371 608h-59v112h125v-105q0 -75 -39 -117.5t-120 -56.5l-12 56q56 12 80 37t25 74z" />
    <glyph glyph-name="quotedblbase" unicode="&#x201e;" horiz-adv-x="470" 
d="M138 7h-59v112h125v-105q0 -75 -39 -117.5t-120 -56.5l-12 56q56 12 80 37t25 74zM371 7h-59v112h125v-105q0 -75 -39 -117.5t-120 -56.5l-12 56q56 12 80 37t25 74z" />
    <glyph glyph-name="dagger" unicode="&#x2020;" horiz-adv-x="524" 
d="M212 401h-169v94h169v205h100v-205h169v-94h-169v-496h-100v496z" />
    <glyph glyph-name="daggerdbl" unicode="&#x2021;" horiz-adv-x="524" 
d="M481 401h-169v-197h169v-94h-169v-205h-100v205h-169v94h169v197h-169v94h169v205h100v-205h169v-94z" />
    <glyph glyph-name="bullet" unicode="&#x2022;" horiz-adv-x="281" 
d="M53 180v181h175v-181h-175z" />
    <glyph glyph-name="ellipsis" unicode="&#x2026;" horiz-adv-x="999" 
d="M119 0v125h121v-125h-121zM432 0v125h121v-125h-121zM746 0v125h121v-125h-121z" />
    <glyph glyph-name="perthousand" unicode="&#x2030;" horiz-adv-x="1269" 
d="M1050 326q76 0 126 -48.5t50 -124.5q0 -75 -50.5 -125t-125.5 -50q-73 0 -122.5 50t-49.5 125q0 76 49.5 124.5t122.5 48.5zM1052 250q-40 0 -65.5 -27t-25.5 -69q0 -43 25.5 -71t65.5 -28q39 0 64.5 28t25.5 71q0 42 -25.5 69t-64.5 27zM215 719q76 0 126 -48.5
t50 -124.5q0 -75 -50.5 -125t-125.5 -50q-73 0 -122.5 50t-49.5 125q0 76 49.5 124.5t122.5 48.5zM694 700l-423 -700h-97l423 700h97zM217 643q-40 0 -65.5 -27t-25.5 -69q0 -43 25.5 -71t65.5 -28q39 0 64.5 28t25.5 71q0 42 -25.5 69t-64.5 27zM666 326q76 0 126 -48.5
t50 -124.5q0 -75 -50.5 -125t-125.5 -50q-73 0 -122.5 50t-49.5 125q0 76 49.5 124.5t122.5 48.5zM668 250q-40 0 -65.5 -27t-25.5 -69q0 -43 25.5 -71t65.5 -28q39 0 64.5 28t25.5 71q0 42 -25.5 69t-64.5 27z" />
    <glyph glyph-name="guilsinglleft" unicode="&#x2039;" horiz-adv-x="370" 
d="M292 432l-134 -148l134 -149l-62 -58l-182 207l182 206z" />
    <glyph glyph-name="guilsinglright" unicode="&#x203a;" horiz-adv-x="370" 
d="M78 432l62 58l182 -206l-182 -207l-62 58l134 149z" />
    <glyph glyph-name="fraction" unicode="&#x2044;" horiz-adv-x="652" 
d="M582 700l-413 -700h-99l413 700h99z" />
    <glyph glyph-name="Euro" unicode="&#x20ac;" horiz-adv-x="635" 
d="M513 232h99q0 -110 -69.5 -176.5t-183.5 -66.5q-219 0 -255 249h-81v61h75q-1 11 -1 48q0 39 1 50h-75v61h81q37 242 262 242q114 0 178.5 -62t64.5 -171h-100q0 75 -37.5 114t-110.5 39q-71 0 -110 -40.5t-54 -121.5h230v-61h-236q-1 -10 -1 -47q0 -40 1 -51h236v-61
h-229q29 -167 170 -167q145 0 145 161z" />
    <glyph glyph-name="uni2113" unicode="&#x2113;" horiz-adv-x="443" 
d="M141 88q0 -37 31 -37q25 0 60 25t65 66l22 -19q-87 -134 -181 -134q-95 0 -95 95q0 31 7 58l55 237l-82 -43l12 52l80 41l30 128q18 77 64 115.5t112 38.5q42 0 70.5 -23t28.5 -65q0 -44 -33 -88.5t-94 -78.5l-81 -45l-67 -294q-4 -13 -4 -29zM224 465l35 19
q106 58 106 127q0 26 -13.5 40t-32.5 14q-22 0 -40 -19.5t-26 -53.5z" />
    <glyph glyph-name="uni2116" unicode="&#x2116;" horiz-adv-x="1154" 
d="M666 700v-700h-125l-339 536v-536h-109v700h137l327 -524v524h109zM945 717q76 0 126 -48.5t50 -124.5q0 -75 -50.5 -125t-125.5 -50q-73 0 -122.5 50t-49.5 125q0 76 49.5 124.5t122.5 48.5zM947 641q-40 0 -65.5 -27t-25.5 -69q0 -43 25.5 -71t65.5 -28q39 0 64.5 28
t25.5 71q0 42 -25.5 69t-64.5 27z" />
    <glyph glyph-name="trademark" unicode="&#x2122;" horiz-adv-x="770" 
d="M58 598v57h277v-57h-108v-234h-60v234h-109zM617 655h95v-291h-60v227l-90 -227h-48l-90 227v-227h-59v291h95l79 -210z" />
    <glyph glyph-name="estimated" unicode="&#x212e;" horiz-adv-x="497" 
d="M401 141h43q-9 -73 -60 -112.5t-125 -39.5q-92 0 -151.5 62t-59.5 179q0 119 59 183.5t149 64.5q82 0 137.5 -53t55.5 -147q0 -32 -3 -48h-323v-121q42 -80 139 -80q118 0 139 112zM123 273h241v112q-38 53 -108 53q-41 0 -77 -19t-56 -53v-93z" />
    <glyph glyph-name="uni2153" unicode="&#x2153;" horiz-adv-x="1130" 
d="M846 700l-413 -700h-99l413 700h99zM307 360h117v-90h-331v90h117v204q-49 -25 -103 -26v90q73 8 120 59h80v-327zM1037 116q0 -58 -44 -91t-115 -33q-75 0 -118 37t-43 108h95q0 -58 69 -58q27 0 43.5 12t16.5 30q0 47 -73 47h-30v82h28q65 0 65 52q0 38 -53 38
q-30 0 -46.5 -15.5t-16.5 -44.5h-94q0 79 49 113q50 35 116 35q64 0 103 -31.5t39 -85.5q0 -36 -18 -62t-46 -35q73 -25 73 -98z" />
    <glyph glyph-name="uni2154" unicode="&#x2154;" horiz-adv-x="1101" 
d="M1008 116q0 -58 -44 -91t-115 -33q-75 0 -118 37t-43 108h95q0 -58 69 -58q27 0 43.5 12t16.5 30q0 47 -73 47h-30v82h28q65 0 65 52q0 38 -53 38q-30 0 -46.5 -15.5t-16.5 -44.5h-94q0 79 49 113q50 35 116 35q64 0 103 -31.5t39 -85.5q0 -36 -18 -62t-46 -35
q73 -25 73 -98zM824 700l-413 -700h-99l413 700h99zM415 360v-89h-312v84l88 72l18 15q64 52 81 71q21 23 21 48q0 49 -55 49q-31 0 -50 -18.5t-19 -55.5h-94q0 76 49.5 120t121.5 44q65 0 104 -33.5t39 -94.5q0 -37 -17 -68q-17 -30 -40 -51q-20 -20 -72 -61l-40 -32h177z
" />
    <glyph glyph-name="uni2155" unicode="&#x2155;" horiz-adv-x="1093" 
d="M847 700l-413 -700h-99l413 700h99zM307 360h117v-90h-331v90h117v204q-49 -25 -103 -26v90q73 8 120 59h80v-327zM1000 141q0 -65 -43 -107t-113 -42q-67 0 -110 37.5t-43 103.5h95q0 -58 56 -58q62 0 62 64q0 30 -15.5 47.5t-42.5 17.5q-34 0 -52 -26h-92l37 238h244
v-90h-175l-12 -77q25 28 77 28q55 0 91 -37t36 -99z" />
    <glyph glyph-name="uni2156" unicode="&#x2156;" horiz-adv-x="1069" 
d="M823 700l-413 -700h-99l413 700h99zM976 141q0 -65 -43 -107t-113 -42q-67 0 -110 37.5t-43 103.5h95q0 -58 56 -58q62 0 62 64q0 30 -15.5 47.5t-42.5 17.5q-34 0 -52 -26h-92l37 238h244v-90h-175l-12 -77q25 28 77 28q55 0 91 -37t36 -99zM415 360v-89h-312v84l88 72
l18 15q64 52 81 71q21 23 21 48q0 49 -55 49q-31 0 -50 -18.5t-19 -55.5h-94q0 76 49.5 120t121.5 44q65 0 104 -33.5t39 -94.5q0 -37 -17 -68q-17 -30 -40 -51q-20 -20 -72 -61l-40 -32h177z" />
    <glyph glyph-name="uni2157" unicode="&#x2157;" horiz-adv-x="1058" 
d="M802 700l-413 -700h-99l413 700h99zM965 141q0 -65 -43 -107q-44 -42 -113 -42q-67 0 -110 37.5t-43 103.5h95q0 -58 56 -58q62 0 62 64q0 30 -15.5 47.5t-42.5 17.5q-34 0 -52 -26h-92l37 238h244v-90h-175l-12 -77q25 28 77 28q55 0 91 -37t36 -99zM413 388
q0 -58 -44 -91t-115 -33q-75 0 -118 37t-43 108h95q0 -58 69 -58q27 0 43.5 12t16.5 30q0 47 -73 47h-30v82h28q65 0 65 52q0 38 -53 38q-30 0 -46.5 -15.5t-16.5 -44.5h-94q0 79 49 113q50 35 116 35q64 0 103 -31.5t39 -85.5q0 -36 -18 -62t-46 -35q73 -25 73 -98z" />
    <glyph glyph-name="uni2158" unicode="&#x2158;" horiz-adv-x="1096" 
d="M839 700l-413 -700h-99l413 700h99zM1003 141q0 -65 -43 -107q-44 -42 -113 -42q-67 0 -110 37.5t-43 103.5h95q0 -58 56 -58q62 0 62 64q0 30 -15.5 47.5t-42.5 17.5q-34 0 -52 -26h-92l37 238h244v-90h-175l-12 -77q25 28 77 28q55 0 91 -37t36 -99zM422 431v-89h-47
v-71h-91v72h-191v73l186 272h96v-257h47zM284 431v132l-89 -132h89z" />
    <glyph glyph-name="uni2159" unicode="&#x2159;" horiz-adv-x="1121" 
d="M846 700l-413 -700h-99l413 700h99zM307 360h117v-90h-331v90h117v204q-49 -25 -103 -26v90q73 8 120 59h80v-327zM878 347q-38 0 -58 -28t-20 -79q31 43 93 43q59 0 97 -39.5t38 -102.5q0 -66 -45 -107.5t-109 -41.5q-69 0 -118 52t-49 164q0 107 47 163.5t125 56.5
q59 0 97.5 -30.5t44.5 -87.5h-92q-5 37 -51 37zM936 138q0 31 -16.5 48t-45.5 17t-46 -17.5t-17 -47.5q0 -31 17.5 -50t45.5 -19q29 0 45.5 19t16.5 50z" />
    <glyph glyph-name="uni215A" unicode="&#x215a;" horiz-adv-x="1067" 
d="M791 700l-413 -700h-99l413 700h99zM824 347q-38 0 -58 -28t-20 -79q31 43 93 43q59 0 97 -39.5t38 -102.5q0 -66 -45 -107.5t-109 -41.5q-69 0 -118 52t-49 164q0 107 47 163.5t125 56.5q59 0 97.5 -30.5t44.5 -87.5h-92q-5 37 -51 37zM882 138q0 31 -16.5 48t-45.5 17
t-46 -17.5t-17 -47.5q0 -31 17.5 -50t45.5 -19q29 0 45.5 19t16.5 50zM402 413q0 -65 -43 -107t-113 -42q-67 0 -110 37.5t-43 103.5h95q0 -58 56 -58q62 0 62 64q0 30 -15.5 47.5t-42.5 17.5q-34 0 -52 -26h-92l37 238h244v-90h-175l-12 -77q25 28 77 28q55 0 91 -37
t36 -99z" />
    <glyph glyph-name="oneeighth" unicode="&#x215b;" horiz-adv-x="1135" 
d="M847 700l-413 -700h-99l413 700h99zM307 360h117v-90h-331v90h117v204q-49 -25 -103 -26v90q73 8 120 59h80v-327zM1042 115q0 -57 -43.5 -90t-114.5 -33t-115 33t-44 90q0 40 22.5 68t56.5 35q-68 21 -68 92q0 56 40.5 87t107.5 31q66 0 106.5 -31t40.5 -87
q0 -71 -68 -92q34 -7 56.5 -35t22.5 -68zM832 299q0 -20 14 -32.5t38 -12.5t37.5 12.5t13.5 32.5t-13 32.5t-38 12.5q-26 0 -39 -12.5t-13 -32.5zM942 128q0 24 -15.5 38.5t-42.5 14.5q-28 0 -43.5 -14.5t-15.5 -38.5t15.5 -39t43.5 -15q27 0 42.5 15t15.5 39z" />
    <glyph glyph-name="threeeighths" unicode="&#x215c;" horiz-adv-x="1070" 
d="M782 700l-413 -700h-99l413 700h99zM977 115q0 -57 -43.5 -90t-114.5 -33t-115 33t-44 90q0 40 22.5 68t56.5 35q-68 21 -68 92q0 56 40.5 87t107.5 31q66 0 106.5 -31t40.5 -87q0 -71 -68 -92q34 -7 56.5 -35t22.5 -68zM767 299q0 -20 14 -32.5t38 -12.5t37.5 12.5
t13.5 32.5t-13 32.5t-38 12.5q-26 0 -39 -12.5t-13 -32.5zM877 128q0 24 -15.5 38.5t-42.5 14.5q-28 0 -43.5 -14.5t-15.5 -38.5t15.5 -39t43.5 -15q27 0 42.5 15t15.5 39zM413 388q0 -58 -44 -91t-115 -33q-75 0 -118 37t-43 108h95q0 -58 69 -58q27 0 43.5 12t16.5 30
q0 47 -73 47h-30v82h28q65 0 65 52q0 38 -53 38q-30 0 -46.5 -15.5t-16.5 -44.5h-94q0 79 49 113q50 35 116 35q64 0 103 -31.5t39 -85.5q0 -36 -18 -62t-46 -35q73 -25 73 -98z" />
    <glyph glyph-name="fiveeighths" unicode="&#x215d;" horiz-adv-x="1049" 
d="M956 115q0 -57 -43.5 -90t-114.5 -33t-115 33t-44 90q0 40 22.5 68t56.5 35q-68 21 -68 92q0 56 40.5 87t107.5 31q66 0 106.5 -31t40.5 -87q0 -71 -68 -92q34 -7 56.5 -35t22.5 -68zM746 299q0 -20 14 -32.5t38 -12.5t37.5 12.5t13.5 32.5t-13 32.5t-38 12.5
q-26 0 -39 -12.5t-13 -32.5zM856 128q0 24 -15.5 38.5t-42.5 14.5q-28 0 -43.5 -14.5t-15.5 -38.5t15.5 -39t43.5 -15q27 0 42.5 15t15.5 39zM791 700l-413 -700h-99l413 700h99zM402 413q0 -65 -43 -107t-113 -42q-67 0 -110 37.5t-43 103.5h95q0 -58 56 -58q62 0 62 64
q0 30 -15.5 47.5t-42.5 17.5q-34 0 -52 -26h-92l37 238h244v-90h-175l-12 -77q25 28 77 28q55 0 91 -37t36 -99z" />
    <glyph glyph-name="seveneighths" unicode="&#x215e;" horiz-adv-x="1077" 
d="M789 700l-413 -700h-99l413 700h99zM984 115q0 -57 -43.5 -90t-114.5 -33t-115 33t-44 90q0 40 22.5 68t56.5 35q-68 21 -68 92q0 56 40.5 87t107.5 31q66 0 106.5 -31t40.5 -87q0 -71 -68 -92q34 -7 56.5 -35t22.5 -68zM774 299q0 -20 14 -32.5t38 -12.5t37.5 12.5
t13.5 32.5t-13 32.5t-38 12.5q-26 0 -39 -12.5t-13 -32.5zM884 128q0 24 -15.5 38.5t-42.5 14.5q-28 0 -43.5 -14.5t-15.5 -38.5t15.5 -39t43.5 -15q27 0 42.5 15t15.5 39zM411 688v-85l-162 -332h-100l162 323h-218v94h318z" />
    <glyph glyph-name="arrowleft" unicode="&#x2190;" horiz-adv-x="661" 
d="M305 42l-262 261l262 261l54 -54l-172 -167h431v-80h-431l172 -167z" />
    <glyph glyph-name="arrowup" unicode="&#x2191;" horiz-adv-x="608" 
d="M565 313l-54 -54l-167 172v-431h-80v431l-167 -172l-54 54l261 262z" />
    <glyph glyph-name="arrowright" unicode="&#x2192;" horiz-adv-x="661" 
d="M356 41l-54 54l172 167h-431v80h431l-172 167l54 54l262 -261z" />
    <glyph glyph-name="arrowdown" unicode="&#x2193;" horiz-adv-x="608" 
d="M551 262l-261 -262l-261 262l54 54l167 -172v431h80v-431l167 172z" />
    <glyph glyph-name="partialdiff" unicode="&#x2202;" horiz-adv-x="628" 
d="M470 340q0 133 -45 201.5t-128 68.5q-103 0 -117 -97h-112q13 94 72.5 146.5t152.5 52.5q40 0 77 -9.5t74.5 -35.5t64.5 -65.5t44 -104t17 -147.5q0 -176 -72.5 -274t-199.5 -98q-109 0 -179.5 69.5t-70.5 175.5q0 103 65 170t164 67q140 0 193 -120zM436 214
q0 64 -37.5 104t-99.5 40t-100 -40t-38 -103q0 -62 37.5 -98.5t100.5 -36.5q62 0 99.5 36.5t37.5 97.5z" />
    <glyph glyph-name="product" unicode="&#x220f;" horiz-adv-x="809" 
d="M623 611v-611h-101v611h-235v-611h-101v611h-93v89h623v-89h-93z" />
    <glyph glyph-name="summation" unicode="&#x2211;" horiz-adv-x="695" 
d="M209 104h438v-104h-589v111l259 238l-239 242v109h538v-103h-384l237 -248z" />
    <glyph glyph-name="minus" unicode="&#x2212;" 
d="M506 358v-92h-412v92h412z" />
    <glyph glyph-name="radical" unicode="&#x221a;" horiz-adv-x="609" 
d="M581 700l-254 -700h-93l-217 510h111l151 -372l199 562h103z" />
    <glyph glyph-name="infinity" unicode="&#x221e;" horiz-adv-x="729" 
d="M706 275q0 -99 -50.5 -162t-129.5 -63q-65 0 -108.5 35t-53.5 97q-10 -62 -53.5 -97t-107.5 -35q-79 0 -129.5 63t-50.5 162q0 101 51 165t131 64q61 0 104 -32.5t55 -89.5q12 56 55.5 89t104.5 33q80 0 131 -64t51 -165zM316 278q0 52 -29.5 84.5t-75.5 32.5
q-45 0 -71.5 -32t-26.5 -87t26 -85.5t72 -30.5t75.5 33t29.5 85zM615 276q0 56 -26 87.5t-72 31.5t-75 -32.5t-29 -84.5t29.5 -85t75.5 -33t71.5 30.5t25.5 85.5z" />
    <glyph glyph-name="integral" unicode="&#x222b;" horiz-adv-x="299" 
d="M195 557v-587q0 -89 -34 -125.5t-117 -36.5h-51v90h35q33 0 47.5 16t14.5 51v585q0 89 34 125t117 36h65v-91h-48q-34 0 -48.5 -14.5t-14.5 -48.5z" />
    <glyph glyph-name="approxequal" unicode="&#x2248;" 
d="M409 412q64 0 97 27v-87q-42 -20 -100 -20q-35 0 -98 21q-63 22 -104 22q-66 0 -110 -32v84q44 29 112 29q37 0 100 -22q59 -22 103 -22zM409 247q65 0 97 26v-87q-42 -20 -100 -20q-35 0 -98 21q-63 22 -104 22q-66 0 -110 -32v84q44 29 112 29q34 0 100 -21
q59 -22 103 -22z" />
    <glyph glyph-name="notequal" unicode="&#x2260;" 
d="M506 351h-135l-43 -78h178v-87h-226l-63 -114l-66 38l42 76h-99v87h147l44 78h-191v87h239l70 126l65 -38l-49 -88h87v-87z" />
    <glyph glyph-name="lessequal" unicode="&#x2264;" 
d="M513 540l-305 -144l305 -144l-41 -80l-371 176v96l371 176zM84 92h432v-92h-432v92z" />
    <glyph glyph-name="greaterequal" unicode="&#x2265;" 
d="M87 540l41 80l371 -176v-96l-371 -176l-41 80l305 144zM516 92v-92h-432v92h432z" />
    <glyph glyph-name="lozenge" unicode="&#x25ca;" horiz-adv-x="532" 
d="M519 336l-253 -347l-253 347l253 346zM419 336l-153 205l-154 -205l154 -206z" />
    <glyph glyph-name="NULL" horiz-adv-x="0" 
 />
    <glyph glyph-name="zero.osf" horiz-adv-x="619" 
d="M566 274q0 -128 -70.5 -206.5t-185.5 -78.5q-116 0 -186.5 78.5t-70.5 206.5t70.5 206t186.5 78t186 -78t70 -206zM467 271q0 86 -44 138t-116 52q-69 0 -110.5 -50t-41.5 -134q0 -87 43.5 -140t115.5 -53q69 0 111 51t42 136z" />
    <glyph glyph-name="one.osf" horiz-adv-x="577" 
d="M341 96h183v-96h-471v96h183v360h-183v96h471v-96h-183v-360z" />
    <glyph glyph-name="two.osf" horiz-adv-x="565" 
d="M512 97v-97h-444v88l164 108q87 58 122.5 98t35.5 82q0 41 -29 65.5t-76 24.5q-51 0 -85.5 -30.5t-39.5 -82.5h-107q9 96 71 150.5t161 54.5q95 0 153 -48q58 -46 58 -125q0 -71 -42 -117q-42 -48 -110 -91l-124 -80h292z" />
    <glyph glyph-name="three.osf" horiz-adv-x="610" 
d="M547 45q0 -89 -67.5 -143.5t-175.5 -54.5q-116 0 -188.5 64.5t-72.5 167.5h107q0 -62 41 -97.5t110 -35.5q60 0 99 29t39 73q0 51 -42.5 78.5t-119.5 27.5h-42v93h38q68 0 109.5 31t41.5 83q0 47 -34 72.5t-92 25.5q-66 0 -103 -36.5t-37 -102.5h-108q0 109 68 174
q67 64 184 64q103 0 166 -50t63 -130q0 -69 -37 -112.5t-97 -53.5q150 -37 150 -167z" />
    <glyph glyph-name="four.osf" horiz-adv-x="628" 
d="M565 -2h-92v-137h-106v139h-324v88l307 461h123v-455h92v-96zM147 94h220v330z" />
    <glyph glyph-name="five.osf" horiz-adv-x="605" 
d="M537 90q0 -105 -69.5 -172.5t-177.5 -67.5q-104 0 -170.5 65t-71.5 168h107q7 -65 43.5 -100t94.5 -35q65 0 100.5 36.5t35.5 102.5q0 63 -35.5 99.5t-94.5 36.5q-67 0 -112 -42h-113l59 368h369v-96h-289l-31 -194q50 57 141 57q94 0 154 -63.5t60 -162.5z" />
    <glyph glyph-name="six.osf" horiz-adv-x="612" 
d="M549 227q0 -104 -68 -171t-174 -67q-123 0 -193.5 95.5t-70.5 264.5q0 99 24 171t65.5 109.5t85.5 54t94 16.5q89 0 146.5 -51t70.5 -142h-108q-13 94 -113 94q-80 0 -124 -66.5t-44 -194.5q26 57 75 86.5t112 29.5q97 0 159.5 -65t62.5 -164zM439 219q0 61 -37 99.5
t-96 38.5q-60 0 -96.5 -39t-36.5 -100q0 -60 36 -95t97 -35t97 35.5t36 95.5z" />
    <glyph glyph-name="seven.osf" horiz-adv-x="570" 
d="M527 550v-111l-279 -577h-107l281 583h-399v105h504z" />
    <glyph glyph-name="eight.osf" horiz-adv-x="595" 
d="M545 187q0 -89 -68 -143.5t-179 -54.5t-179 54.5t-68 143.5q0 66 37.5 112.5t100.5 57.5q-54 14 -87 59t-33 103q0 80 63.5 130.5t165.5 50.5t165.5 -50.5t63.5 -130.5q0 -58 -33 -103t-87 -59q63 -11 100.5 -57.5t37.5 -112.5zM298 402q56 0 89 27.5t33 76.5
q0 46 -31.5 70.5t-90.5 24.5t-90.5 -24.5t-31.5 -70.5q0 -49 33 -76.5t89 -27.5zM436 196q0 55 -37.5 86t-100.5 31t-100.5 -31t-37.5 -86q0 -50 38 -79t100 -29q63 0 100.5 29t37.5 79z" />
    <glyph glyph-name="nine.osf" horiz-adv-x="612" 
d="M53 320q0 104 68 171t174 67q123 0 193.5 -95.5t70.5 -268.5q0 -98 -23 -169t-62 -108t-82 -53.5t-93 -16.5q-91 0 -152 52t-74 141h108q7 -45 40 -69.5t83 -24.5q158 0 158 261q-26 -57 -75 -86.5t-112 -29.5q-97 0 -159.5 65t-62.5 164zM163 328q0 -61 37 -100t96 -39
t96 39.5t37 100.5q0 60 -36 95t-97 35t-97 -35.5t-36 -95.5z" />
    <glyph glyph-name="zero.tf" 
d="M541 345q0 -356 -241 -356t-241 356q0 355 241 355t241 -355zM433 345q0 256 -133 256t-133 -256q0 -257 133 -257t133 257z" />
    <glyph glyph-name="one.tf" 
d="M373 97h174v-97h-453v97h174v459q-70 -52 -174 -64v100q110 18 187 96h92v-591z" />
    <glyph glyph-name="two.tf" 
d="M553 96v-96h-489v103l162 139l20 17q62 53 105 94q72 70 72 133q0 52 -34.5 83.5t-94.5 31.5q-63 0 -101 -37t-41 -101h-105q0 107 73 172t186 65q103 0 164 -54.5t61 -143.5q0 -58 -27 -107q-24 -47 -65 -88q-35 -35 -101 -90l-22 -19l-121 -102h358z" />
    <glyph glyph-name="three.tf" 
d="M552 187q0 -89 -67.5 -143.5t-175.5 -54.5q-116 0 -188.5 64.5t-72.5 167.5h107q0 -62 41 -97.5t110 -35.5q60 0 99 29t39 73q0 51 -42.5 78.5t-119.5 27.5h-42v93h38q68 0 109.5 31t41.5 83q0 47 -34 72.5t-92 25.5q-66 0 -103 -36.5t-37 -102.5h-108q0 109 68 174
q67 64 184 64q103 0 166 -50t63 -130q0 -69 -37 -112.5t-97 -53.5q150 -37 150 -167z" />
    <glyph glyph-name="four.tf" 
d="M561 137h-92v-137h-106v139h-324v88l307 461h123v-455h92v-96zM143 233h220v330z" />
    <glyph glyph-name="five.tf" 
d="M544 229q0 -105 -69.5 -172.5t-177.5 -67.5q-104 0 -170.5 65t-71.5 168h107q7 -65 43.5 -100t94.5 -35q65 0 100.5 36.5t35.5 102.5q0 63 -35.5 99.5t-94.5 36.5q-67 0 -112 -42h-113l59 368h369v-96h-289l-31 -194q49 57 141 57q94 0 154 -63.5t60 -162.5z" />
    <glyph glyph-name="six.tf" 
d="M553 227q0 -104 -68 -171t-174 -67q-123 0 -193.5 95.5t-70.5 264.5q0 99 24 171t65.5 109.5t85.5 54t94 16.5q89 0 146.5 -51t70.5 -142h-108q-13 94 -113 94q-80 0 -124 -66.5t-44 -194.5q26 57 75 86.5t112 29.5q97 0 159.5 -65t62.5 -164zM443 219q0 61 -37 99.5
t-96 38.5q-60 0 -96.5 -39t-36.5 -100q0 -60 36 -95t97 -35t97 35.5t36 95.5z" />
    <glyph glyph-name="seven.tf" 
d="M552 688v-111l-279 -577h-107l281 583h-399v105h504z" />
    <glyph glyph-name="eight.tf" 
d="M547 187q0 -89 -68 -143.5t-179 -54.5t-179 54.5t-68 143.5q0 66 37.5 112.5t100.5 57.5q-54 14 -87 59t-33 103q0 80 63.5 130.5t165.5 50.5t165.5 -50.5t63.5 -130.5q0 -58 -33 -103t-87 -59q63 -11 100.5 -57.5t37.5 -112.5zM300 402q56 0 89 27.5t33 76.5
q0 46 -31.5 70.5t-90.5 24.5t-90.5 -24.5t-31.5 -70.5q0 -49 33 -76.5t89 -27.5zM438 196q0 55 -37.5 86t-100.5 31t-100.5 -31t-37.5 -86q0 -50 38 -79t100 -29q63 0 100.5 29t37.5 79z" />
    <glyph glyph-name="nine.tf" 
d="M47 462q0 104 68 171t174 67q123 0 193.5 -95.5t70.5 -268.5q0 -98 -23 -169t-62 -108t-82 -53.5t-93 -16.5q-91 0 -152 52t-74 141h108q7 -45 40 -69.5t83 -24.5q158 0 158 261q-26 -57 -75 -86.5t-112 -29.5q-97 0 -159.5 65t-62.5 164zM157 470q0 -61 37 -100t96 -39
t96 39.5t37 100.5q0 60 -36 95t-97 35t-97 -35.5t-36 -95.5z" />
    <glyph glyph-name="zero.dnom" horiz-adv-x="381" 
d="M348 210q0 -102 -40 -160t-118 -58t-118 58t-40 160t40 160t118 58t118 -58t40 -160zM248 210q0 128 -58 128q-57 0 -57 -128q0 -129 57 -129q58 0 58 129z" />
    <glyph glyph-name="one.dnom" horiz-adv-x="400" 
d="M249 89h117v-90h-331v90h117v204q-49 -25 -103 -26v90q73 8 120 59h80v-327z" />
    <glyph glyph-name="two.dnom" horiz-adv-x="378" 
d="M351 88v-89h-312v84l88 72l18 15q64 52 81 71q21 23 21 48q0 49 -55 49q-31 0 -50 -18.5t-19 -55.5h-94q0 76 49.5 120t121.5 44q65 0 104 -33.5t39 -94.5q0 -37 -17 -68q-17 -30 -40 -51q-20 -20 -72 -61l-40 -32h177z" />
    <glyph glyph-name="three.dnom" horiz-adv-x="376" 
d="M348 116q0 -58 -44 -91t-115 -33q-75 0 -118 37t-43 108h95q0 -58 69 -58q27 0 43.5 12t16.5 30q0 47 -73 47h-30v82h28q65 0 65 52q0 38 -53 38q-30 0 -46.5 -15.5t-16.5 -44.5h-94q0 79 49 113q50 35 116 35q64 0 103 -31.5t39 -85.5q0 -36 -18 -62t-46 -35
q73 -25 73 -98z" />
    <glyph glyph-name="four.dnom" horiz-adv-x="371" 
d="M351 159v-89h-47v-71h-91v72h-191v73l186 272h96v-257h47zM213 159v132l-89 -132h89z" />
    <glyph glyph-name="five.dnom" horiz-adv-x="375" 
d="M342 141q0 -65 -43 -107q-44 -42 -113 -42q-67 0 -110 37.5t-43 103.5h95q0 -58 56 -58q62 0 62 64q0 30 -15.5 47.5t-42.5 17.5q-34 0 -52 -26h-92l37 238h244v-90h-175l-12 -77q25 28 77 28q55 0 91 -37t36 -99z" />
    <glyph glyph-name="six.dnom" horiz-adv-x="373" 
d="M197 347q-38 0 -58 -28t-20 -79q31 43 93 43q59 0 97 -39.5t38 -102.5q0 -66 -45 -107.5t-109 -41.5q-69 0 -118 52t-49 164q0 107 47 163.5t125 56.5q59 0 97.5 -30.5t44.5 -87.5h-92q-5 37 -51 37zM255 138q0 31 -16.5 48t-45.5 17t-46 -17.5t-17 -47.5q0 -31 17.5 -50
t45.5 -19q29 0 45.5 19t16.5 50z" />
    <glyph glyph-name="seven.dnom" horiz-adv-x="362" 
d="M340 416v-85l-162 -332h-100l162 323h-218v94h318z" />
    <glyph glyph-name="eight.dnom" horiz-adv-x="377" 
d="M347 115q0 -57 -43.5 -90t-114.5 -33t-115 33t-44 90q0 40 22.5 68t56.5 35q-68 21 -68 92q0 56 40.5 87t107.5 31q66 0 106.5 -31t40.5 -87q0 -71 -68 -92q34 -7 56.5 -35t22.5 -68zM137 299q0 -20 14 -32.5t38 -12.5t37.5 12.5t13.5 32.5t-13 32.5t-38 12.5
q-26 0 -39 -12.5t-13 -32.5zM247 128q0 24 -15.5 38.5t-42.5 14.5q-28 0 -43.5 -14.5t-15.5 -38.5t15.5 -39t43.5 -15q27 0 42.5 15t15.5 39z" />
    <glyph glyph-name="nine.dnom" horiz-adv-x="373" 
d="M182 75q72 0 72 105q-31 -43 -93 -43q-59 0 -97 39.5t-38 101.5q0 67 44.5 108.5t109.5 41.5q69 0 118 -52t49 -165q0 -108 -44.5 -163.5t-121.5 -55.5q-60 0 -101 30.5t-47 87.5h92q2 -15 17.5 -25t39.5 -10zM116 281q0 -29 17.5 -45.5t46.5 -16.5q28 0 45.5 16.5
t17.5 45.5q0 30 -18 49t-45 19q-29 0 -46.5 -18.5t-17.5 -49.5z" />
    <glyph glyph-name="zero.numr" horiz-adv-x="381" 
d="M348 482q0 -102 -40 -160t-118 -58t-118 58t-40 160t40 160t118 58t118 -58t40 -160zM248 482q0 128 -58 128q-57 0 -57 -128q0 -129 57 -129q58 0 58 129z" />
    <glyph glyph-name="one.numr" horiz-adv-x="400" 
d="M249 361h117v-90h-331v90h117v204q-49 -25 -103 -26v90q73 8 120 59h80v-327z" />
    <glyph glyph-name="two.numr" horiz-adv-x="378" 
d="M351 360v-89h-312v84l88 72l18 15q64 52 81 71q21 23 21 48q0 49 -55 49q-31 0 -50 -18.5t-19 -55.5h-94q0 76 49.5 120t121.5 44q65 0 104 -33.5t39 -94.5q0 -37 -17 -68q-17 -30 -40 -51q-20 -20 -72 -61l-40 -32h177z" />
    <glyph glyph-name="three.numr" horiz-adv-x="376" 
d="M348 388q0 -58 -44 -91t-115 -33q-75 0 -118 37t-43 108h95q0 -58 69 -58q27 0 43.5 12t16.5 30q0 47 -73 47h-30v82h28q65 0 65 52q0 38 -53 38q-30 0 -46.5 -15.5t-16.5 -44.5h-94q0 79 49 113q50 35 116 35q64 0 103 -31.5t39 -85.5q0 -36 -18 -62t-46 -35
q73 -25 73 -98z" />
    <glyph glyph-name="four.numr" horiz-adv-x="371" 
d="M351 431v-89h-47v-71h-91v72h-191v73l186 272h96v-257h47zM213 431v132l-89 -132h89z" />
    <glyph glyph-name="five.numr" horiz-adv-x="375" 
d="M342 413q0 -65 -43 -107q-44 -42 -113 -42q-67 0 -110 37.5t-43 103.5h95q0 -58 56 -58q62 0 62 64q0 30 -15.5 47.5t-42.5 17.5q-34 0 -52 -26h-92l37 238h244v-90h-175l-12 -77q25 28 77 28q55 0 91 -37t36 -99z" />
    <glyph glyph-name="six.numr" horiz-adv-x="373" 
d="M197 619q-38 0 -58 -28t-20 -79q31 43 93 43q59 0 97 -39.5t38 -102.5q0 -66 -45 -107.5t-109 -41.5q-69 0 -118 52t-49 164q0 107 47 163.5t125 56.5q59 0 97.5 -30.5t44.5 -87.5h-92q-5 37 -51 37zM255 410q0 31 -16.5 48t-45.5 17t-46 -17.5t-17 -47.5q0 -31 17.5 -50
t45.5 -19q29 0 45.5 19t16.5 50z" />
    <glyph glyph-name="seven.numr" horiz-adv-x="362" 
d="M340 688v-85l-162 -332h-100l162 323h-218v94h318z" />
    <glyph glyph-name="eight.numr" horiz-adv-x="377" 
d="M347 387q0 -57 -43.5 -90t-114.5 -33t-115 33t-44 90q0 40 22.5 68t56.5 35q-68 21 -68 92q0 56 40.5 87t107.5 31q66 0 106.5 -31t40.5 -87q0 -71 -68 -92q34 -7 56.5 -35t22.5 -68zM137 571q0 -20 14 -32.5t38 -12.5t37.5 12.5t13.5 32.5t-13 32.5t-38 12.5
q-26 0 -39 -12.5t-13 -32.5zM247 400q0 24 -15.5 38.5t-42.5 14.5q-28 0 -43.5 -14.5t-15.5 -38.5t15.5 -39t43.5 -15q27 0 42.5 15t15.5 39z" />
    <glyph glyph-name="nine.numr" horiz-adv-x="373" 
d="M182 347q72 0 72 105q-31 -43 -93 -43q-59 0 -97 39.5t-38 101.5q0 67 44.5 108.5t109.5 41.5q69 0 118 -52t49 -165q0 -108 -44.5 -163.5t-121.5 -55.5q-60 0 -101 30.5t-47 87.5h92q2 -15 17.5 -25t39.5 -10zM116 553q0 -29 17.5 -45.5t46.5 -16.5q28 0 45.5 16.5
t17.5 45.5q0 30 -18 49t-45 19q-29 0 -46.5 -18.5t-17.5 -49.5z" />
    <glyph glyph-name="exclamdown.cap" horiz-adv-x="307" 
d="M214 650v-125h-121v125h121zM96 -50v278l23 215h69l22 -215v-278h-114z" />
    <glyph glyph-name="questiondown.cap" horiz-adv-x="530" 
d="M344 667v-125h-122v125h122zM331 453v-34q0 -97 -75 -152l-62 -46q-46 -33 -46 -91q0 -88 97 -88q58 0 91 31t37 83h104q-8 -94 -71.5 -147t-165.5 -53q-95 0 -146 46t-51 126q0 92 72 144l60 46q60 46 60 108v27h96z" />
    <glyph glyph-name="periodcentered.cap" horiz-adv-x="207" 
d="M43 340v125h121v-125h-121z" />
    <glyph glyph-name="bullet.cap" horiz-adv-x="261" 
d="M43 230v181h175v-181h-175z" />
    <glyph glyph-name="hyphen.cap" horiz-adv-x="373" 
d="M330 414v-101h-287v101h287z" />
    <glyph glyph-name="endash.cap" horiz-adv-x="552" 
d="M509 304h-466v91h466v-91z" />
    <glyph glyph-name="emdash.cap" horiz-adv-x="1019" 
d="M976 304h-933v91h933v-91z" />
    <glyph glyph-name="guillemotleft.cap" horiz-adv-x="613" 
d="M292 497l-134 -148l134 -149l-62 -58l-182 207l182 206zM535 497l-134 -148l134 -149l-62 -58l-182 207l182 206z" />
    <glyph glyph-name="guillemotright.cap" horiz-adv-x="613" 
d="M78 497l62 58l182 -206l-182 -207l-62 58l134 149zM321 497l62 58l182 -206l-182 -207l-62 58l134 149z" />
    <glyph glyph-name="guilsinglleft.cap" horiz-adv-x="370" 
d="M292 497l-134 -148l134 -149l-62 -58l-182 207l182 206z" />
    <glyph glyph-name="guilsinglright.cap" horiz-adv-x="370" 
d="M78 497l62 58l182 -206l-182 -207l-62 58l134 149z" />
    <glyph glyph-name="at.cap" horiz-adv-x="912" 
d="M854 394q0 -118 -54 -194t-137 -76q-49 0 -79.5 27t-32.5 69q-25 -45 -67.5 -70.5t-92.5 -25.5q-72 0 -114 51q-42 53 -42 130q0 97 59.5 170.5t151.5 73.5q88 0 124 -73l14 64h94l-53 -236q-6 -27 -6 -48q0 -64 48 -64q44 0 74 56.5t30 137.5q0 124 -75.5 198t-198.5 74
q-147 2 -252.5 -103.5t-102.5 -248.5q0 -127 79.5 -206t204.5 -79q71 0 131 30l23 -73q-74 -36 -163 -36q-157 0 -258 99.5t-101 257.5q-2 116 57.5 217t163.5 160t225 57q158 0 254 -92.5t96 -246.5zM543 374q0 47 -23 74t-65 27q-58 0 -93 -49t-35 -114q0 -52 23.5 -81.5
t63.5 -29.5q55 0 92 54.5t37 118.5z" />
    <glyph glyph-name="acute.cap" horiz-adv-x="192" 
d="M81 776h-81l112 174l80 -61z" />
    <glyph glyph-name="breve.cap" horiz-adv-x="237" 
d="M237 887q0 -50 -32.5 -80.5t-86.5 -30.5q-53 0 -85.5 30.5t-32.5 80.5q0 25 6 40h57q-3 -13 -3 -29q0 -29 15.5 -46.5t42.5 -17.5q28 0 43.5 17.5t15.5 46.5q0 16 -3 29h57q6 -15 6 -40z" />
    <glyph glyph-name="caron.cap" horiz-adv-x="322" 
d="M227 941h95l-132 -166h-58l-132 166h95l65 -82z" />
    <glyph glyph-name="cedilla.cap" horiz-adv-x="206" 
d="M206 -123q0 -37 -28 -61t-72 -24q-63 0 -106 37l30 46q36 -30 72 -30q21 0 32.5 9.5t11.5 24.5q0 36 -91 36v86h49v-47q46 -2 74 -23t28 -54z" />
    <glyph glyph-name="circumflex.cap" horiz-adv-x="322" 
d="M227 776l-67 82l-65 -82h-95l132 166h58l132 -166h-95z" />
    <glyph glyph-name="dieresis.cap" horiz-adv-x="291" 
d="M96 884v-108h-96v108h96zM291 884v-108h-96v108h96z" />
    <glyph glyph-name="dotaccent.cap" horiz-adv-x="121" 
d="M0 776v125h121v-125h-121z" />
    <glyph glyph-name="grave.cap" horiz-adv-x="192" 
d="M111 776l-111 113l80 61l112 -174h-81z" />
    <glyph glyph-name="hungarumlaut.cap" horiz-adv-x="236" 
d="M115 926l-52 -150h-63l40 150h75zM236 926l-51 -150h-64l40 150h75z" />
    <glyph glyph-name="macron.cap" horiz-adv-x="285" 
d="M285 776h-285v73h285v-73z" />
    <glyph glyph-name="ring.cap" horiz-adv-x="206" 
d="M102 950q45 0 74.5 -29t29.5 -74q0 -46 -29.5 -75t-74.5 -29q-44 0 -73 29.5t-29 74.5t29 74t73 29zM103 900q-23 0 -37 -15t-14 -38q0 -24 13.5 -39t37.5 -15q23 0 37 15t14 39q0 23 -14 38t-37 15z" />
    <glyph glyph-name="tilde.cap" horiz-adv-x="313" 
d="M220 776q-25 0 -74 33q-32 26 -52 26q-32 0 -35 -53h-59q2 59 27.5 94.5t65.5 35.5q30 0 76 -34q35 -25 50 -25q28 0 34 56h60q-2 -60 -27.5 -96.5t-65.5 -36.5z" />
    </font>
</defs>
</svg>
